<svg xmlns="http://www.w3.org/2000/svg" xmlns:xlink="http://www.w3.org/1999/xlink" font-size="10px" font-family="sans-serif" fill="none" stroke="none" stroke-width="1.5" width="430" height="225">
     <g transform="translate(20,5)">
          <path d="M0.0,116.31406283581676L4.040404040404041,120.26197569987134L8.080808080808081,77.74952948979583L12.121212121212123,95.46324507078303L16.161616161616163,47.16433801779104L20.2020202020202,90.01426879709398L24.242424242424246,40.942493454741395L28.28282828282828,72.07091490240762L32.323232323232325,30.189522434188547L36.36363636363637,43.31259864872152L40.4040404040404,9.726927477238945L44.44444444444445,37.40847171295263L48.48484848484849,13.461250826785431L52.52525252525253,24.81813070964654L56.56565656565656,0.0L60.60606060606061,34.77088442468897L64.64646464646465,55.859573189662L68.68686868686869,24.212625557137102L72.72727272727273,9.679017227517619L76.76767676767678,10.942905576748132L80.8080808080808,18.901078909438013L84.84848484848484,45.22121174334265L88.8888888888889,66.65314878344986L92.92929292929294,21.705714998037223L96.96969696969698,71.73075370656633L101.01010101010101,70.05705537311789L105.05050505050507,61.804539671349914L109.09090909090911,79.32726852563741L113.13131313131312,85.604415257682L117.17171717171718,69.81956264825953L121.21212121212122,95.48911145080297L125.25252525252526,76.3411698101264L129.2929292929293,89.40283608549L133.33333333333334,115.18894479700951L137.37373737373738,107.700906496809L141.41414141414143,119.87936253321708L145.45454545454547,145.7051666551786L149.4949494949495,137.62129040850368L153.53535353535355,119.13592805349778L157.5757575757576,133.99401086159116L161.6161616161616,159.13104438064786L165.65656565656568,177.84419622675307L169.6969696969697,181.38408364991122L173.73737373737373,158.52367977126468L177.7777777777778,161.73357027583117L181.8181818181818,170.02185043706805L185.85858585858588,169.1954954377726L189.8989898989899,154.20599413395178L193.93939393939397,143.93620709058618L197.97979797979798,200.0L202.02020202020202,178.2867226253955L206.06060606060606,181.5847123382883L210.10101010101013,194.71470673324418L214.14141414141415,184.34056522360436L218.18181818181822,128.70556275002448L222.22222222222223,121.07973372224356L226.26262626262624,166.31021709668317L230.3030303030303,162.42281259824887L234.34343434343435,128.9068960192567L238.3838383838384,122.83025133252357L242.42424242424244,113.15265072481131L246.4646464646465,130.0756399580111L250.50505050505052,103.4872078722412L254.5454545454546,96.2365851359753L258.5858585858586,75.26420388060677L262.62626262626264,108.51813921918422L266.6666666666667,80.17423018828373L270.7070707070707,48.16275842553256L274.74747474747477,33.10382153659347L278.7878787878788,47.46631573163151L282.82828282828285,74.29997832547839L286.8686868686869,65.99263146532095L290.90909090909093,29.437861501855394L294.949494949495,25.719786414953774L298.989898989899,29.942579412893366L303.030303030303,9.037138045499631L307.0707070707071,52.57064069538305L311.11111111111114,27.8324742143503L315.1515151515152,10.094468760220906L319.1919191919192,50.18527016253037L323.2323232323232,63.08574978448104L327.27272727272725,22.00013821001943L331.31313131313135,26.361452663358335L335.3535353535354,22.79145542222537L339.3939393939394,9.58778202586521L343.4343434343434,33.0614161112446L347.47474747474746,42.85727345148041L351.51515151515156,49.08495296639367L355.5555555555556,54.53672557486965L359.5959595959596,84.8836751505059L363.6363636363636,92.31483456781757L367.67676767676767,88.53148793671659L371.71717171717177,89.32996602219457L375.75757575757575,94.83486952665443L379.7979797979798,123.14987451779821L383.83838383838383,125.00901010410395L387.87878787878793,118.23308370765969L391.919191919192,135.51583940788564L395.95959595959596,109.32042011100648L400.0,110.00336352172478" fill="none" stroke="rgb(31,119,180)" stroke-width="5"/>
     </g>
     <g transform="translate(20,5)">
          <path d="M0.0,116.31406283581676L4.040404040404041,120.26197569987134L8.080808080808081,77.74952948979583L12.121212121212123,95.46324507078303L16.161616161616163,47.16433801779104L20.2020202020202,90.01426879709398L24.242424242424246,40.942493454741395L28.28282828282828,72.07091490240762L32.323232323232325,30.189522434188547L36.36363636363637,43.31259864872152L40.4040404040404,9.726927477238945L44.44444444444445,37.40847171295263L48.48484848484849,13.461250826785431L52.52525252525253,24.81813070964654L56.56565656565656,0.0L60.60606060606061,34.77088442468897L64.64646464646465,55.859573189662L68.68686868686869,24.212625557137102L72.72727272727273,9.679017227517619L76.76767676767678,10.942905576748132L80.8080808080808,18.901078909438013L84.84848484848484,45.22121174334265L88.8888888888889,66.65314878344986L92.92929292929294,21.705714998037223L96.96969696969698,71.73075370656633L101.01010101010101,70.05705537311789L105.05050505050507,61.804539671349914L109.09090909090911,79.32726852563741L113.13131313131312,85.604415257682L117.17171717171718,69.81956264825953L121.21212121212122,95.48911145080297L125.25252525252526,76.3411698101264L129.2929292929293,89.40283608549L133.33333333333334,115.18894479700951L137.37373737373738,107.700906496809L141.41414141414143,119.87936253321708L145.45454545454547,145.7051666551786L149.4949494949495,137.62129040850368L153.53535353535355,119.13592805349778L157.5757575757576,133.99401086159116L161.6161616161616,159.13104438064786L165.65656565656568,177.84419622675307L169.6969696969697,181.38408364991122L173.73737373737373,158.52367977126468L177.7777777777778,161.73357027583117L181.8181818181818,170.02185043706805L185.85858585858588,169.1954954377726L189.8989898989899,154.20599413395178L193.93939393939397,143.93620709058618L197.97979797979798,200.0L202.02020202020202,178.2867226253955L206.06060606060606,181.5847123382883L210.10101010101013,194.71470673324418L214.14141414141415,184.34056522360436L218.18181818181822,128.70556275002448L222.22222222222223,121.07973372224356L226.26262626262624,166.31021709668317L230.3030303030303,162.42281259824887L234.34343434343435,128.9068960192567L238.3838383838384,122.83025133252357L242.42424242424244,113.15265072481131L246.4646464646465,130.0756399580111L250.50505050505052,103.4872078722412L254.5454545454546,96.2365851359753L258.5858585858586,75.26420388060677L262.62626262626264,108.51813921918422L266.6666666666667,80.17423018828373L270.7070707070707,48.16275842553256L274.74747474747477,33.10382153659347L278.7878787878788,47.46631573163151L282.82828282828285,74.29997832547839L286.8686868686869,65.99263146532095L290.90909090909093,29.437861501855394L294.949494949495,25.719786414953774L298.989898989899,29.942579412893366L303.030303030303,9.037138045499631L307.0707070707071,52.57064069538305L311.11111111111114,27.8324742143503L315.1515151515152,10.094468760220906L319.1919191919192,50.18527016253037L323.2323232323232,63.08574978448104L327.27272727272725,22.00013821001943L331.31313131313135,26.361452663358335L335.3535353535354,22.79145542222537L339.3939393939394,9.58778202586521L343.4343434343434,33.0614161112446L347.47474747474746,42.85727345148041L351.51515151515156,49.08495296639367L355.5555555555556,54.53672557486965L359.5959595959596,84.8836751505059L363.6363636363636,92.31483456781757L367.67676767676767,88.53148793671659L371.71717171717177,89.32996602219457L375.75757575757575,94.83486952665443L379.7979797979798,123.14987451779821L383.83838383838383,125.00901010410395L387.87878787878793,118.23308370765969L391.919191919192,135.51583940788564L395.95959595959596,109.32042011100648L400.0,110.00336352172478" fill="none" stroke="rgb(255,0,0)" stroke-width="1"/>
     </g>
</svg>
