<svg xmlns="http://www.w3.org/2000/svg" xmlns:xlink="http://www.w3.org/1999/xlink" font-size="10px" font-family="sans-serif" fill="none" stroke="none" stroke-width="1.5" width="450" height="495">
     <g transform="translate(20,5)">
          <g>
               <text pointer-events="none" y="3" dy=".71em" transform="translate(100.0,0)" fill="rgb(0,0,0)" text-anchor="middle">linear</text>
          </g>
          <g>
               <path d="M0.0,90.15545444519287L8.947368421052632,66.89823360086471L17.894736842105264,35.95591691943575L26.842105263157894,19.0L35.78947368421053,28.037247974707896L44.73684210526316,48.39085394903489L53.68421052631579,72.81594611921068L62.63157894736842,118.90641172587644L71.57894736842105,134.07014255971285L80.52631578947368,149.0L80.52631578947368,149.0L71.57894736842105,149.0L62.63157894736842,149.0L53.68421052631579,149.0L44.73684210526316,149.0L35.78947368421053,149.0L26.842105263157894,149.0L17.894736842105264,149.0L8.947368421052632,149.0L0.0,149.0ZM80.52631578947368,149.0L89.47368421052632,145.09316198854626L98.42105263157895,135.84642851768254L107.36842105263158,109.82447559012036L116.31578947368422,81.0967763431599L125.26315789473684,51.105601383953086L134.21052631578948,31.01636199850965L143.1578947368421,33.935057365555L152.10526315789474,31.076600321904394L161.05263157894737,58.05059989766934L170.0,99.69344055290122L170.0,149.0L161.05263157894737,149.0L152.10526315789474,149.0L143.1578947368421,149.0L134.21052631578948,149.0L125.26315789473684,149.0L116.31578947368422,149.0L107.36842105263158,149.0L98.42105263157895,149.0L89.47368421052632,149.0L80.52631578947368,149.0Z" fill="rgb(31,119,180)"/>
          </g>
     </g>
     <g transform="translate(20,5)">
          <g transform="translate(210,0)">
               <text pointer-events="none" y="3" dy=".71em" transform="translate(100.0,0)" fill="rgb(0,0,0)" text-anchor="middle">step-before</text>
          </g>
          <g transform="translate(210,0)">
               <path d="M0.0,90.15545444519287V66.89823360086471L8.947368421052632,66.89823360086471V35.95591691943575L17.894736842105264,35.95591691943575V19.0L26.842105263157894,19.0V28.037247974707896L35.78947368421053,28.037247974707896V48.39085394903489L44.73684210526316,48.39085394903489V72.81594611921068L53.68421052631579,72.81594611921068V118.90641172587644L62.63157894736842,118.90641172587644V134.07014255971285L71.57894736842105,134.07014255971285L71.57894736842105,149.0H62.63157894736842L62.63157894736842,149.0H53.68421052631579L53.68421052631579,149.0H44.73684210526316L44.73684210526316,149.0H35.78947368421053L35.78947368421053,149.0H26.842105263157894L26.842105263157894,149.0H17.894736842105264L17.894736842105264,149.0H8.947368421052632L8.947368421052632,149.0H0.0L0.0,149.0ZM80.52631578947368,149.0V145.09316198854626L89.47368421052632,145.09316198854626V135.84642851768254L98.42105263157895,135.84642851768254V109.82447559012036L107.36842105263158,109.82447559012036V81.0967763431599L116.31578947368422,81.0967763431599V51.105601383953086L125.26315789473684,51.105601383953086V31.01636199850965L134.21052631578948,31.01636199850965V33.935057365555L143.1578947368421,33.935057365555V31.076600321904394L152.10526315789474,31.076600321904394V58.05059989766934L161.05263157894737,58.05059989766934V99.69344055290122L170.0,99.69344055290122L170.0,149.0H161.05263157894737L161.05263157894737,149.0H152.10526315789474L152.10526315789474,149.0H143.1578947368421L143.1578947368421,149.0H134.21052631578948L134.21052631578948,149.0H125.26315789473684L125.26315789473684,149.0H116.31578947368422L116.31578947368422,149.0H107.36842105263158L107.36842105263158,149.0H98.42105263157895L98.42105263157895,149.0H89.47368421052632L89.47368421052632,149.0H80.52631578947368L80.52631578947368,149.0Z" fill="rgb(31,119,180)"/>
          </g>
     </g>
     <g transform="translate(20,5)">
          <g transform="translate(0,160)">
               <text pointer-events="none" y="3" dy=".71em" transform="translate(100.0,0)" fill="rgb(0,0,0)" text-anchor="middle">step-after</text>
          </g>
          <g transform="translate(0,160)">
               <path d="M0.0,90.15545444519287H8.947368421052632L8.947368421052632,66.89823360086471H17.894736842105264L17.894736842105264,35.95591691943575H26.842105263157894L26.842105263157894,19.0H35.78947368421053L35.78947368421053,28.037247974707896H44.73684210526316L44.73684210526316,48.39085394903489H53.68421052631579L53.68421052631579,72.81594611921068H62.63157894736842L62.63157894736842,118.90641172587644H71.57894736842105L71.57894736842105,134.07014255971285H80.52631578947368L80.52631578947368,149.0L80.52631578947368,149.0V149.0L71.57894736842105,149.0V149.0L62.63157894736842,149.0V149.0L53.68421052631579,149.0V149.0L44.73684210526316,149.0V149.0L35.78947368421053,149.0V149.0L26.842105263157894,149.0V149.0L17.894736842105264,149.0V149.0L8.947368421052632,149.0V149.0L0.0,149.0ZM89.47368421052632,145.09316198854626H98.42105263157895L98.42105263157895,135.84642851768254H107.36842105263158L107.36842105263158,109.82447559012036H116.31578947368422L116.31578947368422,81.0967763431599H125.26315789473684L125.26315789473684,51.105601383953086H134.21052631578948L134.21052631578948,31.01636199850965H143.1578947368421L143.1578947368421,33.935057365555H152.10526315789474L152.10526315789474,31.076600321904394H161.05263157894737L161.05263157894737,58.05059989766934H170.0L170.0,99.69344055290122L170.0,149.0V149.0L161.05263157894737,149.0V149.0L152.10526315789474,149.0V149.0L143.1578947368421,149.0V149.0L134.21052631578948,149.0V149.0L125.26315789473684,149.0V149.0L116.31578947368422,149.0V149.0L107.36842105263158,149.0V149.0L98.42105263157895,149.0V149.0L89.47368421052632,149.0Z" fill="rgb(31,119,180)"/>
          </g>
     </g>
     <g transform="translate(20,5)">
          <g transform="translate(210,160)">
               <text pointer-events="none" y="3" dy=".71em" transform="translate(100.0,0)" fill="rgb(0,0,0)" text-anchor="middle">basis</text>
          </g>
          <g transform="translate(210,160)">
               <path d="M0.0,90.15545444519287C0.0,90.15545444519287,0.0,90.15545444519287,1.4912280701754386,86.27925097113817C2.982456140350877,82.40304749708348,5.964912280701754,74.6506405489741,8.947368421052632,65.61738429468124C11.929824561403509,56.58412804038839,14.912280701754385,46.27002247991207,17.89473684210526,38.28698354643461C20.877192982456137,30.303944612957164,23.859649122807014,24.651972306478584,26.84210526315789,23.33219414902394C29.824561403508767,22.0124159915693,32.807017543859644,25.024831983138593,35.78947368421053,29.923307641311077C38.771929824561404,34.821783299483556,41.75438596491228,41.60631862425922,44.73684210526316,49.06943498167635C47.71929824561403,56.53255133909348,50.701754385964904,64.67424872915208,53.68421052631578,76.426841691959C56.66666666666666,88.17943465476593,59.649122807017534,103.54292319032118,62.63157894736841,113.75195593040488C65.61403508771929,123.96098867048858,68.59649122807016,129.0155656151007,71.57894736842105,134.03116366078797C74.56140350877193,139.04676170647522,77.54385964912281,144.0233808532376,79.03508771929825,146.5116904266188C80.52631578947368,149.0,80.52631578947368,149.0,80.52631578947368,149.0L80.52631578947368,149.0C80.52631578947368,149.0,80.52631578947368,149.0,79.03508771929825,149.0C77.54385964912281,149.0,74.56140350877193,149.0,71.57894736842104,149.0C68.59649122807016,149.0,65.61403508771929,149.0,62.63157894736841,149.0C59.649122807017534,149.0,56.66666666666666,149.0,53.68421052631578,149.0C50.701754385964904,149.0,47.71929824561403,149.0,44.73684210526315,149.0C41.75438596491228,149.0,38.771929824561404,149.0,35.78947368421052,149.0C32.807017543859644,149.0,29.824561403508767,149.0,26.84210526315789,149.0C23.859649122807014,149.0,20.877192982456137,149.0,17.89473684210526,149.0C14.912280701754385,149.0,11.929824561403509,149.0,8.947368421052632,149.0C5.964912280701754,149.0,2.982456140350877,149.0,1.4912280701754386,149.0C0.0,149.0,0.0,149.0,0.0,149.0ZM80.52631578947368,149.0C80.52631578947368,149.0,80.52631578947368,149.0,82.01754385964912,148.34886033142436C83.50877192982456,147.69772066284875,86.49122807017544,146.3954413256975,89.47368421052632,144.2031794119779C92.45614035087718,142.01091749825835,95.43859649122805,138.92867300797045,98.42105263157893,133.0505586082328C101.40350877192981,127.17244420849514,104.38596491228068,118.49845989930773,107.36842105263156,109.37351787022064C110.35087719298244,100.24857584113353,113.33333333333333,90.67267609214672,116.3157894736842,80.8861970577855C119.29824561403508,71.09971802342429,122.28070175438594,61.10265970368869,125.26315789473682,52.75592397958031C128.2456140350877,44.40918825547193,131.22807017543857,37.71277512699079,134.21052631578948,34.851017790591115C137.19298245614036,31.98926045419143,140.17543859649123,32.96215890987321,143.1578947368421,32.972198630439C146.140350877193,32.982238351004796,149.12280701754386,32.029419336454595,152.10526315789474,36.048676425140314C155.08771929824562,40.06793351382604,158.0701754385965,49.05926670574769,161.05263157894737,60.49540674424716C164.03508771929825,71.93154678274664,167.01754385964912,85.81249366782393,168.50877192982458,92.75296711036256C170.0,99.69344055290122,170.0,99.69344055290122,170.0,99.69344055290121L170.0,149.0C170.0,149.0,170.0,149.0,168.50877192982455,149.0C167.01754385964912,149.0,164.03508771929825,149.0,161.05263157894737,149.0C158.0701754385965,149.0,155.08771929824562,149.0,152.10526315789474,149.0C149.12280701754386,149.0,146.140350877193,149.0,143.1578947368421,149.0C140.17543859649123,149.0,137.19298245614036,149.0,134.21052631578948,149.0C131.22807017543857,149.0,128.2456140350877,149.0,125.26315789473682,149.0C122.28070175438594,149.0,119.29824561403508,149.0,116.3157894736842,149.0C113.33333333333333,149.0,110.35087719298244,149.0,107.36842105263156,149.0C104.38596491228068,149.0,101.40350877192981,149.0,98.42105263157893,149.0C95.43859649122805,149.0,92.45614035087718,149.0,89.47368421052632,149.0C86.49122807017544,149.0,83.50877192982456,149.0,82.01754385964912,149.0C80.52631578947368,149.0,80.52631578947368,149.0,80.52631578947368,149.0Z" fill="rgb(31,119,180)"/>
          </g>
     </g>
     <g transform="translate(20,5)">
          <g transform="translate(0,320)">
               <text pointer-events="none" y="3" dy=".71em" transform="translate(100.0,0)" fill="rgb(0,0,0)" text-anchor="middle">cardinal</text>
          </g>
          <g transform="translate(0,320)">
               <path d="M0.0,90.15545444519287Q7.157894736842105,72.31818735344042,8.947368421052632,66.89823360086471C11.631578947368421,58.768302972001145,15.210526315789474,43.14065195956546,17.894736842105264,35.95591691943575S24.157894736842103,20.187800341709178,26.842105263157894,19.0S33.10526315789474,23.62861988235266,35.78947368421053,28.037247974707896S42.05263157894737,41.674049227359475,44.73684210526316,48.39085394903489S51.0,62.23861245268445,53.68421052631579,72.81594611921068S59.94736842105263,109.71828225980111,62.63157894736842,118.90641172587644S68.89473684210526,129.55610431859432,71.57894736842105,134.07014255971285Q73.36842105263158,137.07950138712522,80.52631578947368,149.0L80.52631578947368,149.0Q73.36842105263158,149.0,71.57894736842105,149.0C68.89473684210526,149.0,65.3157894736842,149.0,62.63157894736842,149.0S56.368421052631575,149.0,53.68421052631579,149.0S47.421052631578945,149.0,44.73684210526316,149.0S38.473684210526315,149.0,35.78947368421053,149.0S29.526315789473685,149.0,26.842105263157894,149.0S20.578947368421055,149.0,17.894736842105264,149.0S11.631578947368421,149.0,8.947368421052632,149.0Q7.157894736842105,149.0,0.0,149.0ZM80.52631578947368,149.0Q87.6842105263158,146.408519136778,89.47368421052632,145.09316198854626C92.15789473684211,143.12012626619864,95.73684210526315,141.13673147744643,98.42105263157895,135.84642851768254S104.68421052631578,118.03692341629875,107.36842105263158,109.82447559012036S113.63157894736842,89.904607474085,116.31578947368422,81.0967763431599S122.57894736842104,58.61766353565062,125.26315789473684,51.105601383953086S131.5263157894737,33.591943601269364,134.21052631578948,31.01636199850965S140.47368421052633,33.926021617045784,143.1578947368421,33.935057365555S149.42105263157896,27.459268942087242,152.10526315789474,31.076600321904394S158.3684210526316,47.75807386301982,161.05263157894737,58.05059989766934Q162.8421052631579,64.91228392076903,170.0,99.69344055290122L170.0,149.0Q162.8421052631579,149.0,161.05263157894737,149.0C158.3684210526316,149.0,154.78947368421052,149.0,152.10526315789474,149.0S145.8421052631579,149.0,143.1578947368421,149.0S136.89473684210526,149.0,134.21052631578948,149.0S127.94736842105263,149.0,125.26315789473684,149.0S119.00000000000001,149.0,116.31578947368422,149.0S110.05263157894737,149.0,107.36842105263158,149.0S101.10526315789474,149.0,98.42105263157895,149.0S92.15789473684211,149.0,89.47368421052632,149.0Q87.6842105263158,149.0,80.52631578947368,149.0Z" fill="rgb(31,119,180)"/>
          </g>
     </g>
</svg>
