<svg xmlns="http://www.w3.org/2000/svg" xmlns:xlink="http://www.w3.org/1999/xlink" font-size="10px" font-family="sans-serif" fill="none" stroke="none" stroke-width="1.5" width="450" height="645">
     <g transform="translate(20,5)">
          <g>
               <text pointer-events="none" y="3" dy=".71em" transform="translate(100.0,0)" fill="rgb(0,0,0)" text-anchor="middle">linear</text>
          </g>
          <g>
               <path d="M0.0,92.9186679158301L18.88888888888889,36.14919149286574L37.77777777777778,35.73217602472188L56.666666666666664,74.4289271499008L75.55555555555556,140.87687806535558L94.44444444444444,150.0L113.33333333333333,102.78733776391189L132.22222222222223,49.964717024597405L151.11111111111111,20.0L170.0,61.843546134259014" fill="none" stroke="rgb(31,119,180)" stroke-width="2"/>
          </g>
     </g>
     <g transform="translate(20,5)">
          <g transform="translate(210,0)">
               <text pointer-events="none" y="3" dy=".71em" transform="translate(100.0,0)" fill="rgb(0,0,0)" text-anchor="middle">step-before</text>
          </g>
          <g transform="translate(210,0)">
               <path d="M0.0,92.9186679158301V36.14919149286574H18.88888888888889V35.73217602472188H37.77777777777778V74.4289271499008H56.666666666666664V140.87687806535558H75.55555555555556V150.0H94.44444444444444V102.78733776391189H113.33333333333333V49.964717024597405H132.22222222222223V20.0H151.11111111111111V61.843546134259014H170.0" fill="none" stroke="rgb(31,119,180)" stroke-width="2"/>
          </g>
     </g>
     <g transform="translate(20,5)">
          <g transform="translate(0,160)">
               <text pointer-events="none" y="3" dy=".71em" transform="translate(100.0,0)" fill="rgb(0,0,0)" text-anchor="middle">step-after</text>
          </g>
          <g transform="translate(0,160)">
               <path d="M0.0,92.9186679158301H18.88888888888889V36.14919149286574H37.77777777777778V35.73217602472188H56.666666666666664V74.4289271499008H75.55555555555556V140.87687806535558H94.44444444444444V150.0H113.33333333333333V102.78733776391189H132.22222222222223V49.964717024597405H151.11111111111111V20.0H170.0V61.843546134259014" fill="none" stroke="rgb(31,119,180)" stroke-width="2"/>
          </g>
     </g>
     <g transform="translate(20,5)">
          <g transform="translate(210,160)">
               <text pointer-events="none" y="3" dy=".71em" transform="translate(100.0,0)" fill="rgb(0,0,0)" text-anchor="middle">polar</text>
          </g>
          <g transform="translate(210,160)">
               <path d="M0.0,92.9186679158301A29.914727045363026,29.914727045363026 0 0,1 18.88888888888889,36.14919149286574A9.446745806856738,9.446745806856738 0 0,1 37.77777777777778,35.73217602472188A21.530377789885772,21.530377789885772 0 0,1 56.666666666666664,74.4289271499008A34.540267458140356,34.540267458140356 0 0,1 75.55555555555556,140.87687806535558A10.48834445099869,10.48834445099869 0 0,1 94.44444444444444,150.0A25.4255068724093,25.4255068724093 0 0,1 113.33333333333333,102.78733776391189A28.049150545186958,28.049150545186958 0 0,1 132.22222222222223,49.964717024597405A17.71069161425513,17.71069161425513 0 0,1 151.11111111111111,20.0A22.954697104006037,22.954697104006037 0 0,1 170.0,61.843546134259014" fill="none" stroke="rgb(31,119,180)" stroke-width="2"/>
          </g>
     </g>
     <g transform="translate(20,5)">
          <g transform="translate(0,320)">
               <text pointer-events="none" y="3" dy=".71em" transform="translate(100.0,0)" fill="rgb(0,0,0)" text-anchor="middle">polar-reverse</text>
          </g>
          <g transform="translate(0,320)">
               <path d="M0.0,92.9186679158301A29.914727045363026,29.914727045363026 0 0,0 18.88888888888889,36.14919149286574A9.446745806856738,9.446745806856738 0 0,0 37.77777777777778,35.73217602472188A21.530377789885772,21.530377789885772 0 0,0 56.666666666666664,74.4289271499008A34.540267458140356,34.540267458140356 0 0,0 75.55555555555556,140.87687806535558A10.48834445099869,10.48834445099869 0 0,0 94.44444444444444,150.0A25.4255068724093,25.4255068724093 0 0,0 113.33333333333333,102.78733776391189A28.049150545186958,28.049150545186958 0 0,0 132.22222222222223,49.964717024597405A17.71069161425513,17.71069161425513 0 0,0 151.11111111111111,20.0A22.954697104006037,22.954697104006037 0 0,0 170.0,61.843546134259014" fill="none" stroke="rgb(31,119,180)" stroke-width="2"/>
          </g>
     </g>
     <g transform="translate(20,5)">
          <g transform="translate(210,320)">
               <text pointer-events="none" y="3" dy=".71em" transform="translate(100.0,0)" fill="rgb(0,0,0)" text-anchor="middle">basis</text>
          </g>
          <g transform="translate(210,320)">
               <path d="M0.0,92.9186679158301C0.0,92.9186679158301,0.0,92.9186679158301,3.148148148148148,83.4570885120027C6.296296296296296,73.99550910817531,12.592592592592592,55.072350300520526,18.888888888888886,45.541268318669154C25.185185185185183,36.01018633681778,31.48148148148148,35.87118118076983,37.77777777777777,42.25113712360901C44.07407407407407,48.63109306644819,50.37037037037037,61.53001010817449,56.66666666666666,79.05412711494677C62.962962962962955,96.57824412171905,69.25925925925925,118.7275610935373,75.55555555555554,131.3227399018872C81.85185185185185,143.91791871023705,88.14814814814815,146.9589593551185,94.44444444444444,140.61070263821125C100.74074074074073,134.26244592130396,107.03703703703702,118.52489184260793,113.33333333333331,101.85234468004083C119.62962962962962,85.17979751747373,125.92592592592592,67.57225727103557,132.22222222222223,53.77436764371692C138.51851851851853,39.97647801639827,144.8148148148148,29.988239008199134,151.11111111111111,31.968043859809402C157.4074074074074,33.94784871141967,163.7037037037037,47.89569742283934,166.85185185185185,54.86962177854918C170.0,61.843546134259014,170.0,61.843546134259014,170.0,61.843546134259014" fill="none" stroke="rgb(31,119,180)" stroke-width="2"/>
          </g>
     </g>
     <g transform="translate(20,5)">
          <g transform="translate(0,480)">
               <text pointer-events="none" y="3" dy=".71em" transform="translate(100.0,0)" fill="rgb(0,0,0)" text-anchor="middle">cardinal</text>
          </g>
          <g transform="translate(0,480)">
               <path d="M0.0,92.9186679158301Q15.11111111111111,41.86784068197656,18.88888888888889,36.14919149286574C24.555555555555557,27.571217709199505,32.111111111111114,29.99021567616662,37.77777777777778,35.73217602472188S51.0,58.65722184380574,56.666666666666664,74.4289271499008S69.88888888888889,129.5412171378407,75.55555555555556,140.87687806535558S88.77777777777777,155.71343104521657,94.44444444444444,150.0S107.66666666666666,117.79263021022228,113.33333333333333,102.78733776391189S126.55555555555556,62.38281768918419,132.22222222222223,49.964717024597405S145.44444444444446,18.218175633550757,151.11111111111111,20.0Q154.88888888888889,21.18788291096616,170.0,61.843546134259014" fill="none" stroke="rgb(31,119,180)" stroke-width="2"/>
          </g>
     </g>
</svg>
