<svg xmlns="http://www.w3.org/2000/svg" xmlns:xlink="http://www.w3.org/1999/xlink" font-size="10px" font-family="sans-serif" fill="none" stroke="none" stroke-width="1.5" width="430" height="245">
     <g transform="translate(20,5)">
          <g transform="translate(0,30)">
               <line shape-rendering="crispEdges" x1="0.0" y1="0" x2="0.0" y2="80" stroke="rgb(0,0,0)" stroke-width="1"/>
               <line shape-rendering="crispEdges" x1="40.4040404040404" y1="0" x2="40.4040404040404" y2="80" stroke="rgb(0,0,0)" stroke-width="1"/>
               <line shape-rendering="crispEdges" x1="80.8080808080808" y1="0" x2="80.8080808080808" y2="80" stroke="rgb(0,0,0)" stroke-width="1"/>
               <line shape-rendering="crispEdges" x1="121.21212121212122" y1="0" x2="121.21212121212122" y2="80" stroke="rgb(0,0,0)" stroke-width="1"/>
               <line shape-rendering="crispEdges" x1="161.6161616161616" y1="0" x2="161.6161616161616" y2="80" stroke="rgb(0,0,0)" stroke-width="1"/>
               <line shape-rendering="crispEdges" x1="202.02020202020202" y1="0" x2="202.02020202020202" y2="80" stroke="rgb(0,0,0)" stroke-width="1"/>
               <line shape-rendering="crispEdges" x1="242.42424242424244" y1="0" x2="242.42424242424244" y2="80" stroke="rgb(0,0,0)" stroke-width="1"/>
               <line shape-rendering="crispEdges" x1="282.82828282828285" y1="0" x2="282.82828282828285" y2="80" stroke="rgb(0,0,0)" stroke-width="1"/>
               <line shape-rendering="crispEdges" x1="323.2323232323232" y1="0" x2="323.2323232323232" y2="80" stroke="rgb(0,0,0)" stroke-width="1"/>
               <line shape-rendering="crispEdges" x1="363.6363636363636" y1="0" x2="363.6363636363636" y2="80" stroke="rgb(0,0,0)" stroke-width="1"/>
          </g>
          <g transform="translate(0,30)">
               <text pointer-events="none" y="3" dy=".71em" transform="translate(0.0,80)" fill="rgb(0,0,0)" text-anchor="middle">−5</text>
               <text pointer-events="none" y="3" dy=".71em" transform="translate(40.4040404040404,80)" fill="rgb(0,0,0)" text-anchor="middle">−4</text>
               <text pointer-events="none" y="3" dy=".71em" transform="translate(80.8080808080808,80)" fill="rgb(0,0,0)" text-anchor="middle">−3</text>
               <text pointer-events="none" y="3" dy=".71em" transform="translate(121.21212121212122,80)" fill="rgb(0,0,0)" text-anchor="middle">−2</text>
               <text pointer-events="none" y="3" dy=".71em" transform="translate(161.6161616161616,80)" fill="rgb(0,0,0)" text-anchor="middle">−1</text>
               <text pointer-events="none" y="3" dy=".71em" transform="translate(202.02020202020202,80)" fill="rgb(0,0,0)" text-anchor="middle">0</text>
               <text pointer-events="none" y="3" dy=".71em" transform="translate(242.42424242424244,80)" fill="rgb(0,0,0)" text-anchor="middle">1</text>
               <text pointer-events="none" y="3" dy=".71em" transform="translate(282.82828282828285,80)" fill="rgb(0,0,0)" text-anchor="middle">2</text>
               <text pointer-events="none" y="3" dy=".71em" transform="translate(323.2323232323232,80)" fill="rgb(0,0,0)" text-anchor="middle">3</text>
               <text pointer-events="none" y="3" dy=".71em" transform="translate(363.6363636363636,80)" fill="rgb(0,0,0)" text-anchor="middle">4</text>
          </g>
          <g transform="translate(0,30)">
               <g>
                    <g clip-path="url(#3s)">
                         <clipPath id="3s">
                              <rect x="0" y="0" width="400" height="80"/>
                         </clipPath>
                         <rect width="400" height="80" fill="rgb(255,255,255)"/>
                         <g>
                              <path d="M0.0,-120.0L4.0404040404040265,-110.10000000000005L8.080808080808087,-100.4L12.121212121212114,-90.90000000000003L16.161616161616173,-81.59999999999997L20.2020202020202,-72.5L24.242424242424228,-63.60000000000002L28.282828282828287,-54.89999999999998L32.32323232323232,-46.400000000000006L36.363636363636374,-38.099999999999994L40.4040404040404,-30.0L44.44444444444445,-22.099999999999994L48.48484848484849,-14.400000000000006L52.52525252525252,-6.900000000000034L56.565656565656575,0.4000000000000341L60.60606060606061,7.5L64.64646464646465,14.40000000000002L68.68686868686869,21.100000000000023L72.72727272727272,27.59999999999998L76.76767676767679,33.90000000000002L80.8080808080808,40.0L84.84848484848484,45.89999999999999L88.8888888888889,51.60000000000002L92.92929292929294,57.10000000000002L96.96969696969698,62.40000000000002L101.01010101010101,67.5L105.05050505050507,72.4L109.09090909090911,77.10000000000001L113.13131313131312,81.60000000000001L117.17171717171718,85.9L121.21212121212122,90.0L125.25252525252526,93.9L129.2929292929293,97.60000000000001L133.33333333333334,101.10000000000001L137.37373737373738,104.4L141.41414141414143,107.5L145.45454545454547,110.4L149.4949494949495,113.10000000000001L153.53535353535355,115.60000000000001L157.5757575757576,117.9L161.6161616161616,120.0L165.65656565656568,121.9L169.6969696969697,123.6L173.73737373737373,125.1L177.7777777777778,126.4L181.8181818181818,127.5L185.85858585858588,128.4L189.8989898989899,129.1L193.93939393939397,129.60000000000002L197.97979797979798,129.9L202.02020202020202,130.0L206.06060606060606,129.9L210.10101010101013,129.6L214.14141414141415,129.1L218.18181818181822,128.4L222.22222222222223,127.5L226.26262626262624,126.39999999999999L230.3030303030303,125.1L234.34343434343435,123.6L238.3838383838384,121.89999999999999L242.42424242424244,120.0L246.4646464646465,117.89999999999999L250.50505050505052,115.6L254.5454545454546,113.1L258.5858585858586,110.39999999999999L262.62626262626264,107.5L266.6666666666667,104.39999999999998L270.7070707070707,101.1L274.74747474747477,97.59999999999998L278.7878787878788,93.89999999999998L282.82828282828285,90.0L286.8686868686869,85.89999999999998L290.90909090909093,81.6L294.949494949495,77.09999999999997L298.989898989899,72.39999999999998L303.030303030303,67.5L307.0707070707071,62.39999999999998L311.11111111111114,57.099999999999994L315.1515151515152,51.599999999999966L319.1919191919192,45.89999999999998L323.2323232323232,40.0L327.27272727272725,33.90000000000002L331.31313131313135,27.599999999999923L335.3535353535354,21.099999999999966L339.3939393939394,14.399999999999977L343.4343434343434,7.5L347.47474747474746,0.4000000000000341L351.51515151515156,-6.900000000000091L355.5555555555556,-14.400000000000063L359.5959595959596,-22.100000000000023L363.6363636363636,-30.0L367.67676767676767,-38.099999999999994L371.71717171717177,-46.40000000000009L375.75757575757575,-54.90000000000006L379.7979797979798,-63.60000000000002L383.83838383838383,-72.5L387.87878787878793,-81.60000000000014L391.919191919192,-90.90000000000009L395.95959595959596,-100.40000000000006L400.0,-110.10000000000005L400.0,80.0L395.95959595959596,80.0L391.919191919192,80.0L387.87878787878793,80.0L383.83838383838383,80.0L379.7979797979798,80.0L375.75757575757575,80.0L371.71717171717177,80.0L367.67676767676767,80.0L363.6363636363636,80.0L359.5959595959596,80.0L355.5555555555556,80.0L351.51515151515156,80.0L347.47474747474746,80.0L343.4343434343434,80.0L339.3939393939394,80.0L335.3535353535354,80.0L331.31313131313135,80.0L327.27272727272725,80.0L323.2323232323232,80.0L319.1919191919192,80.0L315.1515151515152,80.0L311.11111111111114,80.0L307.0707070707071,80.0L303.030303030303,80.0L298.989898989899,80.0L294.949494949495,80.0L290.90909090909093,80.0L286.8686868686869,80.0L282.82828282828285,80.0L278.7878787878788,80.0L274.74747474747477,80.0L270.7070707070707,80.0L266.6666666666667,80.0L262.62626262626264,80.0L258.5858585858586,80.0L254.5454545454546,80.0L250.50505050505052,80.0L246.4646464646465,80.0L242.42424242424244,80.0L238.3838383838384,80.0L234.34343434343435,80.0L230.3030303030303,80.0L226.26262626262624,80.0L222.22222222222223,80.0L218.18181818181822,80.0L214.14141414141415,80.0L210.10101010101013,80.0L206.06060606060606,80.0L202.02020202020202,80.0L197.97979797979798,80.0L193.93939393939397,80.00000000000001L189.8989898989899,80.0L185.85858585858588,80.0L181.8181818181818,80.0L177.7777777777778,80.0L173.73737373737373,80.0L169.6969696969697,80.0L165.65656565656568,80.0L161.6161616161616,80.0L157.5757575757576,80.0L153.53535353535355,80.0L149.4949494949495,80.0L145.45454545454547,80.0L141.41414141414143,80.0L137.37373737373738,80.0L133.33333333333334,80.0L129.2929292929293,80.0L125.25252525252526,80.0L121.21212121212122,80.0L117.17171717171718,80.0L113.13131313131312,80.0L109.09090909090911,80.0L105.05050505050507,80.0L101.01010101010101,80.0L96.96969696969698,80.0L92.92929292929294,80.0L88.8888888888889,80.0L84.84848484848484,80.0L80.8080808080808,80.0L76.76767676767679,80.0L72.72727272727272,80.0L68.68686868686869,80.0L64.64646464646465,80.0L60.60606060606061,80.0L56.565656565656575,80.0L52.52525252525252,80.0L48.48484848484849,80.0L44.44444444444445,80.0L40.4040404040404,80.0L36.363636363636374,80.0L32.32323232323232,80.0L28.282828282828287,80.0L24.242424242424228,80.0L20.2020202020202,80.0L16.161616161616173,80.0L12.121212121212114,80.0L8.080808080808087,80.0L4.0404040404040265,80.0L0.0,80.0Z" fill="rgb(180,210,230)"/>
                         </g>
                    </g>
                    <g clip-path="url(#3t)">
                         <clipPath id="3t">
                              <rect x="0" y="0" width="400" height="80"/>
                         </clipPath>
                         <g>
                              <path d="M0.0,-200.0L4.0404040404040265,-190.10000000000005L8.080808080808087,-180.4L12.121212121212114,-170.90000000000003L16.161616161616173,-161.59999999999997L20.2020202020202,-152.5L24.242424242424228,-143.60000000000002L28.282828282828287,-134.89999999999998L32.32323232323232,-126.4L36.363636363636374,-118.1L40.4040404040404,-110.0L44.44444444444445,-102.1L48.48484848484849,-94.4L52.52525252525252,-86.90000000000003L56.565656565656575,-79.59999999999997L60.60606060606061,-72.5L64.64646464646465,-65.59999999999998L68.68686868686869,-58.89999999999998L72.72727272727272,-52.40000000000002L76.76767676767679,-46.09999999999998L80.8080808080808,-40.0L84.84848484848484,-34.10000000000001L88.8888888888889,-28.399999999999977L92.92929292929294,-22.899999999999977L96.96969696969698,-17.59999999999998L101.01010101010101,-12.5L105.05050505050507,-7.599999999999994L109.09090909090911,-2.8999999999999915L113.13131313131312,1.6000000000000085L117.17171717171718,5.900000000000006L121.21212121212122,10.0L125.25252525252526,13.900000000000006L129.2929292929293,17.60000000000001L133.33333333333334,21.10000000000001L137.37373737373738,24.400000000000006L141.41414141414143,27.5L145.45454545454547,30.400000000000006L149.4949494949495,33.10000000000001L153.53535353535355,35.60000000000001L157.5757575757576,37.900000000000006L161.6161616161616,40.0L165.65656565656568,41.900000000000006L169.6969696969697,43.599999999999994L173.73737373737373,45.099999999999994L177.7777777777778,46.400000000000006L181.8181818181818,47.5L185.85858585858588,48.400000000000006L189.8989898989899,49.099999999999994L193.93939393939397,49.60000000000002L197.97979797979798,49.900000000000006L202.02020202020202,50.0L206.06060606060606,49.900000000000006L210.10101010101013,49.599999999999994L214.14141414141415,49.099999999999994L218.18181818181822,48.400000000000006L222.22222222222223,47.5L226.26262626262624,46.39999999999999L230.3030303030303,45.099999999999994L234.34343434343435,43.599999999999994L238.3838383838384,41.89999999999999L242.42424242424244,40.0L246.4646464646465,37.89999999999999L250.50505050505052,35.599999999999994L254.5454545454546,33.099999999999994L258.5858585858586,30.39999999999999L262.62626262626264,27.5L266.6666666666667,24.399999999999977L270.7070707070707,21.099999999999994L274.74747474747477,17.59999999999998L278.7878787878788,13.899999999999977L282.82828282828285,10.0L286.8686868686869,5.899999999999977L290.90909090909093,1.5999999999999943L294.949494949495,-2.900000000000034L298.989898989899,-7.600000000000023L303.030303030303,-12.5L307.0707070707071,-17.600000000000023L311.11111111111114,-22.900000000000006L315.1515151515152,-28.400000000000034L319.1919191919192,-34.10000000000002L323.2323232323232,-40.0L327.27272727272725,-46.09999999999998L331.31313131313135,-52.40000000000008L335.3535353535354,-58.900000000000034L339.3939393939394,-65.60000000000002L343.4343434343434,-72.5L347.47474747474746,-79.59999999999997L351.51515151515156,-86.90000000000009L355.5555555555556,-94.40000000000006L359.5959595959596,-102.10000000000002L363.6363636363636,-110.0L367.67676767676767,-118.1L371.71717171717177,-126.40000000000009L375.75757575757575,-134.90000000000006L379.7979797979798,-143.60000000000002L383.83838383838383,-152.5L387.87878787878793,-161.60000000000014L391.919191919192,-170.9000000000001L395.95959595959596,-180.40000000000006L400.0,-190.10000000000005L400.0,0.0L395.95959595959596,0.0L391.919191919192,0.0L387.87878787878793,0.0L383.83838383838383,0.0L379.7979797979798,0.0L375.75757575757575,0.0L371.71717171717177,0.0L367.67676767676767,0.0L363.6363636363636,0.0L359.5959595959596,0.0L355.5555555555556,0.0L351.51515151515156,0.0L347.47474747474746,0.0L343.4343434343434,0.0L339.3939393939394,0.0L335.3535353535354,0.0L331.31313131313135,0.0L327.27272727272725,0.0L323.2323232323232,0.0L319.1919191919192,0.0L315.1515151515152,0.0L311.11111111111114,0.0L307.0707070707071,0.0L303.030303030303,0.0L298.989898989899,-7.105427357601002e-15L294.949494949495,0.0L290.90909090909093,0.0L286.8686868686869,0.0L282.82828282828285,0.0L278.7878787878788,-7.105427357601002e-15L274.74747474747477,0.0L270.7070707070707,0.0L266.6666666666667,0.0L262.62626262626264,0.0L258.5858585858586,0.0L254.5454545454546,7.105427357601002e-15L250.50505050505052,7.105427357601002e-15L246.4646464646465,0.0L242.42424242424244,0.0L238.3838383838384,0.0L234.34343434343435,0.0L230.3030303030303,0.0L226.26262626262624,0.0L222.22222222222223,0.0L218.18181818181822,7.105427357601002e-15L214.14141414141415,-7.105427357601002e-15L210.10101010101013,0.0L206.06060606060606,0.0L202.02020202020202,0.0L197.97979797979798,0.0L193.93939393939397,1.4210854715202004e-14L189.8989898989899,-7.105427357601002e-15L185.85858585858588,7.105427357601002e-15L181.8181818181818,0.0L177.7777777777778,0.0L173.73737373737373,0.0L169.6969696969697,0.0L165.65656565656568,-7.105427357601002e-15L161.6161616161616,0.0L157.5757575757576,0.0L153.53535353535355,0.0L149.4949494949495,0.0L145.45454545454547,-3.552713678800501e-15L141.41414141414143,0.0L137.37373737373738,-7.105427357601002e-15L133.33333333333334,-3.552713678800501e-15L129.2929292929293,0.0L125.25252525252526,0.0L121.21212121212122,0.0L117.17171717171718,-7.105427357601002e-15L113.13131313131312,0.0L109.09090909090911,0.0L105.05050505050507,7.105427357601002e-15L101.01010101010101,0.0L96.96969696969698,0.0L92.92929292929294,0.0L88.8888888888889,0.0L84.84848484848484,0.0L80.8080808080808,0.0L76.76767676767679,0.0L72.72727272727272,0.0L68.68686868686869,0.0L64.64646464646465,0.0L60.60606060606061,0.0L56.565656565656575,0.0L52.52525252525252,0.0L48.48484848484849,0.0L44.44444444444445,0.0L40.4040404040404,0.0L36.363636363636374,0.0L32.32323232323232,0.0L28.282828282828287,0.0L24.242424242424228,0.0L20.2020202020202,0.0L16.161616161616173,0.0L12.121212121212114,0.0L8.080808080808087,0.0L4.0404040404040265,0.0L0.0,0.0Z" fill="rgb(241,183,183)"/>
                         </g>
                    </g>
                    <g clip-path="url(#3u)">
                         <clipPath id="3u">
                              <rect x="0" y="0" width="400" height="80"/>
                         </clipPath>
                         <g>
                              <path d="M0.0,-40.0L4.0404040404040265,-30.10000000000005L8.080808080808087,-20.400000000000006L12.121212121212114,-10.900000000000034L16.161616161616173,-1.599999999999966L20.2020202020202,7.5L24.242424242424228,16.399999999999977L28.282828282828287,25.100000000000023L32.32323232323232,33.599999999999994L36.363636363636374,41.900000000000006L40.4040404040404,50.0L44.44444444444445,57.900000000000006L48.48484848484849,65.6L52.52525252525252,73.09999999999997L56.565656565656575,80.40000000000003L60.60606060606061,87.5L64.64646464646465,94.40000000000002L68.68686868686869,101.10000000000002L72.72727272727272,107.59999999999998L76.76767676767679,113.90000000000002L80.8080808080808,120.0L84.84848484848484,125.89999999999999L88.8888888888889,131.60000000000002L92.92929292929294,137.10000000000002L96.96969696969698,142.40000000000003L101.01010101010101,147.5L105.05050505050507,152.4L109.09090909090911,157.10000000000002L113.13131313131312,161.60000000000002L117.17171717171718,165.9L121.21212121212122,170.0L125.25252525252526,173.9L129.2929292929293,177.60000000000002L133.33333333333334,181.10000000000002L137.37373737373738,184.4L141.41414141414143,187.5L145.45454545454547,190.4L149.4949494949495,193.10000000000002L153.53535353535355,195.60000000000002L157.5757575757576,197.9L161.6161616161616,200.0L165.65656565656568,201.9L169.6969696969697,203.6L173.73737373737373,205.1L177.7777777777778,206.4L181.8181818181818,207.5L185.85858585858588,208.4L189.8989898989899,209.1L193.93939393939397,209.60000000000002L197.97979797979798,209.9L202.02020202020202,210.0L206.06060606060606,209.9L210.10101010101013,209.6L214.14141414141415,209.1L218.18181818181822,208.4L222.22222222222223,207.5L226.26262626262624,206.39999999999998L230.3030303030303,205.1L234.34343434343435,203.6L238.3838383838384,201.89999999999998L242.42424242424244,200.0L246.4646464646465,197.89999999999998L250.50505050505052,195.6L254.5454545454546,193.1L258.5858585858586,190.39999999999998L262.62626262626264,187.5L266.6666666666667,184.39999999999998L270.7070707070707,181.1L274.74747474747477,177.59999999999997L278.7878787878788,173.89999999999998L282.82828282828285,170.0L286.8686868686869,165.89999999999998L290.90909090909093,161.6L294.949494949495,157.09999999999997L298.989898989899,152.39999999999998L303.030303030303,147.5L307.0707070707071,142.39999999999998L311.11111111111114,137.1L315.1515151515152,131.59999999999997L319.1919191919192,125.89999999999998L323.2323232323232,120.0L327.27272727272725,113.90000000000002L331.31313131313135,107.59999999999992L335.3535353535354,101.09999999999997L339.3939393939394,94.39999999999998L343.4343434343434,87.5L347.47474747474746,80.40000000000003L351.51515151515156,73.09999999999991L355.5555555555556,65.59999999999994L359.5959595959596,57.89999999999998L363.6363636363636,50.0L367.67676767676767,41.900000000000006L371.71717171717177,33.59999999999991L375.75757575757575,25.099999999999937L379.7979797979798,16.399999999999977L383.83838383838383,7.5L387.87878787878793,-1.6000000000001364L391.919191919192,-10.900000000000091L395.95959595959596,-20.400000000000063L400.0,-30.10000000000005L400.0,160.0L395.95959595959596,160.0L391.919191919192,160.0L387.87878787878793,160.0L383.83838383838383,160.0L379.7979797979798,160.0L375.75757575757575,160.0L371.71717171717177,160.0L367.67676767676767,160.0L363.6363636363636,160.0L359.5959595959596,160.0L355.5555555555556,160.0L351.51515151515156,160.0L347.47474747474746,160.0L343.4343434343434,160.0L339.3939393939394,160.0L335.3535353535354,160.0L331.31313131313135,160.0L327.27272727272725,160.0L323.2323232323232,160.0L319.1919191919192,160.0L315.1515151515152,160.0L311.11111111111114,160.0L307.0707070707071,160.0L303.030303030303,160.0L298.989898989899,160.0L294.949494949495,160.0L290.90909090909093,160.0L286.8686868686869,160.0L282.82828282828285,160.0L278.7878787878788,160.0L274.74747474747477,160.0L270.7070707070707,160.0L266.6666666666667,160.0L262.62626262626264,160.0L258.5858585858586,160.0L254.5454545454546,160.0L250.50505050505052,160.0L246.4646464646465,160.0L242.42424242424244,160.0L238.3838383838384,160.0L234.34343434343435,160.0L230.3030303030303,160.0L226.26262626262624,160.0L222.22222222222223,160.0L218.18181818181822,160.0L214.14141414141415,160.0L210.10101010101013,160.0L206.06060606060606,160.0L202.02020202020202,160.0L197.97979797979798,160.0L193.93939393939397,160.0L189.8989898989899,160.0L185.85858585858588,160.0L181.8181818181818,160.0L177.7777777777778,160.0L173.73737373737373,160.0L169.6969696969697,160.0L165.65656565656568,160.0L161.6161616161616,160.0L157.5757575757576,160.0L153.53535353535355,160.0L149.4949494949495,160.0L145.45454545454547,160.0L141.41414141414143,160.0L137.37373737373738,160.0L133.33333333333334,160.0L129.2929292929293,160.0L125.25252525252526,160.0L121.21212121212122,160.0L117.17171717171718,160.0L113.13131313131312,160.0L109.09090909090911,160.0L105.05050505050507,160.0L101.01010101010101,160.0L96.96969696969698,160.0L92.92929292929294,160.0L88.8888888888889,160.0L84.84848484848484,160.0L80.8080808080808,160.0L76.76767676767679,160.0L72.72727272727272,160.0L68.68686868686869,160.0L64.64646464646465,160.0L60.60606060606061,160.0L56.565656565656575,160.0L52.52525252525252,160.0L48.48484848484849,160.0L44.44444444444445,160.0L40.4040404040404,160.0L36.363636363636374,160.0L32.32323232323232,160.0L28.282828282828287,160.0L24.242424242424228,160.0L20.2020202020202,160.0L16.161616161616173,160.0L12.121212121212114,160.0L8.080808080808087,160.0L4.0404040404040265,160.0L0.0,160.0Z" fill="rgb(106,164,205)"/>
                         </g>
                    </g>
                    <g clip-path="url(#3v)">
                         <clipPath id="3v">
                              <rect x="0" y="0" width="400" height="80"/>
                         </clipPath>
                         <g>
                              <path d="M0.0,-280.0L4.0404040404040265,-270.1L8.080808080808087,-260.4L12.121212121212114,-250.90000000000003L16.161616161616173,-241.59999999999997L20.2020202020202,-232.5L24.242424242424228,-223.60000000000002L28.282828282828287,-214.89999999999998L32.32323232323232,-206.4L36.363636363636374,-198.1L40.4040404040404,-190.0L44.44444444444445,-182.1L48.48484848484849,-174.4L52.52525252525252,-166.90000000000003L56.565656565656575,-159.59999999999997L60.60606060606061,-152.5L64.64646464646465,-145.59999999999997L68.68686868686869,-138.89999999999998L72.72727272727272,-132.40000000000003L76.76767676767679,-126.09999999999998L80.8080808080808,-120.0L84.84848484848484,-114.10000000000001L88.8888888888889,-108.39999999999998L92.92929292929294,-102.89999999999998L96.96969696969698,-97.59999999999998L101.01010101010101,-92.5L105.05050505050507,-87.6L109.09090909090911,-82.89999999999999L113.13131313131312,-78.39999999999999L117.17171717171718,-74.1L121.21212121212122,-70.0L125.25252525252526,-66.1L129.2929292929293,-62.39999999999999L133.33333333333334,-58.89999999999999L137.37373737373738,-55.599999999999994L141.41414141414143,-52.5L145.45454545454547,-49.599999999999994L149.4949494949495,-46.89999999999999L153.53535353535355,-44.39999999999999L157.5757575757576,-42.099999999999994L161.6161616161616,-40.0L165.65656565656568,-38.099999999999994L169.6969696969697,-36.400000000000006L173.73737373737373,-34.900000000000006L177.7777777777778,-33.599999999999994L181.8181818181818,-32.5L185.85858585858588,-31.599999999999994L189.8989898989899,-30.900000000000006L193.93939393939397,-30.399999999999977L197.97979797979798,-30.099999999999994L202.02020202020202,-30.0L206.06060606060606,-30.099999999999994L210.10101010101013,-30.400000000000006L214.14141414141415,-30.900000000000006L218.18181818181822,-31.599999999999994L222.22222222222223,-32.5L226.26262626262624,-33.60000000000001L230.3030303030303,-34.900000000000006L234.34343434343435,-36.400000000000006L238.3838383838384,-38.10000000000001L242.42424242424244,-40.0L246.4646464646465,-42.10000000000001L250.50505050505052,-44.400000000000006L254.5454545454546,-46.900000000000006L258.5858585858586,-49.60000000000001L262.62626262626264,-52.5L266.6666666666667,-55.60000000000002L270.7070707070707,-58.900000000000006L274.74747474747477,-62.40000000000002L278.7878787878788,-66.10000000000002L282.82828282828285,-70.0L286.8686868686869,-74.10000000000002L290.90909090909093,-78.4L294.949494949495,-82.90000000000003L298.989898989899,-87.60000000000002L303.030303030303,-92.5L307.0707070707071,-97.60000000000002L311.11111111111114,-102.9L315.1515151515152,-108.40000000000003L319.1919191919192,-114.10000000000002L323.2323232323232,-120.0L327.27272727272725,-126.09999999999998L331.31313131313135,-132.4000000000001L335.3535353535354,-138.90000000000003L339.3939393939394,-145.60000000000002L343.4343434343434,-152.5L347.47474747474746,-159.59999999999997L351.51515151515156,-166.9000000000001L355.5555555555556,-174.40000000000006L359.5959595959596,-182.10000000000002L363.6363636363636,-190.0L367.67676767676767,-198.1L371.71717171717177,-206.4000000000001L375.75757575757575,-214.90000000000006L379.7979797979798,-223.60000000000002L383.83838383838383,-232.5L387.87878787878793,-241.60000000000014L391.919191919192,-250.9000000000001L395.95959595959596,-260.4000000000001L400.0,-270.1L400.0,-79.99999999999997L395.95959595959596,-80.00000000000003L391.919191919192,-80.0L387.87878787878793,-80.0L383.83838383838383,-80.0L379.7979797979798,-80.0L375.75757575757575,-80.0L371.71717171717177,-80.0L367.67676767676767,-80.0L363.6363636363636,-80.0L359.5959595959596,-80.0L355.5555555555556,-80.0L351.51515151515156,-80.0L347.47474747474746,-80.0L343.4343434343434,-80.0L339.3939393939394,-80.0L335.3535353535354,-80.0L331.31313131313135,-80.00000000000001L327.27272727272725,-80.0L323.2323232323232,-80.0L319.1919191919192,-80.0L315.1515151515152,-80.0L311.11111111111114,-80.0L307.0707070707071,-80.0L303.030303030303,-80.0L298.989898989899,-80.0L294.949494949495,-80.0L290.90909090909093,-80.0L286.8686868686869,-80.0L282.82828282828285,-80.0L278.7878787878788,-80.0L274.74747474747477,-80.0L270.7070707070707,-80.0L266.6666666666667,-80.0L262.62626262626264,-80.0L258.5858585858586,-80.0L254.5454545454546,-80.0L250.50505050505052,-80.0L246.4646464646465,-80.0L242.42424242424244,-80.0L238.3838383838384,-80.0L234.34343434343435,-80.0L230.3030303030303,-80.0L226.26262626262624,-80.0L222.22222222222223,-80.0L218.18181818181822,-80.0L214.14141414141415,-80.0L210.10101010101013,-80.0L206.06060606060606,-80.0L202.02020202020202,-80.0L197.97979797979798,-80.0L193.93939393939397,-79.99999999999999L189.8989898989899,-80.0L185.85858585858588,-80.0L181.8181818181818,-80.0L177.7777777777778,-80.0L173.73737373737373,-80.0L169.6969696969697,-80.0L165.65656565656568,-80.0L161.6161616161616,-80.0L157.5757575757576,-80.0L153.53535353535355,-80.0L149.4949494949495,-80.0L145.45454545454547,-80.0L141.41414141414143,-80.0L137.37373737373738,-80.0L133.33333333333334,-80.0L129.2929292929293,-80.0L125.25252525252526,-80.0L121.21212121212122,-80.0L117.17171717171718,-80.0L113.13131313131312,-80.0L109.09090909090911,-80.0L105.05050505050507,-80.0L101.01010101010101,-80.0L96.96969696969698,-80.0L92.92929292929294,-80.0L88.8888888888889,-80.0L84.84848484848484,-80.0L80.8080808080808,-80.0L76.76767676767679,-80.0L72.72727272727272,-80.00000000000001L68.68686868686869,-80.0L64.64646464646465,-79.99999999999999L60.60606060606061,-80.0L56.565656565656575,-80.0L52.52525252525252,-80.0L48.48484848484849,-80.0L44.44444444444445,-80.0L40.4040404040404,-80.0L36.363636363636374,-80.0L32.32323232323232,-80.0L28.282828282828287,-80.0L24.242424242424228,-80.0L20.2020202020202,-80.0L16.161616161616173,-80.0L12.121212121212114,-80.0L8.080808080808087,-79.99999999999997L4.0404040404040265,-79.99999999999997L0.0,-80.0Z" fill="rgb(228,111,112)"/>
                         </g>
                    </g>
                    <g clip-path="url(#3w)">
                         <clipPath id="3w">
                              <rect x="0" y="0" width="400" height="80"/>
                         </clipPath>
                         <g>
                              <path d="M0.0,40.0L4.0404040404040265,49.89999999999995L8.080808080808087,59.599999999999994L12.121212121212114,69.09999999999997L16.161616161616173,78.40000000000003L20.2020202020202,87.5L24.242424242424228,96.39999999999998L28.282828282828287,105.10000000000002L32.32323232323232,113.6L36.363636363636374,121.9L40.4040404040404,130.0L44.44444444444445,137.9L48.48484848484849,145.6L52.52525252525252,153.09999999999997L56.565656565656575,160.40000000000003L60.60606060606061,167.5L64.64646464646465,174.40000000000003L68.68686868686869,181.10000000000002L72.72727272727272,187.59999999999997L76.76767676767679,193.90000000000003L80.8080808080808,200.0L84.84848484848484,205.89999999999998L88.8888888888889,211.60000000000002L92.92929292929294,217.10000000000002L96.96969696969698,222.40000000000003L101.01010101010101,227.5L105.05050505050507,232.4L109.09090909090911,237.10000000000002L113.13131313131312,241.60000000000002L117.17171717171718,245.9L121.21212121212122,250.0L125.25252525252526,253.9L129.2929292929293,257.6L133.33333333333334,261.1L137.37373737373738,264.4L141.41414141414143,267.5L145.45454545454547,270.4L149.4949494949495,273.1L153.53535353535355,275.6L157.5757575757576,277.9L161.6161616161616,280.0L165.65656565656568,281.9L169.6969696969697,283.6L173.73737373737373,285.1L177.7777777777778,286.4L181.8181818181818,287.5L185.85858585858588,288.4L189.8989898989899,289.1L193.93939393939397,289.6L197.97979797979798,289.9L202.02020202020202,290.0L206.06060606060606,289.9L210.10101010101013,289.6L214.14141414141415,289.1L218.18181818181822,288.4L222.22222222222223,287.5L226.26262626262624,286.4L230.3030303030303,285.1L234.34343434343435,283.6L238.3838383838384,281.9L242.42424242424244,280.0L246.4646464646465,277.9L250.50505050505052,275.6L254.5454545454546,273.1L258.5858585858586,270.4L262.62626262626264,267.5L266.6666666666667,264.4L270.7070707070707,261.1L274.74747474747477,257.59999999999997L278.7878787878788,253.89999999999998L282.82828282828285,250.0L286.8686868686869,245.89999999999998L290.90909090909093,241.6L294.949494949495,237.09999999999997L298.989898989899,232.39999999999998L303.030303030303,227.5L307.0707070707071,222.39999999999998L311.11111111111114,217.1L315.1515151515152,211.59999999999997L319.1919191919192,205.89999999999998L323.2323232323232,200.0L327.27272727272725,193.90000000000003L331.31313131313135,187.5999999999999L335.3535353535354,181.09999999999997L339.3939393939394,174.39999999999998L343.4343434343434,167.5L347.47474747474746,160.40000000000003L351.51515151515156,153.0999999999999L355.5555555555556,145.59999999999994L359.5959595959596,137.89999999999998L363.6363636363636,130.0L367.67676767676767,121.9L371.71717171717177,113.59999999999991L375.75757575757575,105.09999999999994L379.7979797979798,96.39999999999998L383.83838383838383,87.5L387.87878787878793,78.39999999999986L391.919191919192,69.09999999999991L395.95959595959596,59.59999999999994L400.0,49.89999999999995L400.0,240.0L395.95959595959596,240.0L391.919191919192,240.0L387.87878787878793,240.0L383.83838383838383,240.0L379.7979797979798,240.0L375.75757575757575,240.0L371.71717171717177,240.0L367.67676767676767,240.0L363.6363636363636,240.0L359.5959595959596,240.0L355.5555555555556,240.0L351.51515151515156,240.0L347.47474747474746,240.0L343.4343434343434,240.0L339.3939393939394,240.0L335.3535353535354,240.0L331.31313131313135,240.0L327.27272727272725,240.0L323.2323232323232,240.0L319.1919191919192,240.0L315.1515151515152,240.0L311.11111111111114,240.0L307.0707070707071,240.0L303.030303030303,240.0L298.989898989899,240.0L294.949494949495,240.0L290.90909090909093,240.0L286.8686868686869,240.0L282.82828282828285,240.0L278.7878787878788,240.0L274.74747474747477,240.0L270.7070707070707,240.00000000000003L266.6666666666667,240.0L262.62626262626264,240.0L258.5858585858586,240.0L254.5454545454546,240.00000000000003L250.50505050505052,240.00000000000003L246.4646464646465,240.0L242.42424242424244,240.0L238.3838383838384,240.0L234.34343434343435,240.00000000000003L230.3030303030303,240.00000000000003L226.26262626262624,240.0L222.22222222222223,240.0L218.18181818181822,239.99999999999997L214.14141414141415,240.00000000000003L210.10101010101013,240.00000000000003L206.06060606060606,239.99999999999997L202.02020202020202,240.0L197.97979797979798,239.99999999999997L193.93939393939397,240.0L189.8989898989899,240.00000000000003L185.85858585858588,239.99999999999997L181.8181818181818,240.0L177.7777777777778,239.99999999999997L173.73737373737373,240.00000000000003L169.6969696969697,240.00000000000003L165.65656565656568,239.99999999999997L161.6161616161616,240.0L157.5757575757576,239.99999999999997L153.53535353535355,240.0L149.4949494949495,240.0L145.45454545454547,239.99999999999997L141.41414141414143,240.0L137.37373737373738,239.99999999999997L133.33333333333334,240.0L129.2929292929293,240.0L125.25252525252526,240.0L121.21212121212122,240.0L117.17171717171718,240.0L113.13131313131312,240.0L109.09090909090911,240.0L105.05050505050507,240.0L101.01010101010101,240.0L96.96969696969698,240.0L92.92929292929294,240.0L88.8888888888889,240.0L84.84848484848484,240.0L80.8080808080808,240.0L76.76767676767679,240.0L72.72727272727272,240.0L68.68686868686869,240.0L64.64646464646465,240.0L60.60606060606061,240.0L56.565656565656575,240.0L52.52525252525252,240.0L48.48484848484849,240.0L44.44444444444445,240.0L40.4040404040404,240.0L36.363636363636374,240.0L32.32323232323232,240.0L28.282828282828287,240.0L24.242424242424228,240.0L20.2020202020202,240.0L16.161616161616173,240.0L12.121212121212114,240.0L8.080808080808087,240.0L4.0404040404040265,240.0L0.0,240.0Z" fill="rgb(31,119,180)"/>
                         </g>
                    </g>
                    <g clip-path="url(#3x)">
                         <clipPath id="3x">
                              <rect x="0" y="0" width="400" height="80"/>
                         </clipPath>
                         <g>
                              <path d="M0.0,-360.0L4.0404040404040265,-350.1L8.080808080808087,-340.4L12.121212121212114,-330.90000000000003L16.161616161616173,-321.59999999999997L20.2020202020202,-312.5L24.242424242424228,-303.6L28.282828282828287,-294.9L32.32323232323232,-286.4L36.363636363636374,-278.1L40.4040404040404,-270.0L44.44444444444445,-262.1L48.48484848484849,-254.4L52.52525252525252,-246.90000000000003L56.565656565656575,-239.59999999999997L60.60606060606061,-232.5L64.64646464646465,-225.59999999999997L68.68686868686869,-218.89999999999998L72.72727272727272,-212.40000000000003L76.76767676767679,-206.09999999999997L80.8080808080808,-200.0L84.84848484848484,-194.10000000000002L88.8888888888889,-188.39999999999998L92.92929292929294,-182.89999999999998L96.96969696969698,-177.59999999999997L101.01010101010101,-172.5L105.05050505050507,-167.6L109.09090909090911,-162.89999999999998L113.13131313131312,-158.39999999999998L117.17171717171718,-154.1L121.21212121212122,-150.0L125.25252525252526,-146.1L129.2929292929293,-142.39999999999998L133.33333333333334,-138.89999999999998L137.37373737373738,-135.6L141.41414141414143,-132.5L145.45454545454547,-129.6L149.4949494949495,-126.89999999999999L153.53535353535355,-124.39999999999999L157.5757575757576,-122.1L161.6161616161616,-120.0L165.65656565656568,-118.1L169.6969696969697,-116.4L173.73737373737373,-114.9L177.7777777777778,-113.6L181.8181818181818,-112.5L185.85858585858588,-111.6L189.8989898989899,-110.9L193.93939393939397,-110.39999999999998L197.97979797979798,-110.1L202.02020202020202,-110.0L206.06060606060606,-110.1L210.10101010101013,-110.4L214.14141414141415,-110.9L218.18181818181822,-111.6L222.22222222222223,-112.5L226.26262626262624,-113.60000000000001L230.3030303030303,-114.9L234.34343434343435,-116.4L238.3838383838384,-118.10000000000001L242.42424242424244,-120.0L246.4646464646465,-122.10000000000001L250.50505050505052,-124.4L254.5454545454546,-126.9L258.5858585858586,-129.60000000000002L262.62626262626264,-132.5L266.6666666666667,-135.60000000000002L270.7070707070707,-138.9L274.74747474747477,-142.40000000000003L278.7878787878788,-146.10000000000002L282.82828282828285,-150.0L286.8686868686869,-154.10000000000002L290.90909090909093,-158.4L294.949494949495,-162.90000000000003L298.989898989899,-167.60000000000002L303.030303030303,-172.5L307.0707070707071,-177.60000000000002L311.11111111111114,-182.9L315.1515151515152,-188.40000000000003L319.1919191919192,-194.10000000000002L323.2323232323232,-200.0L327.27272727272725,-206.09999999999997L331.31313131313135,-212.4000000000001L335.3535353535354,-218.90000000000003L339.3939393939394,-225.60000000000002L343.4343434343434,-232.5L347.47474747474746,-239.59999999999997L351.51515151515156,-246.9000000000001L355.5555555555556,-254.40000000000006L359.5959595959596,-262.1L363.6363636363636,-270.0L367.67676767676767,-278.1L371.71717171717177,-286.4000000000001L375.75757575757575,-294.9000000000001L379.7979797979798,-303.6L383.83838383838383,-312.5L387.87878787878793,-321.60000000000014L391.919191919192,-330.9000000000001L395.95959595959596,-340.4000000000001L400.0,-350.1L400.0,-159.99999999999997L395.95959595959596,-160.00000000000003L391.919191919192,-160.0L387.87878787878793,-160.0L383.83838383838383,-160.0L379.7979797979798,-160.0L375.75757575757575,-160.00000000000003L371.71717171717177,-160.0L367.67676767676767,-160.00000000000003L363.6363636363636,-160.0L359.5959595959596,-160.0L355.5555555555556,-160.0L351.51515151515156,-160.0L347.47474747474746,-160.0L343.4343434343434,-160.0L339.3939393939394,-160.0L335.3535353535354,-160.0L331.31313131313135,-160.0L327.27272727272725,-160.0L323.2323232323232,-160.0L319.1919191919192,-160.0L315.1515151515152,-160.0L311.11111111111114,-160.0L307.0707070707071,-160.0L303.030303030303,-160.0L298.989898989899,-160.0L294.949494949495,-160.0L290.90909090909093,-160.0L286.8686868686869,-160.0L282.82828282828285,-160.0L278.7878787878788,-160.0L274.74747474747477,-160.0L270.7070707070707,-160.0L266.6666666666667,-160.0L262.62626262626264,-160.0L258.5858585858586,-160.0L254.5454545454546,-160.0L250.50505050505052,-160.0L246.4646464646465,-160.0L242.42424242424244,-160.0L238.3838383838384,-160.0L234.34343434343435,-160.0L230.3030303030303,-160.0L226.26262626262624,-160.0L222.22222222222223,-160.0L218.18181818181822,-160.0L214.14141414141415,-160.0L210.10101010101013,-160.0L206.06060606060606,-160.0L202.02020202020202,-160.0L197.97979797979798,-160.0L193.93939393939397,-160.0L189.8989898989899,-160.0L185.85858585858588,-160.0L181.8181818181818,-160.0L177.7777777777778,-160.0L173.73737373737373,-160.0L169.6969696969697,-160.0L165.65656565656568,-160.0L161.6161616161616,-160.0L157.5757575757576,-160.0L153.53535353535355,-160.0L149.4949494949495,-160.0L145.45454545454547,-160.0L141.41414141414143,-160.0L137.37373737373738,-160.0L133.33333333333334,-160.0L129.2929292929293,-160.0L125.25252525252526,-160.0L121.21212121212122,-160.0L117.17171717171718,-160.0L113.13131313131312,-160.0L109.09090909090911,-160.0L105.05050505050507,-160.0L101.01010101010101,-160.0L96.96969696969698,-160.0L92.92929292929294,-160.0L88.8888888888889,-160.0L84.84848484848484,-160.0L80.8080808080808,-160.0L76.76767676767679,-160.0L72.72727272727272,-160.0L68.68686868686869,-160.0L64.64646464646465,-160.0L60.60606060606061,-160.0L56.565656565656575,-160.0L52.52525252525252,-160.0L48.48484848484849,-160.0L44.44444444444445,-160.00000000000003L40.4040404040404,-160.0L36.363636363636374,-160.00000000000003L32.32323232323232,-159.99999999999997L28.282828282828287,-160.0L24.242424242424228,-160.0L20.2020202020202,-160.0L16.161616161616173,-160.0L12.121212121212114,-160.0L8.080808080808087,-159.99999999999997L4.0404040404040265,-159.99999999999997L0.0,-160.0Z" fill="rgb(214,39,40)"/>
                         </g>
                    </g>
               </g>
          </g>
          <g transform="translate(0,30)">
               <text pointer-events="none" y="3" dy=".71em" transform="translate(200.0,-15)" fill="rgb(0,0,0)" text-anchor="middle">offset</text>
          </g>
          <g transform="translate(0,140)">
               <line shape-rendering="crispEdges" x1="0.0" y1="0" x2="0.0" y2="80" stroke="rgb(0,0,0)" stroke-width="1"/>
               <line shape-rendering="crispEdges" x1="40.4040404040404" y1="0" x2="40.4040404040404" y2="80" stroke="rgb(0,0,0)" stroke-width="1"/>
               <line shape-rendering="crispEdges" x1="80.8080808080808" y1="0" x2="80.8080808080808" y2="80" stroke="rgb(0,0,0)" stroke-width="1"/>
               <line shape-rendering="crispEdges" x1="121.21212121212122" y1="0" x2="121.21212121212122" y2="80" stroke="rgb(0,0,0)" stroke-width="1"/>
               <line shape-rendering="crispEdges" x1="161.6161616161616" y1="0" x2="161.6161616161616" y2="80" stroke="rgb(0,0,0)" stroke-width="1"/>
               <line shape-rendering="crispEdges" x1="202.02020202020202" y1="0" x2="202.02020202020202" y2="80" stroke="rgb(0,0,0)" stroke-width="1"/>
               <line shape-rendering="crispEdges" x1="242.42424242424244" y1="0" x2="242.42424242424244" y2="80" stroke="rgb(0,0,0)" stroke-width="1"/>
               <line shape-rendering="crispEdges" x1="282.82828282828285" y1="0" x2="282.82828282828285" y2="80" stroke="rgb(0,0,0)" stroke-width="1"/>
               <line shape-rendering="crispEdges" x1="323.2323232323232" y1="0" x2="323.2323232323232" y2="80" stroke="rgb(0,0,0)" stroke-width="1"/>
               <line shape-rendering="crispEdges" x1="363.6363636363636" y1="0" x2="363.6363636363636" y2="80" stroke="rgb(0,0,0)" stroke-width="1"/>
          </g>
          <g transform="translate(0,140)">
               <text pointer-events="none" y="3" dy=".71em" transform="translate(0.0,80)" fill="rgb(0,0,0)" text-anchor="middle">−5</text>
               <text pointer-events="none" y="3" dy=".71em" transform="translate(40.4040404040404,80)" fill="rgb(0,0,0)" text-anchor="middle">−4</text>
               <text pointer-events="none" y="3" dy=".71em" transform="translate(80.8080808080808,80)" fill="rgb(0,0,0)" text-anchor="middle">−3</text>
               <text pointer-events="none" y="3" dy=".71em" transform="translate(121.21212121212122,80)" fill="rgb(0,0,0)" text-anchor="middle">−2</text>
               <text pointer-events="none" y="3" dy=".71em" transform="translate(161.6161616161616,80)" fill="rgb(0,0,0)" text-anchor="middle">−1</text>
               <text pointer-events="none" y="3" dy=".71em" transform="translate(202.02020202020202,80)" fill="rgb(0,0,0)" text-anchor="middle">0</text>
               <text pointer-events="none" y="3" dy=".71em" transform="translate(242.42424242424244,80)" fill="rgb(0,0,0)" text-anchor="middle">1</text>
               <text pointer-events="none" y="3" dy=".71em" transform="translate(282.82828282828285,80)" fill="rgb(0,0,0)" text-anchor="middle">2</text>
               <text pointer-events="none" y="3" dy=".71em" transform="translate(323.2323232323232,80)" fill="rgb(0,0,0)" text-anchor="middle">3</text>
               <text pointer-events="none" y="3" dy=".71em" transform="translate(363.6363636363636,80)" fill="rgb(0,0,0)" text-anchor="middle">4</text>
          </g>
          <g transform="translate(0,140)">
               <g>
                    <g clip-path="url(#3y)">
                         <clipPath id="3y">
                              <rect x="0" y="0" width="400" height="80"/>
                         </clipPath>
                         <rect width="400" height="80" fill="rgb(255,255,255)"/>
                         <g>
                              <path d="M0.0,-120.0L4.0404040404040265,-110.10000000000005L8.080808080808087,-100.4L12.121212121212114,-90.90000000000003L16.161616161616173,-81.59999999999997L20.2020202020202,-72.5L24.242424242424228,-63.60000000000002L28.282828282828287,-54.89999999999998L32.32323232323232,-46.400000000000006L36.363636363636374,-38.099999999999994L40.4040404040404,-30.0L44.44444444444445,-22.099999999999994L48.48484848484849,-14.400000000000006L52.52525252525252,-6.900000000000034L56.565656565656575,0.4000000000000341L60.60606060606061,7.5L64.64646464646465,14.40000000000002L68.68686868686869,21.100000000000023L72.72727272727272,27.59999999999998L76.76767676767679,33.90000000000002L80.8080808080808,40.0L84.84848484848484,45.89999999999999L88.8888888888889,51.60000000000002L92.92929292929294,57.10000000000002L96.96969696969698,62.40000000000002L101.01010101010101,67.5L105.05050505050507,72.4L109.09090909090911,77.10000000000001L113.13131313131312,81.60000000000001L117.17171717171718,85.9L121.21212121212122,90.0L125.25252525252526,93.9L129.2929292929293,97.60000000000001L133.33333333333334,101.10000000000001L137.37373737373738,104.4L141.41414141414143,107.5L145.45454545454547,110.4L149.4949494949495,113.10000000000001L153.53535353535355,115.60000000000001L157.5757575757576,117.9L161.6161616161616,120.0L165.65656565656568,121.9L169.6969696969697,123.6L173.73737373737373,125.1L177.7777777777778,126.4L181.8181818181818,127.5L185.85858585858588,128.4L189.8989898989899,129.1L193.93939393939397,129.60000000000002L197.97979797979798,129.9L202.02020202020202,130.0L206.06060606060606,129.9L210.10101010101013,129.6L214.14141414141415,129.1L218.18181818181822,128.4L222.22222222222223,127.5L226.26262626262624,126.39999999999999L230.3030303030303,125.1L234.34343434343435,123.6L238.3838383838384,121.89999999999999L242.42424242424244,120.0L246.4646464646465,117.89999999999999L250.50505050505052,115.6L254.5454545454546,113.1L258.5858585858586,110.39999999999999L262.62626262626264,107.5L266.6666666666667,104.39999999999998L270.7070707070707,101.1L274.74747474747477,97.59999999999998L278.7878787878788,93.89999999999998L282.82828282828285,90.0L286.8686868686869,85.89999999999998L290.90909090909093,81.6L294.949494949495,77.09999999999997L298.989898989899,72.39999999999998L303.030303030303,67.5L307.0707070707071,62.39999999999998L311.11111111111114,57.099999999999994L315.1515151515152,51.599999999999966L319.1919191919192,45.89999999999998L323.2323232323232,40.0L327.27272727272725,33.90000000000002L331.31313131313135,27.599999999999923L335.3535353535354,21.099999999999966L339.3939393939394,14.399999999999977L343.4343434343434,7.5L347.47474747474746,0.4000000000000341L351.51515151515156,-6.900000000000091L355.5555555555556,-14.400000000000063L359.5959595959596,-22.100000000000023L363.6363636363636,-30.0L367.67676767676767,-38.099999999999994L371.71717171717177,-46.40000000000009L375.75757575757575,-54.90000000000006L379.7979797979798,-63.60000000000002L383.83838383838383,-72.5L387.87878787878793,-81.60000000000014L391.919191919192,-90.90000000000009L395.95959595959596,-100.40000000000006L400.0,-110.10000000000005L400.0,80.0L395.95959595959596,80.0L391.919191919192,80.0L387.87878787878793,80.0L383.83838383838383,80.0L379.7979797979798,80.0L375.75757575757575,80.0L371.71717171717177,80.0L367.67676767676767,80.0L363.6363636363636,80.0L359.5959595959596,80.0L355.5555555555556,80.0L351.51515151515156,80.0L347.47474747474746,80.0L343.4343434343434,80.0L339.3939393939394,80.0L335.3535353535354,80.0L331.31313131313135,80.0L327.27272727272725,80.0L323.2323232323232,80.0L319.1919191919192,80.0L315.1515151515152,80.0L311.11111111111114,80.0L307.0707070707071,80.0L303.030303030303,80.0L298.989898989899,80.0L294.949494949495,80.0L290.90909090909093,80.0L286.8686868686869,80.0L282.82828282828285,80.0L278.7878787878788,80.0L274.74747474747477,80.0L270.7070707070707,80.0L266.6666666666667,80.0L262.62626262626264,80.0L258.5858585858586,80.0L254.5454545454546,80.0L250.50505050505052,80.0L246.4646464646465,80.0L242.42424242424244,80.0L238.3838383838384,80.0L234.34343434343435,80.0L230.3030303030303,80.0L226.26262626262624,80.0L222.22222222222223,80.0L218.18181818181822,80.0L214.14141414141415,80.0L210.10101010101013,80.0L206.06060606060606,80.0L202.02020202020202,80.0L197.97979797979798,80.0L193.93939393939397,80.00000000000001L189.8989898989899,80.0L185.85858585858588,80.0L181.8181818181818,80.0L177.7777777777778,80.0L173.73737373737373,80.0L169.6969696969697,80.0L165.65656565656568,80.0L161.6161616161616,80.0L157.5757575757576,80.0L153.53535353535355,80.0L149.4949494949495,80.0L145.45454545454547,80.0L141.41414141414143,80.0L137.37373737373738,80.0L133.33333333333334,80.0L129.2929292929293,80.0L125.25252525252526,80.0L121.21212121212122,80.0L117.17171717171718,80.0L113.13131313131312,80.0L109.09090909090911,80.0L105.05050505050507,80.0L101.01010101010101,80.0L96.96969696969698,80.0L92.92929292929294,80.0L88.8888888888889,80.0L84.84848484848484,80.0L80.8080808080808,80.0L76.76767676767679,80.0L72.72727272727272,80.0L68.68686868686869,80.0L64.64646464646465,80.0L60.60606060606061,80.0L56.565656565656575,80.0L52.52525252525252,80.0L48.48484848484849,80.0L44.44444444444445,80.0L40.4040404040404,80.0L36.363636363636374,80.0L32.32323232323232,80.0L28.282828282828287,80.0L24.242424242424228,80.0L20.2020202020202,80.0L16.161616161616173,80.0L12.121212121212114,80.0L8.080808080808087,80.0L4.0404040404040265,80.0L0.0,80.0Z" fill="rgb(180,210,230)"/>
                         </g>
                    </g>
                    <g clip-path="url(#3z)">
                         <clipPath id="3z">
                              <rect x="0" y="0" width="400" height="80"/>
                         </clipPath>
                         <g>
                              <path d="M0.0,80L4.0404040404040265,80L8.080808080808087,80L12.121212121212114,80L16.161616161616173,80L20.2020202020202,80L24.242424242424228,80L28.282828282828287,80L32.32323232323232,80L36.363636363636374,80L40.4040404040404,80L44.44444444444445,80L48.48484848484849,80L52.52525252525252,80L56.565656565656575,80L60.60606060606061,80L64.64646464646465,80L68.68686868686869,80L72.72727272727272,80L76.76767676767679,80L80.8080808080808,80L84.84848484848484,80L88.8888888888889,80L92.92929292929294,80L96.96969696969698,80L101.01010101010101,80L105.05050505050507,80L109.09090909090911,80L113.13131313131312,80L117.17171717171718,80L121.21212121212122,80L125.25252525252526,80L129.2929292929293,80L133.33333333333334,80L137.37373737373738,80L141.41414141414143,80L145.45454545454547,80L149.4949494949495,80L153.53535353535355,80L157.5757575757576,80L161.6161616161616,80L165.65656565656568,80L169.6969696969697,80L173.73737373737373,80L177.7777777777778,80L181.8181818181818,80L185.85858585858588,80L189.8989898989899,80L193.93939393939397,80L197.97979797979798,80L202.02020202020202,80L206.06060606060606,80L210.10101010101013,80L214.14141414141415,80L218.18181818181822,80L222.22222222222223,80L226.26262626262624,80L230.3030303030303,80L234.34343434343435,80L238.3838383838384,80L242.42424242424244,80L246.4646464646465,80L250.50505050505052,80L254.5454545454546,80L258.5858585858586,80L262.62626262626264,80L266.6666666666667,80L270.7070707070707,80L274.74747474747477,80L278.7878787878788,80L282.82828282828285,80L286.8686868686869,80L290.90909090909093,80L294.949494949495,80L298.989898989899,80L303.030303030303,80L307.0707070707071,80L311.11111111111114,80L315.1515151515152,80L319.1919191919192,80L323.2323232323232,80L327.27272727272725,80L331.31313131313135,80L335.3535353535354,80L339.3939393939394,80L343.4343434343434,80L347.47474747474746,80L351.51515151515156,80L355.5555555555556,80L359.5959595959596,80L363.6363636363636,80L367.67676767676767,80L371.71717171717177,80L375.75757575757575,80L379.7979797979798,80L383.83838383838383,80L387.87878787878793,80L391.919191919192,80L395.95959595959596,80L400.0,80L400.0,270.1L395.95959595959596,260.4000000000001L391.919191919192,250.9000000000001L387.87878787878793,241.60000000000014L383.83838383838383,232.5L379.7979797979798,223.60000000000002L375.75757575757575,214.90000000000006L371.71717171717177,206.4000000000001L367.67676767676767,198.1L363.6363636363636,190.0L359.5959595959596,182.10000000000002L355.5555555555556,174.40000000000006L351.51515151515156,166.9000000000001L347.47474747474746,159.59999999999997L343.4343434343434,152.5L339.3939393939394,145.60000000000002L335.3535353535354,138.90000000000003L331.31313131313135,132.4000000000001L327.27272727272725,126.09999999999998L323.2323232323232,120.0L319.1919191919192,114.10000000000002L315.1515151515152,108.40000000000003L311.11111111111114,102.9L307.0707070707071,97.60000000000002L303.030303030303,92.5L298.989898989899,87.60000000000002L294.949494949495,82.90000000000003L290.90909090909093,78.4L286.8686868686869,74.10000000000002L282.82828282828285,70.0L278.7878787878788,66.10000000000002L274.74747474747477,62.40000000000002L270.7070707070707,58.900000000000006L266.6666666666667,55.60000000000002L262.62626262626264,52.5L258.5858585858586,49.60000000000001L254.5454545454546,46.90000000000001L250.50505050505052,44.40000000000001L246.4646464646465,42.10000000000001L242.42424242424244,40.0L238.3838383838384,38.10000000000001L234.34343434343435,36.400000000000006L230.3030303030303,34.900000000000006L226.26262626262624,33.60000000000001L222.22222222222223,32.5L218.18181818181822,31.6L214.14141414141415,30.9L210.10101010101013,30.400000000000006L206.06060606060606,30.099999999999994L202.02020202020202,30.0L197.97979797979798,30.099999999999994L193.93939393939397,30.39999999999999L189.8989898989899,30.9L185.85858585858588,31.6L181.8181818181818,32.5L177.7777777777778,33.599999999999994L173.73737373737373,34.900000000000006L169.6969696969697,36.400000000000006L165.65656565656568,38.09999999999999L161.6161616161616,40.0L157.5757575757576,42.099999999999994L153.53535353535355,44.39999999999999L149.4949494949495,46.89999999999999L145.45454545454547,49.599999999999994L141.41414141414143,52.5L137.37373737373738,55.59999999999999L133.33333333333334,58.89999999999999L129.2929292929293,62.39999999999999L125.25252525252526,66.1L121.21212121212122,70.0L117.17171717171718,74.1L113.13131313131312,78.39999999999999L109.09090909090911,82.89999999999999L105.05050505050507,87.6L101.01010101010101,92.5L96.96969696969698,97.59999999999998L92.92929292929294,102.89999999999998L88.8888888888889,108.39999999999998L84.84848484848484,114.10000000000001L80.8080808080808,120.0L76.76767676767679,126.09999999999998L72.72727272727272,132.40000000000003L68.68686868686869,138.89999999999998L64.64646464646465,145.59999999999997L60.60606060606061,152.5L56.565656565656575,159.59999999999997L52.52525252525252,166.90000000000003L48.48484848484849,174.4L44.44444444444445,182.1L40.4040404040404,190.0L36.363636363636374,198.1L32.32323232323232,206.4L28.282828282828287,214.89999999999998L24.242424242424228,223.60000000000002L20.2020202020202,232.5L16.161616161616173,241.59999999999997L12.121212121212114,250.90000000000003L8.080808080808087,260.4L4.0404040404040265,270.1L0.0,280.0Z" fill="rgb(241,183,183)"/>
                         </g>
                    </g>
                    <g clip-path="url(#40)">
                         <clipPath id="40">
                              <rect x="0" y="0" width="400" height="80"/>
                         </clipPath>
                         <g>
                              <path d="M0.0,-40.0L4.0404040404040265,-30.10000000000005L8.080808080808087,-20.400000000000006L12.121212121212114,-10.900000000000034L16.161616161616173,-1.599999999999966L20.2020202020202,7.5L24.242424242424228,16.399999999999977L28.282828282828287,25.100000000000023L32.32323232323232,33.599999999999994L36.363636363636374,41.900000000000006L40.4040404040404,50.0L44.44444444444445,57.900000000000006L48.48484848484849,65.6L52.52525252525252,73.09999999999997L56.565656565656575,80.40000000000003L60.60606060606061,87.5L64.64646464646465,94.40000000000002L68.68686868686869,101.10000000000002L72.72727272727272,107.59999999999998L76.76767676767679,113.90000000000002L80.8080808080808,120.0L84.84848484848484,125.89999999999999L88.8888888888889,131.60000000000002L92.92929292929294,137.10000000000002L96.96969696969698,142.40000000000003L101.01010101010101,147.5L105.05050505050507,152.4L109.09090909090911,157.10000000000002L113.13131313131312,161.60000000000002L117.17171717171718,165.9L121.21212121212122,170.0L125.25252525252526,173.9L129.2929292929293,177.60000000000002L133.33333333333334,181.10000000000002L137.37373737373738,184.4L141.41414141414143,187.5L145.45454545454547,190.4L149.4949494949495,193.10000000000002L153.53535353535355,195.60000000000002L157.5757575757576,197.9L161.6161616161616,200.0L165.65656565656568,201.9L169.6969696969697,203.6L173.73737373737373,205.1L177.7777777777778,206.4L181.8181818181818,207.5L185.85858585858588,208.4L189.8989898989899,209.1L193.93939393939397,209.60000000000002L197.97979797979798,209.9L202.02020202020202,210.0L206.06060606060606,209.9L210.10101010101013,209.6L214.14141414141415,209.1L218.18181818181822,208.4L222.22222222222223,207.5L226.26262626262624,206.39999999999998L230.3030303030303,205.1L234.34343434343435,203.6L238.3838383838384,201.89999999999998L242.42424242424244,200.0L246.4646464646465,197.89999999999998L250.50505050505052,195.6L254.5454545454546,193.1L258.5858585858586,190.39999999999998L262.62626262626264,187.5L266.6666666666667,184.39999999999998L270.7070707070707,181.1L274.74747474747477,177.59999999999997L278.7878787878788,173.89999999999998L282.82828282828285,170.0L286.8686868686869,165.89999999999998L290.90909090909093,161.6L294.949494949495,157.09999999999997L298.989898989899,152.39999999999998L303.030303030303,147.5L307.0707070707071,142.39999999999998L311.11111111111114,137.1L315.1515151515152,131.59999999999997L319.1919191919192,125.89999999999998L323.2323232323232,120.0L327.27272727272725,113.90000000000002L331.31313131313135,107.59999999999992L335.3535353535354,101.09999999999997L339.3939393939394,94.39999999999998L343.4343434343434,87.5L347.47474747474746,80.40000000000003L351.51515151515156,73.09999999999991L355.5555555555556,65.59999999999994L359.5959595959596,57.89999999999998L363.6363636363636,50.0L367.67676767676767,41.900000000000006L371.71717171717177,33.59999999999991L375.75757575757575,25.099999999999937L379.7979797979798,16.399999999999977L383.83838383838383,7.5L387.87878787878793,-1.6000000000001364L391.919191919192,-10.900000000000091L395.95959595959596,-20.400000000000063L400.0,-30.10000000000005L400.0,160.0L395.95959595959596,160.0L391.919191919192,160.0L387.87878787878793,160.0L383.83838383838383,160.0L379.7979797979798,160.0L375.75757575757575,160.0L371.71717171717177,160.0L367.67676767676767,160.0L363.6363636363636,160.0L359.5959595959596,160.0L355.5555555555556,160.0L351.51515151515156,160.0L347.47474747474746,160.0L343.4343434343434,160.0L339.3939393939394,160.0L335.3535353535354,160.0L331.31313131313135,160.0L327.27272727272725,160.0L323.2323232323232,160.0L319.1919191919192,160.0L315.1515151515152,160.0L311.11111111111114,160.0L307.0707070707071,160.0L303.030303030303,160.0L298.989898989899,160.0L294.949494949495,160.0L290.90909090909093,160.0L286.8686868686869,160.0L282.82828282828285,160.0L278.7878787878788,160.0L274.74747474747477,160.0L270.7070707070707,160.0L266.6666666666667,160.0L262.62626262626264,160.0L258.5858585858586,160.0L254.5454545454546,160.0L250.50505050505052,160.0L246.4646464646465,160.0L242.42424242424244,160.0L238.3838383838384,160.0L234.34343434343435,160.0L230.3030303030303,160.0L226.26262626262624,160.0L222.22222222222223,160.0L218.18181818181822,160.0L214.14141414141415,160.0L210.10101010101013,160.0L206.06060606060606,160.0L202.02020202020202,160.0L197.97979797979798,160.0L193.93939393939397,160.0L189.8989898989899,160.0L185.85858585858588,160.0L181.8181818181818,160.0L177.7777777777778,160.0L173.73737373737373,160.0L169.6969696969697,160.0L165.65656565656568,160.0L161.6161616161616,160.0L157.5757575757576,160.0L153.53535353535355,160.0L149.4949494949495,160.0L145.45454545454547,160.0L141.41414141414143,160.0L137.37373737373738,160.0L133.33333333333334,160.0L129.2929292929293,160.0L125.25252525252526,160.0L121.21212121212122,160.0L117.17171717171718,160.0L113.13131313131312,160.0L109.09090909090911,160.0L105.05050505050507,160.0L101.01010101010101,160.0L96.96969696969698,160.0L92.92929292929294,160.0L88.8888888888889,160.0L84.84848484848484,160.0L80.8080808080808,160.0L76.76767676767679,160.0L72.72727272727272,160.0L68.68686868686869,160.0L64.64646464646465,160.0L60.60606060606061,160.0L56.565656565656575,160.0L52.52525252525252,160.0L48.48484848484849,160.0L44.44444444444445,160.0L40.4040404040404,160.0L36.363636363636374,160.0L32.32323232323232,160.0L28.282828282828287,160.0L24.242424242424228,160.0L20.2020202020202,160.0L16.161616161616173,160.0L12.121212121212114,160.0L8.080808080808087,160.0L4.0404040404040265,160.0L0.0,160.0Z" fill="rgb(106,164,205)"/>
                         </g>
                    </g>
                    <g clip-path="url(#41)">
                         <clipPath id="41">
                              <rect x="0" y="0" width="400" height="80"/>
                         </clipPath>
                         <g>
                              <path d="M0.0,160L4.0404040404040265,160L8.080808080808087,160L12.121212121212114,160L16.161616161616173,160L20.2020202020202,160L24.242424242424228,160L28.282828282828287,160L32.32323232323232,160L36.363636363636374,160L40.4040404040404,160L44.44444444444445,160L48.48484848484849,160L52.52525252525252,160L56.565656565656575,160L60.60606060606061,160L64.64646464646465,160L68.68686868686869,160L72.72727272727272,160L76.76767676767679,160L80.8080808080808,160L84.84848484848484,160L88.8888888888889,160L92.92929292929294,160L96.96969696969698,160L101.01010101010101,160L105.05050505050507,160L109.09090909090911,160L113.13131313131312,160L117.17171717171718,160L121.21212121212122,160L125.25252525252526,160L129.2929292929293,160L133.33333333333334,160L137.37373737373738,160L141.41414141414143,160L145.45454545454547,160L149.4949494949495,160L153.53535353535355,160L157.5757575757576,160L161.6161616161616,160L165.65656565656568,160L169.6969696969697,160L173.73737373737373,160L177.7777777777778,160L181.8181818181818,160L185.85858585858588,160L189.8989898989899,160L193.93939393939397,160L197.97979797979798,160L202.02020202020202,160L206.06060606060606,160L210.10101010101013,160L214.14141414141415,160L218.18181818181822,160L222.22222222222223,160L226.26262626262624,160L230.3030303030303,160L234.34343434343435,160L238.3838383838384,160L242.42424242424244,160L246.4646464646465,160L250.50505050505052,160L254.5454545454546,160L258.5858585858586,160L262.62626262626264,160L266.6666666666667,160L270.7070707070707,160L274.74747474747477,160L278.7878787878788,160L282.82828282828285,160L286.8686868686869,160L290.90909090909093,160L294.949494949495,160L298.989898989899,160L303.030303030303,160L307.0707070707071,160L311.11111111111114,160L315.1515151515152,160L319.1919191919192,160L323.2323232323232,160L327.27272727272725,160L331.31313131313135,160L335.3535353535354,160L339.3939393939394,160L343.4343434343434,160L347.47474747474746,160L351.51515151515156,160L355.5555555555556,160L359.5959595959596,160L363.6363636363636,160L367.67676767676767,160L371.71717171717177,160L375.75757575757575,160L379.7979797979798,160L383.83838383838383,160L387.87878787878793,160L391.919191919192,160L395.95959595959596,160L400.0,160L400.0,350.1L395.95959595959596,340.4000000000001L391.919191919192,330.9000000000001L387.87878787878793,321.60000000000014L383.83838383838383,312.5L379.7979797979798,303.6L375.75757575757575,294.9000000000001L371.71717171717177,286.4000000000001L367.67676767676767,278.1L363.6363636363636,270.0L359.5959595959596,262.1L355.5555555555556,254.40000000000006L351.51515151515156,246.9000000000001L347.47474747474746,239.59999999999997L343.4343434343434,232.5L339.3939393939394,225.60000000000002L335.3535353535354,218.90000000000003L331.31313131313135,212.4000000000001L327.27272727272725,206.09999999999997L323.2323232323232,200.0L319.1919191919192,194.10000000000002L315.1515151515152,188.40000000000003L311.11111111111114,182.9L307.0707070707071,177.60000000000002L303.030303030303,172.5L298.989898989899,167.60000000000002L294.949494949495,162.90000000000003L290.90909090909093,158.4L286.8686868686869,154.10000000000002L282.82828282828285,150.0L278.7878787878788,146.10000000000002L274.74747474747477,142.40000000000003L270.7070707070707,138.9L266.6666666666667,135.60000000000002L262.62626262626264,132.5L258.5858585858586,129.60000000000002L254.5454545454546,126.9L250.50505050505052,124.4L246.4646464646465,122.10000000000001L242.42424242424244,120.0L238.3838383838384,118.10000000000001L234.34343434343435,116.4L230.3030303030303,114.9L226.26262626262624,113.60000000000001L222.22222222222223,112.5L218.18181818181822,111.6L214.14141414141415,110.9L210.10101010101013,110.4L206.06060606060606,110.1L202.02020202020202,110.0L197.97979797979798,110.1L193.93939393939397,110.39999999999999L189.8989898989899,110.9L185.85858585858588,111.6L181.8181818181818,112.5L177.7777777777778,113.6L173.73737373737373,114.9L169.6969696969697,116.4L165.65656565656568,118.1L161.6161616161616,120.0L157.5757575757576,122.1L153.53535353535355,124.39999999999999L149.4949494949495,126.89999999999999L145.45454545454547,129.6L141.41414141414143,132.5L137.37373737373738,135.6L133.33333333333334,138.89999999999998L129.2929292929293,142.39999999999998L125.25252525252526,146.1L121.21212121212122,150.0L117.17171717171718,154.1L113.13131313131312,158.39999999999998L109.09090909090911,162.89999999999998L105.05050505050507,167.6L101.01010101010101,172.5L96.96969696969698,177.59999999999997L92.92929292929294,182.89999999999998L88.8888888888889,188.39999999999998L84.84848484848484,194.10000000000002L80.8080808080808,200.0L76.76767676767679,206.09999999999997L72.72727272727272,212.40000000000003L68.68686868686869,218.89999999999998L64.64646464646465,225.59999999999997L60.60606060606061,232.5L56.565656565656575,239.59999999999997L52.52525252525252,246.90000000000003L48.48484848484849,254.4L44.44444444444445,262.1L40.4040404040404,270.0L36.363636363636374,278.1L32.32323232323232,286.4L28.282828282828287,294.9L24.242424242424228,303.6L20.2020202020202,312.5L16.161616161616173,321.59999999999997L12.121212121212114,330.90000000000003L8.080808080808087,340.4L4.0404040404040265,350.1L0.0,360.0Z" fill="rgb(228,111,112)"/>
                         </g>
                    </g>
                    <g clip-path="url(#42)">
                         <clipPath id="42">
                              <rect x="0" y="0" width="400" height="80"/>
                         </clipPath>
                         <g>
                              <path d="M0.0,40.0L4.0404040404040265,49.89999999999995L8.080808080808087,59.599999999999994L12.121212121212114,69.09999999999997L16.161616161616173,78.40000000000003L20.2020202020202,87.5L24.242424242424228,96.39999999999998L28.282828282828287,105.10000000000002L32.32323232323232,113.6L36.363636363636374,121.9L40.4040404040404,130.0L44.44444444444445,137.9L48.48484848484849,145.6L52.52525252525252,153.09999999999997L56.565656565656575,160.40000000000003L60.60606060606061,167.5L64.64646464646465,174.40000000000003L68.68686868686869,181.10000000000002L72.72727272727272,187.59999999999997L76.76767676767679,193.90000000000003L80.8080808080808,200.0L84.84848484848484,205.89999999999998L88.8888888888889,211.60000000000002L92.92929292929294,217.10000000000002L96.96969696969698,222.40000000000003L101.01010101010101,227.5L105.05050505050507,232.4L109.09090909090911,237.10000000000002L113.13131313131312,241.60000000000002L117.17171717171718,245.9L121.21212121212122,250.0L125.25252525252526,253.9L129.2929292929293,257.6L133.33333333333334,261.1L137.37373737373738,264.4L141.41414141414143,267.5L145.45454545454547,270.4L149.4949494949495,273.1L153.53535353535355,275.6L157.5757575757576,277.9L161.6161616161616,280.0L165.65656565656568,281.9L169.6969696969697,283.6L173.73737373737373,285.1L177.7777777777778,286.4L181.8181818181818,287.5L185.85858585858588,288.4L189.8989898989899,289.1L193.93939393939397,289.6L197.97979797979798,289.9L202.02020202020202,290.0L206.06060606060606,289.9L210.10101010101013,289.6L214.14141414141415,289.1L218.18181818181822,288.4L222.22222222222223,287.5L226.26262626262624,286.4L230.3030303030303,285.1L234.34343434343435,283.6L238.3838383838384,281.9L242.42424242424244,280.0L246.4646464646465,277.9L250.50505050505052,275.6L254.5454545454546,273.1L258.5858585858586,270.4L262.62626262626264,267.5L266.6666666666667,264.4L270.7070707070707,261.1L274.74747474747477,257.59999999999997L278.7878787878788,253.89999999999998L282.82828282828285,250.0L286.8686868686869,245.89999999999998L290.90909090909093,241.6L294.949494949495,237.09999999999997L298.989898989899,232.39999999999998L303.030303030303,227.5L307.0707070707071,222.39999999999998L311.11111111111114,217.1L315.1515151515152,211.59999999999997L319.1919191919192,205.89999999999998L323.2323232323232,200.0L327.27272727272725,193.90000000000003L331.31313131313135,187.5999999999999L335.3535353535354,181.09999999999997L339.3939393939394,174.39999999999998L343.4343434343434,167.5L347.47474747474746,160.40000000000003L351.51515151515156,153.0999999999999L355.5555555555556,145.59999999999994L359.5959595959596,137.89999999999998L363.6363636363636,130.0L367.67676767676767,121.9L371.71717171717177,113.59999999999991L375.75757575757575,105.09999999999994L379.7979797979798,96.39999999999998L383.83838383838383,87.5L387.87878787878793,78.39999999999986L391.919191919192,69.09999999999991L395.95959595959596,59.59999999999994L400.0,49.89999999999995L400.0,240.0L395.95959595959596,240.0L391.919191919192,240.0L387.87878787878793,240.0L383.83838383838383,240.0L379.7979797979798,240.0L375.75757575757575,240.0L371.71717171717177,240.0L367.67676767676767,240.0L363.6363636363636,240.0L359.5959595959596,240.0L355.5555555555556,240.0L351.51515151515156,240.0L347.47474747474746,240.0L343.4343434343434,240.0L339.3939393939394,240.0L335.3535353535354,240.0L331.31313131313135,240.0L327.27272727272725,240.0L323.2323232323232,240.0L319.1919191919192,240.0L315.1515151515152,240.0L311.11111111111114,240.0L307.0707070707071,240.0L303.030303030303,240.0L298.989898989899,240.0L294.949494949495,240.0L290.90909090909093,240.0L286.8686868686869,240.0L282.82828282828285,240.0L278.7878787878788,240.0L274.74747474747477,240.0L270.7070707070707,240.00000000000003L266.6666666666667,240.0L262.62626262626264,240.0L258.5858585858586,240.0L254.5454545454546,240.00000000000003L250.50505050505052,240.00000000000003L246.4646464646465,240.0L242.42424242424244,240.0L238.3838383838384,240.0L234.34343434343435,240.00000000000003L230.3030303030303,240.00000000000003L226.26262626262624,240.0L222.22222222222223,240.0L218.18181818181822,239.99999999999997L214.14141414141415,240.00000000000003L210.10101010101013,240.00000000000003L206.06060606060606,239.99999999999997L202.02020202020202,240.0L197.97979797979798,239.99999999999997L193.93939393939397,240.0L189.8989898989899,240.00000000000003L185.85858585858588,239.99999999999997L181.8181818181818,240.0L177.7777777777778,239.99999999999997L173.73737373737373,240.00000000000003L169.6969696969697,240.00000000000003L165.65656565656568,239.99999999999997L161.6161616161616,240.0L157.5757575757576,239.99999999999997L153.53535353535355,240.0L149.4949494949495,240.0L145.45454545454547,239.99999999999997L141.41414141414143,240.0L137.37373737373738,239.99999999999997L133.33333333333334,240.0L129.2929292929293,240.0L125.25252525252526,240.0L121.21212121212122,240.0L117.17171717171718,240.0L113.13131313131312,240.0L109.09090909090911,240.0L105.05050505050507,240.0L101.01010101010101,240.0L96.96969696969698,240.0L92.92929292929294,240.0L88.8888888888889,240.0L84.84848484848484,240.0L80.8080808080808,240.0L76.76767676767679,240.0L72.72727272727272,240.0L68.68686868686869,240.0L64.64646464646465,240.0L60.60606060606061,240.0L56.565656565656575,240.0L52.52525252525252,240.0L48.48484848484849,240.0L44.44444444444445,240.0L40.4040404040404,240.0L36.363636363636374,240.0L32.32323232323232,240.0L28.282828282828287,240.0L24.242424242424228,240.0L20.2020202020202,240.0L16.161616161616173,240.0L12.121212121212114,240.0L8.080808080808087,240.0L4.0404040404040265,240.0L0.0,240.0Z" fill="rgb(31,119,180)"/>
                         </g>
                    </g>
                    <g clip-path="url(#43)">
                         <clipPath id="43">
                              <rect x="0" y="0" width="400" height="80"/>
                         </clipPath>
                         <g>
                              <path d="M0.0,240L4.0404040404040265,240L8.080808080808087,240L12.121212121212114,240L16.161616161616173,240L20.2020202020202,240L24.242424242424228,240L28.282828282828287,240L32.32323232323232,240L36.363636363636374,240L40.4040404040404,240L44.44444444444445,240L48.48484848484849,240L52.52525252525252,240L56.565656565656575,240L60.60606060606061,240L64.64646464646465,240L68.68686868686869,240L72.72727272727272,240L76.76767676767679,240L80.8080808080808,240L84.84848484848484,240L88.8888888888889,240L92.92929292929294,240L96.96969696969698,240L101.01010101010101,240L105.05050505050507,240L109.09090909090911,240L113.13131313131312,240L117.17171717171718,240L121.21212121212122,240L125.25252525252526,240L129.2929292929293,240L133.33333333333334,240L137.37373737373738,240L141.41414141414143,240L145.45454545454547,240L149.4949494949495,240L153.53535353535355,240L157.5757575757576,240L161.6161616161616,240L165.65656565656568,240L169.6969696969697,240L173.73737373737373,240L177.7777777777778,240L181.8181818181818,240L185.85858585858588,240L189.8989898989899,240L193.93939393939397,240L197.97979797979798,240L202.02020202020202,240L206.06060606060606,240L210.10101010101013,240L214.14141414141415,240L218.18181818181822,240L222.22222222222223,240L226.26262626262624,240L230.3030303030303,240L234.34343434343435,240L238.3838383838384,240L242.42424242424244,240L246.4646464646465,240L250.50505050505052,240L254.5454545454546,240L258.5858585858586,240L262.62626262626264,240L266.6666666666667,240L270.7070707070707,240L274.74747474747477,240L278.7878787878788,240L282.82828282828285,240L286.8686868686869,240L290.90909090909093,240L294.949494949495,240L298.989898989899,240L303.030303030303,240L307.0707070707071,240L311.11111111111114,240L315.1515151515152,240L319.1919191919192,240L323.2323232323232,240L327.27272727272725,240L331.31313131313135,240L335.3535353535354,240L339.3939393939394,240L343.4343434343434,240L347.47474747474746,240L351.51515151515156,240L355.5555555555556,240L359.5959595959596,240L363.6363636363636,240L367.67676767676767,240L371.71717171717177,240L375.75757575757575,240L379.7979797979798,240L383.83838383838383,240L387.87878787878793,240L391.919191919192,240L395.95959595959596,240L400.0,240L400.0,430.1L395.95959595959596,420.4000000000001L391.919191919192,410.9000000000001L387.87878787878793,401.60000000000014L383.83838383838383,392.5L379.7979797979798,383.6L375.75757575757575,374.9000000000001L371.71717171717177,366.4000000000001L367.67676767676767,358.1L363.6363636363636,350.0L359.5959595959596,342.1L355.5555555555556,334.4000000000001L351.51515151515156,326.9000000000001L347.47474747474746,319.59999999999997L343.4343434343434,312.5L339.3939393939394,305.6L335.3535353535354,298.90000000000003L331.31313131313135,292.4000000000001L327.27272727272725,286.09999999999997L323.2323232323232,280.0L319.1919191919192,274.1L315.1515151515152,268.40000000000003L311.11111111111114,262.9L307.0707070707071,257.6L303.030303030303,252.5L298.989898989899,247.60000000000002L294.949494949495,242.90000000000003L290.90909090909093,238.4L286.8686868686869,234.10000000000002L282.82828282828285,230.0L278.7878787878788,226.10000000000002L274.74747474747477,222.40000000000003L270.7070707070707,218.9L266.6666666666667,215.60000000000002L262.62626262626264,212.5L258.5858585858586,209.60000000000002L254.5454545454546,206.9L250.50505050505052,204.4L246.4646464646465,202.10000000000002L242.42424242424244,200.0L238.3838383838384,198.10000000000002L234.34343434343435,196.4L230.3030303030303,194.9L226.26262626262624,193.60000000000002L222.22222222222223,192.5L218.18181818181822,191.6L214.14141414141415,190.9L210.10101010101013,190.4L206.06060606060606,190.1L202.02020202020202,190.0L197.97979797979798,190.1L193.93939393939397,190.39999999999998L189.8989898989899,190.9L185.85858585858588,191.6L181.8181818181818,192.5L177.7777777777778,193.6L173.73737373737373,194.9L169.6969696969697,196.4L165.65656565656568,198.1L161.6161616161616,200.0L157.5757575757576,202.1L153.53535353535355,204.39999999999998L149.4949494949495,206.89999999999998L145.45454545454547,209.6L141.41414141414143,212.5L137.37373737373738,215.6L133.33333333333334,218.89999999999998L129.2929292929293,222.39999999999998L125.25252525252526,226.1L121.21212121212122,230.0L117.17171717171718,234.1L113.13131313131312,238.39999999999998L109.09090909090911,242.89999999999998L105.05050505050507,247.6L101.01010101010101,252.5L96.96969696969698,257.59999999999997L92.92929292929294,262.9L88.8888888888889,268.4L84.84848484848484,274.1L80.8080808080808,280.0L76.76767676767679,286.09999999999997L72.72727272727272,292.40000000000003L68.68686868686869,298.9L64.64646464646465,305.59999999999997L60.60606060606061,312.5L56.565656565656575,319.59999999999997L52.52525252525252,326.90000000000003L48.48484848484849,334.4L44.44444444444445,342.1L40.4040404040404,350.0L36.363636363636374,358.1L32.32323232323232,366.4L28.282828282828287,374.9L24.242424242424228,383.6L20.2020202020202,392.5L16.161616161616173,401.59999999999997L12.121212121212114,410.90000000000003L8.080808080808087,420.4L4.0404040404040265,430.1L0.0,440.0Z" fill="rgb(214,39,40)"/>
                         </g>
                    </g>
               </g>
          </g>
          <g transform="translate(0,140)">
               <text pointer-events="none" y="3" dy=".71em" transform="translate(200.0,-15)" fill="rgb(0,0,0)" text-anchor="middle">mirror</text>
          </g>
     </g>
</svg>
