<svg xmlns="http://www.w3.org/2000/svg" xmlns:xlink="http://www.w3.org/1999/xlink" font-size="10px" font-family="sans-serif" fill="none" stroke="none" stroke-width="1.5" width="430" height="225">
     <g transform="translate(20,5)">
          <line shape-rendering="crispEdges" x1="40.4040404040404" y1="200" x2="40.4040404040404" y2="205" stroke="rgb(0,0,0)" stroke-width="1"/>
          <line shape-rendering="crispEdges" x1="80.8080808080808" y1="200" x2="80.8080808080808" y2="205" stroke="rgb(0,0,0)" stroke-width="1"/>
          <line shape-rendering="crispEdges" x1="121.21212121212122" y1="200" x2="121.21212121212122" y2="205" stroke="rgb(0,0,0)" stroke-width="1"/>
          <line shape-rendering="crispEdges" x1="161.6161616161616" y1="200" x2="161.6161616161616" y2="205" stroke="rgb(0,0,0)" stroke-width="1"/>
          <line shape-rendering="crispEdges" x1="202.02020202020202" y1="200" x2="202.02020202020202" y2="205" stroke="rgb(0,0,0)" stroke-width="1"/>
          <line shape-rendering="crispEdges" x1="242.42424242424244" y1="200" x2="242.42424242424244" y2="205" stroke="rgb(0,0,0)" stroke-width="1"/>
          <line shape-rendering="crispEdges" x1="282.82828282828285" y1="200" x2="282.82828282828285" y2="205" stroke="rgb(0,0,0)" stroke-width="1"/>
          <line shape-rendering="crispEdges" x1="323.2323232323232" y1="200" x2="323.2323232323232" y2="205" stroke="rgb(0,0,0)" stroke-width="1"/>
          <line shape-rendering="crispEdges" x1="363.6363636363636" y1="200" x2="363.6363636363636" y2="205" stroke="rgb(0,0,0)" stroke-width="1"/>
     </g>
     <g transform="translate(20,5)">
          <text pointer-events="none" y="3" dy=".71em" transform="translate(40.4040404040404,205)" fill="rgb(0,0,0)" text-anchor="middle">1</text>
          <text pointer-events="none" y="3" dy=".71em" transform="translate(80.8080808080808,205)" fill="rgb(0,0,0)" text-anchor="middle">2</text>
          <text pointer-events="none" y="3" dy=".71em" transform="translate(121.21212121212122,205)" fill="rgb(0,0,0)" text-anchor="middle">3</text>
          <text pointer-events="none" y="3" dy=".71em" transform="translate(161.6161616161616,205)" fill="rgb(0,0,0)" text-anchor="middle">4</text>
          <text pointer-events="none" y="3" dy=".71em" transform="translate(202.02020202020202,205)" fill="rgb(0,0,0)" text-anchor="middle">5</text>
          <text pointer-events="none" y="3" dy=".71em" transform="translate(242.42424242424244,205)" fill="rgb(0,0,0)" text-anchor="middle">6</text>
          <text pointer-events="none" y="3" dy=".71em" transform="translate(282.82828282828285,205)" fill="rgb(0,0,0)" text-anchor="middle">7</text>
          <text pointer-events="none" y="3" dy=".71em" transform="translate(323.2323232323232,205)" fill="rgb(0,0,0)" text-anchor="middle">8</text>
          <text pointer-events="none" y="3" dy=".71em" transform="translate(363.6363636363636,205)" fill="rgb(0,0,0)" text-anchor="middle">9</text>
     </g>
     <g transform="translate(20,5)">
          <line shape-rendering="crispEdges" x1="0" y1="200.0" x2="400" y2="200.0" stroke="rgb(0,0,0)" stroke-width="1"/>
          <line shape-rendering="crispEdges" x1="0" y1="128.57142857142856" x2="400" y2="128.57142857142856" stroke="rgb(128,128,128)" stroke-opacity="0.2" stroke-width="1"/>
          <line shape-rendering="crispEdges" x1="0" y1="57.14285714285714" x2="400" y2="57.14285714285714" stroke="rgb(128,128,128)" stroke-opacity="0.2" stroke-width="1"/>
     </g>
     <g transform="translate(20,5)">
          <text pointer-events="none" x="-3" dy=".35em" transform="translate(0,200.0)" fill="rgb(0,0,0)" text-anchor="end">0</text>
          <text pointer-events="none" x="-3" dy=".35em" transform="translate(0,128.57142857142856)" fill="rgb(0,0,0)" text-anchor="end">5</text>
          <text pointer-events="none" x="-3" dy=".35em" transform="translate(0,57.14285714285714)" fill="rgb(0,0,0)" text-anchor="end">10</text>
     </g>
     <g transform="translate(20,5)">
          <g>
               <g>
                    <path d="M0.0,165.9973592564044L4.040404040404041,166.3144576092758L8.080808080808081,163.78510824981967L12.121212121212123,160.1420840476904L16.161616161616163,164.22428023799117L20.2020202020202,163.20000777928254L24.242424242424246,162.34942118531376L28.28282828282828,155.52670537890356L32.323232323232325,159.95712704472666L36.36363636363637,153.46413453711676L40.4040404040404,153.2867255327768L44.44444444444445,156.194323877034L48.48484848484849,154.45913186379846L52.52525252525253,151.42316015891353L56.56565656565656,152.9479017710385L60.60606060606061,154.7358863153011L64.64646464646465,156.53359811636585L68.68686868686869,150.16463494037146L72.72727272727273,152.98224061565585L76.76767676767678,154.32675844387686L80.8080808080808,157.41186825331062L84.84848484848484,154.4936673332876L88.8888888888889,156.95434062906259L92.92929292929294,154.84463669298944L96.96969696969698,159.82999801157086L101.01010101010101,159.06420889547843L105.05050505050507,161.93534924975822L109.09090909090911,159.81425751585755L113.13131313131312,160.77632203902408L117.17171717171718,166.36288513209968L121.21212121212122,164.7130525979589L125.25252525252526,169.8407637761441L129.2929292929293,170.4842984232836L133.33333333333334,171.4192441447132L137.37373737373738,168.92302796633552L141.41414141414143,174.49352031053644L145.45454545454547,171.7013258842445L149.4949494949495,174.20290969050455L153.53535353535355,178.30571694296862L157.5757575757576,177.34545769533977L161.6161616161616,178.3801812182429L165.65656565656568,176.94871627247284L169.6969696969697,180.65835840410705L173.73737373737373,182.6239296997576L177.7777777777778,180.34109385080825L181.8181818181818,183.4492807466279L185.85858585858588,181.67987895991533L189.8989898989899,178.9366096367379L193.93939393939397,180.2143429455885L197.97979797979798,182.22069074579417L202.02020202020202,182.06337715760128L206.06060606060606,179.67480953907832L210.10101010101013,178.08946410053034L214.14141414141415,182.94708446898068L218.18181818181822,181.59678243417574L222.22222222222223,179.8407311289834L226.26262626262624,177.00002068447867L230.3030303030303,176.17254020446214L234.34343434343435,176.15651750374386L238.3838383838384,175.44218953353624L242.42424242424244,172.86942352625493L246.4646464646465,172.68629297740506L250.50505050505052,172.01593919700335L254.5454545454546,169.3886308495004L258.5858585858586,163.82842685350582L262.62626262626264,166.09584998775276L266.6666666666667,162.6227693053429L270.7070707070707,160.19916534649548L274.74747474747477,161.11779212086688L278.7878787878788,157.6368122034741L282.82828282828285,157.9000848859087L286.8686868686869,154.86252122881115L290.90909090909093,157.97447947520243L294.949494949495,155.53065320047415L298.989898989899,156.83879883705234L303.030303030303,154.42611403904468L307.0707070707071,157.34143141439753L311.11111111111114,154.59299627363802L315.1515151515152,153.31425851814012L319.1919191919192,152.2955227249119L323.2323232323232,157.21538610528808L327.27272727272725,155.42017259700012L331.31313131313135,151.75476533517286L335.3535353535354,153.98258428028728L339.3939393939394,152.24304865780095L343.4343434343434,153.73129028583264L347.47474747474746,157.84629755547732L351.51515151515156,161.69619462746576L355.5555555555556,158.61432208202402L359.5959595959596,157.59520343026924L363.6363636363636,164.4825799969565L367.67676767676767,165.71805620637457L371.71717171717177,165.98700554802718L375.75757575757575,168.26334683845556L379.7979797979798,167.1730656614041L383.83838383838383,165.65987233325677L387.87878787878793,172.2578948483853L391.919191919192,171.79170145351884L395.95959595959596,171.68938574899332L400.0,173.33228543212954L400.0,200.0L395.95959595959596,200.0L391.919191919192,200.0L387.87878787878793,200.0L383.83838383838383,200.0L379.7979797979798,200.0L375.75757575757575,200.0L371.71717171717177,200.0L367.67676767676767,200.0L363.6363636363636,200.0L359.5959595959596,200.0L355.5555555555556,200.0L351.51515151515156,200.0L347.47474747474746,200.0L343.4343434343434,200.0L339.3939393939394,200.0L335.3535353535354,200.0L331.31313131313135,200.0L327.27272727272725,200.0L323.2323232323232,200.0L319.1919191919192,200.0L315.1515151515152,200.0L311.11111111111114,200.0L307.0707070707071,200.0L303.030303030303,200.0L298.989898989899,200.0L294.949494949495,200.0L290.90909090909093,200.0L286.8686868686869,200.0L282.82828282828285,200.0L278.7878787878788,200.0L274.74747474747477,200.0L270.7070707070707,200.0L266.6666666666667,200.0L262.62626262626264,200.0L258.5858585858586,200.0L254.5454545454546,200.0L250.50505050505052,200.0L246.4646464646465,200.0L242.42424242424244,200.0L238.3838383838384,200.0L234.34343434343435,200.0L230.3030303030303,200.0L226.26262626262624,200.0L222.22222222222223,200.0L218.18181818181822,200.0L214.14141414141415,200.0L210.10101010101013,200.0L206.06060606060606,200.0L202.02020202020202,200.0L197.97979797979798,200.0L193.93939393939397,200.0L189.8989898989899,200.0L185.85858585858588,200.0L181.8181818181818,200.0L177.7777777777778,200.0L173.73737373737373,200.0L169.6969696969697,200.0L165.65656565656568,200.0L161.6161616161616,200.0L157.5757575757576,200.0L153.53535353535355,200.0L149.4949494949495,200.0L145.45454545454547,200.0L141.41414141414143,200.0L137.37373737373738,200.0L133.33333333333334,200.0L129.2929292929293,200.0L125.25252525252526,200.0L121.21212121212122,200.0L117.17171717171718,200.0L113.13131313131312,200.0L109.09090909090911,200.0L105.05050505050507,200.0L101.01010101010101,200.0L96.96969696969698,200.0L92.92929292929294,200.0L88.8888888888889,200.0L84.84848484848484,200.0L80.8080808080808,200.0L76.76767676767678,200.0L72.72727272727273,200.0L68.68686868686869,200.0L64.64646464646465,200.0L60.60606060606061,200.0L56.56565656565656,200.0L52.52525252525253,200.0L48.48484848484849,200.0L44.44444444444445,200.0L40.4040404040404,200.0L36.36363636363637,200.0L32.323232323232325,200.0L28.28282828282828,200.0L24.242424242424246,200.0L20.2020202020202,200.0L16.161616161616163,200.0L12.121212121212123,200.0L8.080808080808081,200.0L4.040404040404041,200.0L0.0,200.0Z" fill="rgb(31,119,180)"/>
               </g>
               <g>
                    <path d="M0.0,135.95305866628948L4.040404040404041,135.14223089055054L8.080808080808081,127.30404579257763L12.121212121212123,120.71278632850795L16.161616161616163,128.19948411845357L20.2020202020202,123.15448122821579L24.242424242424246,120.64843620693627L28.28282828282828,111.47264137130432L32.323232323232325,116.61836582452918L36.36363636363637,111.29571990488847L40.4040404040404,108.03620790577271L44.44444444444445,112.42704219620137L48.48484848484849,112.1895538009006L52.52525252525253,106.04161157454394L56.56565656565656,107.22104039600035L60.60606060606061,111.4119583233834L64.64646464646465,107.85733476930388L68.68686868686869,104.38063721033862L72.72727272727273,107.43528857019223L76.76767676767678,105.64881013901027L80.8080808080808,110.09353692697897L84.84848484848484,108.80408493269385L88.8888888888889,116.62358621105506L92.92929292929294,109.86534966342433L96.96969696969698,115.92425377112005L101.01010101010101,115.84121233248294L105.05050505050507,124.80463615727015L109.09090909090911,125.04369168499142L113.13131313131312,122.30997822655762L117.17171717171718,129.64752826898865L121.21212121212122,128.42320363341958L125.25252525252526,136.4533899788416L129.2929292929293,137.1813657675727L133.33333333333334,141.63714521874306L137.37373737373738,140.54225277869514L141.41414141414143,148.61446579610794L145.45454545454547,142.66606530958808L149.4949494949495,147.42208477089946L153.53535353535355,152.58370572878297L157.5757575757576,153.02103403461123L161.6161616161616,157.63223857036928L165.65656565656568,155.63251733848284L169.6969696969697,162.6119130570683L173.73737373737373,163.04701001335988L177.7777777777778,158.94659925577935L181.8181818181818,165.2107368495791L185.85858585858588,166.1967214754462L189.8989898989899,159.47394974206043L193.93939393939397,165.46400849672187L197.97979797979798,167.33285457110318L202.02020202020202,161.1187071121511L206.06060606060606,162.42436640151521L210.10101010101013,161.42583902701415L214.14141414141415,159.37653157780596L218.18181818181822,157.01241200018623L222.22222222222223,155.3937020969744L226.26262626262624,156.49354601902806L230.3030303030303,153.59433181325892L234.34343434343435,148.86612227124468L238.3838383838384,149.4880370308828L242.42424242424244,144.46056944094917L246.4646464646465,143.52549693222585L250.50505050505052,141.42791935486886L254.5454545454546,137.01291532587345L258.5858585858586,131.52025698829254L262.62626262626264,127.87304525435988L266.6666666666667,127.73983870588972L270.7070707070707,121.89372371655456L274.74747474747477,119.09311031819078L278.7878787878788,115.07726332866773L282.82828282828285,116.11696673263035L286.8686868686869,109.17750999638743L290.90909090909093,112.99713906880781L294.949494949495,109.34434123988203L298.989898989899,109.70070005615051L303.030303030303,107.40779401214678L307.0707070707071,109.91260831331246L311.11111111111114,111.16728708794432L315.1515151515152,104.58550840324762L319.1919191919192,102.91261142277193L323.2323232323232,112.22607821852677L327.27272727272725,106.29818737647531L331.31313131313135,105.17585406400418L335.3535353535354,111.54359859646712L339.3939393939394,108.93208182208781L343.4343434343434,108.21784880584369L347.47474747474746,114.68255395598163L351.51515151515156,122.4945170922073L355.5555555555556,120.19369816771444L359.5959595959596,120.90321818700811L363.6363636363636,125.99070347414056L367.67676767676767,127.12710034971126L371.71717171717177,131.30863785796106L375.75757575757575,137.71922131791132L379.7979797979798,138.1677336852959L383.83838383838383,133.72673203926092L387.87878787878793,139.1959943070777L391.919191919192,145.32696453993483L395.95959595959596,146.00648292822933L400.0,150.39636259119732L400.0,173.33228543212954L395.95959595959596,171.68938574899332L391.919191919192,171.79170145351884L387.87878787878793,172.2578948483853L383.83838383838383,165.65987233325674L379.7979797979798,167.1730656614041L375.75757575757575,168.26334683845556L371.71717171717177,165.98700554802718L367.67676767676767,165.71805620637454L363.6363636363636,164.4825799969565L359.5959595959596,157.59520343026927L355.5555555555556,158.61432208202402L351.51515151515156,161.69619462746576L347.47474747474746,157.84629755547732L343.4343434343434,153.73129028583264L339.3939393939394,152.24304865780095L335.3535353535354,153.98258428028728L331.31313131313135,151.7547653351729L327.27272727272725,155.42017259700012L323.2323232323232,157.21538610528808L319.1919191919192,152.2955227249119L315.1515151515152,153.31425851814012L311.11111111111114,154.59299627363802L307.0707070707071,157.34143141439753L303.030303030303,154.42611403904468L298.989898989899,156.8387988370523L294.949494949495,155.53065320047415L290.90909090909093,157.97447947520243L286.8686868686869,154.86252122881115L282.82828282828285,157.9000848859087L278.7878787878788,157.6368122034741L274.74747474747477,161.11779212086688L270.7070707070707,160.19916534649548L266.6666666666667,162.6227693053429L262.62626262626264,166.09584998775276L258.5858585858586,163.82842685350582L254.5454545454546,169.3886308495004L250.50505050505052,172.01593919700335L246.4646464646465,172.68629297740506L242.42424242424244,172.86942352625493L238.3838383838384,175.44218953353624L234.34343434343435,176.15651750374386L230.3030303030303,176.17254020446214L226.26262626262624,177.00002068447867L222.22222222222223,179.8407311289834L218.18181818181822,181.59678243417574L214.14141414141415,182.94708446898068L210.10101010101013,178.08946410053034L206.06060606060606,179.67480953907832L202.02020202020202,182.06337715760128L197.97979797979798,182.22069074579417L193.93939393939397,180.2143429455885L189.8989898989899,178.9366096367379L185.85858585858588,181.67987895991533L181.8181818181818,183.4492807466279L177.7777777777778,180.34109385080822L173.73737373737373,182.6239296997576L169.6969696969697,180.65835840410708L165.65656565656568,176.94871627247284L161.6161616161616,178.38018121824288L157.5757575757576,177.34545769533977L153.53535353535355,178.30571694296862L149.4949494949495,174.20290969050455L145.45454545454547,171.7013258842445L141.41414141414143,174.49352031053644L137.37373737373738,168.92302796633552L133.33333333333334,171.4192441447132L129.2929292929293,170.4842984232836L125.25252525252526,169.84076377614406L121.21212121212122,164.7130525979589L117.17171717171718,166.36288513209968L113.13131313131312,160.7763220390241L109.09090909090911,159.81425751585755L105.05050505050507,161.93534924975822L101.01010101010101,159.06420889547843L96.96969696969698,159.82999801157086L92.92929292929294,154.84463669298944L88.8888888888889,156.95434062906259L84.84848484848484,154.4936673332876L80.8080808080808,157.41186825331062L76.76767676767678,154.32675844387686L72.72727272727273,152.98224061565585L68.68686868686869,150.16463494037146L64.64646464646465,156.53359811636582L60.60606060606061,154.73588631530112L56.56565656565656,152.94790177103852L52.52525252525253,151.42316015891353L48.48484848484849,154.45913186379846L44.44444444444445,156.194323877034L40.4040404040404,153.2867255327768L36.36363636363637,153.46413453711676L32.323232323232325,159.95712704472666L28.28282828282828,155.52670537890356L24.242424242424246,162.3494211853138L20.2020202020202,163.20000777928254L16.161616161616163,164.22428023799114L12.121212121212123,160.1420840476904L8.080808080808081,163.7851082498197L4.040404040404041,166.3144576092758L0.0,165.9973592564044Z" fill="rgb(174,199,232)"/>
               </g>
               <g>
                    <path d="M0.0,105.39039213852917L4.040404040404041,101.98549479783227L8.080808080808081,95.75583235902471L12.121212121212123,85.55640171028864L16.161616161616163,87.43271544768737L20.2020202020202,86.0257584037577L24.242424242424246,83.45107658809772L28.28282828282828,67.0566333652417L32.323232323232325,73.84852696402265L36.36363636363637,68.6311369317368L40.4040404040404,62.16570121812612L44.44444444444445,67.8960609122214L48.48484848484849,65.08659749154351L52.52525252525253,57.983660563955056L56.56565656565656,64.48830624272365L60.60606060606061,66.63744972003755L64.64646464646465,62.40154775541086L68.68686868686869,55.998415934235936L72.72727272727273,60.59397305712835L76.76767676767678,60.82534810173213L80.8080808080808,65.35440611489221L84.84848484848484,61.90289071240635L88.8888888888889,71.29861091138645L92.92929292929294,65.61328543458777L96.96969696969698,74.28395567949268L101.01010101010101,74.68814067816658L105.05050505050507,88.8080003298433L109.09090909090911,87.1538555961433L113.13131313131312,87.56155496228956L117.17171717171718,96.58303793422834L121.21212121212122,97.58623807304015L125.25252525252526,105.94198224470748L129.2929292929293,107.47462795753043L133.33333333333334,114.88427657602729L137.37373737373738,115.14033699821022L141.41414141414143,119.08406475024867L145.45454545454547,116.6618228085084L149.4949494949495,124.92510675722644L153.53535353535355,128.81127006383892L157.5757575757576,129.8892085877428L161.6161616161616,136.42055304791347L165.65656565656568,133.6848357441693L169.6969696969697,139.6002226889973L173.73737373737373,145.1022283630513L177.7777777777778,142.5958316690514L181.8181818181818,146.53878554578483L185.85858585858588,147.45434376865663L189.8989898989899,141.88541327270985L193.93939393939397,148.12915954199315L197.97979797979798,148.47485536528202L202.02020202020202,145.12489140176615L206.06060606060606,143.36775060244074L210.10101010101013,139.2801974357781L214.14141414141415,136.01362166221813L218.18181818181822,133.09430112524794L222.22222222222223,132.76484917909417L226.26262626262624,130.30769574113023L230.3030303030303,130.3101493856925L234.34343434343435,123.83210229652295L238.3838383838384,124.46500076161084L242.42424242424244,119.43122121760268L246.4646464646465,114.27244772091575L250.50505050505052,109.61315230192223L254.5454545454546,103.80143271571339L258.5858585858586,94.14539951513183L262.62626262626264,95.05820597442529L266.6666666666667,92.59187118462125L270.7070707070707,84.06199259270116L274.74747474747477,81.78825930952316L278.7878787878788,75.82342601593538L282.82828282828285,73.35203640593926L286.8686868686869,66.53790367421956L290.90909090909093,70.7650904763261L294.949494949495,67.31236200760694L298.989898989899,63.4824012510971L303.030303030303,59.65639971944364L307.0707070707071,64.95058558984523L311.11111111111114,67.84744361324721L315.1515151515152,55.09857893820076L319.1919191919192,59.83468670970335L323.2323232323232,68.04930147006496L327.27272727272725,63.6356724245947L331.31313131313135,56.60884732685611L335.3535353535354,63.3555994624157L339.3939393939394,62.668459121883416L343.4343434343434,62.57522718775219L347.47474747474746,71.3165000105683L351.51515151515156,82.73971024085884L355.5555555555556,81.06391401482483L359.5959595959596,82.80419184177728L363.6363636363636,89.9998741387767L367.67676767676767,92.35462672587852L371.71717171717177,98.27357944346588L375.75757575757575,105.58589482986194L379.7979797979798,108.68059007883546L383.83838383838383,99.10269285768415L387.87878787878793,107.324404051833L391.919191919192,114.94943066584125L395.95959595959596,115.96055657789796L400.0,123.4140874652297L400.0,150.39636259119732L395.95959595959596,146.00648292822933L391.919191919192,145.32696453993483L387.87878787878793,139.1959943070777L383.83838383838383,133.72673203926095L379.7979797979798,138.1677336852959L375.75757575757575,137.7192213179113L371.71717171717177,131.30863785796112L367.67676767676767,127.12710034971127L363.6363636363636,125.99070347414055L359.5959595959596,120.90321818700811L355.5555555555556,120.19369816771444L351.51515151515156,122.4945170922073L347.47474747474746,114.68255395598162L343.4343434343434,108.21784880584366L339.3939393939394,108.93208182208781L335.3535353535354,111.54359859646712L331.31313131313135,105.17585406400418L327.27272727272725,106.29818737647531L323.2323232323232,112.22607821852677L319.1919191919192,102.91261142277195L315.1515151515152,104.58550840324759L311.11111111111114,111.16728708794432L307.0707070707071,109.91260831331246L303.030303030303,107.40779401214677L298.989898989899,109.70070005615051L294.949494949495,109.34434123988203L290.90909090909093,112.99713906880781L286.8686868686869,109.17750999638743L282.82828282828285,116.11696673263035L278.7878787878788,115.07726332866773L274.74747474747477,119.09311031819078L270.7070707070707,121.89372371655453L266.6666666666667,127.73983870588972L262.62626262626264,127.8730452543599L258.5858585858586,131.52025698829254L254.5454545454546,137.01291532587345L250.50505050505052,141.42791935486886L246.4646464646465,143.52549693222585L242.42424242424244,144.46056944094917L238.3838383838384,149.4880370308828L234.34343434343435,148.86612227124468L230.3030303030303,153.59433181325892L226.26262626262624,156.49354601902806L222.22222222222223,155.39370209697444L218.18181818181822,157.01241200018623L214.14141414141415,159.37653157780596L210.10101010101013,161.42583902701415L206.06060606060606,162.4243664015152L202.02020202020202,161.1187071121511L197.97979797979798,167.3328545711032L193.93939393939397,165.46400849672187L189.8989898989899,159.47394974206043L185.85858585858588,166.19672147544617L181.8181818181818,165.2107368495791L177.7777777777778,158.94659925577938L173.73737373737373,163.04701001335988L169.6969696969697,162.6119130570683L165.65656565656568,155.63251733848284L161.6161616161616,157.63223857036928L157.5757575757576,153.02103403461123L153.53535353535355,152.58370572878297L149.4949494949495,147.42208477089946L145.45454545454547,142.66606530958808L141.41414141414143,148.61446579610794L137.37373737373738,140.54225277869514L133.33333333333334,141.63714521874303L129.2929292929293,137.1813657675727L125.25252525252526,136.45338997884164L121.21212121212122,128.42320363341958L117.17171717171718,129.64752826898868L113.13131313131312,122.3099782265576L109.09090909090911,125.04369168499142L105.05050505050507,124.80463615727018L101.01010101010101,115.84121233248294L96.96969696969698,115.92425377112005L92.92929292929294,109.86534966342433L88.8888888888889,116.62358621105506L84.84848484848484,108.80408493269383L80.8080808080808,110.09353692697897L76.76767676767678,105.64881013901028L72.72727272727273,107.43528857019221L68.68686868686869,104.38063721033862L64.64646464646465,107.85733476930389L60.60606060606061,111.41195832338339L56.56565656565656,107.22104039600035L52.52525252525253,106.04161157454394L48.48484848484849,112.1895538009006L44.44444444444445,112.42704219620137L40.4040404040404,108.03620790577273L36.36363636363637,111.29571990488846L32.323232323232325,116.61836582452918L28.28282828282828,111.47264137130429L24.242424242424246,120.64843620693625L20.2020202020202,123.15448122821579L16.161616161616163,128.1994841184536L12.121212121212123,120.71278632850795L8.080808080808081,127.3040457925776L4.040404040404041,135.14223089055054L0.0,135.95305866628948Z" fill="rgb(255,127,14)"/>
               </g>
               <g>
                    <path d="M0.0,73.49582235581092L4.040404040404041,66.9653898741389L8.080808080808081,59.090996354896845L12.121212121212123,49.912320463306514L16.161616161616163,51.541360569906686L20.2020202020202,49.742056121268746L24.242424242424246,44.27753299308583L28.28282828282828,26.722550941674797L32.323232323232325,33.30315647620861L36.36363636363637,28.707474655167573L40.4040404040404,20.62084208380918L44.44444444444445,25.98734742179579L48.48484848484849,20.910836976974764L52.52525252525253,13.346759101303064L56.56565656565656,15.430652389401729L60.60606060606061,18.528756927826635L64.64646464646465,12.900624435959202L68.68686868686869,11.504690058136873L72.72727272727273,15.8497239626642L76.76767676767678,17.236298866108143L80.8080808080808,17.855656767381106L84.84848484848484,17.93601708407789L88.8888888888889,27.13886285621976L92.92929292929294,20.72010477357165L96.96969696969698,35.52781700483263L101.01010101010101,34.28069259326685L105.05050505050507,50.245319571569325L109.09090909090911,50.24092693987214L113.13131313131312,51.47450134230655L117.17171717171718,61.39731922047673L121.21212121212122,60.35207420751627L125.25252525252526,72.38812457998742L129.2929292929293,75.53956208887276L133.33333333333334,81.97403318862119L137.37373737373738,88.33344389238079L141.41414141414143,94.15943959954525L145.45454545454547,89.85391129753471L149.4949494949495,101.91865871754163L153.53535353535355,102.46481738711246L157.5757575757576,105.33186232546265L161.6161616161616,116.56222684776219L165.65656565656568,113.46563104030609L169.6969696969697,120.80578756582165L173.73737373737373,127.34173943279589L177.7777777777778,125.57056796504264L181.8181818181818,125.68370304168778L185.85858585858588,130.5493107852875L189.8989898989899,123.43069868443052L193.93939393939397,131.47637767108256L197.97979797979798,130.304479954082L202.02020202020202,127.66188755942161L206.06060606060606,127.98530667696315L210.10101010101013,123.30258620858882L214.14141414141415,117.41053735517589L218.18181818181822,110.21513407519284L222.22222222222223,113.59125927748546L226.26262626262624,104.22348033295185L230.3030303030303,108.65681109009718L234.34343434343435,101.82435009471173L238.3838383838384,100.91702910111975L242.42424242424244,90.0545570723598L246.4646464646465,81.70461128752788L250.50505050505052,80.68666830511147L254.5454545454546,74.10717601598029L258.5858585858586,60.67194927720615L262.62626262626264,59.18319555935939L266.6666666666667,57.49575982987852L270.7070707070707,45.03140764094202L274.74747474747477,44.63177528187006L278.7878787878788,34.18581239792394L282.82828282828285,31.203056934147867L286.8686868686869,22.149436778138465L290.90909090909093,27.606990374830218L294.949494949495,23.275934495345126L298.989898989899,18.07615386335138L303.030303030303,11.844125000625866L307.0707070707071,22.502883645342678L311.11111111111114,23.17093463333572L315.1515151515152,9.990546077346096L319.1919191919192,10.023024746489796L323.2323232323232,22.981389559263363L327.27272727272725,14.849107944200767L331.31313131313135,13.355256296527301L335.3535353535354,20.474813187139148L339.3939393939394,20.62560586116203L343.4343434343434,21.088180351491246L347.47474747474746,29.665669924351363L351.51515151515156,39.201729234939876L355.5555555555556,40.50729754095556L359.5959595959596,41.66477417552103L363.6363636363636,51.69488833434015L367.67676767676767,58.71544141737979L371.71717171717177,60.52890414682467L375.75757575757575,73.79467233724517L379.7979797979798,78.18380897443713L383.83838383838383,65.32075513743979L387.87878787878793,80.95455363484987L391.919191919192,84.1982816995453L395.95959595959596,89.26215593010996L400.0,99.69624105985892L400.0,123.4140874652297L395.95959595959596,115.96055657789798L391.919191919192,114.94943066584125L387.87878787878793,107.324404051833L383.83838383838383,99.10269285768413L379.7979797979798,108.68059007883545L375.75757575757575,105.58589482986194L371.71717171717177,98.27357944346588L367.67676767676767,92.35462672587852L363.6363636363636,89.99987413877673L359.5959595959596,82.80419184177725L355.5555555555556,81.06391401482485L351.51515151515156,82.73971024085884L347.47474747474746,71.31650001056829L343.4343434343434,62.5752271877522L339.3939393939394,62.66845912188341L335.3535353535354,63.35559946241572L331.31313131313135,56.60884732685611L327.27272727272725,63.6356724245947L323.2323232323232,68.04930147006496L319.1919191919192,59.83468670970338L315.1515151515152,55.098578938200774L311.11111111111114,67.84744361324721L307.0707070707071,64.95058558984522L303.030303030303,59.656399719443634L298.989898989899,63.482401251097116L294.949494949495,67.31236200760692L290.90909090909093,70.76509047632608L286.8686868686869,66.53790367421959L282.82828282828285,73.35203640593927L278.7878787878788,75.82342601593538L274.74747474747477,81.78825930952316L270.7070707070707,84.06199259270119L266.6666666666667,92.59187118462125L262.62626262626264,95.05820597442529L258.5858585858586,94.14539951513183L254.5454545454546,103.80143271571339L250.50505050505052,109.61315230192223L246.4646464646465,114.27244772091575L242.42424242424244,119.43122121760265L238.3838383838384,124.46500076161082L234.34343434343435,123.83210229652295L230.3030303030303,130.31014938569254L226.26262626262624,130.30769574113023L222.22222222222223,132.76484917909414L218.18181818181822,133.09430112524794L214.14141414141415,136.0136216622181L210.10101010101013,139.2801974357781L206.06060606060606,143.36775060244074L202.02020202020202,145.12489140176615L197.97979797979798,148.474855365282L193.93939393939397,148.12915954199315L189.8989898989899,141.88541327270983L185.85858585858588,147.45434376865663L181.8181818181818,146.53878554578483L177.7777777777778,142.59583166905136L173.73737373737373,145.1022283630513L169.6969696969697,139.60022268899726L165.65656565656568,133.6848357441693L161.6161616161616,136.4205530479135L157.5757575757576,129.8892085877428L153.53535353535355,128.81127006383895L149.4949494949495,124.92510675722644L145.45454545454547,116.6618228085084L141.41414141414143,119.08406475024869L137.37373737373738,115.14033699821022L133.33333333333334,114.8842765760273L129.2929292929293,107.4746279575304L125.25252525252526,105.94198224470748L121.21212121212122,97.58623807304016L117.17171717171718,96.58303793422834L113.13131313131312,87.56155496228955L109.09090909090911,87.15385559614329L105.05050505050507,88.80800032984328L101.01010101010101,74.68814067816658L96.96969696969698,74.28395567949269L92.92929292929294,65.61328543458777L88.8888888888889,71.29861091138645L84.84848484848484,61.90289071240635L80.8080808080808,65.35440611489221L76.76767676767678,60.825348101732104L72.72727272727273,60.59397305712838L68.68686868686869,55.998415934235936L64.64646464646465,62.401547755410874L60.60606060606061,66.6374497200376L56.56565656565656,64.48830624272364L52.52525252525253,57.983660563955056L48.48484848484849,65.0865974915435L44.44444444444445,67.89606091222142L40.4040404040404,62.16570121812611L36.36363636363637,68.63113693173682L32.323232323232325,73.84852696402265L28.28282828282828,67.05663336524171L24.242424242424246,83.45107658809772L20.2020202020202,86.02575840375769L16.161616161616163,87.43271544768737L12.121212121212123,85.55640171028864L8.080808080808081,95.75583235902471L4.040404040404041,101.98549479783227L0.0,105.39039213852917Z" fill="rgb(255,187,120)"/>
               </g>
          </g>
     </g>
</svg>
