<svg xmlns="http://www.w3.org/2000/svg" xmlns:xlink="http://www.w3.org/1999/xlink" font-size="10px" font-family="sans-serif" fill="none" stroke="none" stroke-width="1.5" width="430" height="225">
     <g transform="translate(20,5)">
          <line shape-rendering="crispEdges" x1="0" y1="200.0" x2="400" y2="200.0" stroke="rgb(0,0,0)" stroke-width="1"/>
          <line shape-rendering="crispEdges" x1="0" y1="150.0" x2="400" y2="150.0" stroke="rgb(238,238,238)" stroke-width="1"/>
          <line shape-rendering="crispEdges" x1="0" y1="100.0" x2="400" y2="100.0" stroke="rgb(238,238,238)" stroke-width="1"/>
          <line shape-rendering="crispEdges" x1="0" y1="50.0" x2="400" y2="50.0" stroke="rgb(238,238,238)" stroke-width="1"/>
          <line shape-rendering="crispEdges" x1="0" y1="0.0" x2="400" y2="0.0" stroke="rgb(238,238,238)" stroke-width="1"/>
     </g>
     <g transform="translate(20,5)">
          <text pointer-events="none" x="-3" dy=".35em" transform="translate(0,200.0)" fill="rgb(0,0,0)" text-anchor="end">0</text>
          <text pointer-events="none" x="-3" dy=".35em" transform="translate(0,150.0)" fill="rgb(0,0,0)" text-anchor="end">1</text>
          <text pointer-events="none" x="-3" dy=".35em" transform="translate(0,100.0)" fill="rgb(0,0,0)" text-anchor="end">2</text>
          <text pointer-events="none" x="-3" dy=".35em" transform="translate(0,50.0)" fill="rgb(0,0,0)" text-anchor="end">3</text>
          <text pointer-events="none" x="-3" dy=".35em" transform="translate(0,0.0)" fill="rgb(0,0,0)" text-anchor="end">4</text>
     </g>
     <g transform="translate(20,5)">
          <line shape-rendering="crispEdges" x1="40.4040404040404" y1="200" x2="40.4040404040404" y2="205" stroke="rgb(0,0,0)" stroke-width="1"/>
          <line shape-rendering="crispEdges" x1="80.8080808080808" y1="200" x2="80.8080808080808" y2="205" stroke="rgb(0,0,0)" stroke-width="1"/>
          <line shape-rendering="crispEdges" x1="121.21212121212122" y1="200" x2="121.21212121212122" y2="205" stroke="rgb(0,0,0)" stroke-width="1"/>
          <line shape-rendering="crispEdges" x1="161.6161616161616" y1="200" x2="161.6161616161616" y2="205" stroke="rgb(0,0,0)" stroke-width="1"/>
          <line shape-rendering="crispEdges" x1="202.02020202020202" y1="200" x2="202.02020202020202" y2="205" stroke="rgb(0,0,0)" stroke-width="1"/>
          <line shape-rendering="crispEdges" x1="242.42424242424244" y1="200" x2="242.42424242424244" y2="205" stroke="rgb(0,0,0)" stroke-width="1"/>
          <line shape-rendering="crispEdges" x1="282.82828282828285" y1="200" x2="282.82828282828285" y2="205" stroke="rgb(0,0,0)" stroke-width="1"/>
          <line shape-rendering="crispEdges" x1="323.2323232323232" y1="200" x2="323.2323232323232" y2="205" stroke="rgb(0,0,0)" stroke-width="1"/>
          <line shape-rendering="crispEdges" x1="363.6363636363636" y1="200" x2="363.6363636363636" y2="205" stroke="rgb(0,0,0)" stroke-width="1"/>
     </g>
     <g transform="translate(20,5)">
          <text pointer-events="none" y="3" dy=".71em" transform="translate(40.4040404040404,205)" fill="rgb(0,0,0)" text-anchor="middle">1</text>
          <text pointer-events="none" y="3" dy=".71em" transform="translate(80.8080808080808,205)" fill="rgb(0,0,0)" text-anchor="middle">2</text>
          <text pointer-events="none" y="3" dy=".71em" transform="translate(121.21212121212122,205)" fill="rgb(0,0,0)" text-anchor="middle">3</text>
          <text pointer-events="none" y="3" dy=".71em" transform="translate(161.6161616161616,205)" fill="rgb(0,0,0)" text-anchor="middle">4</text>
          <text pointer-events="none" y="3" dy=".71em" transform="translate(202.02020202020202,205)" fill="rgb(0,0,0)" text-anchor="middle">5</text>
          <text pointer-events="none" y="3" dy=".71em" transform="translate(242.42424242424244,205)" fill="rgb(0,0,0)" text-anchor="middle">6</text>
          <text pointer-events="none" y="3" dy=".71em" transform="translate(282.82828282828285,205)" fill="rgb(0,0,0)" text-anchor="middle">7</text>
          <text pointer-events="none" y="3" dy=".71em" transform="translate(323.2323232323232,205)" fill="rgb(0,0,0)" text-anchor="middle">8</text>
          <text pointer-events="none" y="3" dy=".71em" transform="translate(363.6363636363636,205)" fill="rgb(0,0,0)" text-anchor="middle">9</text>
     </g>
     <g transform="translate(20,5)">
          <path d="M0.0,78.83194085099726L4.040404040404041,62.6191203917673L8.080808080808081,52.87401884458427L12.121212121212123,46.58147281981954L16.161616161616163,74.24134833335987L20.2020202020202,32.18967491213448L24.242424242424246,68.14615066834875L28.28282828282828,29.669938033419356L32.323232323232325,49.207584991420674L36.36363636363637,41.86408433826341L40.4040404040404,14.678791152556073L44.44444444444445,53.6387260466515L48.48484848484849,33.05045507051102L52.52525252525253,41.74810196642596L56.56565656565656,10.499393143190758L60.60606060606061,39.7039572408172L64.64646464646465,46.168715974774244L68.68686868686869,46.81365414208247L72.72727272727273,4.273723658980032L76.76767676767678,34.488769681131515L80.8080808080808,13.996881223286664L84.84848484848484,6.939578023507124L88.8888888888889,24.16212438988913L92.92929292929294,55.05788793265657L96.96969696969698,50.83541557402964L101.01010101010101,54.51945236307611L105.05050505050507,46.4479319350707L109.09090909090911,46.53630894334654L113.13131313131312,82.12748307860628L117.17171717171718,85.00991304436359L121.21212121212122,69.10700293491311L125.25252525252526,83.856983797685L129.2929292929293,99.66131209828862L133.33333333333334,89.95171040014718L137.37373737373738,87.29399802279758L141.41414141414143,97.92461691170224L145.45454545454547,104.9434699432342L149.4949494949495,103.8460882966257L153.53535353535355,107.75861399241722L157.5757575757576,87.51351006764561L161.6161616161616,107.95108835721071L165.65656565656568,123.10877685013897L169.6969696969697,140.85408142625906L173.73737373737373,98.73822428845062L177.7777777777778,109.53877397641332L181.8181818181818,142.85717667809962L185.85858585858588,138.37095874511596L189.8989898989899,124.63179049996128L193.93939393939397,136.04252232295198L197.97979797979798,129.608349740084L202.02020202020202,134.50643014151098L206.06060606060606,116.57508099634633L210.10101010101013,101.15992305746352L214.14141414141415,96.8980796499371L218.18181818181822,119.12477937788034L222.22222222222223,120.88022154930962L226.26262626262624,111.08940198611849L230.3030303030303,102.79195434498831L234.34343434343435,119.89508214315956L238.3838383838384,107.1570319878066L242.42424242424244,81.58072259617437L246.4646464646465,78.27509496969236L250.50505050505052,85.75493062378634L254.5454545454546,51.700311430296466L258.5858585858586,47.80435734762281L262.62626262626264,80.47221869094174L266.6666666666667,64.07686174172028L270.7070707070707,64.42648387979551L274.74747474747477,67.0563399522216L278.7878787878788,51.84694452993861L282.82828282828285,41.2075189277746L286.8686868686869,38.322134011261625L290.90909090909093,43.95338187833292L294.949494949495,22.500598672143866L298.989898989899,35.231865690415134L303.030303030303,28.20634883121872L307.0707070707071,13.333623556382548L311.11111111111114,17.57147823023962L315.1515151515152,-0.09104406797092679L319.1919191919192,37.16327715656823L323.2323232323232,1.882125249772571L327.27272727272725,30.750217493303808L331.31313131313135,41.618512040167474L335.3535353535354,36.346208583407645L339.3939393939394,32.279844694120385L343.4343434343434,55.48854098770167L347.47474747474746,62.10727733492942L351.51515151515156,50.258680624633314L355.5555555555556,42.02958096699339L359.5959595959596,63.6120664571026L363.6363636363636,78.02462248498207L367.67676767676767,53.31908490034962L371.71717171717177,57.56336676685885L375.75757575757575,68.81598742086743L379.7979797979798,60.50668586358199L383.83838383838383,62.15306490168214L387.87878787878793,81.01042732915664L391.919191919192,78.27040062710739L395.95959595959596,94.35196892118702L400.0,117.08521509993322L400.0,199.0L395.95959595959596,199.0L391.919191919192,199.0L387.87878787878793,199.0L383.83838383838383,199.0L379.7979797979798,199.0L375.75757575757575,199.0L371.71717171717177,199.0L367.67676767676767,199.0L363.6363636363636,199.0L359.5959595959596,199.0L355.5555555555556,199.0L351.51515151515156,199.0L347.47474747474746,199.0L343.4343434343434,199.0L339.3939393939394,199.0L335.3535353535354,199.0L331.31313131313135,199.0L327.27272727272725,199.0L323.2323232323232,199.0L319.1919191919192,199.0L315.1515151515152,199.0L311.11111111111114,199.0L307.0707070707071,199.0L303.030303030303,199.0L298.989898989899,199.0L294.949494949495,199.0L290.90909090909093,199.0L286.8686868686869,199.0L282.82828282828285,199.0L278.7878787878788,199.0L274.74747474747477,199.0L270.7070707070707,199.0L266.6666666666667,199.0L262.62626262626264,199.0L258.5858585858586,199.0L254.5454545454546,199.0L250.50505050505052,199.0L246.4646464646465,199.0L242.42424242424244,199.0L238.3838383838384,199.0L234.34343434343435,199.0L230.3030303030303,199.0L226.26262626262624,199.0L222.22222222222223,199.0L218.18181818181822,199.0L214.14141414141415,199.0L210.10101010101013,199.0L206.06060606060606,199.0L202.02020202020202,199.0L197.97979797979798,199.0L193.93939393939397,199.0L189.8989898989899,199.0L185.85858585858588,199.0L181.8181818181818,199.0L177.7777777777778,199.0L173.73737373737373,199.0L169.6969696969697,199.0L165.65656565656568,199.0L161.6161616161616,199.0L157.5757575757576,199.0L153.53535353535355,199.0L149.4949494949495,199.0L145.45454545454547,199.0L141.41414141414143,199.0L137.37373737373738,199.0L133.33333333333334,199.0L129.2929292929293,199.0L125.25252525252526,199.0L121.21212121212122,199.0L117.17171717171718,199.0L113.13131313131312,199.0L109.09090909090911,199.0L105.05050505050507,199.0L101.01010101010101,199.0L96.96969696969698,199.0L92.92929292929294,199.0L88.8888888888889,199.0L84.84848484848484,199.0L80.8080808080808,199.0L76.76767676767678,199.0L72.72727272727273,199.0L68.68686868686869,199.0L64.64646464646465,199.0L60.60606060606061,199.0L56.56565656565656,199.0L52.52525252525253,199.0L48.48484848484849,199.0L44.44444444444445,199.0L40.4040404040404,199.0L36.36363636363637,199.0L32.323232323232325,199.0L28.28282828282828,199.0L24.242424242424246,199.0L20.2020202020202,199.0L16.161616161616163,199.0L12.121212121212123,199.0L8.080808080808081,199.0L4.040404040404041,199.0L0.0,199.0Z" fill="rgb(121,173,210)"/>
     </g>
     <g transform="translate(20,5)">
          <path d="M0.0,78.83194085099726L4.040404040404041,62.6191203917673L8.080808080808081,52.87401884458427L12.121212121212123,46.58147281981954L16.161616161616163,74.24134833335987L20.2020202020202,32.18967491213448L24.242424242424246,68.14615066834875L28.28282828282828,29.669938033419356L32.323232323232325,49.207584991420674L36.36363636363637,41.86408433826341L40.4040404040404,14.678791152556073L44.44444444444445,53.6387260466515L48.48484848484849,33.05045507051102L52.52525252525253,41.74810196642596L56.56565656565656,10.499393143190758L60.60606060606061,39.7039572408172L64.64646464646465,46.168715974774244L68.68686868686869,46.81365414208247L72.72727272727273,4.273723658980032L76.76767676767678,34.488769681131515L80.8080808080808,13.996881223286664L84.84848484848484,6.939578023507124L88.8888888888889,24.16212438988913L92.92929292929294,55.05788793265657L96.96969696969698,50.83541557402964L101.01010101010101,54.51945236307611L105.05050505050507,46.4479319350707L109.09090909090911,46.53630894334654L113.13131313131312,82.12748307860628L117.17171717171718,85.00991304436359L121.21212121212122,69.10700293491311L125.25252525252526,83.856983797685L129.2929292929293,99.66131209828862L133.33333333333334,89.95171040014718L137.37373737373738,87.29399802279758L141.41414141414143,97.92461691170224L145.45454545454547,104.9434699432342L149.4949494949495,103.8460882966257L153.53535353535355,107.75861399241722L157.5757575757576,87.51351006764561L161.6161616161616,107.95108835721071L165.65656565656568,123.10877685013897L169.6969696969697,140.85408142625906L173.73737373737373,98.73822428845062L177.7777777777778,109.53877397641332L181.8181818181818,142.85717667809962L185.85858585858588,138.37095874511596L189.8989898989899,124.63179049996128L193.93939393939397,136.04252232295198L197.97979797979798,129.608349740084L202.02020202020202,134.50643014151098L206.06060606060606,116.57508099634633L210.10101010101013,101.15992305746352L214.14141414141415,96.8980796499371L218.18181818181822,119.12477937788034L222.22222222222223,120.88022154930962L226.26262626262624,111.08940198611849L230.3030303030303,102.79195434498831L234.34343434343435,119.89508214315956L238.3838383838384,107.1570319878066L242.42424242424244,81.58072259617437L246.4646464646465,78.27509496969236L250.50505050505052,85.75493062378634L254.5454545454546,51.700311430296466L258.5858585858586,47.80435734762281L262.62626262626264,80.47221869094174L266.6666666666667,64.07686174172028L270.7070707070707,64.42648387979551L274.74747474747477,67.0563399522216L278.7878787878788,51.84694452993861L282.82828282828285,41.2075189277746L286.8686868686869,38.322134011261625L290.90909090909093,43.95338187833292L294.949494949495,22.500598672143866L298.989898989899,35.231865690415134L303.030303030303,28.20634883121872L307.0707070707071,13.333623556382548L311.11111111111114,17.57147823023962L315.1515151515152,-0.09104406797092679L319.1919191919192,37.16327715656823L323.2323232323232,1.882125249772571L327.27272727272725,30.750217493303808L331.31313131313135,41.618512040167474L335.3535353535354,36.346208583407645L339.3939393939394,32.279844694120385L343.4343434343434,55.48854098770167L347.47474747474746,62.10727733492942L351.51515151515156,50.258680624633314L355.5555555555556,42.02958096699339L359.5959595959596,63.6120664571026L363.6363636363636,78.02462248498207L367.67676767676767,53.31908490034962L371.71717171717177,57.56336676685885L375.75757575757575,68.81598742086743L379.7979797979798,60.50668586358199L383.83838383838383,62.15306490168214L387.87878787878793,81.01042732915664L391.919191919192,78.27040062710739L395.95959595959596,94.35196892118702L400.0,117.08521509993322" fill="none" stroke="rgb(31,119,180)" stroke-width="3"/>
     </g>
</svg>
