<svg xmlns="http://www.w3.org/2000/svg" xmlns:xlink="http://www.w3.org/1999/xlink" font-size="10px" font-family="sans-serif" fill="none" stroke="none" stroke-width="1.5" width="700.0" height="800">
     <g transform="translate(0.0,0)">
          <path transform="translate(350.0,350.0)" d="M53.28736016680539,-285.06219890833154A290,290 0 0,1 152.6653272344332,-246.5629693615881L47.378894658962025,-76.51954221566527A90,90 0 0,0 16.53745660349133,-88.46757897155116Z" fill="rgb(230,130,110)" fill-rule="evenodd" fill-opacity="0.8"/>
          <path transform="translate(350.0,350.0)" d="M152.6653272344332,-246.5629693615881A290,290 0 0,1 231.4249959112695,-174.76404454998433L71.82155045522157,-54.23711727413307A90,90 0 0,0 47.378894658962025,-76.51954221566527Z" fill="rgb(230,130,110)" fill-rule="evenodd" fill-opacity="0.8"/>
          <path transform="translate(350.0,350.0)" d="M231.4249959112695,-174.76404454998433A290,290 0 0,1 278.9294365201175,-79.36226712090401L86.56430788555372,-24.62966910648745A90,90 0 0,0 71.82155045522157,-54.23711727413307Z" fill="rgb(230,130,110)" fill-rule="evenodd" fill-opacity="0.8"/>
          <path transform="translate(350.0,350.0)" d="M278.9294365201175,-79.36226712090405A290,290 0 0,1 288.76291112556004,26.757824244357547L89.61607586655312,8.30415235169717A90,90 0 0,0 86.56430788555372,-24.629669106487466Z" fill="rgb(230,130,110)" fill-rule="evenodd" fill-opacity="0.8"/>
          <path transform="translate(350.0,350.0)" d="M288.76291112556004,26.757824244357565A290,290 0 0,1 259.59735449296807,129.2641231751961L80.56469622195561,40.116452019888435A90,90 0 0,0 89.61607586655312,8.304152351697175Z" fill="rgb(230,130,110)" fill-rule="evenodd" fill-opacity="0.8"/>
          <path transform="translate(350.0,350.0)" d="M259.59735449296807,129.2641231751961A290,290 0 0,1 195.3717366575016,214.31258599399118L60.63260792819015,66.51080254985933A90,90 0 0,0 80.56469622195561,40.11645201988844Z" fill="rgb(230,130,110)" fill-rule="evenodd" fill-opacity="0.8"/>
          <path transform="translate(350.0,350.0)" d="M195.37173665750163,214.3125859939911A290,290 0 0,1 104.76008319427437,270.4169465272632L32.51174995684377,83.92250064639202A90,90 0 0,0 60.63260792819016,66.5108025498593Z" fill="rgb(230,130,110)" fill-rule="evenodd" fill-opacity="0.8"/>
          <path transform="translate(350.0,350.0)" d="M104.76008319427433,270.4169465272632A290,290 0 0,1 -4.6635556840622464e-14,290.0L-1.447310384708973e-14,90.0A90,90 0 0,0 32.51174995684376,83.92250064639202Z" fill="rgb(230,130,110)" fill-rule="evenodd" fill-opacity="0.8"/>
          <path transform="translate(350.0,350.0)" d="M1.7757378587636622e-14,290.0A290,290 0 0,1 -104.76008319427434,270.4169465272632L-32.511749956843765,83.92250064639202A90,90 0 0,0 5.5109105961630896e-15,90.0Z" fill="rgb(230,130,110)" fill-rule="evenodd" fill-opacity="0.8"/>
          <path transform="translate(350.0,350.0)" d="M-104.7600831942743,270.41694652726324A290,290 0 0,1 -195.3717366575015,214.31258599399123L-60.63260792819012,66.51080254985935A90,90 0 0,0 -32.51174995684375,83.92250064639204Z" fill="rgb(174,174,184)" fill-rule="evenodd" fill-opacity="0.8"/>
          <path transform="translate(350.0,350.0)" d="M-195.3717366575016,214.31258599399115A290,290 0 0,1 -259.59735449296807,129.26412317519612L-80.5646962219556,40.116452019888456A90,90 0 0,0 -60.63260792819015,66.51080254985932Z" fill="rgb(174,174,184)" fill-rule="evenodd" fill-opacity="0.8"/>
          <path transform="translate(350.0,350.0)" d="M-259.5973544929681,129.264123175196A290,290 0 0,1 -288.76291112556004,26.757824244357536L-89.61607586655312,8.304152351697166A90,90 0 0,0 -80.56469622195561,40.11645201988842Z" fill="rgb(174,174,184)" fill-rule="evenodd" fill-opacity="0.8"/>
          <path transform="translate(350.0,350.0)" d="M-288.76291112556004,26.757824244357536A290,290 0 0,1 -278.9294365201175,-79.36226712090402L-86.56430788555372,-24.629669106487455A90,90 0 0,0 -89.61607586655312,8.304152351697166Z" fill="rgb(174,174,184)" fill-rule="evenodd" fill-opacity="0.8"/>
          <path transform="translate(350.0,350.0)" d="M-278.9294365201175,-79.36226712090402A290,290 0 0,1 -231.4249959112695,-174.7640445499843L-71.82155045522157,-54.237117274133055A90,90 0 0,0 -86.56430788555372,-24.629669106487455Z" fill="rgb(174,174,184)" fill-rule="evenodd" fill-opacity="0.8"/>
          <path transform="translate(350.0,350.0)" d="M-231.42499591126932,-174.76404454998453A290,290 0 0,1 -152.66532723443305,-246.5629693615882L-47.37889465896198,-76.5195422156653A90,90 0 0,0 -71.82155045522151,-54.237117274133126Z" fill="rgb(174,174,184)" fill-rule="evenodd" fill-opacity="0.8"/>
          <path transform="translate(350.0,350.0)" d="M-152.66532723443305,-246.5629693615882A290,290 0 0,1 -53.28736016680529,-285.06219890833154L-16.537456603491297,-88.46757897155118A90,90 0 0,0 -47.37889465896198,-76.5195422156653Z" fill="rgb(174,174,184)" fill-rule="evenodd" fill-opacity="0.8"/>
     </g>
     <g transform="translate(0.0,0)">
          <path transform="translate(350.0,350.0)" d="M21.708993031271223,-89.64217534879066A92.23339948031361,92.23339948031361 0 0,1 26.409636524215156,-88.37155129539119L25.770136420990156,-86.23166511696012A90,90 0 0,0 21.183317364675833,-87.4715214537133Z" fill="rgb(10,50,100)" fill-rule="evenodd"/>
          <path transform="translate(350.0,350.0)" d="M79.7580113008815,-114.79984711792875A139.7867850155062,139.7867850155062 0 0,1 85.70546314173028,-110.43060650305631L55.18040694547833,-71.09938599827291A90,90 0 0,0 51.351213323083954,-73.91246775914823Z" fill="rgb(10,50,100)" fill-rule="evenodd"/>
          <path transform="translate(350.0,350.0)" d="M127.94250378987496,-86.40756031109915A154.38766386903586,154.38766386903586 0 0,1 132.32439342727085,-79.53493357665698L77.13825774678942,-46.36474082522064A90,90 0 0,0 74.58384337531369,-50.371125730587735Z" fill="rgb(10,50,100)" fill-rule="evenodd"/>
          <path transform="translate(350.0,350.0)" d="M89.32784503237296,-20.38849770997371A91.62507700950238,91.62507700950238 0 0,1 90.2793687136487,-15.645776480006024L88.67815940155477,-15.368280487824386A90,90 0 0,0 87.74351209636413,-20.026884056068305Z" fill="rgb(10,50,100)" fill-rule="evenodd"/>
          <path transform="translate(350.0,350.0)" d="M166.70210051990338,24.376640084586533A168.47495629784697,168.47495629784697 0 0,1 165.1833005509018,33.140430272884096L88.2415842464958,17.703751288034525A90,90 0 0,0 89.05293330521576,13.02209928301863Z" fill="rgb(10,50,100)" fill-rule="evenodd"/>
          <path transform="translate(350.0,350.0)" d="M79.74971612273586,45.11249843824086A91.62507700950238,91.62507700950238 0 0,1 77.257749976486,49.25844907798072L75.88749417544967,48.38479335257196A90,90 0 0,0 78.33526241185976,44.312375955990795Z" fill="rgb(10,50,100)" fill-rule="evenodd"/>
          <path transform="translate(350.0,350.0)" d="M72.15348590756321,88.06733431989007A113.85069566245176,113.85069566245176 0 0,1 67.40514941475038,91.7525298572164L53.28437750888745,72.53120096544913A90,90 0 0,0 57.037980259108465,69.61802071275477Z" fill="rgb(10,50,100)" fill-rule="evenodd"/>
          <path transform="translate(350.0,350.0)" d="M52.48444681994068,160.09120444785924A168.47495629784697,168.47495629784697 0 0,1 43.96243614930278,162.6379878976001L23.484910400821477,86.88186797868349A90,90 0 0,0 28.03740281400522,85.52136600549136Z" fill="rgb(10,50,100)" fill-rule="evenodd"/>
          <path transform="translate(350.0,350.0)" d="M-4.8232455104568475,91.26465569975615A91.39201867367399,91.39201867367399 0 0,1 -9.633047770593537,90.88292176145437L-9.486323991256311,89.49865729234665A90,90 0 0,0 -4.749781241741617,89.87457692893803Z" fill="rgb(10,50,100)" fill-rule="evenodd"/>
          <path transform="translate(350.0,350.0)" d="M-118.8854388465555,264.51134650570646A290.0,290.0 0 0,1 -132.6794394578437,257.8685059194945L-41.176377762779076,80.0281570094983A90,90 0 0,0 -36.895481021344814,82.08972822590891Z" fill="rgb(10,50,100)" fill-rule="evenodd"/>
          <path transform="translate(350.0,350.0)" d="M-119.91343846118035,118.34094040516226A168.47495629784697,168.47495629784697 0 0,1 -125.99181254065923,111.84754835167747L-67.30533355125282,59.749410671190745A90,90 0 0,0 -64.05824164409741,63.218206851083856Z" fill="rgb(10,50,100)" fill-rule="evenodd"/>
          <path transform="translate(350.0,350.0)" d="M-202.07374845233647,87.6351966668727A220.2583199527764,220.2583199527764 0 0,1 -206.41711848714485,76.84855694080156L-84.3443310919019,31.401175338824963A90,90 0 0,0 -82.56958177384408,35.80871633684285Z" fill="rgb(10,50,100)" fill-rule="evenodd"/>
          <path transform="translate(350.0,350.0)" d="M-246.25903471878152,9.756935625633362A246.4522468419162,246.4522468419162 0 0,1 -246.4307763343407,-3.2530675804442866L-89.99215935051696,-1.18796272296833A90,90 0 0,0 -89.92944235118588,3.5630602583642283Z" fill="rgb(10,50,100)" fill-rule="evenodd"/>
          <path transform="translate(350.0,350.0)" d="M-274.35235213999647,-93.97226652183814A290.0,290.0 0 0,1 -269.01059854746484,-108.32034836139842L-83.48604782507529,-33.61665983629606A90,90 0 0,0 -85.14383342275752,-29.16380685160494Z" fill="rgb(10,50,100)" fill-rule="evenodd"/>
          <path transform="translate(350.0,350.0)" d="M-193.6652235394012,-162.98904645738503A253.12378014254972,253.12378014254972 0 0,1 -184.79353017754724,-172.98265600392946L-65.70468292869626,-61.50524076238944A90,90 0 0,0 -68.8590779923177,-57.951940244032464Z" fill="rgb(10,50,100)" fill-rule="evenodd"/>
          <path transform="translate(350.0,350.0)" d="M-121.70900803935734,-221.94270755248863A253.12378014254972,253.12378014254972 0 0,1 -109.82629218782002,-228.05664563421394L-39.04953652058017,-81.08719811121776A90,90 0 0,0 -43.27452251769229,-78.9133429837169Z" fill="rgb(10,50,100)" fill-rule="evenodd"/>
     </g>
     <g transform="translate(0.0,0)">
          <path transform="translate(350.0,350.0)" d="M49.83380941620249,-139.45749809962177A148.09389702866355,148.09389702866355 0 0,1 57.124279405914756,-136.63315497891202L34.71571246138018,-83.03504867403146A90,90 0 0,0 30.285129485046536,-84.75146566327903Z" fill="rgb(200,70,50)" fill-rule="evenodd"/>
          <path transform="translate(350.0,350.0)" d="M112.11197114437344,-129.69826139768588A171.43725698767838,171.43725698767838 0 0,1 118.80060382603443,-123.60076704466235L62.36715712916221,-64.88711514335023A90,90 0 0,0 58.85580287672713,-68.08813749645263Z" fill="rgb(200,70,50)" fill-rule="evenodd"/>
          <path transform="translate(350.0,350.0)" d="M177.53324856926616,-94.32931406858025A201.03749361799578,201.03749361799578 0 0,1 182.26410236102316,-84.82847888967578L81.59557163830314,-37.97581716064239A90,90 0 0,0 79.47767395864356,-42.229129071335954Z" fill="rgb(200,70,50)" fill-rule="evenodd"/>
          <path transform="translate(350.0,350.0)" d="M164.91051410237475,-19.68401312158449A166.08111883679086,166.08111883679086 0 0,1 165.71952713746327,-10.953372056851613L89.80405206102049,-5.935674639122594A90,90 0 0,0 89.3656447714506,-10.66684276545325Z" fill="rgb(200,70,50)" fill-rule="evenodd"/>
          <path transform="translate(350.0,350.0)" d="M154.50525749814315,39.583262793808935A159.49517010860004,159.49517010860004 0 0,1 152.20092013152538,47.68216856528544L85.88399763146607,26.906113633119325A90,90 0 0,0 87.18429006574097,22.33605976292014Z" fill="rgb(200,70,50)" fill-rule="evenodd"/>
          <path transform="translate(350.0,350.0)" d="M129.77273810922813,92.72402995774586A159.49517010860004,159.49517010860004 0 0,1 124.69834529249736,99.44361200843603L70.36483342212269,56.114082167286014A90,90 0 0,0 73.22821388182442,52.32235365193139Z" fill="rgb(200,70,50)" fill-rule="evenodd"/>
          <path transform="translate(350.0,350.0)" d="M99.24820832652749,151.22142343522583A180.8815241029378,180.8815241029378 0 0,1 91.12913393244067,156.24854146687244L45.34250855411967,77.74353296589746A90,90 0 0,0 49.38226164162666,75.24222375207904Z" fill="rgb(200,70,50)" fill-rule="evenodd"/>
          <path transform="translate(350.0,350.0)" d="M37.918719117691005,176.86236598630958A180.8815241029378,180.8815241029378 0 0,1 28.531903222865537,178.61706598274057L14.196426654369352,88.87328884567685A90,90 0 0,0 18.866961330169172,88.00021460295368Z" fill="rgb(200,70,50)" fill-rule="evenodd"/>
          <path transform="translate(350.0,350.0)" d="M-26.574915113116347,166.36581615912598A168.47495629784697,168.47495629784697 0 0,1 -35.31789428414916,164.73147010481972L-18.8669613301692,88.00021460295366A90,90 0 0,0 -14.196426654369379,88.87328884567685Z" fill="rgb(200,70,50)" fill-rule="evenodd"/>
          <path transform="translate(350.0,350.0)" d="M-120.74341178271987,207.02470405096156A239.66267873058516,239.66267873058516 0 0,1 -131.50094563118745,200.36392108965916L-49.38226164162666,75.24222375207904A90,90 0 0,0 -45.34250855411966,77.74353296589746Z" fill="rgb(200,70,50)" fill-rule="evenodd"/>
          <path transform="translate(350.0,350.0)" d="M-131.71902484108227,105.04241712030336A168.47495629784697,168.47495629784697 0 0,1 -137.07911259455292,97.9445138323292L-73.22821388182443,52.32235365193136A90,90 0 0,0 -70.3648334221227,56.11408216728599Z" fill="rgb(200,70,50)" fill-rule="evenodd"/>
          <path transform="translate(350.0,350.0)" d="M-210.1851669903883,65.84772650321496A220.2583199527764,220.2583199527764 0 0,1 -213.36739173506268,54.66336664161763L-87.18429006574098,22.336059762920083A90,90 0 0,0 -85.88399763146609,26.906113633119283Z" fill="rgb(200,70,50)" fill-rule="evenodd"/>
          <path transform="translate(350.0,350.0)" d="M-200.59979492319516,-13.258812804234601A201.03749361799578,201.03749361799578 0 0,1 -199.62050267120642,-23.827059270933113L-89.3656447714506,-10.66684276545329A90,90 0 0,0 -89.80405206102049,-5.935674639122626Z" fill="rgb(200,70,50)" fill-rule="evenodd"/>
          <path transform="translate(350.0,350.0)" d="M-123.15901724124329,-57.32007542235693A135.84452353427264,135.84452353427264 0 0,1 -119.96229722804667,-63.73995464403265L-79.47767395864354,-42.22912907133598A90,90 0 0,0 -81.59557163830311,-37.97581716064242Z" fill="rgb(200,70,50)" fill-rule="evenodd"/>
          <path transform="translate(350.0,350.0)" d="M-96.86782650713872,-100.78179127577673A139.7867850155062,139.7867850155062 0 0,1 -91.41403848493395,-105.75357598136512L-58.855802876727054,-68.0881374964527A90,90 0 0,0 -62.367157129162145,-64.88711514335029Z" fill="rgb(200,70,50)" fill-rule="evenodd"/>
          <path transform="translate(350.0,350.0)" d="M-53.48700184871993,-127.93330417393112A138.66430573015015,138.66430573015015 0 0,1 -46.66073837768518,-130.57781273123612L-30.28512948504645,-84.75146566327906A90,90 0 0,0 -34.7157124613801,-83.03504867403149Z" fill="rgb(200,70,50)" fill-rule="evenodd"/>
     </g>
     <g transform="translate(0.0,0)">
          <path transform="translate(350.0,350.0)" d="M69.20236077791039,-143.70018284864915A159.49517010860004,159.49517010860004 0 0,1 76.68974811475316,-139.8477451447358L43.274522517692354,-78.91334298371687A90,90 0 0,0 39.04953652058023,-81.08719811121772Z" fill="rgb(0,0,0)" fill-rule="evenodd"/>
          <path transform="translate(350.0,350.0)" d="M147.94423552454816,-138.48854327810574A202.64889203801422,202.64889203801422 0 0,1 155.04684291002664,-130.48773868784863L68.85907799231774,-57.951940244032414A90,90 0 0,0 65.70468292869631,-61.50524076238938Z" fill="rgb(0,0,0)" fill-rule="evenodd"/>
          <path transform="translate(350.0,350.0)" d="M186.48695340916962,-75.09121152553A201.03749361799578,201.03749361799578 0 0,1 190.1900318704368,-65.1446514867332L85.14383342275752,-29.163806851604928A90,90 0 0,0 83.4860478250753,-33.61665983629604Z" fill="rgb(0,0,0)" fill-rule="evenodd"/>
          <path transform="translate(350.0,350.0)" d="M168.46027904141363,-2.223799642617301A168.47495629784697,168.47495629784697 0 0,1 168.34287633339767,6.669849125716787L89.92944235118588,3.563060258364241A90,90 0 0,0 89.99215935051696,-1.1879627229683085Z" fill="rgb(0,0,0)" fill-rule="evenodd"/>
          <path transform="translate(350.0,350.0)" d="M212.90564072963906,79.2642169144924A227.18192696067584,227.18192696067584 0 0,1 208.42574106354436,90.38992421546885L82.56958177384406,35.80871633684287A90,90 0 0,0 84.34433109190189,31.401175338825Z" fill="rgb(0,0,0)" fill-rule="evenodd"/>
          <path transform="translate(350.0,350.0)" d="M135.26990347785778,120.08404962730354A180.8815241029378,180.8815241029378 0 0,1 128.74391533265128,127.05561784754258L64.0582416440974,63.218206851083856A90,90 0 0,0 67.3053335512528,59.74941067119075Z" fill="rgb(0,0,0)" fill-rule="evenodd"/>
          <path transform="translate(350.0,350.0)" d="M91.97773090774315,178.76289004507754A201.03749361799578,201.03749361799578 0 0,1 82.4152781151277,183.3679246035463L36.89548102134482,82.0897282259089A90,90 0 0,0 41.17637776277908,80.0281570094983Z" fill="rgb(0,0,0)" fill-rule="evenodd"/>
          <path transform="translate(350.0,350.0)" d="M25.705637504083995,242.51965709581816A243.8781742537954,243.8781742537954 0 0,1 12.870755303787377,243.5383081473521L4.749781241741588,89.87457692893803A90,90 0 0,0 9.486323991256281,89.49865729234666Z" fill="rgb(0,0,0)" fill-rule="evenodd"/>
          <path transform="translate(350.0,350.0)" d="M-42.364349512137075,156.72590435718868A162.35069204091852,162.35069204091852 0 0,1 -50.57657499870831,154.27169950306893L-28.037402814005244,85.52136600549134A90,90 0 0,0 -23.484910400821505,86.88186797868347Z" fill="rgb(0,0,0)" fill-rule="evenodd"/>
          <path transform="translate(350.0,350.0)" d="M-145.91171731820202,198.61641604530556A246.4522468419162,246.4522468419162 0 0,1 -156.19042655757943,190.6390847260608L-57.03798025910849,69.61802071275476A90,90 0 0,0 -53.28437750888747,72.53120096544913Z" fill="rgb(0,0,0)" fill-rule="evenodd"/>
          <path transform="translate(350.0,350.0)" d="M-169.51368473314068,108.07952872028581A201.03749361799578,201.03749361799578 0 0,1 -174.98138685764764,98.98276664945243L-78.33526241185979,44.312375955990746A90,90 0 0,0 -75.8874941754497,48.384793352571926Z" fill="rgb(0,0,0)" fill-rule="evenodd"/>
          <path transform="translate(350.0,350.0)" d="M-284.33399368315315,57.04542081699992A290.0,290.0 0 0,1 -286.9483406501397,41.960097689726446L-89.05293330521576,13.022099283018552A90,90 0 0,0 -88.2415842464958,17.703751288034457Z" fill="rgb(0,0,0)" fill-rule="evenodd"/>
          <path transform="translate(350.0,350.0)" d="M-285.7407358494542,-49.520014905212065A290.0,290.0 0 0,1 -282.72909453272877,-64.53107084733139L-87.7435120963641,-20.02688405606836A90,90 0 0,0 -88.67815940155475,-15.368280487824434Z" fill="rgb(0,0,0)" fill-rule="evenodd"/>
          <path transform="translate(350.0,350.0)" d="M-119.81010057912397,-72.01308953371986A139.7867850155062,139.7867850155062 0 0,1 -115.84261866150173,-78.23575248323009L-74.58384337531365,-50.371125730587785A90,90 0 0,0 -77.1382577467894,-46.36474082522068Z" fill="rgb(0,0,0)" fill-rule="evenodd"/>
          <path transform="translate(350.0,350.0)" d="M-75.95976194755119,-97.87337089380469A123.8914127986476,123.8914127986476 0 0,1 -70.68860408357327,-101.74577837905969L-51.351213323083854,-73.91246775914829A90,90 0 0,0 -55.180406945478246,-71.09938599827298Z" fill="rgb(0,0,0)" fill-rule="evenodd"/>
          <path transform="translate(350.0,350.0)" d="M-40.02582799668003,-133.93385814704038A139.7867850155062,139.7867850155062 0 0,1 -32.901642559679615,-135.85958627143847L-21.183317364675723,-87.47152145371331A90,90 0 0,0 -25.77013642099005,-86.23166511696014Z" fill="rgb(0,0,0)" fill-rule="evenodd"/>
     </g>
     <g transform="translate(0.0,0)">
          <circle fill="none" stroke="rgb(238,238,238)" stroke-width="1" cx="350.0" cy="350.0" r="290.0"/>
          <circle fill="none" stroke="rgb(238,238,238)" stroke-width="1" cx="350.0" cy="350.0" r="239.66267873058516"/>
          <circle fill="none" stroke="rgb(238,238,238)" stroke-width="1" cx="350.0" cy="350.0" r="201.03749361799578"/>
          <circle fill="none" stroke="rgb(238,238,238)" stroke-width="1" cx="350.0" cy="350.0" r="168.47495629784697"/>
          <circle fill="none" stroke="rgb(238,238,238)" stroke-width="1" cx="350.0" cy="350.0" r="139.7867850155062"/>
          <circle fill="none" stroke="rgb(238,238,238)" stroke-width="1" cx="350.0" cy="350.0" r="113.85069566245176"/>
          <circle fill="none" stroke="rgb(238,238,238)" stroke-width="1" cx="350.0" cy="350.0" r="90.0"/>
     </g>
     <g transform="translate(0.0,0)">
          <text pointer-events="none" dy=".35em" transform="translate(350.0,60.0)" fill="rgb(0,0,0)" text-anchor="middle">0.001</text>
          <text pointer-events="none" dy=".35em" transform="translate(350.0,110.33732126941482)" fill="rgb(0,0,0)" text-anchor="middle">0.01</text>
          <text pointer-events="none" dy=".35em" transform="translate(350.0,148.96250638200422)" fill="rgb(0,0,0)" text-anchor="middle">0.1</text>
          <text pointer-events="none" dy=".35em" transform="translate(350.0,181.52504370215297)" fill="rgb(0,0,0)" text-anchor="middle">1</text>
          <text pointer-events="none" dy=".35em" transform="translate(350.0,210.2132149844938)" fill="rgb(0,0,0)" text-anchor="middle">10</text>
          <text pointer-events="none" dy=".35em" transform="translate(350.0,236.14930433754824)" fill="rgb(0,0,0)" text-anchor="middle">100</text>
     </g>
     <g transform="translate(0.0,0)">
          <path transform="translate(350.0,350.0)" d="M55.124855344971095,-294.8919299051705A300,300 0 0,1 55.124855344971095,-294.8919299051705L14.699961425325625,-78.63784797471214A80,80 0 0,0 14.699961425325625,-78.63784797471214Z" fill="none" fill-rule="evenodd" stroke="rgb(0,0,0)"/>
          <path transform="translate(350.0,350.0)" d="M157.92964886320675,-255.06514071888424A300,300 0 0,1 157.92964886320675,-255.06514071888424L42.11457303018847,-68.01737085836913A80,80 0 0,0 42.11457303018847,-68.01737085836913Z" fill="none" fill-rule="evenodd" stroke="rgb(0,0,0)"/>
          <path transform="translate(350.0,350.0)" d="M239.40516818407187,-180.7903909137769A300,300 0 0,1 239.40516818407187,-180.7903909137769L63.84137818241917,-48.2107709103405A80,80 0 0,0 63.84137818241917,-48.2107709103405Z" fill="none" fill-rule="evenodd" stroke="rgb(0,0,0)"/>
          <path transform="translate(350.0,350.0)" d="M288.5476929518457,-82.09889702162488A300,300 0 0,1 288.5476929518457,-82.09889702162488L76.94605145382552,-21.893039205766634A80,80 0 0,0 76.94605145382552,-21.893039205766634Z" fill="none" fill-rule="evenodd" stroke="rgb(0,0,0)"/>
          <path transform="translate(350.0,350.0)" d="M298.7202528885104,27.680507838990582A300,300 0 0,1 298.7202528885104,27.680507838990582L79.65873410360277,7.381468757064155A80,80 0 0,0 79.65873410360277,7.381468757064155Z" fill="none" fill-rule="evenodd" stroke="rgb(0,0,0)"/>
          <path transform="translate(350.0,350.0)" d="M268.5489874065187,133.72150673296147A300,300 0 0,1 268.5489874065187,133.72150673296147L71.61306330840499,35.65906846212306A80,80 0 0,0 71.61306330840499,35.65906846212306Z" fill="none" fill-rule="evenodd" stroke="rgb(0,0,0)"/>
          <path transform="translate(350.0,350.0)" d="M202.1086930939672,221.7026751661977A300,300 0 0,1 202.1086930939672,221.7026751661977L53.895651491724585,59.12071337765272A80,80 0 0,0 53.895651491724585,59.12071337765272Z" fill="none" fill-rule="evenodd" stroke="rgb(0,0,0)"/>
          <path transform="translate(350.0,350.0)" d="M108.37249985614586,279.74166882130675A300,300 0 0,1 108.37249985614586,279.74166882130675L28.89933329497223,74.59777835234847A80,80 0 0,0 28.89933329497223,74.59777835234847Z" fill="none" fill-rule="evenodd" stroke="rgb(0,0,0)"/>
          <path transform="translate(350.0,350.0)" d="M1.8369701987210297e-14,300.0A300,300 0 0,1 1.8369701987210297e-14,300.0L4.898587196589413e-15,80.0A80,80 0 0,0 4.898587196589413e-15,80.0Z" fill="none" fill-rule="evenodd" stroke="rgb(0,0,0)"/>
          <path transform="translate(350.0,350.0)" d="M-108.37249985614582,279.7416688213068A300,300 0 0,1 -108.37249985614582,279.7416688213068L-28.89933329497222,74.59777835234847A80,80 0 0,0 -28.89933329497222,74.59777835234847Z" fill="none" fill-rule="evenodd" stroke="rgb(0,0,0)"/>
          <path transform="translate(350.0,350.0)" d="M-202.10869309396716,221.70267516619774A300,300 0 0,1 -202.10869309396716,221.70267516619774L-53.89565149172458,59.12071337765273A80,80 0 0,0 -53.89565149172458,59.12071337765273Z" fill="none" fill-rule="evenodd" stroke="rgb(0,0,0)"/>
          <path transform="translate(350.0,350.0)" d="M-268.54898740651873,133.7215067329614A300,300 0 0,1 -268.54898740651873,133.7215067329614L-71.613063308405,35.65906846212304A80,80 0 0,0 -71.613063308405,35.65906846212304Z" fill="none" fill-rule="evenodd" stroke="rgb(0,0,0)"/>
          <path transform="translate(350.0,350.0)" d="M-298.7202528885104,27.680507838990554A300,300 0 0,1 -298.7202528885104,27.680507838990554L-79.65873410360277,7.381468757064148A80,80 0 0,0 -79.65873410360277,7.381468757064148Z" fill="none" fill-rule="evenodd" stroke="rgb(0,0,0)"/>
          <path transform="translate(350.0,350.0)" d="M-288.5476929518457,-82.09889702162485A300,300 0 0,1 -288.5476929518457,-82.09889702162485L-76.94605145382552,-21.893039205766627A80,80 0 0,0 -76.94605145382552,-21.893039205766627Z" fill="none" fill-rule="evenodd" stroke="rgb(0,0,0)"/>
          <path transform="translate(350.0,350.0)" d="M-239.40516818407173,-180.7903909137771A300,300 0 0,1 -239.40516818407173,-180.7903909137771L-63.84137818241912,-48.21077091034056A80,80 0 0,0 -63.84137818241912,-48.21077091034056Z" fill="none" fill-rule="evenodd" stroke="rgb(0,0,0)"/>
          <path transform="translate(350.0,350.0)" d="M-157.9296488632066,-255.06514071888432A300,300 0 0,1 -157.9296488632066,-255.06514071888432L-42.11457303018843,-68.01737085836916A80,80 0 0,0 -42.11457303018843,-68.01737085836916Z" fill="none" fill-rule="evenodd" stroke="rgb(0,0,0)"/>
          <path transform="translate(350.0,350.0)" d="M-55.124855344970996,-294.89192990517057A300,300 0 0,1 -55.124855344970996,-294.89192990517057L-14.699961425325599,-78.63784797471214A80,80 0 0,0 -14.699961425325599,-78.63784797471214Z" fill="none" fill-rule="evenodd" stroke="rgb(0,0,0)"/>
     </g>
     <g transform="translate(0.0,0)">
          <text pointer-events="none" dy=".35em" transform="translate(454.76008319427433,79.58305347273682) rotate(-68.82352941176472)" fill="rgb(0,0,0)" text-anchor="middle">Mycobacterium tuberculosis</text>
          <text pointer-events="none" dy=".35em" transform="translate(545.3717366575016,135.68741400600885) rotate(-47.647058823529406)" fill="rgb(0,0,0)" text-anchor="middle">Salmonella schottmuelleri</text>
          <text pointer-events="none" dy=".35em" transform="translate(609.5973544929681,220.7358768248039) rotate(-26.470588235294112)" fill="rgb(0,0,0)" text-anchor="middle">Proteus vulgaris</text>
          <text pointer-events="none" dy=".35em" transform="translate(638.76291112556,323.2421757556424) rotate(-5.294117647058829)" fill="rgb(0,0,0)" text-anchor="middle">Klebsiella pneumoniae</text>
          <text pointer-events="none" dy=".35em" transform="translate(628.9294365201175,429.362267120904) rotate(15.88235294117647)" fill="rgb(0,0,0)" text-anchor="middle">Brucella abortus</text>
          <text pointer-events="none" dy=".35em" transform="translate(581.4249959112694,524.7640445499844) rotate(37.05882352941177)" fill="rgb(0,0,0)" text-anchor="middle">Pseudomonas aeruginosa</text>
          <text pointer-events="none" dy=".35em" transform="translate(502.6653272344332,596.5629693615881) rotate(58.23529411764705)" fill="rgb(0,0,0)" text-anchor="middle">Escherichia coli</text>
          <text pointer-events="none" dy=".35em" transform="translate(403.2873601668054,635.0621989083315) rotate(79.41176470588236)" fill="rgb(0,0,0)" text-anchor="middle">Salmonella (Eberthella) typhosa</text>
          <text pointer-events="none" dy=".35em" transform="translate(296.71263983319466,635.0621989083315) rotate(280.5882352941176)" fill="rgb(0,0,0)" text-anchor="middle">Aerobacter aerogenes</text>
          <text pointer-events="none" dy=".35em" transform="translate(197.3346727655669,596.5629693615881) rotate(301.764705882353)" fill="rgb(0,0,0)" text-anchor="middle">Brucella antracis</text>
          <text pointer-events="none" dy=".35em" transform="translate(118.57500408873054,524.7640445499844) rotate(322.94117647058823)" fill="rgb(0,0,0)" text-anchor="middle">Streptococcus fecalis</text>
          <text pointer-events="none" dy=".35em" transform="translate(71.07056347988242,429.362267120904) rotate(344.11764705882354)" fill="rgb(0,0,0)" text-anchor="middle">Staphylococcus aureus</text>
          <text pointer-events="none" dy=".35em" transform="translate(61.23708887444002,323.2421757556424) rotate(365.29411764705884)" fill="rgb(0,0,0)" text-anchor="middle">Staphylococcus albus</text>
          <text pointer-events="none" dy=".35em" transform="translate(90.40264550703193,220.73587682480394) rotate(386.4705882352941)" fill="rgb(0,0,0)" text-anchor="middle">Streptococcus hemolyticus</text>
          <text pointer-events="none" dy=".35em" transform="translate(154.62826334249854,135.68741400600874) rotate(407.64705882352945)" fill="rgb(0,0,0)" text-anchor="middle">Streptococcus viridans</text>
          <text pointer-events="none" dy=".35em" transform="translate(245.2399168057259,79.58305347273671) rotate(428.82352941176475)" fill="rgb(0,0,0)" text-anchor="middle">Diplococcus pneumoniae</text>
     </g>
     <g transform="translate(0.0,0)">
          <rect x="311" y="322.0" width="36" height="12" fill="rgb(10,50,100)"/>
          <rect x="311" y="340.0" width="36" height="12" fill="rgb(200,70,50)"/>
          <rect x="311" y="358.0" width="36" height="12" fill="rgb(0,0,0)"/>
     </g>
     <g transform="translate(0.0,0)">
          <text pointer-events="none" x="6" dy=".35em" transform="translate(347,328.0)" fill="rgb(0,0,0)">penicillin</text>
          <text pointer-events="none" x="6" dy=".35em" transform="translate(347,346.0)" fill="rgb(0,0,0)">streptomycin</text>
          <text pointer-events="none" x="6" dy=".35em" transform="translate(347,364.0)" fill="rgb(0,0,0)">neomycin</text>
     </g>
     <g transform="translate(0.0,0)">
          <circle fill="rgb(174,174,184)" fill-opacity="0.8" cx="330.0" cy="760" r="5.477225575051661"/>
          <circle fill="rgb(230,130,110)" fill-opacity="0.8" cx="330.0" cy="742" r="5.477225575051661"/>
     </g>
     <g transform="translate(0.0,0)">
          <text pointer-events="none" x="6" dy=".35em" transform="translate(335.47722557505165,760)" fill="rgb(0,0,0)">Gram-positive</text>
          <text pointer-events="none" x="6" dy=".35em" transform="translate(335.47722557505165,742)" fill="rgb(0,0,0)">Gram-negative</text>
     </g>
</svg>
