<svg xmlns="http://www.w3.org/2000/svg" xmlns:xlink="http://www.w3.org/1999/xlink" font-size="10px" font-family="sans-serif" fill="none" stroke="none" stroke-width="1.5" width="604.5" height="319.0">
     <g transform="translate(19.5,19.5)">
          <g>
               <path d="M0.0,280.0L23.357142857142858,280.0L47.49285714285715,280.0L70.85000000000001,280.0L94.9857142857143,276.26666666666665L119.12142857142858,238.93333333333334L142.47857142857146,223.06666666666666L166.61428571428573,190.39999999999998L189.9714285714286,224.93333333333334L214.10714285714286,237.06666666666666L238.24285714285716,246.4L260.04285714285714,251.06666666666666L284.17857142857144,243.6L307.5357142857143,246.4L331.6714285714286,218.4L355.02857142857147,231.46666666666667L379.1642857142857,225.86666666666667L403.3,213.73333333333335L426.65714285714284,254.8L450.79285714285714,261.3333333333333L474.15,272.53333333333336L498.2857142857143,280.0L522.4214285714286,280.0L545.0,280.0" fill="none" stroke="rgb(255,182,193)" stroke-width="3"/>
          </g>
          <g>
               <path d="M0.0,259.46666666666664L23.357142857142858,262.26666666666665L47.49285714285715,272.53333333333336L70.85000000000001,253.86666666666667L94.9857142857143,252.0L119.12142857142858,237.06666666666666L142.47857142857146,222.13333333333333L166.61428571428573,225.86666666666667L189.9714285714286,222.13333333333333L214.10714285714286,194.13333333333333L238.24285714285716,182.93333333333334L260.04285714285714,214.66666666666669L284.17857142857144,243.6L307.5357142857143,251.06666666666666L331.6714285714286,255.73333333333335L355.02857142857147,255.73333333333335L379.1642857142857,259.46666666666664L403.3,261.3333333333333L426.65714285714284,262.26666666666665L450.79285714285714,253.86666666666667L474.15,257.6L498.2857142857143,250.13333333333333L522.4214285714286,261.3333333333333L545.0,256.6666666666667" fill="none" stroke="rgb(169,169,169)" stroke-width="3"/>
          </g>
          <g>
               <path d="M0.0,259.46666666666664L23.357142857142858,260.4L47.49285714285715,262.26666666666665L70.85000000000001,182.93333333333334L94.9857142857143,130.66666666666666L119.12142857142858,141.86666666666667L142.47857142857146,168.0L166.61428571428573,126.93333333333334L189.9714285714286,74.66666666666669L214.10714285714286,11.199999999999989L238.24285714285716,42.93333333333334L260.04285714285714,105.46666666666667L284.17857142857144,175.46666666666667L307.5357142857143,177.33333333333334L331.6714285714286,158.66666666666666L355.02857142857147,199.73333333333335L379.1642857142857,188.53333333333333L403.3,225.86666666666667L426.65714285714284,234.26666666666665L450.79285714285714,219.33333333333331L474.15,239.86666666666667L498.2857142857143,250.13333333333333L522.4214285714286,261.3333333333333L545.0,263.2" fill="none" stroke="rgb(173,216,230)" stroke-width="3"/>
          </g>
     </g>
     <g transform="translate(19.5,19.5)">
          <text pointer-events="none" x="5" y="5" dy=".71em" transform="translate(46.56140095899471,280)" fill="rgb(0,0,0)">May</text>
          <text pointer-events="none" x="5" y="5" dy=".71em" transform="translate(116.63282953042328,280)" fill="rgb(0,0,0)">Aug</text>
          <text pointer-events="none" x="5" y="5" dy=".71em" transform="translate(186.70425810185185,280)" fill="rgb(0,0,0)">Nov</text>
          <text pointer-events="none" x="5" y="5" dy=".71em" transform="translate(256.7756866732804,280)" fill="rgb(0,0,0)">Feb</text>
          <text pointer-events="none" x="5" y="5" dy=".71em" transform="translate(326.847115244709,280)" fill="rgb(0,0,0)">May</text>
          <text pointer-events="none" x="5" y="5" dy=".71em" transform="translate(396.91854381613757,280)" fill="rgb(0,0,0)">Aug</text>
          <text pointer-events="none" x="5" y="5" dy=".71em" transform="translate(466.9899723875661,280)" fill="rgb(0,0,0)">Nov</text>
          <text pointer-events="none" x="5" y="5" dy=".71em" transform="translate(537.0614009589947,280)" fill="rgb(0,0,0)">Feb</text>
     </g>
     <g transform="translate(19.5,19.5)">
          <line shape-rendering="crispEdges" x1="0" y1="280.0" x2="545" y2="280.0" stroke="rgb(0,0,0)" stroke-width="1"/>
          <line shape-rendering="crispEdges" x1="0" y1="242.66666666666666" x2="545" y2="242.66666666666666" stroke="rgb(204,204,204)" stroke-width="1"/>
          <line shape-rendering="crispEdges" x1="0" y1="205.33333333333331" x2="545" y2="205.33333333333331" stroke="rgb(204,204,204)" stroke-width="1"/>
          <line shape-rendering="crispEdges" x1="0" y1="168.0" x2="545" y2="168.0" stroke="rgb(204,204,204)" stroke-width="1"/>
          <line shape-rendering="crispEdges" x1="0" y1="130.66666666666666" x2="545" y2="130.66666666666666" stroke="rgb(204,204,204)" stroke-width="1"/>
          <line shape-rendering="crispEdges" x1="0" y1="93.33333333333334" x2="545" y2="93.33333333333334" stroke="rgb(204,204,204)" stroke-width="1"/>
          <line shape-rendering="crispEdges" x1="0" y1="56.0" x2="545" y2="56.0" stroke="rgb(204,204,204)" stroke-width="1"/>
          <line shape-rendering="crispEdges" x1="0" y1="18.666666666666686" x2="545" y2="18.666666666666686" stroke="rgb(204,204,204)" stroke-width="1"/>
     </g>
     <g transform="translate(19.5,19.5)">
          <text pointer-events="none" x="6" dy=".35em" transform="translate(545,280.0)" fill="rgb(0,0,0)">0</text>
          <text pointer-events="none" x="6" dy=".35em" transform="translate(545,205.33333333333331)" fill="rgb(0,0,0)">400</text>
          <text pointer-events="none" x="6" dy=".35em" transform="translate(545,130.66666666666666)" fill="rgb(0,0,0)">800</text>
          <text pointer-events="none" x="6" dy=".35em" transform="translate(545,56.0)" fill="rgb(0,0,0)">1200</text>
     </g>
</svg>
