<svg xmlns="http://www.w3.org/2000/svg" xmlns:xlink="http://www.w3.org/1999/xlink" font-size="10px" font-family="sans-serif" fill="none" stroke="none" stroke-width="1.5" width="900.0" height="900.0">
     <g transform="translate(0.0,0.0)">
          <g>
               <path transform="translate(450.0,450.0)" d="M0,90.0A90.0,90.0 0 1,1 0,-90.0A90.0,90.0 0 1,1 0,90.0Z" fill="rgb(156,158,222)" fill-rule="evenodd" stroke="rgb(255,255,255)" stroke-width="0.5"/>
               <path transform="translate(450.0,450.0)" d="M247.41030360265077,108.11170922358117A270.0,270.0 0 0,1 41.09233984505062,266.85467881612806L13.697446615016872,88.95155960537602A90.0,90.0 0 0,0 82.47010120088359,36.03723640786039Z" fill="rgb(115,117,181)" fill-rule="evenodd" stroke="rgb(255,255,255)" stroke-width="0.5"/>
               <path transform="translate(450.0,450.0)" d="M287.7820452475711,345.95013287051205A450.0,450.0 0 0,1 247.61622630161227,375.74752756624855L148.56973578096736,225.44851653974914A270.0,270.0 0 0,0 172.66922714854263,207.5700797223072Z" fill="rgb(74,85,132)" fill-rule="evenodd" stroke="rgb(255,255,255)" stroke-width="0.5"/>
               <path transform="translate(450.0,450.0)" d="M329.36708901671176,306.62243993657324A450.0,450.0 0 0,1 287.7820452475711,345.95013287051205L172.66922714854263,207.5700797223072A270.0,270.0 0 0,0 197.62025341002706,183.97346396194393Z" fill="rgb(74,85,132)" fill-rule="evenodd" stroke="rgb(255,255,255)" stroke-width="0.5"/>
               <path transform="translate(450.0,450.0)" d="M412.350506004418,180.18618203930197A450.0,450.0 0 0,1 369.3594097056582,257.04790693932466L221.61564582339494,154.2287441635948A270.0,270.0 0 0,0 247.41030360265077,108.11170922358117Z" fill="rgb(74,85,132)" fill-rule="evenodd" stroke="rgb(255,255,255)" stroke-width="0.5"/>
               <path transform="translate(450.0,450.0)" d="M215.4002486404013,395.0983838054179A450.0,450.0 0 0,1 181.94710698764024,411.57654240593956L109.16826419258415,246.94592544356377A270.0,270.0 0 0,0 129.24014918424078,237.05903028325073Z" fill="rgb(74,85,132)" fill-rule="evenodd" stroke="rgb(255,255,255)" stroke-width="0.5"/>
               <path transform="translate(450.0,450.0)" d="M181.94710698764024,411.57654240593956A450.0,450.0 0 0,1 153.87421606503946,422.8743615193165L92.32452963902367,253.7246169115899A270.0,270.0 0 0,0 109.16826419258415,246.94592544356377Z" fill="rgb(74,85,132)" fill-rule="evenodd" stroke="rgb(255,255,255)" stroke-width="0.5"/>
               <path transform="translate(450.0,450.0)" d="M98.61818737943814,439.060876323539A450.0,450.0 0 0,1 75.27605474510199,443.6592336264539L45.1656328470612,266.19554017587234A270.0,270.0 0 0,0 59.170912427662884,263.4365257941234Z" fill="rgb(74,85,132)" fill-rule="evenodd" stroke="rgb(255,255,255)" stroke-width="0.5"/>
               <path transform="translate(450.0,450.0)" d="M126.4042020639352,431.88190249254467A450.0,450.0 0 0,1 98.61818737943814,439.060876323539L59.170912427662884,263.4365257941234A270.0,270.0 0 0,0 75.84252123836112,259.12914149552677Z" fill="rgb(74,85,132)" fill-rule="evenodd" stroke="rgb(255,255,255)" stroke-width="0.5"/>
               <path transform="translate(450.0,450.0)" d="M247.61622630161233,375.74752756624855A450.0,450.0 0 0,1 215.4002486404013,395.0983838054179L129.24014918424078,237.05903028325073A270.0,270.0 0 0,0 148.5697357809674,225.44851653974914Z" fill="rgb(74,85,132)" fill-rule="evenodd" stroke="rgb(255,255,255)" stroke-width="0.5"/>
               <path transform="translate(450.0,450.0)" d="M75.27605474510199,443.6592336264539A450.0,450.0 0 0,1 68.48723307508436,444.7577980268801L41.09233984505062,266.85467881612806A270.0,270.0 0 0,0 45.1656328470612,266.19554017587234Z" fill="rgb(74,85,132)" fill-rule="evenodd" stroke="rgb(255,255,255)" stroke-width="0.5"/>
               <path transform="translate(450.0,450.0)" d="M153.87421606503946,422.8743615193165A450.0,450.0 0 0,1 126.40420206393512,431.88190249254467L75.84252123836107,259.12914149552677A270.0,270.0 0 0,0 92.32452963902367,253.7246169115899Z" fill="rgb(74,85,132)" fill-rule="evenodd" stroke="rgb(255,255,255)" stroke-width="0.5"/>
               <path transform="translate(450.0,450.0)" d="M369.3594097056582,257.04790693932466A450.0,450.0 0 0,1 329.3670890167118,306.6224399365732L197.6202534100271,183.9734639619439A270.0,270.0 0 0,0 221.61564582339494,154.2287441635948Z" fill="rgb(74,85,132)" fill-rule="evenodd" stroke="rgb(255,255,255)" stroke-width="0.5"/>
               <path transform="translate(450.0,450.0)" d="M-71.82283631451652,-260.2719350674178A270.0,270.0 0 0,1 -52.411407230744445,-264.8641999064673L-17.470469076914814,-88.2880666354891A90.0,90.0 0 0,0 -23.94094543817217,-86.75731168913927Z" fill="rgb(115,117,181)" fill-rule="evenodd" stroke="rgb(255,255,255)" stroke-width="0.5"/>
               <path transform="translate(450.0,450.0)" d="M-0.7325130012280662,-269.99900634021424A270.0,270.0 0 0,1 -2.894063686845016e-13,-270.0L-9.646878956150053e-14,-90.0A90.0,90.0 0 0,0 -0.2441710004093554,-89.9996687800714Z" fill="rgb(115,117,181)" fill-rule="evenodd" stroke="rgb(255,255,255)" stroke-width="0.5"/>
               <path transform="translate(450.0,450.0)" d="M-211.07807066598377,-168.36284650695936A270.0,270.0 0 0,1 -169.43593567853858,-210.21765791849677L-56.47864522617953,-70.07255263949892A90.0,90.0 0 0,0 -70.35935688866125,-56.12094883565312Z" fill="rgb(115,117,181)" fill-rule="evenodd" stroke="rgb(255,255,255)" stroke-width="0.5"/>
               <path transform="translate(450.0,450.0)" d="M41.09233984505062,266.85467881612806A270.0,270.0 0 0,1 -162.94923199451134,215.2848062274691L-54.316410664837115,71.76160207582303A90.0,90.0 0 0,0 13.697446615016872,88.95155960537602Z" fill="rgb(115,117,181)" fill-rule="evenodd" stroke="rgb(255,255,255)" stroke-width="0.5"/>
               <path transform="translate(450.0,450.0)" d="M-260.9837644177532,366.5889724341673A450.0,450.0 0 0,1 -266.42105479639696,362.6566165964372L-159.85263287783818,217.59396995786233A270.0,270.0 0 0,0 -156.59025865065192,219.9533834605004Z" fill="rgb(206,219,156)" fill-rule="evenodd" stroke="rgb(255,255,255)" stroke-width="0.5"/>
               <path transform="translate(450.0,450.0)" d="M-253.88817893984628,371.53841334996383A450.0,450.0 0 0,1 -260.9837644177532,366.5889724341673L-156.59025865065192,219.9533834605004A270.0,270.0 0 0,0 -152.33290736390776,222.9230480099783Z" fill="rgb(206,219,156)" fill-rule="evenodd" stroke="rgb(255,255,255)" stroke-width="0.5"/>
               <path transform="translate(450.0,450.0)" d="M-208.61376239100684,398.72333533550375A450.0,450.0 0 0,1 -224.70074776794124,389.8840519340693L-134.82044866076473,233.93043116044157A270.0,270.0 0 0,0 -125.1682574346041,239.23400120130222Z" fill="rgb(206,219,156)" fill-rule="evenodd" stroke="rgb(255,255,255)" stroke-width="0.5"/>
               <path transform="translate(450.0,450.0)" d="M-126.15972604859508,431.95338119216456A450.0,450.0 0 0,1 -171.7225823983815,415.94633631567314L-103.03354943902889,249.5678017894039A270.0,270.0 0 0,0 -75.69583562915705,259.1720287152987Z" fill="rgb(206,219,156)" fill-rule="evenodd" stroke="rgb(255,255,255)" stroke-width="0.5"/>
               <path transform="translate(450.0,450.0)" d="M-75.77825048049125,443.5737331652044A450.0,450.0 0 0,1 -126.15972604859508,431.95338119216456L-75.69583562915705,259.1720287152987A270.0,270.0 0 0,0 -45.46695028829475,266.1442398991226Z" fill="rgb(206,219,156)" fill-rule="evenodd" stroke="rgb(255,255,255)" stroke-width="0.5"/>
               <path transform="translate(450.0,450.0)" d="M-19.59776879159869,449.5730501913911A450.0,450.0 0 0,1 -75.77825048049125,443.5737331652044L-45.46695028829475,266.1442398991226A270.0,270.0 0 0,0 -11.758661274959213,269.7438301148347Z" fill="rgb(206,219,156)" fill-rule="evenodd" stroke="rgb(255,255,255)" stroke-width="0.5"/>
               <path transform="translate(450.0,450.0)" d="M-171.7225823983815,415.94633631567314A450.0,450.0 0 0,1 -208.61376239100684,398.72333533550375L-125.1682574346041,239.23400120130222A270.0,270.0 0 0,0 -103.03354943902889,249.5678017894039Z" fill="rgb(206,219,156)" fill-rule="evenodd" stroke="rgb(255,255,255)" stroke-width="0.5"/>
               <path transform="translate(450.0,450.0)" d="M68.48723307508436,444.7577980268801A450.0,450.0 0 0,1 -19.59776879159869,449.5730501913911L-11.758661274959213,269.7438301148347A270.0,270.0 0 0,0 41.09233984505062,266.85467881612806Z" fill="rgb(206,219,156)" fill-rule="evenodd" stroke="rgb(255,255,255)" stroke-width="0.5"/>
               <path transform="translate(450.0,450.0)" d="M-266.42105479639696,362.6566165964372A450.0,450.0 0 0,1 -271.58205332418527,358.80801037911544L-162.94923199451117,215.28480622746926A270.0,270.0 0 0,0 -159.85263287783818,217.59396995786233Z" fill="rgb(206,219,156)" fill-rule="evenodd" stroke="rgb(255,255,255)" stroke-width="0.5"/>
               <path transform="translate(450.0,450.0)" d="M-224.70074776794124,389.8840519340693A450.0,450.0 0 0,1 -240.01280890848278,380.64925004505153L-144.00768534508967,228.3895500270309A270.0,270.0 0 0,0 -134.82044866076473,233.93043116044157Z" fill="rgb(206,219,156)" fill-rule="evenodd" stroke="rgb(255,255,255)" stroke-width="0.5"/>
               <path transform="translate(450.0,450.0)" d="M-240.01280890848278,380.64925004505153A450.0,450.0 0 0,1 -253.88817893984628,371.53841334996383L-152.33290736390776,222.9230480099783A270.0,270.0 0 0,0 -144.00768534508967,228.3895500270309Z" fill="rgb(206,219,156)" fill-rule="evenodd" stroke="rgb(255,255,255)" stroke-width="0.5"/>
               <path transform="translate(450.0,450.0)" d="M-162.94923199451134,215.2848062274691A270.0,270.0 0 0,1 -264.9670052156965,51.889171770467385L-88.32233507189882,17.296390590155795A90.0,90.0 0 0,0 -54.316410664837115,71.76160207582303Z" fill="rgb(115,117,181)" fill-rule="evenodd" stroke="rgb(255,255,255)" stroke-width="0.5"/>
               <path transform="translate(450.0,450.0)" d="M1.6532731788489267e-14,-270.0A270.0,270.0 0 0,1 247.41030360265077,108.11170922358116L82.47010120088359,36.03723640786039A90.0,90.0 0 0,0 5.5109105961630896e-15,-90.0Z" fill="rgb(115,117,181)" fill-rule="evenodd" stroke="rgb(255,255,255)" stroke-width="0.5"/>
               <path transform="translate(450.0,450.0)" d="M116.6537907030381,-434.6169498703563A450.0,450.0 0 0,1 211.28615736541522,-397.313679233118L126.77169441924914,-238.38820753987082A270.0,270.0 0 0,0 69.99227442182286,-260.77016992221377Z" fill="rgb(181,207,107)" fill-rule="evenodd" stroke="rgb(255,255,255)" stroke-width="0.5"/>
               <path transform="translate(450.0,450.0)" d="M447.6895900793154,-45.54152977903261A450.0,450.0 0 0,1 449.67577672925825,17.079104863495818L269.80546603755494,10.24746291809749A270.0,270.0 0 0,0 268.6137540475892,-27.324917867419565Z" fill="rgb(181,207,107)" fill-rule="evenodd" stroke="rgb(255,255,255)" stroke-width="0.5"/>
               <path transform="translate(450.0,450.0)" d="M415.03221212227805,-173.92027742873577A450.0,450.0 0 0,1 436.5435923506855,-109.2231293159031L261.9261554104113,-65.53387758954186A270.0,270.0 0 0,0 249.01932727336683,-104.35216645724147Z" fill="rgb(181,207,107)" fill-rule="evenodd" stroke="rgb(255,255,255)" stroke-width="0.5"/>
               <path transform="translate(450.0,450.0)" d="M421.55575992236993,157.4507582588067A450.0,450.0 0 0,1 412.3505060044179,180.1861820393021L247.41030360265074,108.11170922358127A270.0,270.0 0 0,0 252.93345595342197,94.47045495528403Z" fill="rgb(181,207,107)" fill-rule="evenodd" stroke="rgb(255,255,255)" stroke-width="0.5"/>
               <path transform="translate(450.0,450.0)" d="M436.5435923506855,-109.22312931590311A450.0,450.0 0 0,1 447.6895900793154,-45.54152977903261L268.6137540475892,-27.324917867419565A270.0,270.0 0 0,0 261.9261554104113,-65.53387758954187Z" fill="rgb(181,207,107)" fill-rule="evenodd" stroke="rgb(255,255,255)" stroke-width="0.5"/>
               <path transform="translate(450.0,450.0)" d="M431.45012537186665,127.87020496034467A450.0,450.0 0 0,1 421.55575992236993,157.4507582588067L252.93345595342197,94.47045495528403A270.0,270.0 0 0,0 258.87007522312,76.7221229762068Z" fill="rgb(181,207,107)" fill-rule="evenodd" stroke="rgb(255,255,255)" stroke-width="0.5"/>
               <path transform="translate(450.0,450.0)" d="M2.7554552980815446e-14,-450.0A450.0,450.0 0 0,1 116.6537907030381,-434.6169498703563L69.99227442182286,-260.77016992221377A270.0,270.0 0 0,0 1.6532731788489267e-14,-270.0Z" fill="rgb(181,207,107)" fill-rule="evenodd" stroke="rgb(255,255,255)" stroke-width="0.5"/>
               <path transform="translate(450.0,450.0)" d="M211.28615736541533,-397.31367923311797A450.0,450.0 0 0,1 283.34954831149287,-349.5898074482049L170.0097289868957,-209.75388446892293A270.0,270.0 0 0,0 126.7716944192492,-238.38820753987076Z" fill="rgb(181,207,107)" fill-rule="evenodd" stroke="rgb(255,255,255)" stroke-width="0.5"/>
               <path transform="translate(450.0,450.0)" d="M283.34954831149275,-349.58980744820497A450.0,450.0 0 0,1 342.22574746407713,-292.2011939959413L205.33544847844627,-175.32071639756478A270.0,270.0 0 0,0 170.00972898689565,-209.75388446892296Z" fill="rgb(181,207,107)" fill-rule="evenodd" stroke="rgb(255,255,255)" stroke-width="0.5"/>
               <path transform="translate(450.0,450.0)" d="M449.67577672925825,17.079104863495818A450.0,450.0 0 0,1 443.4980820360764,76.21975616808007L266.0988492216459,45.73185370084804A270.0,270.0 0 0,0 269.80546603755494,10.24746291809749Z" fill="rgb(181,207,107)" fill-rule="evenodd" stroke="rgb(255,255,255)" stroke-width="0.5"/>
               <path transform="translate(450.0,450.0)" d="M342.22574746407713,-292.20119399594125A450.0,450.0 0 0,1 383.7828093217562,-234.96969010725726L230.26968559305374,-140.98181406435435A270.0,270.0 0 0,0 205.33544847844627,-175.32071639756475Z" fill="rgb(181,207,107)" fill-rule="evenodd" stroke="rgb(255,255,255)" stroke-width="0.5"/>
               <path transform="translate(450.0,450.0)" d="M383.78280932175625,-234.9696901072572A450.0,450.0 0 0,1 415.03221212227805,-173.92027742873577L249.01932727336683,-104.35216645724147A270.0,270.0 0 0,0 230.26968559305377,-140.98181406435432Z" fill="rgb(181,207,107)" fill-rule="evenodd" stroke="rgb(255,255,255)" stroke-width="0.5"/>
               <path transform="translate(450.0,450.0)" d="M443.4980820360764,76.21975616808007A450.0,450.0 0 0,1 431.45012537186665,127.87020496034467L258.87007522312,76.7221229762068A270.0,270.0 0 0,0 266.0988492216459,45.73185370084804Z" fill="rgb(181,207,107)" fill-rule="evenodd" stroke="rgb(255,255,255)" stroke-width="0.5"/>
               <path transform="translate(450.0,450.0)" d="M-52.411407230744445,-264.8641999064673A270.0,270.0 0 0,1 -33.43045091217217,-267.9223860594871L-11.143483637390723,-89.30746201982903A90.0,90.0 0 0,0 -17.470469076914814,-88.2880666354891Z" fill="rgb(115,117,181)" fill-rule="evenodd" stroke="rgb(255,255,255)" stroke-width="0.5"/>
               <path transform="translate(450.0,450.0)" d="M-169.43593567853858,-210.21765791849677A270.0,270.0 0 0,1 -141.1660403011078,-230.15679235187912L-47.05534676703594,-76.7189307839597A90.0,90.0 0 0,0 -56.47864522617953,-70.07255263949892Z" fill="rgb(115,117,181)" fill-rule="evenodd" stroke="rgb(255,255,255)" stroke-width="0.5"/>
               <path transform="translate(450.0,450.0)" d="M-10.67400300034573,-269.7889279787972A270.0,270.0 0 0,1 -5.838576533972079,-269.93686488521155L-1.946192177990693,-89.97895496173719A90.0,90.0 0 0,0 -3.5580010001152433,-89.92964265959907Z" fill="rgb(115,117,181)" fill-rule="evenodd" stroke="rgb(255,255,255)" stroke-width="0.5"/>
               <path transform="translate(450.0,450.0)" d="M-2.0973928055892697,-269.99185347602446A270.0,270.0 0 0,1 -0.7325130012280662,-269.99900634021424L-0.2441710004093554,-89.9996687800714A90.0,90.0 0 0,0 -0.6991309351964232,-89.99728449200815Z" fill="rgb(115,117,181)" fill-rule="evenodd" stroke="rgb(255,255,255)" stroke-width="0.5"/>
               <path transform="translate(450.0,450.0)" d="M-257.9118008619831,-79.88430994963134A270.0,270.0 0 0,1 -211.07807066598377,-168.36284650695936L-70.35935688866125,-56.12094883565312A90.0,90.0 0 0,0 -85.9706002873277,-26.62810331654378Z" fill="rgb(115,117,181)" fill-rule="evenodd" stroke="rgb(255,255,255)" stroke-width="0.5"/>
               <path transform="translate(450.0,450.0)" d="M-429.8530014366385,-133.1405165827189A450.0,450.0 0 0,1 -379.8931526486187,-241.2077788353711L-227.9358915891712,-144.72466730122267A270.0,270.0 0 0,0 -257.9118008619831,-79.88430994963134Z" fill="rgb(140,162,82)" fill-rule="evenodd" stroke="rgb(255,255,255)" stroke-width="0.5"/>
               <path transform="translate(450.0,450.0)" d="M-379.8931526486187,-241.2077788353711A450.0,450.0 0 0,1 -351.7967844433064,-280.60474417826543L-211.07807066598386,-168.36284650695924A270.0,270.0 0 0,0 -227.9358915891712,-144.72466730122267Z" fill="rgb(140,162,82)" fill-rule="evenodd" stroke="rgb(255,255,255)" stroke-width="0.5"/>
               <path transform="translate(450.0,450.0)" d="M-3.931194681011645,-269.97137942452343A270.0,270.0 0 0,1 -2.0973928055892697,-269.99185347602446L-0.6991309351964232,-89.99728449200815A90.0,90.0 0 0,0 -1.3103982270038816,-89.99045980817446Z" fill="rgb(115,117,181)" fill-rule="evenodd" stroke="rgb(255,255,255)" stroke-width="0.5"/>
               <path transform="translate(450.0,450.0)" d="M-22.954223664069232,-269.0224964867806A270.0,270.0 0 0,1 -16.258291068942118,-269.5100517077565L-5.41943035631404,-89.83668390258549A90.0,90.0 0 0,0 -7.651407888023077,-89.67416549559353Z" fill="rgb(115,117,181)" fill-rule="evenodd" stroke="rgb(255,255,255)" stroke-width="0.5"/>
               <path transform="translate(450.0,450.0)" d="M-91.34826225902793,-254.07773413318975A270.0,270.0 0 0,1 -71.82283631451652,-260.2719350674178L-23.94094543817217,-86.75731168913927A90.0,90.0 0 0,0 -30.44942075300931,-84.69257804439658Z" fill="rgb(115,117,181)" fill-rule="evenodd" stroke="rgb(255,255,255)" stroke-width="0.5"/>
               <path transform="translate(450.0,450.0)" d="M-152.24710376504655,-423.46289022198295A450.0,450.0 0 0,1 -124.20246940466149,-432.5202268030758L-74.5214816427969,-259.5121360818455A270.0,270.0 0 0,0 -91.34826225902793,-254.07773413318975Z" fill="rgb(99,121,57)" fill-rule="evenodd" stroke="rgb(255,255,255)" stroke-width="0.5"/>
               <path transform="translate(450.0,450.0)" d="M-124.20246940466149,-432.5202268030758A450.0,450.0 0 0,1 -119.70472719086123,-433.7865584456963L-71.82283631451674,-260.27193506741776A270.0,270.0 0 0,0 -74.5214816427969,-259.5121360818455Z" fill="rgb(99,121,57)" fill-rule="evenodd" stroke="rgb(255,255,255)" stroke-width="0.5"/>
               <path transform="translate(450.0,450.0)" d="M-264.9670052156965,51.889171770467385A270.0,270.0 0 0,1 -257.9118008619831,-79.88430994963134L-85.9706002873277,-26.62810331654378A90.0,90.0 0 0,0 -88.32233507189882,17.296390590155795Z" fill="rgb(115,117,181)" fill-rule="evenodd" stroke="rgb(255,255,255)" stroke-width="0.5"/>
               <path transform="translate(450.0,450.0)" d="M-447.35093547793156,-48.75592812181441A450.0,450.0 0 0,1 -434.8347652732861,-115.83922871689964L-260.9008591639717,-69.50353723013978A270.0,270.0 0 0,0 -268.41056128675893,-29.253556873088645Z" fill="rgb(231,203,148)" fill-rule="evenodd" stroke="rgb(255,255,255)" stroke-width="0.5"/>
               <path transform="translate(450.0,450.0)" d="M-430.2049028152123,-131.99902118483212A450.0,450.0 0 0,1 -429.8530014366385,-133.1405165827189L-257.9118008619831,-79.88430994963134A270.0,270.0 0 0,0 -258.1229416891274,-79.19941271089927Z" fill="rgb(231,203,148)" fill-rule="evenodd" stroke="rgb(255,255,255)" stroke-width="0.5"/>
               <path transform="translate(450.0,450.0)" d="M-434.8347652732861,-115.83922871689964A450.0,450.0 0 0,1 -430.2049028152123,-131.99902118483212L-258.1229416891274,-79.19941271089927A270.0,270.0 0 0,0 -260.9008591639717,-69.50353723013978Z" fill="rgb(231,203,148)" fill-rule="evenodd" stroke="rgb(255,255,255)" stroke-width="0.5"/>
               <path transform="translate(450.0,450.0)" d="M-441.61167535949414,86.48195295077898A450.0,450.0 0 0,1 -447.35093547793156,-48.75592812181441L-268.41056128675893,-29.253556873088645A270.0,270.0 0 0,0 -264.9670052156965,51.889171770467385Z" fill="rgb(231,203,148)" fill-rule="evenodd" stroke="rgb(255,255,255)" stroke-width="0.5"/>
               <path transform="translate(450.0,450.0)" d="M-110.68446382940387,-246.2700742412634A270.0,270.0 0 0,1 -91.34826225902793,-254.07773413318975L-30.44942075300931,-84.69257804439658A90.0,90.0 0 0,0 -36.89482127646796,-82.0900247470878Z" fill="rgb(115,117,181)" fill-rule="evenodd" stroke="rgb(255,255,255)" stroke-width="0.5"/>
               <path transform="translate(450.0,450.0)" d="M-141.1660403011078,-230.15679235187912A270.0,270.0 0 0,1 -110.68446382940364,-246.2700742412635L-36.89482127646788,-82.09002474708784A90.0,90.0 0 0,0 -47.05534676703594,-76.7189307839597Z" fill="rgb(115,117,181)" fill-rule="evenodd" stroke="rgb(255,255,255)" stroke-width="0.5"/>
               <path transform="translate(450.0,450.0)" d="M-33.43045091217217,-267.9223860594871A270.0,270.0 0 0,1 -22.954223664069232,-269.0224964867806L-7.651407888023077,-89.67416549559353A90.0,90.0 0 0,0 -11.143483637390723,-89.30746201982903Z" fill="rgb(115,117,181)" fill-rule="evenodd" stroke="rgb(255,255,255)" stroke-width="0.5"/>
               <path transform="translate(450.0,450.0)" d="M-16.258291068942118,-269.5100517077565A270.0,270.0 0 0,1 -10.67400300034573,-269.7889279787972L-3.5580010001152433,-89.92964265959907A90.0,90.0 0 0,0 -5.41943035631404,-89.83668390258549Z" fill="rgb(115,117,181)" fill-rule="evenodd" stroke="rgb(255,255,255)" stroke-width="0.5"/>
               <path transform="translate(450.0,450.0)" d="M-5.838576533972079,-269.93686488521155A270.0,270.0 0 0,1 -3.931194681011645,-269.97137942452343L-1.3103982270038816,-89.99045980817446A90.0,90.0 0 0,0 -1.946192177990693,-89.97895496173719Z" fill="rgb(115,117,181)" fill-rule="evenodd" stroke="rgb(255,255,255)" stroke-width="0.5"/>
          </g>
          <g>
               <text pointer-events="none" dy=".35em" transform="translate(450.0,450.0) rotate(360.0)" fill="rgb(0,0,0)" text-anchor="middle">rubyvis</text>
               <text pointer-events="none" dy=".35em" transform="translate(559.7639414943479,592.660005424174) rotate(52.4249804296773)" fill="rgb(0,0,0)" text-anchor="middle">mark</text>
               <text pointer-events="none" dy=".35em" transform="translate(664.4907248003071,739.1258012952821) rotate(53.42977671193726)" fill="rgb(0,0,0)" text-anchor="middle">dot.rb</text>
               <text pointer-events="none" dy=".35em" transform="translate(697.3603755995402,711.5584917054967) rotate(46.59805663589259)" fill="rgb(0,0,0)" text-anchor="middle">line.rb</text>
               <text pointer-events="none" dy=".35em" transform="translate(764.191818371914,625.7370230433821) rotate(29.21961008461835)" fill="rgb(0,0,0)" text-anchor="middle">shorcut_methods.rb</text>
               <text pointer-events="none" dy=".35em" transform="translate(609.0755547457679,772.947314406431) rotate(63.776326743622526)" fill="rgb(0,0,0)" text-anchor="middle">label.rb</text>
               <text pointer-events="none" dy=".35em" transform="translate(584.404524765245,783.9691957690538) rotate(68.07788367151676)" fill="rgb(0,0,0)" text-anchor="middle">anchor.rb</text>
               <text pointer-events="none" dy=".35em" transform="translate(519.582011852436,803.2114715387474) rotate(78.85553995452227)" fill="rgb(0,0,0)" text-anchor="middle">bar.rb</text>
               <text pointer-events="none" dy=".35em" transform="translate(540.054750827324,798.5543599690421) rotate(75.51348799065592)" fill="rgb(0,0,0)" text-anchor="middle">image.rb</text>
               <text pointer-events="none" dy=".35em" transform="translate(635.3682655493835,758.6075276580486) rotate(59.00843698356091)" fill="rgb(0,0,0)" text-anchor="middle">wedge.rb</text>
               <text pointer-events="none" dy=".35em" transform="translate(562.1692488791931,792.0790253813841) rotate(71.84545036593394)" fill="rgb(0,0,0)" text-anchor="middle">panel.rb</text>
               <text pointer-events="none" dy=".35em" transform="translate(730.1931774583293,676.0349161209507) rotate(38.893500167745614)" fill="rgb(0,0,0)" text-anchor="middle">area.rb</text>
               <text pointer-events="none" dy=".35em" transform="translate(408.5603032968854,274.8350733247267) rotate(436.68994396053625)" fill="rgb(0,0,0)" text-anchor="middle">sceneelement.rb</text>
               <text pointer-events="none" dy=".35em" transform="translate(322.3969983535503,323.0453861775156) rotate(404.8540613079188)" fill="rgb(0,0,0)" text-anchor="middle">dom.rb</text>
               <text pointer-events="none" dy=".35em" transform="translate(405.89336920203016,624.5124784067076) rotate(284.1840107357199)" fill="rgb(0,0,0)" text-anchor="middle">scene</text>
               <text pointer-events="none" dy=".35em" transform="translate(276.63813676804693,765.5085805120767) rotate(298.7873855291442)" fill="rgb(0,0,0)" text-anchor="middle">svg_dot.rb</text>
               <text pointer-events="none" dy=".35em" transform="translate(330.67516927554254,789.6492084085867) rotate(289.35728575156253)" fill="rgb(0,0,0)" text-anchor="middle">svg_scene.rb</text>
               <text pointer-events="none" dy=".35em" transform="translate(369.0911832298713,800.7901985073952) rotate(282.9879844431467)" fill="rgb(0,0,0)" text-anchor="middle">svg_line.rb</text>
               <text pointer-events="none" dy=".35em" transform="translate(411.7741933098159,807.964785562609) rotate(276.0953167907156)" fill="rgb(0,0,0)" text-anchor="middle">svg_area.rb</text>
               <text pointer-events="none" dy=".35em" transform="translate(297.70955805145724,776.2018106803173) rotate(295.02596950757345)" fill="rgb(0,0,0)" text-anchor="middle">svg_panel.rb</text>
               <text pointer-events="none" dy=".35em" transform="translate(469.65041015891137,809.4632962912717) rotate(86.87098497744752)" fill="rgb(0,0,0)" text-anchor="middle">svg_curve.rb</text>
               <text pointer-events="none" dy=".35em" transform="translate(264.07787809955204,758.2741711334813) rotate(301.09444699859586)" fill="rgb(0,0,0)" text-anchor="middle">svg_wedge.rb</text>
               <text pointer-events="none" dy=".35em" transform="translate(252.40599476994666,750.9262519241977) rotate(303.2896780526596)" fill="rgb(0,0,0)" text-anchor="middle">svg_label.rb</text>
               <text pointer-events="none" dy=".35em" transform="translate(297.3164349134863,545.3295806792013) rotate(328.02097441568606)" fill="rgb(0,0,0)" text-anchor="middle">mark.rb</text>
               <text pointer-events="none" dy=".35em" transform="translate(600.6210561422768,351.44393754524725) rotate(-33.197977112041656)" fill="rgb(0,0,0)" text-anchor="middle">layout</text>
               <text pointer-events="none" dy=".35em" transform="translate(582.021903358117,115.08177560231212) rotate(-68.4860646876825)" fill="rgb(0,0,0)" text-anchor="middle">treemap.rb</text>
               <text pointer-events="none" dy=".35em" transform="translate(809.8190535100706,438.5873433803975) rotate(-1.8166850979758715)" fill="rgb(0,0,0)" text-anchor="middle">matrix.rb</text>
               <text pointer-events="none" dy=".35em" transform="translate(791.6119603849277,336.4162488646964) rotate(-18.3916301146883)" fill="rgb(0,0,0)" text-anchor="middle">tree.rb</text>
               <text pointer-events="none" dy=".35em" transform="translate(783.686453988516,585.104960769655) rotate(22.042334025025177)" fill="rgb(0,0,0)" text-anchor="middle">indent.rb</text>
               <text pointer-events="none" dy=".35em" transform="translate(804.6093438204609,387.9337992525551) rotate(-9.92774512605773)" fill="rgb(0,0,0)" text-anchor="middle">cluster.rb</text>
               <text pointer-events="none" dy=".35em" transform="translate(791.4074514664371,564.1969880653269) rotate(18.49451409684515)" fill="rgb(0,0,0)" text-anchor="middle">grid.rb</text>
               <text pointer-events="none" dy=".35em" transform="translate(497.06547799256583,93.08987016150508) rotate(-82.48779184632016)" fill="rgb(0,0,0)" text-anchor="middle">network.rb</text>
               <text pointer-events="none" dy=".35em" transform="translate(648.773056229917,149.85125001589915) rotate(-56.48554281241068)" fill="rgb(0,0,0)" text-anchor="middle">stack.rb</text>
               <text pointer-events="none" dy=".35em" transform="translate(701.2808480210667,192.20563346377492) rotate(-45.73304837286746)" fill="rgb(0,0,0)" text-anchor="middle">pack.rb</text>
               <text pointer-events="none" dy=".35em" transform="translate(808.0518752624515,487.4012649657981) rotate(5.963356900557915)" fill="rgb(0,0,0)" text-anchor="middle">arc.rb</text>
               <text pointer-events="none" dy=".35em" transform="translate(741.3043410767808,238.4774695929) rotate(-35.984231911430314)" fill="rgb(0,0,0)" text-anchor="middle">partition.rb</text>
               <text pointer-events="none" dy=".35em" transform="translate(770.4577898626964,285.96706148972413) rotate(-27.10657438586463)" fill="rgb(0,0,0)" text-anchor="middle">hierarchy.rb</text>
               <text pointer-events="none" dy=".35em" transform="translate(800.5885644471173,531.7781051315665) rotate(13.130009070689256)" fill="rgb(0,0,0)" text-anchor="middle">horizon.rb</text>
               <text pointer-events="none" dy=".35em" transform="translate(421.3678946480331,272.29180507609146) rotate(440.84723965258013)" fill="rgb(0,0,0)" text-anchor="middle">vector.rb</text>
               <text pointer-events="none" dy=".35em" transform="translate(346.2528947850092,302.9063626137771) rotate(414.8041725170541)" fill="rgb(0,0,0)" text-anchor="middle">internals.rb</text>
               <text pointer-events="none" dy=".35em" transform="translate(290.91234036714036,365.7912323297662) rotate(387.8933013581183)" fill="rgb(0,0,0)" text-anchor="middle">color</text>
               <text pointer-events="none" dy=".35em" transform="translate(123.22977682129027,298.93305707820707) rotate(384.8112551100287)" fill="rgb(0,0,0)" text-anchor="middle">color.rb</text>
               <text pointer-events="none" dy=".35em" transform="translate(156.9000757639635,240.97264673533832) rotate(395.49497384410836)" fill="rgb(0,0,0)" text-anchor="middle">colors.rb</text>
               <text pointer-events="none" dy=".35em" transform="translate(395.57045784287214,278.4266193707035) rotate(432.39901092210386)" fill="rgb(0,0,0)" text-anchor="middle">format</text>
               <text pointer-events="none" dy=".35em" transform="translate(339.3608374206262,107.42303681692943) rotate(432.1015420171721)" fill="rgb(0,0,0)" text-anchor="middle">number.rb</text>
               <text pointer-events="none" dy=".35em" transform="translate(270.2574383149745,440.37651212372595) rotate(363.06471253370444)" fill="rgb(0,0,0)" text-anchor="middle">scale</text>
               <text pointer-events="none" dy=".35em" transform="translate(96.10695856998888,383.97186033654737) rotate(370.5685334062302)" fill="rgb(0,0,0)" text-anchor="middle">ordinal.rb</text>
               <text pointer-events="none" dy=".35em" transform="translate(103.92376186527542,350.8474034706231) rotate(375.9872761838492)" fill="rgb(0,0,0)" text-anchor="middle">log.rb</text>
               <text pointer-events="none" dy=".35em" transform="translate(90.32374380420441,465.2640338369789) rotate(357.56992507362173)" fill="rgb(0,0,0)" text-anchor="middle">quantitative.rb</text>
               <text pointer-events="none" dy=".35em" transform="translate(382.6054882190682,283.09290074472614) rotate(428.0119037264379)" fill="rgb(0,0,0)" text-anchor="middle">flatten.rb</text>
               <text pointer-events="none" dy=".35em" transform="translate(365.8781873418476,290.8663434872851) rotate(422.1380111581903)" fill="rgb(0,0,0)" text-anchor="middle">nest.rb</text>
               <text pointer-events="none" dy=".35em" transform="translate(431.2015314748459,270.98430912037685) rotate(444.0053305831335)" fill="rgb(0,0,0)" text-anchor="middle">javascript_behaviour.rb</text>
          </g>
     </g>
</svg>
