<svg font-size="10px" font-family="sans-serif" fill="none" stroke="none" stroke-width="1.5" width="450" height="645"><g transform="translate(20, 5)"><g><text pointer-events="none" y="3" dy="0.71em" transform="translate(100)" fill="rgb(0,0,0)" text-anchor="middle">linear</text></g><g><path d="M0,86.01536001878696L18.88888888888889,29.86784197156267L18.88888888888889,150L0,150Z" fill="rgb(156,158,222)"/><path d="M18.88888888888889,29.86784197156267L37.77777777777778,25.342093079410418L37.77777777777778,150L18.88888888888889,150Z" fill="rgb(115,117,181)"/><path d="M37.77777777777778,25.342093079410418L56.666666666666664,76.59906600221463L56.666666666666664,150L37.77777777777778,150Z" fill="rgb(74,85,132)"/><path d="M56.666666666666664,76.59906600221463L75.55555555555556,136.51333621839072L75.55555555555556,150L56.666666666666664,150Z" fill="rgb(206,219,156)"/><path d="M75.55555555555556,136.51333621839072L94.44444444444444,150L94.44444444444444,150L75.55555555555556,150Z" fill="rgb(181,207,107)"/><path d="M94.44444444444444,150L113.33333333333333,104.65948086316754L113.33333333333333,150L94.44444444444444,150Z" fill="rgb(140,162,82)"/><path d="M113.33333333333333,104.65948086316754L132.22222222222223,42.177643003780105L132.22222222222223,150L113.33333333333333,150Z" fill="rgb(99,121,57)"/><path d="M132.22222222222223,42.177643003780105L151.11111111111111,20L151.11111111111111,150L132.22222222222223,150Z" fill="rgb(231,203,148)"/><path d="M151.11111111111111,20L170,58.516574552061854L170,150L151.11111111111111,150Z" fill="rgb(231,186,82)"/></g></g><g transform="translate(20, 5)"><g transform="translate(210)"><text pointer-events="none" y="3" dy="0.71em" transform="translate(100)" fill="rgb(0,0,0)" text-anchor="middle">step-before</text></g><g transform="translate(210)"><path d="M0,29.86784197156267L18.88888888888889,29.86784197156267L18.88888888888889,150L0,150Z" fill="rgb(156,158,222)"/><path d="M18.88888888888889,25.342093079410418L37.77777777777778,25.342093079410418L37.77777777777778,150L18.88888888888889,150Z" fill="rgb(115,117,181)"/><path d="M37.77777777777778,76.59906600221463L56.666666666666664,76.59906600221463L56.666666666666664,150L37.77777777777778,150Z" fill="rgb(74,85,132)"/><path d="M56.666666666666664,136.51333621839072L75.55555555555556,136.51333621839072L75.55555555555556,150L56.666666666666664,150Z" fill="rgb(206,219,156)"/><path d="M75.55555555555556,150L94.44444444444444,150L94.44444444444444,150L75.55555555555556,150Z" fill="rgb(181,207,107)"/><path d="M94.44444444444444,104.65948086316754L113.33333333333333,104.65948086316754L113.33333333333333,150L94.44444444444444,150Z" fill="rgb(140,162,82)"/><path d="M113.33333333333333,42.177643003780105L132.22222222222223,42.177643003780105L132.22222222222223,150L113.33333333333333,150Z" fill="rgb(99,121,57)"/><path d="M132.22222222222223,20L151.11111111111111,20L151.11111111111111,150L132.22222222222223,150Z" fill="rgb(231,203,148)"/><path d="M151.11111111111111,58.516574552061854L170,58.516574552061854L170,150L151.11111111111111,150Z" fill="rgb(231,186,82)"/></g></g><g transform="translate(20, 5)"><g transform="translate(0, 160)"><text pointer-events="none" y="3" dy="0.71em" transform="translate(100)" fill="rgb(0,0,0)" text-anchor="middle">step-after</text></g><g transform="translate(0, 160)"><path d="M0,86.01536001878696L18.88888888888889,86.01536001878696L18.88888888888889,150L0,150Z" fill="rgb(156,158,222)"/><path d="M18.88888888888889,29.86784197156267L37.77777777777778,29.86784197156267L37.77777777777778,150L18.88888888888889,150Z" fill="rgb(115,117,181)"/><path d="M37.77777777777778,25.342093079410418L56.666666666666664,25.342093079410418L56.666666666666664,150L37.77777777777778,150Z" fill="rgb(74,85,132)"/><path d="M56.666666666666664,76.59906600221463L75.55555555555556,76.59906600221463L75.55555555555556,150L56.666666666666664,150Z" fill="rgb(206,219,156)"/><path d="M75.55555555555556,136.51333621839072L94.44444444444444,136.51333621839072L94.44444444444444,150L75.55555555555556,150Z" fill="rgb(181,207,107)"/><path d="M94.44444444444444,150L113.33333333333333,150L113.33333333333333,150L94.44444444444444,150Z" fill="rgb(140,162,82)"/><path d="M113.33333333333333,104.65948086316754L132.22222222222223,104.65948086316754L132.22222222222223,150L113.33333333333333,150Z" fill="rgb(99,121,57)"/><path d="M132.22222222222223,42.177643003780105L151.11111111111111,42.177643003780105L151.11111111111111,150L132.22222222222223,150Z" fill="rgb(231,203,148)"/><path d="M151.11111111111111,20L170,20L170,150L151.11111111111111,150Z" fill="rgb(231,186,82)"/></g></g><g transform="translate(20, 5)"><g transform="translate(210, 160)"><text pointer-events="none" y="3" dy="0.71em" transform="translate(100)" fill="rgb(0,0,0)" text-anchor="middle">basis</text></g><g transform="translate(210, 160)"><path d="M0,86.01536001878696C0,86.01536001878696,0,86.01536001878696,3.148148148148148,76.65744034424958C6.296296296296296,67.2995206697122,12.592592592592592,48.58368132063743,18.888888888888886,38.471470164074674L18.888888888888886,150C12.592592592592592,150,6.296296296296296,150,3.148148148148148,150C0,150,0,150,0,150Z" fill="rgb(156,158,222)"/><path d="M18.888888888888886,38.471470164074674C25.185185185185183,28.359259007511916,31.48148148148148,26.850676043461167,37.77777777777777,34.63921338190316L37.77777777777777,150C31.48148148148148,150,25.185185185185183,150,18.888888888888886,150Z" fill="rgb(115,117,181)"/><path d="M37.77777777777777,34.63921338190316C44.07407407407407,42.42775072034515,50.37037037037037,59.513408361279886,56.66666666666666,78.04194888444327L56.666666666666664,150C50.37037037037037,150,44.07407407407407,150,37.77777777777777,150Z" fill="rgb(74,85,132)"/><path d="M56.66666666666666,78.04194888444327C62.962962962962955,96.57048940760666,69.25925925925925,116.54191281299867,75.55555555555554,128.77540181262958L75.55555555555556,150C69.25925925925925,150,62.962962962962955,150,56.666666666666664,150Z" fill="rgb(206,219,156)"/><path d="M75.55555555555554,128.77540181262958C81.85185185185185,141.00889081226046,88.14814814814815,145.50444540613023,94.44444444444444,140.19546951359303L94.44444444444444,150C88.14814814814815,150,81.85185185185185,150,75.55555555555556,150Z" fill="rgb(181,207,107)"/><path d="M94.44444444444444,140.19546951359303C100.74074074074073,134.88649362105585,107.03703703703702,119.7729872421117,113.33333333333331,101.80259440940839L113.33333333333331,150C107.03703703703702,150,100.74074074074073,150,94.44444444444444,150Z" fill="rgb(140,162,82)"/><path d="M113.33333333333331,101.80259440940839C119.62962962962962,83.83220157670506,125.92592592592592,63.00492229024258,132.22222222222223,48.895008813047994L132.22222222222223,150C125.92592592592592,150,119.62962962962962,150,113.33333333333331,150Z" fill="rgb(99,121,57)"/><path d="M132.22222222222223,48.895008813047994C138.51851851851853,34.7850953358534,144.8148148148148,27.3925476679267,151.11111111111111,30.115702925973657L151.11111111111111,150C144.8148148148148,150,138.51851851851853,150,132.22222222222223,150Z" fill="rgb(231,203,148)"/><path d="M151.11111111111111,30.115702925973657C157.4074074074074,32.838858184020616,163.7037037037037,45.67771636804123,166.85185185185185,52.09714546005154C170,58.516574552061854,170,58.516574552061854,170,58.51657455206185L170,150C170,150,170,150,166.85185185185185,150C163.7037037037037,150,157.4074074074074,150,151.11111111111111,150Z" fill="rgb(231,186,82)"/></g></g><g transform="translate(20, 5)"><g transform="translate(0, 320)"><text pointer-events="none" y="3" dy="0.71em" transform="translate(100)" fill="rgb(0,0,0)" text-anchor="middle">cardinal</text></g><g transform="translate(0, 320)"><path d="M0,86.01536001878696Q15.11111111111111,35.93516866550033,18.88888888888889,29.86784197156267L18.88888888888889,150Q15.11111111111111,150,0,150Z" fill="rgb(156,158,222)"/><path d="M18.88888888888889,29.86784197156267C24.555555555555557,20.766851930656188,32.111111111111114,18.33240947481262,37.77777777777778,25.342093079410418L37.77777777777778,150C32.111111111111114,150,24.555555555555557,150,18.88888888888889,150Z" fill="rgb(115,117,181)"/><path d="M37.77777777777778,25.342093079410418C43.44444444444444,32.351776684008215,51,59.92337953136758,56.666666666666664,76.59906600221463L56.666666666666664,150C51,150,43.44444444444444,150,37.77777777777778,150Z" fill="rgb(74,85,132)"/><path d="M56.666666666666664,76.59906600221463C62.33333333333333,93.27475247306168,69.88888888888889,125.50319611872291,75.55555555555556,136.51333621839072L75.55555555555556,150C69.88888888888889,150,62.33333333333333,150,56.666666666666664,150Z" fill="rgb(206,219,156)"/><path d="M75.55555555555556,136.51333621839072C81.22222222222223,147.52347631805853,88.77777777777777,154.77807830328348,94.44444444444444,150L94.44444444444444,150C88.77777777777777,150,81.22222222222223,150,75.55555555555556,150Z" fill="rgb(181,207,107)"/><path d="M94.44444444444444,150C100.11111111111111,145.22192169671652,107.66666666666666,120.83283441260053,113.33333333333333,104.65948086316754L113.33333333333333,150C107.66666666666666,150,100.11111111111111,150,94.44444444444444,150Z" fill="rgb(140,162,82)"/><path d="M113.33333333333333,104.65948086316754C119,88.48612731373456,126.55555555555556,54.87656513325524,132.22222222222223,42.177643003780105L132.22222222222223,150C126.55555555555556,150,119,150,113.33333333333333,150Z" fill="rgb(99,121,57)"/><path d="M132.22222222222223,42.177643003780105C137.88888888888889,29.47872087430497,145.44444444444446,17.54916026775774,151.11111111111111,20L151.11111111111111,150C145.44444444444446,150,137.88888888888889,150,132.22222222222223,150Z" fill="rgb(231,203,148)"/><path d="M151.11111111111111,20Q154.88888888888889,21.633893154828176,170,58.516574552061854L170,150Q154.88888888888889,150,151.11111111111111,150Z" fill="rgb(231,186,82)"/></g></g><g transform="translate(20, 5)"><g transform="translate(210, 320)"><text pointer-events="none" y="3" dy="0.71em" transform="translate(100)" fill="rgb(0,0,0)" text-anchor="middle">monotone</text></g><g transform="translate(210, 320)"><path d="M0,86.01536001878696C0.6401375283298946,84.11254119042535,14.134419165934167,32.57534409732352,18.88888888888889,29.86784197156267L18.88888888888889,150C12.592592592592592,150,6.296296296296297,150,0,150Z" fill="rgb(156,158,222)"/><path d="M18.88888888888889,29.86784197156267C23.64335861184361,27.160339845801815,32.4973197871992,23.02604223830979,37.77777777777778,25.342093079410418L37.77777777777778,150C31.481481481481485,150,25.185185185185187,150,18.88888888888889,150Z" fill="rgb(115,117,181)"/><path d="M37.77777777777778,25.342093079410418C43.058235768356354,27.658143920511048,56.01486837892946,74.68097472776627,56.666666666666664,76.59906600221463L56.666666666666664,150C50.37037037037037,150,44.074074074074076,150,37.77777777777778,150Z" fill="rgb(74,85,132)"/><path d="M56.666666666666664,76.59906600221463C57.31846495440387,78.51715727666299,74.23699163953857,133.95141149267656,75.55555555555556,136.51333621839072L75.55555555555556,150C69.25925925925927,150,62.96296296296296,150,56.666666666666664,150Z" fill="rgb(206,219,156)"/><path d="M75.55555555555556,136.51333621839072C76.87411947157254,139.07526094410488,90.7644869934704,153.10290438591272,94.44444444444444,150L94.44444444444444,150C88.14814814814815,150,81.85185185185185,150,75.55555555555556,150Z" fill="rgb(181,207,107)"/><path d="M94.44444444444444,150C98.12440189541849,146.89709561408728,112.64491316577356,106.62431546796236,113.33333333333333,104.65948086316754L113.33333333333333,150C107.03703703703704,150,100.74074074074073,150,94.44444444444444,150Z" fill="rgb(140,162,82)"/><path d="M113.33333333333333,104.65948086316754C114.0217535008931,102.69464625837273,131.17667655581442,44.52069647446061,132.22222222222223,42.177643003780105L132.22222222222223,150C125.92592592592592,150,119.62962962962962,150,113.33333333333333,150Z" fill="rgb(99,121,57)"/><path d="M132.22222222222223,42.177643003780105C133.26776788863003,39.8345895330996,145.8069891578694,17.705961265706488,151.11111111111111,20L151.11111111111111,150C144.8148148148148,150,138.51851851851853,150,132.22222222222223,150Z" fill="rgb(231,203,148)"/><path d="M151.11111111111111,20C156.41523306435283,22.294038734293512,168.77930988306133,56.027449745907155,170,58.516574552061854L170,150C163.7037037037037,150,157.40740740740742,150,151.11111111111111,150Z" fill="rgb(231,186,82)"/></g></g></svg>
