<svg font-size="10px" font-family="sans-serif" fill="none" stroke="none" stroke-width="1.5" width="520" height="300"><g transform="translate(10, 50)"><path d="M0,50L8.474576271186441,40.016658335317175L8.474576271186441,200L0,200Z" fill="rgb(64,191,191)"/><path d="M8.474576271186441,40.016658335317175L16.949152542372882,30.13306692049386L16.949152542372882,200L8.474576271186441,200Z" fill="rgb(64,153,191)"/><path d="M16.949152542372882,30.13306692049386L25.423728813559325,20.447979333866044L25.423728813559325,200L16.949152542372882,200Z" fill="rgb(64,115,191)"/><path d="M25.423728813559325,20.447979333866044L33.898305084745765,11.058165769134945L33.898305084745765,200L25.423728813559325,200Z" fill="rgb(64,78,191)"/><path d="M33.898305084745765,11.058165769134945L42.3728813559322,2.057446139579696L42.3728813559322,200L33.898305084745765,200Z" fill="rgb(85,64,191)"/><path d="M42.3728813559322,2.057446139579696L50.84745762711865,-6.464247339503544L50.84745762711865,200L42.3728813559322,200Z" fill="rgb(120,64,191)"/><path d="M50.84745762711865,-6.464247339503544L59.32203389830509,-14.421768723769105L59.32203389830509,200L50.84745762711865,200Z" fill="rgb(152,64,191)"/><path d="M59.32203389830509,-14.421768723769105L67.79661016949153,-21.735609089952277L67.79661016949153,200L59.32203389830509,200Z" fill="rgb(183,64,191)"/><path d="M67.79661016949153,-21.735609089952277L76.27118644067797,-28.33269096274833L76.27118644067797,200L67.79661016949153,200Z" fill="rgb(191,64,172)"/><path d="M76.27118644067797,-28.33269096274833L84.7457627118644,-34.14709848078965L84.7457627118644,200L76.27118644067797,200Z" fill="rgb(191,64,147)"/><path d="M84.7457627118644,-34.14709848078965L93.22033898305085,-39.120736006143545L93.22033898305085,200L84.7457627118644,200Z" fill="rgb(191,64,124)"/><path d="M93.22033898305085,-39.120736006143545L101.6949152542373,-43.20390859672264L101.6949152542373,200L93.22033898305085,200Z" fill="rgb(191,64,105)"/><path d="M101.6949152542373,-43.20390859672264L110.16949152542372,-46.355818541719316L110.16949152542372,200L101.6949152542373,200Z" fill="rgb(191,64,90)"/><path d="M110.16949152542372,-46.355818541719316L118.64406779661017,-48.54497299884605L118.64406779661017,200L110.16949152542372,200Z" fill="rgb(191,64,78)"/><path d="M118.64406779661017,-48.54497299884605L127.11864406779661,-49.749498660405465L127.11864406779661,200L118.64406779661017,200Z" fill="rgb(191,64,69)"/><path d="M127.11864406779661,-49.749498660405465L135.59322033898306,-49.95736030415051L135.59322033898306,200L127.11864406779661,200Z" fill="rgb(191,64,65)"/><path d="M135.59322033898306,-49.95736030415051L144.0677966101695,-49.166481045246854L144.0677966101695,200L135.59322033898306,200Z" fill="rgb(191,64,64)"/><path d="M144.0677966101695,-49.166481045246854L152.54237288135593,-47.38476308781952L152.54237288135593,200L144.0677966101695,200Z" fill="rgb(191,64,67)"/><path d="M152.54237288135593,-47.38476308781952L161.01694915254237,-44.63000876874145L161.01694915254237,200L152.54237288135593,200Z" fill="rgb(191,64,74)"/><path d="M161.01694915254237,-44.63000876874145L169.4915254237288,-40.92974268256816L169.4915254237288,200L161.01694915254237,200Z" fill="rgb(191,64,84)"/><path d="M169.4915254237288,-40.92974268256816L177.96610169491524,-36.32093666488737L177.96610169491524,200L169.4915254237288,200Z" fill="rgb(191,64,98)"/><path d="M177.96610169491524,-36.32093666488737L186.4406779661017,-30.849640381959006L186.4406779661017,200L177.96610169491524,200Z" fill="rgb(191,64,116)"/><path d="M186.4406779661017,-30.849640381959006L194.91525423728814,-24.570521217671995L194.91525423728814,200L186.4406779661017,200Z" fill="rgb(191,64,137)"/><path d="M194.91525423728814,-24.570521217671995L203.3898305084746,-17.54631805511505L203.3898305084746,200L194.91525423728814,200Z" fill="rgb(191,64,161)"/><path d="M203.3898305084746,-17.54631805511505L211.864406779661,-9.847214410395651L211.864406779661,200L203.3898305084746,200Z" fill="rgb(191,64,188)"/><path d="M211.864406779661,-9.847214410395651L220.33898305084745,-1.5501371821464147L220.33898305084745,200L211.864406779661,200Z" fill="rgb(165,64,191)"/><path d="M220.33898305084745,-1.5501371821464147L228.8135593220339,7.262011976617032L228.8135593220339,200L220.33898305084745,200Z" fill="rgb(133,64,191)"/><path d="M228.8135593220339,7.262011976617032L237.28813559322035,16.50118498440952L237.28813559322035,200L228.8135593220339,200Z" fill="rgb(100,64,191)"/><path d="M237.28813559322035,16.50118498440952L245.76271186440678,26.07506707860182L245.76271186440678,200L237.28813559322035,200Z" fill="rgb(64,64,191)"/><path d="M245.76271186440678,26.07506707860182L254.23728813559322,35.887999194013275L254.23728813559322,200L245.76271186440678,200Z" fill="rgb(64,100,191)"/><path d="M254.23728813559322,35.887999194013275L262.7118644067797,45.841933756670954L262.7118644067797,200L254.23728813559322,200Z" fill="rgb(64,137,191)"/><path d="M262.7118644067797,45.841933756670954L271.1864406779661,55.837414342757995L271.1864406779661,200L262.7118644067797,200Z" fill="rgb(64,175,191)"/><path d="M271.1864406779661,55.837414342757995L279.6610169491525,65.77456941432487L279.6610169491525,200L271.1864406779661,200Z" fill="rgb(64,191,169)"/><path d="M279.6610169491525,65.77456941432487L288.135593220339,75.55411020268316L288.135593220339,200L279.6610169491525,200Z" fill="rgb(64,191,131)"/><path d="M288.135593220339,75.55411020268316L296.6101694915254,85.07832276896198L296.6101694915254,200L288.135593220339,200Z" fill="rgb(64,191,94)"/><path d="M296.6101694915254,85.07832276896198L305.08474576271186,94.25204432948524L305.08474576271186,200L296.6101694915254,200Z" fill="rgb(70,191,64)"/><path d="M305.08474576271186,94.25204432948524L313.5593220338983,102.98361409084934L313.5593220338983,200L305.08474576271186,200Z" fill="rgb(106,191,64)"/><path d="M313.5593220338983,102.98361409084934L322.03389830508473,111.18578909427193L322.03389830508473,200L313.5593220338983,200Z" fill="rgb(139,191,64)"/><path d="M322.03389830508473,111.18578909427193L330.50847457627117,118.77661591839741L330.50847457627117,200L322.03389830508473,200Z" fill="rgb(170,191,64)"/><path d="M330.50847457627117,118.77661591839741L338.9830508474576,125.68024953079282L338.9830508474576,200L330.50847457627117,200Z" fill="rgb(191,183,64)"/><path d="M338.9830508474576,125.68024953079282L347.4576271186441,131.8277111064411L347.4576271186441,200L338.9830508474576,200Z" fill="rgb(191,157,64)"/><path d="M347.4576271186441,131.8277111064411L355.9322033898305,137.1575772413588L355.9322033898305,200L347.4576271186441,200Z" fill="rgb(191,133,64)"/><path d="M355.9322033898305,137.1575772413588L364.4067796610169,141.61659367494548L364.4067796610169,200L355.9322033898305,200Z" fill="rgb(191,113,64)"/><path d="M364.4067796610169,141.61659367494548L372.8813559322034,145.16020738895162L372.8813559322034,200L364.4067796610169,200Z" fill="rgb(191,96,64)"/><path d="M372.8813559322034,145.16020738895162L381.35593220338984,147.7530117665097L381.35593220338984,200L372.8813559322034,200Z" fill="rgb(191,82,64)"/><path d="M381.35593220338984,147.7530117665097L389.8305084745763,149.36910036334646L389.8305084745763,200L381.35593220338984,200Z" fill="rgb(191,72,64)"/><path d="M389.8305084745763,149.36910036334646L398.3050847457627,149.99232575641008L398.3050847457627,200L389.8305084745763,200Z" fill="rgb(191,66,64)"/><path d="M398.3050847457627,149.99232575641008L406.7796610169492,149.61646088358407L406.7796610169492,200L398.3050847457627,200Z" fill="rgb(191,64,64)"/><path d="M406.7796610169492,149.61646088358407L415.2542372881356,148.24526126243325L415.2542372881356,200L406.7796610169492,200Z" fill="rgb(191,65,64)"/><path d="M415.2542372881356,148.24526126243325L423.728813559322,145.89242746631385L423.728813559322,200L415.2542372881356,200Z" fill="rgb(191,70,64)"/><path d="M423.728813559322,145.89242746631385L432.2033898305085,142.5814682327732L432.2033898305085,200L423.728813559322,200Z" fill="rgb(191,79,64)"/><path d="M432.2033898305085,142.5814682327732L440.6779661016949,138.3454655720153L440.6779661016949,200L432.2033898305085,200Z" fill="rgb(191,92,64)"/><path d="M440.6779661016949,138.3454655720153L449.1525423728814,133.2267442223901L449.1525423728814,200L440.6779661016949,200Z" fill="rgb(191,108,64)"/><path d="M449.1525423728814,133.2267442223901L457.6271186440678,127.27644875559872L457.6271186440678,200L449.1525423728814,200Z" fill="rgb(191,128,64)"/><path d="M457.6271186440678,127.27644875559872L466.1016949152542,120.55403255703919L466.1016949152542,200L457.6271186440678,200Z" fill="rgb(191,151,64)"/><path d="M466.1016949152542,120.55403255703919L474.5762711864407,113.12666378723208L474.5762711864407,200L466.1016949152542,200Z" fill="rgb(191,176,64)"/><path d="M474.5762711864407,113.12666378723208L483.0508474576271,105.06855425976376L483.0508474576271,200L474.5762711864407,200Z" fill="rgb(178,191,64)"/><path d="M483.0508474576271,105.06855425976376L491.52542372881356,96.46021794137566L491.52542372881356,200L483.0508474576271,200Z" fill="rgb(147,191,64)"/><path d="M491.52542372881356,96.46021794137566L500,87.38766648302361L500,200L491.52542372881356,200Z" fill="rgb(114,191,64)"/></g></svg>
