<svg font-size="10px" font-family="sans-serif" fill="none" stroke="none" stroke-width="1.5" width="410" height="430"><g transform="translate(10, 20)"><g><circle shape-rendering="crispEdges" fill="rgb(156,158,222)" stroke="rgb(0,0,0)" stroke-width="1" cx="0" cy="200" r="4.5"/><circle shape-rendering="crispEdges" fill="rgb(156,158,222)" stroke="rgb(0,0,0)" stroke-width="1" cx="200" cy="33.33333333333333" r="4.5"/><circle shape-rendering="crispEdges" fill="rgb(115,117,181)" stroke="rgb(0,0,0)" stroke-width="1" cx="400" cy="16.666666666666664" r="4.5"/><circle shape-rendering="crispEdges" fill="rgb(74,85,132)" stroke="rgb(0,0,0)" stroke-width="1" cx="400" cy="27.77777777777778" r="4.5"/><circle shape-rendering="crispEdges" fill="rgb(206,219,156)" stroke="rgb(0,0,0)" stroke-width="1" cx="400" cy="38.888888888888886" r="4.5"/><circle shape-rendering="crispEdges" fill="rgb(181,207,107)" stroke="rgb(0,0,0)" stroke-width="1" cx="400" cy="50" r="4.5"/><circle shape-rendering="crispEdges" fill="rgb(156,158,222)" stroke="rgb(0,0,0)" stroke-width="1" cx="200" cy="99.99999999999999" r="4.5"/><circle shape-rendering="crispEdges" fill="rgb(115,117,181)" stroke="rgb(0,0,0)" stroke-width="1" cx="400" cy="83.33333333333333" r="4.5"/><circle shape-rendering="crispEdges" fill="rgb(74,85,132)" stroke="rgb(0,0,0)" stroke-width="1" cx="400" cy="94.44444444444444" r="4.5"/><circle shape-rendering="crispEdges" fill="rgb(206,219,156)" stroke="rgb(0,0,0)" stroke-width="1" cx="400" cy="105.55555555555556" r="4.5"/><circle shape-rendering="crispEdges" fill="rgb(181,207,107)" stroke="rgb(0,0,0)" stroke-width="1" cx="400" cy="116.66666666666666" r="4.5"/><circle shape-rendering="crispEdges" fill="rgb(156,158,222)" stroke="rgb(0,0,0)" stroke-width="1" cx="200" cy="166.66666666666666" r="4.5"/><circle shape-rendering="crispEdges" fill="rgb(115,117,181)" stroke="rgb(0,0,0)" stroke-width="1" cx="400" cy="150" r="4.5"/><circle shape-rendering="crispEdges" fill="rgb(74,85,132)" stroke="rgb(0,0,0)" stroke-width="1" cx="400" cy="161.1111111111111" r="4.5"/><circle shape-rendering="crispEdges" fill="rgb(206,219,156)" stroke="rgb(0,0,0)" stroke-width="1" cx="400" cy="172.2222222222222" r="4.5"/><circle shape-rendering="crispEdges" fill="rgb(181,207,107)" stroke="rgb(0,0,0)" stroke-width="1" cx="400" cy="183.33333333333331" r="4.5"/><circle shape-rendering="crispEdges" fill="rgb(156,158,222)" stroke="rgb(0,0,0)" stroke-width="1" cx="200" cy="233.33333333333334" r="4.5"/><circle shape-rendering="crispEdges" fill="rgb(115,117,181)" stroke="rgb(0,0,0)" stroke-width="1" cx="400" cy="216.66666666666666" r="4.5"/><circle shape-rendering="crispEdges" fill="rgb(74,85,132)" stroke="rgb(0,0,0)" stroke-width="1" cx="400" cy="227.77777777777777" r="4.5"/><circle shape-rendering="crispEdges" fill="rgb(206,219,156)" stroke="rgb(0,0,0)" stroke-width="1" cx="400" cy="238.88888888888889" r="4.5"/><circle shape-rendering="crispEdges" fill="rgb(181,207,107)" stroke="rgb(0,0,0)" stroke-width="1" cx="400" cy="250" r="4.5"/><circle shape-rendering="crispEdges" fill="rgb(156,158,222)" stroke="rgb(0,0,0)" stroke-width="1" cx="200" cy="299.99999999999994" r="4.5"/><circle shape-rendering="crispEdges" fill="rgb(115,117,181)" stroke="rgb(0,0,0)" stroke-width="1" cx="400" cy="283.3333333333333" r="4.5"/><circle shape-rendering="crispEdges" fill="rgb(74,85,132)" stroke="rgb(0,0,0)" stroke-width="1" cx="400" cy="294.4444444444444" r="4.5"/><circle shape-rendering="crispEdges" fill="rgb(206,219,156)" stroke="rgb(0,0,0)" stroke-width="1" cx="400" cy="305.55555555555554" r="4.5"/><circle shape-rendering="crispEdges" fill="rgb(181,207,107)" stroke="rgb(0,0,0)" stroke-width="1" cx="400" cy="316.66666666666663" r="4.5"/><circle shape-rendering="crispEdges" fill="rgb(156,158,222)" stroke="rgb(0,0,0)" stroke-width="1" cx="200" cy="366.66666666666663" r="4.5"/><circle shape-rendering="crispEdges" fill="rgb(115,117,181)" stroke="rgb(0,0,0)" stroke-width="1" cx="400" cy="350" r="4.5"/><circle shape-rendering="crispEdges" fill="rgb(74,85,132)" stroke="rgb(0,0,0)" stroke-width="1" cx="400" cy="361.1111111111111" r="4.5"/><circle shape-rendering="crispEdges" fill="rgb(206,219,156)" stroke="rgb(0,0,0)" stroke-width="1" cx="400" cy="372.2222222222222" r="4.5"/><circle shape-rendering="crispEdges" fill="rgb(181,207,107)" stroke="rgb(0,0,0)" stroke-width="1" cx="400" cy="383.3333333333333" r="4.5"/></g><g><g><path d="M200,33.33333333333333H0V200" stroke="rgb(204,204,204)"/></g><g><path d="M400,16.666666666666664H200V33.33333333333333" stroke="rgb(204,204,204)"/></g><g><path d="M400,27.77777777777778H200V33.33333333333333" stroke="rgb(204,204,204)"/></g><g><path d="M400,38.888888888888886H200V33.33333333333333" stroke="rgb(204,204,204)"/></g><g><path d="M400,50H200V33.33333333333333" stroke="rgb(204,204,204)"/></g><g><path d="M200,99.99999999999999H0V200" stroke="rgb(204,204,204)"/></g><g><path d="M400,83.33333333333333H200V99.99999999999999" stroke="rgb(204,204,204)"/></g><g><path d="M400,94.44444444444444H200V99.99999999999999" stroke="rgb(204,204,204)"/></g><g><path d="M400,105.55555555555556H200V99.99999999999999" stroke="rgb(204,204,204)"/></g><g><path d="M400,116.66666666666666H200V99.99999999999999" stroke="rgb(204,204,204)"/></g><g><path d="M200,166.66666666666666H0V200" stroke="rgb(204,204,204)"/></g><g><path d="M400,150H200V166.66666666666666" stroke="rgb(204,204,204)"/></g><g><path d="M400,161.1111111111111H200V166.66666666666666" stroke="rgb(204,204,204)"/></g><g><path d="M400,172.2222222222222H200V166.66666666666666" stroke="rgb(204,204,204)"/></g><g><path d="M400,183.33333333333331H200V166.66666666666666" stroke="rgb(204,204,204)"/></g><g><path d="M200,233.33333333333334H0V200" stroke="rgb(204,204,204)"/></g><g><path d="M400,216.66666666666666H200V233.33333333333334" stroke="rgb(204,204,204)"/></g><g><path d="M400,227.77777777777777H200V233.33333333333334" stroke="rgb(204,204,204)"/></g><g><path d="M400,238.88888888888889H200V233.33333333333334" stroke="rgb(204,204,204)"/></g><g><path d="M400,250H200V233.33333333333334" stroke="rgb(204,204,204)"/></g><g><path d="M200,299.99999999999994H0V200" stroke="rgb(204,204,204)"/></g><g><path d="M400,283.3333333333333H200V299.99999999999994" stroke="rgb(204,204,204)"/></g><g><path d="M400,294.4444444444444H200V299.99999999999994" stroke="rgb(204,204,204)"/></g><g><path d="M400,305.55555555555554H200V299.99999999999994" stroke="rgb(204,204,204)"/></g><g><path d="M400,316.66666666666663H200V299.99999999999994" stroke="rgb(204,204,204)"/></g><g><path d="M200,366.66666666666663H0V200" stroke="rgb(204,204,204)"/></g><g><path d="M400,350H200V366.66666666666663" stroke="rgb(204,204,204)"/></g><g><path d="M400,361.1111111111111H200V366.66666666666663" stroke="rgb(204,204,204)"/></g><g><path d="M400,372.2222222222222H200V366.66666666666663" stroke="rgb(204,204,204)"/></g><g><path d="M400,383.3333333333333H200V366.66666666666663" stroke="rgb(204,204,204)"/></g></g><g><text pointer-events="none" x="-7" dy="0.35em" transform="translate(0, 200) rotate(360)" fill="rgb(0,0,0)" text-anchor="end">test</text><text pointer-events="none" x="-7" dy="0.35em" transform="translate(200, 33.3333) rotate(360)" fill="rgb(0,0,0)" text-anchor="end">a</text><text pointer-events="none" x="7" dy="0.35em" transform="translate(400, 16.6667)" fill="rgb(0,0,0)">a</text><text pointer-events="none" x="7" dy="0.35em" transform="translate(400, 27.7778)" fill="rgb(0,0,0)">b</text><text pointer-events="none" x="7" dy="0.35em" transform="translate(400, 38.8889)" fill="rgb(0,0,0)">c</text><text pointer-events="none" x="7" dy="0.35em" transform="translate(400, 50)" fill="rgb(0,0,0)">d</text><text pointer-events="none" x="-7" dy="0.35em" transform="translate(200, 100) rotate(360)" fill="rgb(0,0,0)" text-anchor="end">b</text><text pointer-events="none" x="7" dy="0.35em" transform="translate(400, 83.3333)" fill="rgb(0,0,0)">a</text><text pointer-events="none" x="7" dy="0.35em" transform="translate(400, 94.4444)" fill="rgb(0,0,0)">b</text><text pointer-events="none" x="7" dy="0.35em" transform="translate(400, 105.556)" fill="rgb(0,0,0)">c</text><text pointer-events="none" x="7" dy="0.35em" transform="translate(400, 116.667)" fill="rgb(0,0,0)">d</text><text pointer-events="none" x="-7" dy="0.35em" transform="translate(200, 166.667) rotate(360)" fill="rgb(0,0,0)" text-anchor="end">c</text><text pointer-events="none" x="7" dy="0.35em" transform="translate(400, 150)" fill="rgb(0,0,0)">a</text><text pointer-events="none" x="7" dy="0.35em" transform="translate(400, 161.111)" fill="rgb(0,0,0)">b</text><text pointer-events="none" x="7" dy="0.35em" transform="translate(400, 172.222)" fill="rgb(0,0,0)">c</text><text pointer-events="none" x="7" dy="0.35em" transform="translate(400, 183.333)" fill="rgb(0,0,0)">d</text><text pointer-events="none" x="-7" dy="0.35em" transform="translate(200, 233.333) rotate(360)" fill="rgb(0,0,0)" text-anchor="end">d</text><text pointer-events="none" x="7" dy="0.35em" transform="translate(400, 216.667)" fill="rgb(0,0,0)">a</text><text pointer-events="none" x="7" dy="0.35em" transform="translate(400, 227.778)" fill="rgb(0,0,0)">b</text><text pointer-events="none" x="7" dy="0.35em" transform="translate(400, 238.889)" fill="rgb(0,0,0)">c</text><text pointer-events="none" x="7" dy="0.35em" transform="translate(400, 250)" fill="rgb(0,0,0)">d</text><text pointer-events="none" x="-7" dy="0.35em" transform="translate(200, 300) rotate(360)" fill="rgb(0,0,0)" text-anchor="end">e</text><text pointer-events="none" x="7" dy="0.35em" transform="translate(400, 283.333)" fill="rgb(0,0,0)">a</text><text pointer-events="none" x="7" dy="0.35em" transform="translate(400, 294.444)" fill="rgb(0,0,0)">b</text><text pointer-events="none" x="7" dy="0.35em" transform="translate(400, 305.556)" fill="rgb(0,0,0)">c</text><text pointer-events="none" x="7" dy="0.35em" transform="translate(400, 316.667)" fill="rgb(0,0,0)">d</text><text pointer-events="none" x="-7" dy="0.35em" transform="translate(200, 366.667) rotate(360)" fill="rgb(0,0,0)" text-anchor="end">f</text><text pointer-events="none" x="7" dy="0.35em" transform="translate(400, 350)" fill="rgb(0,0,0)">a</text><text pointer-events="none" x="7" dy="0.35em" transform="translate(400, 361.111)" fill="rgb(0,0,0)">b</text><text pointer-events="none" x="7" dy="0.35em" transform="translate(400, 372.222)" fill="rgb(0,0,0)">c</text><text pointer-events="none" x="7" dy="0.35em" transform="translate(400, 383.333)" fill="rgb(0,0,0)">d</text></g></g></svg>
