<svg font-size="10px" font-family="sans-serif" fill="none" stroke="none" stroke-width="1.5" width="410" height="430"><g transform="translate(10, 20)"><g><circle shape-rendering="crispEdges" fill="rgb(156,158,222)" stroke="rgb(0,0,0)" stroke-width="1" cx="199.99999999999997" cy="0" r="4.5"/><circle shape-rendering="crispEdges" fill="rgb(156,158,222)" stroke="rgb(0,0,0)" stroke-width="1" cx="33.33333333333333" cy="200" r="4.5"/><circle shape-rendering="crispEdges" fill="rgb(115,117,181)" stroke="rgb(0,0,0)" stroke-width="1" cx="8.333333333333332" cy="400" r="4.5"/><circle shape-rendering="crispEdges" fill="rgb(74,85,132)" stroke="rgb(0,0,0)" stroke-width="1" cx="25" cy="400" r="4.5"/><circle shape-rendering="crispEdges" fill="rgb(206,219,156)" stroke="rgb(0,0,0)" stroke-width="1" cx="41.666666666666664" cy="400" r="4.5"/><circle shape-rendering="crispEdges" fill="rgb(181,207,107)" stroke="rgb(0,0,0)" stroke-width="1" cx="58.33333333333333" cy="400" r="4.5"/><circle shape-rendering="crispEdges" fill="rgb(156,158,222)" stroke="rgb(0,0,0)" stroke-width="1" cx="100" cy="200" r="4.5"/><circle shape-rendering="crispEdges" fill="rgb(115,117,181)" stroke="rgb(0,0,0)" stroke-width="1" cx="75" cy="400" r="4.5"/><circle shape-rendering="crispEdges" fill="rgb(74,85,132)" stroke="rgb(0,0,0)" stroke-width="1" cx="91.66666666666666" cy="400" r="4.5"/><circle shape-rendering="crispEdges" fill="rgb(206,219,156)" stroke="rgb(0,0,0)" stroke-width="1" cx="108.33333333333333" cy="400" r="4.5"/><circle shape-rendering="crispEdges" fill="rgb(181,207,107)" stroke="rgb(0,0,0)" stroke-width="1" cx="125" cy="400" r="4.5"/><circle shape-rendering="crispEdges" fill="rgb(156,158,222)" stroke="rgb(0,0,0)" stroke-width="1" cx="166.66666666666666" cy="200" r="4.5"/><circle shape-rendering="crispEdges" fill="rgb(115,117,181)" stroke="rgb(0,0,0)" stroke-width="1" cx="141.66666666666666" cy="400" r="4.5"/><circle shape-rendering="crispEdges" fill="rgb(74,85,132)" stroke="rgb(0,0,0)" stroke-width="1" cx="158.33333333333331" cy="400" r="4.5"/><circle shape-rendering="crispEdges" fill="rgb(206,219,156)" stroke="rgb(0,0,0)" stroke-width="1" cx="175" cy="400" r="4.5"/><circle shape-rendering="crispEdges" fill="rgb(181,207,107)" stroke="rgb(0,0,0)" stroke-width="1" cx="191.66666666666666" cy="400" r="4.5"/><circle shape-rendering="crispEdges" fill="rgb(156,158,222)" stroke="rgb(0,0,0)" stroke-width="1" cx="233.33333333333331" cy="200" r="4.5"/><circle shape-rendering="crispEdges" fill="rgb(115,117,181)" stroke="rgb(0,0,0)" stroke-width="1" cx="208.33333333333331" cy="400" r="4.5"/><circle shape-rendering="crispEdges" fill="rgb(74,85,132)" stroke="rgb(0,0,0)" stroke-width="1" cx="225" cy="400" r="4.5"/><circle shape-rendering="crispEdges" fill="rgb(206,219,156)" stroke="rgb(0,0,0)" stroke-width="1" cx="241.66666666666666" cy="400" r="4.5"/><circle shape-rendering="crispEdges" fill="rgb(181,207,107)" stroke="rgb(0,0,0)" stroke-width="1" cx="258.3333333333333" cy="400" r="4.5"/><circle shape-rendering="crispEdges" fill="rgb(156,158,222)" stroke="rgb(0,0,0)" stroke-width="1" cx="300" cy="200" r="4.5"/><circle shape-rendering="crispEdges" fill="rgb(115,117,181)" stroke="rgb(0,0,0)" stroke-width="1" cx="275" cy="400" r="4.5"/><circle shape-rendering="crispEdges" fill="rgb(74,85,132)" stroke="rgb(0,0,0)" stroke-width="1" cx="291.66666666666663" cy="400" r="4.5"/><circle shape-rendering="crispEdges" fill="rgb(206,219,156)" stroke="rgb(0,0,0)" stroke-width="1" cx="308.3333333333333" cy="400" r="4.5"/><circle shape-rendering="crispEdges" fill="rgb(181,207,107)" stroke="rgb(0,0,0)" stroke-width="1" cx="325" cy="400" r="4.5"/><circle shape-rendering="crispEdges" fill="rgb(156,158,222)" stroke="rgb(0,0,0)" stroke-width="1" cx="366.66666666666663" cy="200" r="4.5"/><circle shape-rendering="crispEdges" fill="rgb(115,117,181)" stroke="rgb(0,0,0)" stroke-width="1" cx="341.66666666666663" cy="400" r="4.5"/><circle shape-rendering="crispEdges" fill="rgb(74,85,132)" stroke="rgb(0,0,0)" stroke-width="1" cx="358.3333333333333" cy="400" r="4.5"/><circle shape-rendering="crispEdges" fill="rgb(206,219,156)" stroke="rgb(0,0,0)" stroke-width="1" cx="375" cy="400" r="4.5"/><circle shape-rendering="crispEdges" fill="rgb(181,207,107)" stroke="rgb(0,0,0)" stroke-width="1" cx="391.66666666666663" cy="400" r="4.5"/></g><g><g><path d="M33.33333333333333,200V0H199.99999999999997" stroke="rgb(204,204,204)"/></g><g><path d="M8.333333333333332,400V200H33.33333333333333" stroke="rgb(204,204,204)"/></g><g><path d="M25,400V200H33.33333333333333" stroke="rgb(204,204,204)"/></g><g><path d="M41.666666666666664,400V200H33.33333333333333" stroke="rgb(204,204,204)"/></g><g><path d="M58.33333333333333,400V200H33.33333333333333" stroke="rgb(204,204,204)"/></g><g><path d="M100,200V0H199.99999999999997" stroke="rgb(204,204,204)"/></g><g><path d="M75,400V200H100" stroke="rgb(204,204,204)"/></g><g><path d="M91.66666666666666,400V200H100" stroke="rgb(204,204,204)"/></g><g><path d="M108.33333333333333,400V200H100" stroke="rgb(204,204,204)"/></g><g><path d="M125,400V200H100" stroke="rgb(204,204,204)"/></g><g><path d="M166.66666666666666,200V0H199.99999999999997" stroke="rgb(204,204,204)"/></g><g><path d="M141.66666666666666,400V200H166.66666666666666" stroke="rgb(204,204,204)"/></g><g><path d="M158.33333333333331,400V200H166.66666666666666" stroke="rgb(204,204,204)"/></g><g><path d="M175,400V200H166.66666666666666" stroke="rgb(204,204,204)"/></g><g><path d="M191.66666666666666,400V200H166.66666666666666" stroke="rgb(204,204,204)"/></g><g><path d="M233.33333333333331,200V0H199.99999999999997" stroke="rgb(204,204,204)"/></g><g><path d="M208.33333333333331,400V200H233.33333333333331" stroke="rgb(204,204,204)"/></g><g><path d="M225,400V200H233.33333333333331" stroke="rgb(204,204,204)"/></g><g><path d="M241.66666666666666,400V200H233.33333333333331" stroke="rgb(204,204,204)"/></g><g><path d="M258.3333333333333,400V200H233.33333333333331" stroke="rgb(204,204,204)"/></g><g><path d="M300,200V0H199.99999999999997" stroke="rgb(204,204,204)"/></g><g><path d="M275,400V200H300" stroke="rgb(204,204,204)"/></g><g><path d="M291.66666666666663,400V200H300" stroke="rgb(204,204,204)"/></g><g><path d="M308.3333333333333,400V200H300" stroke="rgb(204,204,204)"/></g><g><path d="M325,400V200H300" stroke="rgb(204,204,204)"/></g><g><path d="M366.66666666666663,200V0H199.99999999999997" stroke="rgb(204,204,204)"/></g><g><path d="M341.66666666666663,400V200H366.66666666666663" stroke="rgb(204,204,204)"/></g><g><path d="M358.3333333333333,400V200H366.66666666666663" stroke="rgb(204,204,204)"/></g><g><path d="M375,400V200H366.66666666666663" stroke="rgb(204,204,204)"/></g><g><path d="M391.66666666666663,400V200H366.66666666666663" stroke="rgb(204,204,204)"/></g></g><g><text pointer-events="none" x="7" dy="0.35em" transform="translate(200) rotate(270)" fill="rgb(0,0,0)">test</text><text pointer-events="none" x="7" dy="0.35em" transform="translate(33.3333, 200) rotate(270)" fill="rgb(0,0,0)">a</text><text pointer-events="none" x="-7" dy="0.35em" transform="translate(8.33333, 400) rotate(270)" fill="rgb(0,0,0)" text-anchor="end">a</text><text pointer-events="none" x="-7" dy="0.35em" transform="translate(25, 400) rotate(270)" fill="rgb(0,0,0)" text-anchor="end">b</text><text pointer-events="none" x="-7" dy="0.35em" transform="translate(41.6667, 400) rotate(270)" fill="rgb(0,0,0)" text-anchor="end">c</text><text pointer-events="none" x="-7" dy="0.35em" transform="translate(58.3333, 400) rotate(270)" fill="rgb(0,0,0)" text-anchor="end">d</text><text pointer-events="none" x="7" dy="0.35em" transform="translate(100, 200) rotate(270)" fill="rgb(0,0,0)">b</text><text pointer-events="none" x="-7" dy="0.35em" transform="translate(75, 400) rotate(270)" fill="rgb(0,0,0)" text-anchor="end">a</text><text pointer-events="none" x="-7" dy="0.35em" transform="translate(91.6667, 400) rotate(270)" fill="rgb(0,0,0)" text-anchor="end">b</text><text pointer-events="none" x="-7" dy="0.35em" transform="translate(108.333, 400) rotate(270)" fill="rgb(0,0,0)" text-anchor="end">c</text><text pointer-events="none" x="-7" dy="0.35em" transform="translate(125, 400) rotate(270)" fill="rgb(0,0,0)" text-anchor="end">d</text><text pointer-events="none" x="7" dy="0.35em" transform="translate(166.667, 200) rotate(270)" fill="rgb(0,0,0)">c</text><text pointer-events="none" x="-7" dy="0.35em" transform="translate(141.667, 400) rotate(270)" fill="rgb(0,0,0)" text-anchor="end">a</text><text pointer-events="none" x="-7" dy="0.35em" transform="translate(158.333, 400) rotate(270)" fill="rgb(0,0,0)" text-anchor="end">b</text><text pointer-events="none" x="-7" dy="0.35em" transform="translate(175, 400) rotate(270)" fill="rgb(0,0,0)" text-anchor="end">c</text><text pointer-events="none" x="-7" dy="0.35em" transform="translate(191.667, 400) rotate(270)" fill="rgb(0,0,0)" text-anchor="end">d</text><text pointer-events="none" x="7" dy="0.35em" transform="translate(233.333, 200) rotate(270)" fill="rgb(0,0,0)">d</text><text pointer-events="none" x="-7" dy="0.35em" transform="translate(208.333, 400) rotate(270)" fill="rgb(0,0,0)" text-anchor="end">a</text><text pointer-events="none" x="-7" dy="0.35em" transform="translate(225, 400) rotate(270)" fill="rgb(0,0,0)" text-anchor="end">b</text><text pointer-events="none" x="-7" dy="0.35em" transform="translate(241.667, 400) rotate(270)" fill="rgb(0,0,0)" text-anchor="end">c</text><text pointer-events="none" x="-7" dy="0.35em" transform="translate(258.333, 400) rotate(270)" fill="rgb(0,0,0)" text-anchor="end">d</text><text pointer-events="none" x="7" dy="0.35em" transform="translate(300, 200) rotate(270)" fill="rgb(0,0,0)">e</text><text pointer-events="none" x="-7" dy="0.35em" transform="translate(275, 400) rotate(270)" fill="rgb(0,0,0)" text-anchor="end">a</text><text pointer-events="none" x="-7" dy="0.35em" transform="translate(291.667, 400) rotate(270)" fill="rgb(0,0,0)" text-anchor="end">b</text><text pointer-events="none" x="-7" dy="0.35em" transform="translate(308.333, 400) rotate(270)" fill="rgb(0,0,0)" text-anchor="end">c</text><text pointer-events="none" x="-7" dy="0.35em" transform="translate(325, 400) rotate(270)" fill="rgb(0,0,0)" text-anchor="end">d</text><text pointer-events="none" x="7" dy="0.35em" transform="translate(366.667, 200) rotate(270)" fill="rgb(0,0,0)">f</text><text pointer-events="none" x="-7" dy="0.35em" transform="translate(341.667, 400) rotate(270)" fill="rgb(0,0,0)" text-anchor="end">a</text><text pointer-events="none" x="-7" dy="0.35em" transform="translate(358.333, 400) rotate(270)" fill="rgb(0,0,0)" text-anchor="end">b</text><text pointer-events="none" x="-7" dy="0.35em" transform="translate(375, 400) rotate(270)" fill="rgb(0,0,0)" text-anchor="end">c</text><text pointer-events="none" x="-7" dy="0.35em" transform="translate(391.667, 400) rotate(270)" fill="rgb(0,0,0)" text-anchor="end">d</text></g></g></svg>
