<svg font-size="10px" font-family="sans-serif" fill="none" stroke="none" stroke-width="1.5" width="210" height="230"><g transform="translate(10, 20)"><g><circle shape-rendering="crispEdges" fill="rgb(156,158,222)" stroke="rgb(0,0,0)" stroke-width="1" cx="0" cy="100" r="4.5"/><circle shape-rendering="crispEdges" fill="rgb(115,117,181)" stroke="rgb(0,0,0)" stroke-width="1" cx="60" cy="60" r="4.5"/><circle shape-rendering="crispEdges" fill="rgb(156,158,222)" stroke="rgb(0,0,0)" stroke-width="1" cx="60" cy="100" r="4.5"/><circle shape-rendering="crispEdges" fill="rgb(74,85,132)" stroke="rgb(0,0,0)" stroke-width="1" cx="120" cy="60" r="4.5"/><circle shape-rendering="crispEdges" fill="rgb(156,158,222)" stroke="rgb(0,0,0)" stroke-width="1" cx="120" cy="100" r="4.5"/><circle shape-rendering="crispEdges" fill="rgb(206,219,156)" stroke="rgb(0,0,0)" stroke-width="1" cx="180" cy="100" r="4.5"/><circle shape-rendering="crispEdges" fill="rgb(181,207,107)" stroke="rgb(0,0,0)" stroke-width="1" cx="120" cy="140" r="4.5"/><circle shape-rendering="crispEdges" fill="rgb(140,162,82)" stroke="rgb(0,0,0)" stroke-width="1" cx="60" cy="140" r="4.5"/></g><g><g><path d="M60,60L0,100" stroke="rgb(204,204,204)"/></g><g><path d="M60,100L0,100" stroke="rgb(204,204,204)"/></g><g><path d="M120,60L60,100" stroke="rgb(204,204,204)"/></g><g><path d="M120,100L60,100" stroke="rgb(204,204,204)"/></g><g><path d="M180,100L120,100" stroke="rgb(204,204,204)"/></g><g><path d="M120,140L60,100" stroke="rgb(204,204,204)"/></g><g><path d="M60,140L0,100" stroke="rgb(204,204,204)"/></g></g><g><text pointer-events="none" x="-7" dy="0.35em" transform="translate(0, 100) rotate(360)" fill="rgb(0,0,0)" text-anchor="end">test</text><text pointer-events="none" x="7" dy="0.35em" transform="translate(60, 60)" fill="rgb(0,0,0)">a</text><text pointer-events="none" x="-7" dy="0.35em" transform="translate(60, 100) rotate(360)" fill="rgb(0,0,0)" text-anchor="end">b</text><text pointer-events="none" x="7" dy="0.35em" transform="translate(120, 60)" fill="rgb(0,0,0)">ba</text><text pointer-events="none" x="-7" dy="0.35em" transform="translate(120, 100) rotate(360)" fill="rgb(0,0,0)" text-anchor="end">bb</text><text pointer-events="none" x="7" dy="0.35em" transform="translate(180, 100)" fill="rgb(0,0,0)">bba</text><text pointer-events="none" x="7" dy="0.35em" transform="translate(120, 140)" fill="rgb(0,0,0)">bc</text><text pointer-events="none" x="7" dy="0.35em" transform="translate(60, 140)" fill="rgb(0,0,0)">c</text></g></g></svg>
