<svg font-size="10px" font-family="sans-serif" fill="none" stroke="none" stroke-width="1.5" width="210" height="230"><g transform="translate(10, 20)"><g><circle shape-rendering="crispEdges" fill="rgb(156,158,222)" stroke="rgb(0,0,0)" stroke-width="1" cx="100" cy="0" r="4.5"/><circle shape-rendering="crispEdges" fill="rgb(115,117,181)" stroke="rgb(0,0,0)" stroke-width="1" cx="60" cy="60" r="4.5"/><circle shape-rendering="crispEdges" fill="rgb(156,158,222)" stroke="rgb(0,0,0)" stroke-width="1" cx="100" cy="60" r="4.5"/><circle shape-rendering="crispEdges" fill="rgb(74,85,132)" stroke="rgb(0,0,0)" stroke-width="1" cx="60" cy="120" r="4.5"/><circle shape-rendering="crispEdges" fill="rgb(156,158,222)" stroke="rgb(0,0,0)" stroke-width="1" cx="100" cy="120" r="4.5"/><circle shape-rendering="crispEdges" fill="rgb(206,219,156)" stroke="rgb(0,0,0)" stroke-width="1" cx="100" cy="180" r="4.5"/><circle shape-rendering="crispEdges" fill="rgb(181,207,107)" stroke="rgb(0,0,0)" stroke-width="1" cx="140" cy="120" r="4.5"/><circle shape-rendering="crispEdges" fill="rgb(140,162,82)" stroke="rgb(0,0,0)" stroke-width="1" cx="140" cy="60" r="4.5"/></g><g><g><path d="M60,60L100,0" stroke="rgb(204,204,204)"/></g><g><path d="M100,60L100,0" stroke="rgb(204,204,204)"/></g><g><path d="M60,120L100,60" stroke="rgb(204,204,204)"/></g><g><path d="M100,120L100,60" stroke="rgb(204,204,204)"/></g><g><path d="M100,180L100,120" stroke="rgb(204,204,204)"/></g><g><path d="M140,120L100,60" stroke="rgb(204,204,204)"/></g><g><path d="M140,60L100,0" stroke="rgb(204,204,204)"/></g></g><g><text pointer-events="none" x="-7" dy="0.35em" transform="translate(100) rotate(360)" fill="rgb(0,0,0)" text-anchor="end">test</text><text pointer-events="none" x="7" dy="0.35em" transform="translate(60, 60)" fill="rgb(0,0,0)">a</text><text pointer-events="none" x="-7" dy="0.35em" transform="translate(100, 60) rotate(360)" fill="rgb(0,0,0)" text-anchor="end">b</text><text pointer-events="none" x="7" dy="0.35em" transform="translate(60, 120)" fill="rgb(0,0,0)">ba</text><text pointer-events="none" x="-7" dy="0.35em" transform="translate(100, 120) rotate(360)" fill="rgb(0,0,0)" text-anchor="end">bb</text><text pointer-events="none" x="7" dy="0.35em" transform="translate(100, 180)" fill="rgb(0,0,0)">bba</text><text pointer-events="none" x="7" dy="0.35em" transform="translate(140, 120)" fill="rgb(0,0,0)">bc</text><text pointer-events="none" x="7" dy="0.35em" transform="translate(140, 60)" fill="rgb(0,0,0)">c</text></g></g></svg>
