<svg font-size="10px" font-family="sans-serif" fill="none" stroke="none" stroke-width="1.5" width="300" height="150"><g><g><g><path shape-rendering="crispEdges" d="M25,100A25,25 0 0,1 75,100" stroke="rgb(0,0,0)" stroke-opacity="0.2" stroke-width="1"/></g><g><path shape-rendering="crispEdges" d="M75,100A25,25 0 0,1 125,100" stroke="rgb(0,0,0)" stroke-opacity="0.2" stroke-width="1"/></g><g><path shape-rendering="crispEdges" d="M125,100A25,25 0 0,1 175,100" stroke="rgb(0,0,0)" stroke-opacity="0.2" stroke-width="1"/></g><g><path shape-rendering="crispEdges" d="M175,100A25,25 0 0,1 225,100" stroke="rgb(0,0,0)" stroke-opacity="0.2" stroke-width="1"/></g><g><path shape-rendering="crispEdges" d="M225,100A25,25 0 0,1 275,100" stroke="rgb(0,0,0)" stroke-opacity="0.2" stroke-width="1"/></g><g><path shape-rendering="crispEdges" d="M25,100A25,25 0 0,1 75,100" stroke="rgb(0,0,0)" stroke-opacity="0.2" stroke-width="1"/></g><g><path shape-rendering="crispEdges" d="M75,100A25,25 0 0,1 125,100" stroke="rgb(0,0,0)" stroke-opacity="0.2" stroke-width="1"/></g><g><path shape-rendering="crispEdges" d="M125,100A25,25 0 0,1 175,100" stroke="rgb(0,0,0)" stroke-opacity="0.2" stroke-width="1"/></g><g><path shape-rendering="crispEdges" d="M175,100A25,25 0 0,1 225,100" stroke="rgb(0,0,0)" stroke-opacity="0.2" stroke-width="1"/></g><g><path shape-rendering="crispEdges" d="M225,100A25,25 0 0,1 275,100" stroke="rgb(0,0,0)" stroke-opacity="0.2" stroke-width="1"/></g></g><g><circle fill="rgb(156,158,222)" stroke="rgb(31,119,180)" cx="25" cy="100" r="3.1622776601683795"/><circle fill="rgb(156,158,222)" stroke="rgb(31,119,180)" cx="75" cy="100" r="3.1622776601683795"/><circle fill="rgb(115,117,181)" stroke="rgb(31,119,180)" cx="125" cy="100" r="3.1622776601683795"/><circle fill="rgb(115,117,181)" stroke="rgb(31,119,180)" cx="175" cy="100" r="3.1622776601683795"/><circle fill="rgb(74,85,132)" stroke="rgb(31,119,180)" cx="225" cy="100" r="3.1622776601683795"/><circle fill="rgb(74,85,132)" stroke="rgb(31,119,180)" cx="275" cy="100" r="3.1622776601683795"/></g><g><text pointer-events="none" x="-7" dy="0.35em" transform="translate(25, 100) rotate(270)" fill="rgb(156,158,222)" text-anchor="end">A</text><text pointer-events="none" x="-7" dy="0.35em" transform="translate(75, 100) rotate(270)" fill="rgb(156,158,222)" text-anchor="end">B</text><text pointer-events="none" x="-7" dy="0.35em" transform="translate(125, 100) rotate(270)" fill="rgb(115,117,181)" text-anchor="end">C</text><text pointer-events="none" x="-7" dy="0.35em" transform="translate(175, 100) rotate(270)" fill="rgb(115,117,181)" text-anchor="end">D</text><text pointer-events="none" x="-7" dy="0.35em" transform="translate(225, 100) rotate(270)" fill="rgb(74,85,132)" text-anchor="end">E</text><text pointer-events="none" x="-7" dy="0.35em" transform="translate(275, 100) rotate(270)" fill="rgb(74,85,132)" text-anchor="end">F</text></g></g></svg>
