<svg font-size="10px" font-family="sans-serif" fill="none" stroke="none" stroke-width="1.5" width="210" height="230"><g transform="translate(10, 20)"><g><circle shape-rendering="crispEdges" fill="rgb(156,158,222)" stroke="rgb(0,0,0)" stroke-width="1" cx="15" cy="10" r="4.5"/><circle shape-rendering="crispEdges" fill="rgb(156,158,222)" stroke="rgb(0,0,0)" stroke-width="1" cx="30" cy="20" r="4.5"/><circle shape-rendering="crispEdges" fill="rgb(115,117,181)" stroke="rgb(0,0,0)" stroke-width="1" cx="45" cy="30" r="4.5"/><circle shape-rendering="crispEdges" fill="rgb(74,85,132)" stroke="rgb(0,0,0)" stroke-width="1" cx="45" cy="40" r="4.5"/><circle shape-rendering="crispEdges" fill="rgb(206,219,156)" stroke="rgb(0,0,0)" stroke-width="1" cx="45" cy="50" r="4.5"/><circle shape-rendering="crispEdges" fill="rgb(181,207,107)" stroke="rgb(0,0,0)" stroke-width="1" cx="45" cy="60" r="4.5"/><circle shape-rendering="crispEdges" fill="rgb(156,158,222)" stroke="rgb(0,0,0)" stroke-width="1" cx="30" cy="70" r="4.5"/><circle shape-rendering="crispEdges" fill="rgb(115,117,181)" stroke="rgb(0,0,0)" stroke-width="1" cx="45" cy="80" r="4.5"/><circle shape-rendering="crispEdges" fill="rgb(74,85,132)" stroke="rgb(0,0,0)" stroke-width="1" cx="45" cy="90" r="4.5"/><circle shape-rendering="crispEdges" fill="rgb(206,219,156)" stroke="rgb(0,0,0)" stroke-width="1" cx="45" cy="100" r="4.5"/><circle shape-rendering="crispEdges" fill="rgb(181,207,107)" stroke="rgb(0,0,0)" stroke-width="1" cx="45" cy="110" r="4.5"/><circle shape-rendering="crispEdges" fill="rgb(156,158,222)" stroke="rgb(0,0,0)" stroke-width="1" cx="30" cy="120" r="4.5"/><circle shape-rendering="crispEdges" fill="rgb(115,117,181)" stroke="rgb(0,0,0)" stroke-width="1" cx="45" cy="130" r="4.5"/><circle shape-rendering="crispEdges" fill="rgb(74,85,132)" stroke="rgb(0,0,0)" stroke-width="1" cx="45" cy="140" r="4.5"/><circle shape-rendering="crispEdges" fill="rgb(206,219,156)" stroke="rgb(0,0,0)" stroke-width="1" cx="45" cy="150" r="4.5"/><circle shape-rendering="crispEdges" fill="rgb(181,207,107)" stroke="rgb(0,0,0)" stroke-width="1" cx="45" cy="160" r="4.5"/><circle shape-rendering="crispEdges" fill="rgb(156,158,222)" stroke="rgb(0,0,0)" stroke-width="1" cx="30" cy="170" r="4.5"/><circle shape-rendering="crispEdges" fill="rgb(115,117,181)" stroke="rgb(0,0,0)" stroke-width="1" cx="45" cy="180" r="4.5"/><circle shape-rendering="crispEdges" fill="rgb(74,85,132)" stroke="rgb(0,0,0)" stroke-width="1" cx="45" cy="190" r="4.5"/><circle shape-rendering="crispEdges" fill="rgb(206,219,156)" stroke="rgb(0,0,0)" stroke-width="1" cx="45" cy="200" r="4.5"/><circle shape-rendering="crispEdges" fill="rgb(181,207,107)" stroke="rgb(0,0,0)" stroke-width="1" cx="45" cy="210" r="4.5"/><circle shape-rendering="crispEdges" fill="rgb(156,158,222)" stroke="rgb(0,0,0)" stroke-width="1" cx="30" cy="220" r="4.5"/><circle shape-rendering="crispEdges" fill="rgb(115,117,181)" stroke="rgb(0,0,0)" stroke-width="1" cx="45" cy="230" r="4.5"/><circle shape-rendering="crispEdges" fill="rgb(74,85,132)" stroke="rgb(0,0,0)" stroke-width="1" cx="45" cy="240" r="4.5"/><circle shape-rendering="crispEdges" fill="rgb(206,219,156)" stroke="rgb(0,0,0)" stroke-width="1" cx="45" cy="250" r="4.5"/><circle shape-rendering="crispEdges" fill="rgb(181,207,107)" stroke="rgb(0,0,0)" stroke-width="1" cx="45" cy="260" r="4.5"/><circle shape-rendering="crispEdges" fill="rgb(156,158,222)" stroke="rgb(0,0,0)" stroke-width="1" cx="30" cy="270" r="4.5"/><circle shape-rendering="crispEdges" fill="rgb(115,117,181)" stroke="rgb(0,0,0)" stroke-width="1" cx="45" cy="280" r="4.5"/><circle shape-rendering="crispEdges" fill="rgb(74,85,132)" stroke="rgb(0,0,0)" stroke-width="1" cx="45" cy="290" r="4.5"/><circle shape-rendering="crispEdges" fill="rgb(206,219,156)" stroke="rgb(0,0,0)" stroke-width="1" cx="45" cy="300" r="4.5"/><circle shape-rendering="crispEdges" fill="rgb(181,207,107)" stroke="rgb(0,0,0)" stroke-width="1" cx="45" cy="310" r="4.5"/></g><g><g><path d="M30,20H15V10" stroke="rgb(204,204,204)"/></g><g><path d="M45,30H30V20" stroke="rgb(204,204,204)"/></g><g><path d="M45,40H30V20" stroke="rgb(204,204,204)"/></g><g><path d="M45,50H30V20" stroke="rgb(204,204,204)"/></g><g><path d="M45,60H30V20" stroke="rgb(204,204,204)"/></g><g><path d="M30,70H15V10" stroke="rgb(204,204,204)"/></g><g><path d="M45,80H30V70" stroke="rgb(204,204,204)"/></g><g><path d="M45,90H30V70" stroke="rgb(204,204,204)"/></g><g><path d="M45,100H30V70" stroke="rgb(204,204,204)"/></g><g><path d="M45,110H30V70" stroke="rgb(204,204,204)"/></g><g><path d="M30,120H15V10" stroke="rgb(204,204,204)"/></g><g><path d="M45,130H30V120" stroke="rgb(204,204,204)"/></g><g><path d="M45,140H30V120" stroke="rgb(204,204,204)"/></g><g><path d="M45,150H30V120" stroke="rgb(204,204,204)"/></g><g><path d="M45,160H30V120" stroke="rgb(204,204,204)"/></g><g><path d="M30,170H15V10" stroke="rgb(204,204,204)"/></g><g><path d="M45,180H30V170" stroke="rgb(204,204,204)"/></g><g><path d="M45,190H30V170" stroke="rgb(204,204,204)"/></g><g><path d="M45,200H30V170" stroke="rgb(204,204,204)"/></g><g><path d="M45,210H30V170" stroke="rgb(204,204,204)"/></g><g><path d="M30,220H15V10" stroke="rgb(204,204,204)"/></g><g><path d="M45,230H30V220" stroke="rgb(204,204,204)"/></g><g><path d="M45,240H30V220" stroke="rgb(204,204,204)"/></g><g><path d="M45,250H30V220" stroke="rgb(204,204,204)"/></g><g><path d="M45,260H30V220" stroke="rgb(204,204,204)"/></g><g><path d="M30,270H15V10" stroke="rgb(204,204,204)"/></g><g><path d="M45,280H30V270" stroke="rgb(204,204,204)"/></g><g><path d="M45,290H30V270" stroke="rgb(204,204,204)"/></g><g><path d="M45,300H30V270" stroke="rgb(204,204,204)"/></g><g><path d="M45,310H30V270" stroke="rgb(204,204,204)"/></g></g><g><text pointer-events="none" x="7" dy="0.35em" transform="translate(15, 10)" fill="rgb(0,0,0)">test</text><text pointer-events="none" x="7" dy="0.35em" transform="translate(30, 20)" fill="rgb(0,0,0)">a</text><text pointer-events="none" x="7" dy="0.35em" transform="translate(45, 30)" fill="rgb(0,0,0)">a</text><text pointer-events="none" x="7" dy="0.35em" transform="translate(45, 40)" fill="rgb(0,0,0)">b</text><text pointer-events="none" x="7" dy="0.35em" transform="translate(45, 50)" fill="rgb(0,0,0)">c</text><text pointer-events="none" x="7" dy="0.35em" transform="translate(45, 60)" fill="rgb(0,0,0)">d</text><text pointer-events="none" x="7" dy="0.35em" transform="translate(30, 70)" fill="rgb(0,0,0)">b</text><text pointer-events="none" x="7" dy="0.35em" transform="translate(45, 80)" fill="rgb(0,0,0)">a</text><text pointer-events="none" x="7" dy="0.35em" transform="translate(45, 90)" fill="rgb(0,0,0)">b</text><text pointer-events="none" x="7" dy="0.35em" transform="translate(45, 100)" fill="rgb(0,0,0)">c</text><text pointer-events="none" x="7" dy="0.35em" transform="translate(45, 110)" fill="rgb(0,0,0)">d</text><text pointer-events="none" x="7" dy="0.35em" transform="translate(30, 120)" fill="rgb(0,0,0)">c</text><text pointer-events="none" x="7" dy="0.35em" transform="translate(45, 130)" fill="rgb(0,0,0)">a</text><text pointer-events="none" x="7" dy="0.35em" transform="translate(45, 140)" fill="rgb(0,0,0)">b</text><text pointer-events="none" x="7" dy="0.35em" transform="translate(45, 150)" fill="rgb(0,0,0)">c</text><text pointer-events="none" x="7" dy="0.35em" transform="translate(45, 160)" fill="rgb(0,0,0)">d</text><text pointer-events="none" x="7" dy="0.35em" transform="translate(30, 170)" fill="rgb(0,0,0)">d</text><text pointer-events="none" x="7" dy="0.35em" transform="translate(45, 180)" fill="rgb(0,0,0)">a</text><text pointer-events="none" x="7" dy="0.35em" transform="translate(45, 190)" fill="rgb(0,0,0)">b</text><text pointer-events="none" x="7" dy="0.35em" transform="translate(45, 200)" fill="rgb(0,0,0)">c</text><text pointer-events="none" x="7" dy="0.35em" transform="translate(45, 210)" fill="rgb(0,0,0)">d</text><text pointer-events="none" x="7" dy="0.35em" transform="translate(30, 220)" fill="rgb(0,0,0)">e</text><text pointer-events="none" x="7" dy="0.35em" transform="translate(45, 230)" fill="rgb(0,0,0)">a</text><text pointer-events="none" x="7" dy="0.35em" transform="translate(45, 240)" fill="rgb(0,0,0)">b</text><text pointer-events="none" x="7" dy="0.35em" transform="translate(45, 250)" fill="rgb(0,0,0)">c</text><text pointer-events="none" x="7" dy="0.35em" transform="translate(45, 260)" fill="rgb(0,0,0)">d</text><text pointer-events="none" x="7" dy="0.35em" transform="translate(30, 270)" fill="rgb(0,0,0)">f</text><text pointer-events="none" x="7" dy="0.35em" transform="translate(45, 280)" fill="rgb(0,0,0)">a</text><text pointer-events="none" x="7" dy="0.35em" transform="translate(45, 290)" fill="rgb(0,0,0)">b</text><text pointer-events="none" x="7" dy="0.35em" transform="translate(45, 300)" fill="rgb(0,0,0)">c</text><text pointer-events="none" x="7" dy="0.35em" transform="translate(45, 310)" fill="rgb(0,0,0)">d</text></g></g></svg>
