<svg font-size="10px" font-family="sans-serif" fill="none" stroke="none" stroke-width="1.5" width="210" height="230"><g transform="translate(10, 20)"><g><circle shape-rendering="crispEdges" fill="rgb(156,158,222)" stroke="rgb(0,0,0)" stroke-width="1" cx="100" cy="100" r="4.5"/><circle shape-rendering="crispEdges" fill="rgb(156,158,222)" stroke="rgb(0,0,0)" stroke-width="1" cx="70.57661008130299" cy="47.709808513524074" r="4.5"/><circle shape-rendering="crispEdges" fill="rgb(115,117,181)" stroke="rgb(0,0,0)" stroke-width="1" cx="17.109023230014827" cy="13.229694191401052" r="4.5"/><circle shape-rendering="crispEdges" fill="rgb(74,85,132)" stroke="rgb(0,0,0)" stroke-width="1" cx="32.65248246691104" cy="0.6807577448847297" r="4.5"/><circle shape-rendering="crispEdges" fill="rgb(206,219,156)" stroke="rgb(0,0,0)" stroke-width="1" cx="50.06237961434291" cy="-9.11569121908181" r="4.5"/><circle shape-rendering="crispEdges" fill="rgb(181,207,107)" stroke="rgb(0,0,0)" stroke-width="1" cx="68.85622484574002" cy="-15.88815845089998" r="4.5"/><circle shape-rendering="crispEdges" fill="rgb(156,158,222)" stroke="rgb(0,0,0)" stroke-width="1" cx="118.91934174371612" cy="43.06092283866483" r="4.5"/><circle shape-rendering="crispEdges" fill="rgb(115,117,181)" stroke="rgb(0,0,0)" stroke-width="1" cx="108.48846420012435" cy="-19.69939839248653" r="4.5"/><circle shape-rendering="crispEdges" fill="rgb(74,85,132)" stroke="rgb(0,0,0)" stroke-width="1" cx="128.22850879635874" cy="-16.63254816359752" r="4.5"/><circle shape-rendering="crispEdges" fill="rgb(206,219,156)" stroke="rgb(0,0,0)" stroke-width="1" cx="147.18624157316293" cy="-10.33339751045061" r="4.5"/><circle shape-rendering="crispEdges" fill="rgb(181,207,107)" stroke="rgb(0,0,0)" stroke-width="1" cx="164.83627670417678" cy="-0.9765181769475788" r="4.5"/><circle shape-rendering="crispEdges" fill="rgb(156,158,222)" stroke="rgb(0,0,0)" stroke-width="1" cx="154.8665839956298" cy="75.71712618633252" r="4.5"/><circle shape-rendering="crispEdges" fill="rgb(115,117,181)" stroke="rgb(0,0,0)" stroke-width="1" cx="194.30647129323376" cy="25.795623631631557" r="4.5"/><circle shape-rendering="crispEdges" fill="rgb(74,85,132)" stroke="rgb(0,0,0)" stroke-width="1" cx="205.30990742684475" cy="42.46893536749564" r="4.5"/><circle shape-rendering="crispEdges" fill="rgb(206,219,156)" stroke="rgb(0,0,0)" stroke-width="1" cx="213.39483355776852" cy="60.73663638446173" r="4.5"/><circle shape-rendering="crispEdges" fill="rgb(181,207,107)" stroke="rgb(0,0,0)" stroke-width="1" cx="218.337187787551" cy="80.0924640767902" r="4.5"/><circle shape-rendering="crispEdges" fill="rgb(156,158,222)" stroke="rgb(0,0,0)" stroke-width="1" cx="154.8665839956298" cy="124.28287381366748" r="4.5"/><circle shape-rendering="crispEdges" fill="rgb(115,117,181)" stroke="rgb(0,0,0)" stroke-width="1" cx="218.337187787551" cy="119.9075359232098" r="4.5"/><circle shape-rendering="crispEdges" fill="rgb(74,85,132)" stroke="rgb(0,0,0)" stroke-width="1" cx="213.39483355776852" cy="139.26336361553825" r="4.5"/><circle shape-rendering="crispEdges" fill="rgb(206,219,156)" stroke="rgb(0,0,0)" stroke-width="1" cx="205.30990742684475" cy="157.53106463250435" r="4.5"/><circle shape-rendering="crispEdges" fill="rgb(181,207,107)" stroke="rgb(0,0,0)" stroke-width="1" cx="194.30647129323376" cy="174.20437636836846" r="4.5"/><circle shape-rendering="crispEdges" fill="rgb(156,158,222)" stroke="rgb(0,0,0)" stroke-width="1" cx="118.91934174371612" cy="156.93907716133518" r="4.5"/><circle shape-rendering="crispEdges" fill="rgb(115,117,181)" stroke="rgb(0,0,0)" stroke-width="1" cx="164.83627670417678" cy="200.9765181769476" r="4.5"/><circle shape-rendering="crispEdges" fill="rgb(74,85,132)" stroke="rgb(0,0,0)" stroke-width="1" cx="147.18624157316293" cy="210.3333975104506" r="4.5"/><circle shape-rendering="crispEdges" fill="rgb(206,219,156)" stroke="rgb(0,0,0)" stroke-width="1" cx="128.22850879635874" cy="216.6325481635975" r="4.5"/><circle shape-rendering="crispEdges" fill="rgb(181,207,107)" stroke="rgb(0,0,0)" stroke-width="1" cx="108.48846420012435" cy="219.69939839248653" r="4.5"/><circle shape-rendering="crispEdges" fill="rgb(156,158,222)" stroke="rgb(0,0,0)" stroke-width="1" cx="70.57661008130299" cy="152.29019148647592" r="4.5"/><circle shape-rendering="crispEdges" fill="rgb(115,117,181)" stroke="rgb(0,0,0)" stroke-width="1" cx="68.85622484574002" cy="215.8881584509" r="4.5"/><circle shape-rendering="crispEdges" fill="rgb(74,85,132)" stroke="rgb(0,0,0)" stroke-width="1" cx="50.06237961434291" cy="209.1156912190818" r="4.5"/><circle shape-rendering="crispEdges" fill="rgb(206,219,156)" stroke="rgb(0,0,0)" stroke-width="1" cx="32.65248246691104" cy="199.31924225511528" r="4.5"/><circle shape-rendering="crispEdges" fill="rgb(181,207,107)" stroke="rgb(0,0,0)" stroke-width="1" cx="17.109023230014827" cy="186.77030580859895" r="4.5"/></g><g><g><path d="M70.57661008130299,47.709808513524074L100,100" stroke="rgb(204,204,204)"/></g><g><path d="M17.109023230014827,13.229694191401052L70.57661008130299,47.709808513524074" stroke="rgb(204,204,204)"/></g><g><path d="M32.65248246691104,0.6807577448847297L70.57661008130299,47.709808513524074" stroke="rgb(204,204,204)"/></g><g><path d="M50.06237961434291,-9.11569121908181L70.57661008130299,47.709808513524074" stroke="rgb(204,204,204)"/></g><g><path d="M68.85622484574002,-15.88815845089998L70.57661008130299,47.709808513524074" stroke="rgb(204,204,204)"/></g><g><path d="M118.91934174371612,43.06092283866483L100,100" stroke="rgb(204,204,204)"/></g><g><path d="M108.48846420012435,-19.69939839248653L118.91934174371612,43.06092283866483" stroke="rgb(204,204,204)"/></g><g><path d="M128.22850879635874,-16.63254816359752L118.91934174371612,43.06092283866483" stroke="rgb(204,204,204)"/></g><g><path d="M147.18624157316293,-10.33339751045061L118.91934174371612,43.06092283866483" stroke="rgb(204,204,204)"/></g><g><path d="M164.83627670417678,-0.9765181769475788L118.91934174371612,43.06092283866483" stroke="rgb(204,204,204)"/></g><g><path d="M154.8665839956298,75.71712618633252L100,100" stroke="rgb(204,204,204)"/></g><g><path d="M194.30647129323376,25.795623631631557L154.8665839956298,75.71712618633252" stroke="rgb(204,204,204)"/></g><g><path d="M205.30990742684475,42.46893536749564L154.8665839956298,75.71712618633252" stroke="rgb(204,204,204)"/></g><g><path d="M213.39483355776852,60.73663638446173L154.8665839956298,75.71712618633252" stroke="rgb(204,204,204)"/></g><g><path d="M218.337187787551,80.0924640767902L154.8665839956298,75.71712618633252" stroke="rgb(204,204,204)"/></g><g><path d="M154.8665839956298,124.28287381366748L100,100" stroke="rgb(204,204,204)"/></g><g><path d="M218.337187787551,119.9075359232098L154.8665839956298,124.28287381366748" stroke="rgb(204,204,204)"/></g><g><path d="M213.39483355776852,139.26336361553825L154.8665839956298,124.28287381366748" stroke="rgb(204,204,204)"/></g><g><path d="M205.30990742684475,157.53106463250435L154.8665839956298,124.28287381366748" stroke="rgb(204,204,204)"/></g><g><path d="M194.30647129323376,174.20437636836846L154.8665839956298,124.28287381366748" stroke="rgb(204,204,204)"/></g><g><path d="M118.91934174371612,156.93907716133518L100,100" stroke="rgb(204,204,204)"/></g><g><path d="M164.83627670417678,200.9765181769476L118.91934174371612,156.93907716133518" stroke="rgb(204,204,204)"/></g><g><path d="M147.18624157316293,210.3333975104506L118.91934174371612,156.93907716133518" stroke="rgb(204,204,204)"/></g><g><path d="M128.22850879635874,216.6325481635975L118.91934174371612,156.93907716133518" stroke="rgb(204,204,204)"/></g><g><path d="M108.48846420012435,219.69939839248653L118.91934174371612,156.93907716133518" stroke="rgb(204,204,204)"/></g><g><path d="M70.57661008130299,152.29019148647592L100,100" stroke="rgb(204,204,204)"/></g><g><path d="M68.85622484574002,215.8881584509L70.57661008130299,152.29019148647592" stroke="rgb(204,204,204)"/></g><g><path d="M50.06237961434291,209.1156912190818L70.57661008130299,152.29019148647592" stroke="rgb(204,204,204)"/></g><g><path d="M32.65248246691104,199.31924225511528L70.57661008130299,152.29019148647592" stroke="rgb(204,204,204)"/></g><g><path d="M17.109023230014827,186.77030580859895L70.57661008130299,152.29019148647592" stroke="rgb(204,204,204)"/></g></g><g><text pointer-events="none" x="-7" dy="0.35em" transform="translate(100, 100) rotate(360)" fill="rgb(0,0,0)" text-anchor="end">test</text><text pointer-events="none" x="7" dy="0.35em" transform="translate(70.5766, 47.7098) rotate(60.6338)" fill="rgb(0,0,0)">a</text><text pointer-events="none" x="-7" dy="0.35em" transform="translate(17.109, 13.2297) rotate(46.3098)" fill="rgb(0,0,0)" text-anchor="end">a</text><text pointer-events="none" x="-7" dy="0.35em" transform="translate(32.6525, 0.680758) rotate(55.8591)" fill="rgb(0,0,0)" text-anchor="end">b</text><text pointer-events="none" x="-7" dy="0.35em" transform="translate(50.0624, -9.11569) rotate(65.4084)" fill="rgb(0,0,0)" text-anchor="end">c</text><text pointer-events="none" x="-7" dy="0.35em" transform="translate(68.8562, -15.8882) rotate(74.9577)" fill="rgb(0,0,0)" text-anchor="end">d</text><text pointer-events="none" x="-7" dy="0.35em" transform="translate(118.919, 43.0609) rotate(288.38)" fill="rgb(0,0,0)" text-anchor="end">b</text><text pointer-events="none" x="7" dy="0.35em" transform="translate(108.488, -19.6994) rotate(-85.9437)" fill="rgb(0,0,0)">a</text><text pointer-events="none" x="7" dy="0.35em" transform="translate(128.229, -16.6325) rotate(-76.3944)" fill="rgb(0,0,0)">b</text><text pointer-events="none" x="7" dy="0.35em" transform="translate(147.186, -10.3334) rotate(-66.8451)" fill="rgb(0,0,0)">c</text><text pointer-events="none" x="7" dy="0.35em" transform="translate(164.836, -0.976518) rotate(-57.2958)" fill="rgb(0,0,0)">d</text><text pointer-events="none" x="-7" dy="0.35em" transform="translate(154.867, 75.7171) rotate(336.127)" fill="rgb(0,0,0)" text-anchor="end">c</text><text pointer-events="none" x="7" dy="0.35em" transform="translate(194.306, 25.7956) rotate(-38.1972)" fill="rgb(0,0,0)">a</text><text pointer-events="none" x="7" dy="0.35em" transform="translate(205.31, 42.4689) rotate(-28.6479)" fill="rgb(0,0,0)">b</text><text pointer-events="none" x="7" dy="0.35em" transform="translate(213.395, 60.7366) rotate(-19.0986)" fill="rgb(0,0,0)">c</text><text pointer-events="none" x="7" dy="0.35em" transform="translate(218.337, 80.0925) rotate(-9.5493)" fill="rgb(0,0,0)">d</text><text pointer-events="none" x="-7" dy="0.35em" transform="translate(154.867, 124.283) rotate(383.873)" fill="rgb(0,0,0)" text-anchor="end">d</text><text pointer-events="none" x="7" dy="0.35em" transform="translate(218.337, 119.908) rotate(9.5493)" fill="rgb(0,0,0)">a</text><text pointer-events="none" x="7" dy="0.35em" transform="translate(213.395, 139.263) rotate(19.0986)" fill="rgb(0,0,0)">b</text><text pointer-events="none" x="7" dy="0.35em" transform="translate(205.31, 157.531) rotate(28.6479)" fill="rgb(0,0,0)">c</text><text pointer-events="none" x="7" dy="0.35em" transform="translate(194.306, 174.204) rotate(38.1972)" fill="rgb(0,0,0)">d</text><text pointer-events="none" x="-7" dy="0.35em" transform="translate(118.919, 156.939) rotate(431.62)" fill="rgb(0,0,0)" text-anchor="end">e</text><text pointer-events="none" x="7" dy="0.35em" transform="translate(164.836, 200.977) rotate(57.2958)" fill="rgb(0,0,0)">a</text><text pointer-events="none" x="7" dy="0.35em" transform="translate(147.186, 210.333) rotate(66.8451)" fill="rgb(0,0,0)">b</text><text pointer-events="none" x="7" dy="0.35em" transform="translate(128.229, 216.633) rotate(76.3944)" fill="rgb(0,0,0)">c</text><text pointer-events="none" x="7" dy="0.35em" transform="translate(108.488, 219.699) rotate(85.9437)" fill="rgb(0,0,0)">d</text><text pointer-events="none" x="7" dy="0.35em" transform="translate(70.5766, 152.29) rotate(299.366)" fill="rgb(0,0,0)">f</text><text pointer-events="none" x="-7" dy="0.35em" transform="translate(68.8562, 215.888) rotate(285.042)" fill="rgb(0,0,0)" text-anchor="end">a</text><text pointer-events="none" x="-7" dy="0.35em" transform="translate(50.0624, 209.116) rotate(294.592)" fill="rgb(0,0,0)" text-anchor="end">b</text><text pointer-events="none" x="-7" dy="0.35em" transform="translate(32.6525, 199.319) rotate(304.141)" fill="rgb(0,0,0)" text-anchor="end">c</text><text pointer-events="none" x="-7" dy="0.35em" transform="translate(17.109, 186.77) rotate(313.69)" fill="rgb(0,0,0)" text-anchor="end">d</text></g></g></svg>
