<svg font-size="10px" font-family="sans-serif" fill="none" stroke="none" stroke-width="1.5" width="450" height="645"><g transform="translate(20, 5)"><g><text pointer-events="none" y="3" dy="0.71em" transform="translate(100)" fill="rgb(0,0,0)" text-anchor="middle">linear</text></g><g><path d="M1.9317831508337362,85.62892257707853L5.398489201794964,72.69784296163479 1.5402863084091165,71.64204968800954 -1.9317831508337362,84.59313522794767" fill="rgb(31,119,180)"/><path d="M5.831253529356714,72.81626847701864L9.289723778198821,60.430205657013516 4.587827242209343,59.059362086098844 1.107521980847367,71.52362417262569" fill="rgb(31,119,180)"/><path d="M9.712883456072445,60.5535783683106L13.155677622672258,49.2271779319419 7.66064890793999,47.434609187776765 4.164667564335717,58.93598937480176" fill="rgb(31,119,180)"/><path d="M13.560018312336775,49.35908051515199L16.969201301655158,39.58411990668916 10.785900739161166,37.182502449001326 7.256308218275473,47.30270660456668" fill="rgb(31,119,180)"/><path d="M17.34482240674059,39.730012572641876L20.67037803147694,31.980488082760658 14.02349951954347,28.616742804586057 10.410279634075737,37.03660978304861" fill="rgb(31,119,180)"/><path d="M21.00484911636998,32.14975182520382L24.080008452410244,26.920617189021993 17.55264460881425,21.877618138042852 13.689028434650428,28.447479062142893" fill="rgb(31,119,180)"/><path d="M24.35167259448089,27.130503146580715L26.578776343068885,24.89716130841087 21.992652228359685,16.942863085538665 17.280980466743607,21.66773218048413" fill="rgb(31,119,180)"/><path d="M26.735755878246152,25.169430877758757L27.274222400073192,25.026640332938584 28.23598168155946,14.973359667061414 21.835672693182417,16.670593516190777" fill="rgb(31,119,180)"/><path d="M27.24740091522433,25.307005617944707L28.06462598910251,25.70173587432191 34.38435360273422,17.649782236948116 28.26280316640832,14.692994382055293" fill="rgb(31,119,180)"/><path d="M27.922878824316527,25.882335683184564L30.324655253391263,28.793167652412787 39.06309984864954,22.967796624577524 34.526100767520205,17.469182428085464" fill="rgb(31,119,180)"/><path d="M30.169545181122885,28.89656977521253L33.24741430069427,34.72165154643806 43.07911631155063,30.171428869637634 39.21820992091793,22.864394501777777" fill="rgb(31,119,180)"/><path d="M33.11182553875504,34.784403556071176L36.41098473344578,43.02484208618098 46.85432138900321,39.1994884126686 43.21470507348985,30.10867686000452" fill="rgb(31,119,180)"/><path d="M36.30110578973685,43.0650903166864L39.686292474902665,53.23192749538224 50.51778915775041,49.8318447810518 46.96420033271214,39.15924018216318" fill="rgb(31,119,180)"/><path d="M39.60037452080369,53.25889774327468L43.0262749312619,64.86992620208703 54.11658221159524,61.710676765731264 50.60370711184938,49.80487453315936" fill="rgb(31,119,180)"/><path d="M42.95944382031848,64.88896410105971L46.40872266987611,77.44410792128679 57.67290998318509,74.39317282370058 54.18341332253866,61.691638866758574" fill="rgb(31,119,180)"/><path d="M46.35454263168208,77.45878272875552L49.82067921815546,90.44141568284755 61.19972894510984,87.38548588417382 57.72709002137913,74.37849801623184" fill="rgb(31,119,180)"/><path d="M49.77190168850574,90.45451525705973L53.25415434746673,103.34535929892792 64.70502932600265,100.16798196780888 61.24850647475956,87.37238630996164" fill="rgb(31,119,180)"/><path d="M53.20324365682247,103.35948594642586L56.70621229275318,115.6569854160261 68.19174689092029,112.21557713552777 64.75594001664692,100.15385532031094" fill="rgb(31,119,180)"/><path d="M56.64583770610699,115.67507544053825L60.18306511217383,126.92120102693156 71.65366958170374,123.01223911188339 68.25212147756648,112.19748711101562" fill="rgb(31,119,180)"/><path d="M60.106692734448686,126.94722726789229L63.71348818547644,136.7626838122243 75.06202201860518,132.0537926440164 71.73004195942887,122.98621287092266" fill="rgb(31,119,180)"/><path d="M63.61637209639511,136.80298056781322L67.39511505408508,144.9458050029382 78.31917066020061,138.82305943178437 75.15913810768652,132.0134958884275" fill="rgb(31,119,180)"/><path d="M67.27680834993065,145.01211387896532L71.57753631105275,151.47403506219783 81.07552491343704,142.72046448834922 78.43747736435505,138.75675055575724" fill="rgb(31,119,180)"/><path d="M71.45098403154896,151.59066863129266L77.38827904600738,156.28251139737634 82.2035576886865,143.3952332342641 81.20207719294083,142.6038309192544" fill="rgb(31,119,180)"/><path d="M77.31183670488235,156.4870963833388L85.25075239476688,156.85580094745922 81.2798598501311,143.14419905254078 82.28000002981153,143.19064824830164" fill="rgb(31,119,180)"/><path d="M85.32349186806739,157.10697236263388L91.75120762506657,152.61272294274332 81.71818013003548,142.53569540828155 81.20712037683059,142.89302763736612" fill="rgb(31,119,180)"/><path d="M91.95694419720762,152.81936177666836L96.51099990515415,146.36642464052645 83.89716336015199,138.94999229448197 81.51244355789443,142.3290565743565" fill="rgb(31,119,180)"/><path d="M96.7925372755208,146.53195737537345L100.68298483767663,138.44666830902875 86.66395393783355,132.44929831270386 83.61562598978534,138.78445955963497" fill="rgb(31,119,180)"/><path d="M101.01492841473157,138.58867444794984L104.67994832866594,128.85194467636492 89.60576595704833,123.61002058246036 86.33201036077861,132.30729217378277" fill="rgb(31,119,180)"/><path d="M105.04984526696128,128.9805733227028L108.62109446618747,117.80550750317413 92.6033953297309,112.94381080559621 89.235869018753,123.48139193612245" fill="rgb(31,119,180)"/><path d="M109.01984094595026,117.92653515061079L112.54314165753775,105.67624434481932 95.62012364858467,100.94739614242765 92.20464884996811,112.82278315815955" fill="rgb(31,119,180)"/><path d="M112.9622844325068,105.79336663098066L116.45501065060934,92.91889212190074 98.64703016571717,88.12785431411947 95.2009808736156,100.83027385626632" fill="rgb(31,119,180)"/><path d="M116.88601187373669,93.03484817637614L120.35324681935977,80.03869738494438 101.68756950717083,74.99960882341165 98.21602894258982,88.01189825964407" fill="rgb(31,119,180)"/><path d="M120.78734668370933,80.15588936380594L124.22590004044532,67.56721924530295 104.75369179628935,62.067974996449166 101.25346964282127,74.8824168445501" fill="rgb(31,119,180)"/><path d="M124.65415773014972,67.68816565300384L128.05047105069985,56.046132536150665 107.86789629623892,49.804019910010865 104.32543410658495,61.947028588748275" fill="rgb(31,119,180)"/><path d="M128.4637827149941,56.17396250777763L131.78325894731435,46.02302258075274 111.07388390982848,38.608392799182084 107.4545846319447,49.6761899383839" fill="rgb(31,119,180)"/><path d="M132.17211917887624,46.162247190311845L135.3240060098375,38.073774119685076 114.47191235750941,28.75113301062027 110.68502367826659,38.46916818962297" fill="rgb(31,119,180)"/><path d="M135.67743475652355,38.23178651968275L138.38694656833985,32.88818999181 118.34774730921119,20.252326997689817 114.11848361082339,28.593120610622606" fill="rgb(31,119,180)"/><path d="M138.68857970043405,33.07838695938062L139.98935140710805,31.388075405200283 123.68411798064707,12.735723003641597 118.04611417711698,20.062130030119192" fill="rgb(31,119,180)"/><path d="M140.20356427738383,31.633123963588247L137.62065312764577,33.11821709281517 132.9915917703134,7.016002411426339 123.46990511037127,12.490674445253623" fill="rgb(31,119,180)"/><path d="M137.6727477928504,33.41196695481956L132.93389308938237,32.59473721768077 144.6171273187809,8.736094979099985 132.93949710510876,6.722252549421949" fill="rgb(31,119,180)"/><path d="M132.82354727100147,32.820077337683514L132.14952979059882,32.204699662015464 152.34026612776853,15.461231652522423 144.72747313716175,8.510754859097252" fill="rgb(31,119,180)"/><path d="M131.993022627552,32.334485551641826L134.02029710980275,35.612887898394106 157.40827431876863,23.274068548855084 152.49677329081536,15.331445762896058" fill="rgb(31,119,180)"/><path d="M133.8750227729666,35.68953043068025L136.77153156689857,42.226444826610845 161.5958153718769,32.32011590625504 157.5535486556048,23.19742601656894" fill="rgb(31,119,180)"/><path d="M136.65089345852886,42.274586428246906L139.85290168721542,51.261119874287374 165.45322076176416,42.75932529097216 161.71645348024663,32.27197430461898" fill="rgb(31,119,180)"/><path d="M139.75748227442386,51.29280839521761L143.09096569770645,62.10778858190786 169.15393226147717,54.42445884359848 165.54864017455571,42.72763677004192" fill="rgb(31,119,180)"/><path d="M143.0169094972663,62.12962025658525L146.41900620420077,74.2166698168411 172.764667265187,66.9678231807495 169.2279884619173,54.40262716892109" fill="rgb(31,119,180)"/><path d="M146.3604112114613,74.23279186878082L149.80667623212054,87.05172399574612 176.31577274747127,79.94265064946644 172.82326225792647,66.95170112880979" fill="rgb(31,119,180)"/><path d="M149.75656149547186,87.065163508419L153.23976636215272,100.08609428665913 179.82145812764324,92.84683954821416 176.36588748411995,79.92921113679355" fill="rgb(31,119,180)"/><path d="M153.19065668842356,100.09946880929613L156.67667642290957,112.67604642303748 183.32332357709043,105.29003564249997 179.8705678013724,92.83346502557717" fill="rgb(31,119,180)"/></g></g><g transform="translate(20, 5)"><g transform="translate(210)"><text pointer-events="none" y="3" dy="0.71em" transform="translate(100)" fill="rgb(0,0,0)" text-anchor="middle">step-before</text></g><g transform="translate(210)"><path d="M0,85.1110289025131V72.16994632482216H3.4693877551020407" stroke="rgb(31,119,180)" stroke-width="4"/><path d="M3.4693877551020407,72.16994632482216V59.74478387155618H6.938775510204081" stroke="rgb(31,119,180)" stroke-width="4.897338661590123"/><path d="M6.938775510204081,59.74478387155618V48.330893559859334H10.408163265306124" stroke="rgb(31,119,180)" stroke-width="5.778836684617301"/><path d="M10.408163265306124,48.330893559859334V38.38331117784524H13.877551020408163" stroke="rgb(31,119,180)" stroke-width="6.6292849467900705"/><path d="M13.877551020408163,38.38331117784524V30.298615443673356H17.346938775510203" stroke="rgb(31,119,180)" stroke-width="7.434712181799045"/><path d="M17.346938775510203,30.298615443673356V24.399117663532422H20.816326530612248" stroke="rgb(31,119,180)" stroke-width="8.182941969615793"/><path d="M20.816326530612248,24.399117663532422V20.920012196974767H24.285714285714285" stroke="rgb(31,119,180)" stroke-width="8.864078171934452"/><path d="M24.285714285714285,20.920012196974767V20H27.755102040816325" stroke="rgb(31,119,180)" stroke-width="9.47089945997692"/><path d="M27.755102040816325,20V21.675759055635012H31.224489795918366" stroke="rgb(31,119,180)" stroke-width="9.999147206083009"/><path d="M31.224489795918366,21.675759055635012V25.880482138495154H34.69387755102041" stroke="rgb(31,119,180)" stroke-width="10.44769526175639"/><path d="M34.69387755102041,25.880482138495154V32.446540208037845H38.16326530612245" stroke="rgb(31,119,180)" stroke-width="10.818594853651364"/><path d="M38.16326530612245,32.446540208037845V41.11216524942479H41.632653061224495" stroke="rgb(31,119,180)" stroke-width="11.11699280763918"/><path d="M41.632653061224495,41.11216524942479V51.53188613821702H45.102040816326536" stroke="rgb(31,119,180)" stroke-width="11.350926361102301"/><path d="M45.102040816326536,51.53188613821702V63.29030148390915H48.57142857142857" stroke="rgb(31,119,180)" stroke-width="11.53100274364293"/><path d="M48.57142857142857,63.29030148390915V75.91864037249368H52.0408163265306" stroke="rgb(31,119,180)" stroke-width="11.66997630031181"/><path d="M52.0408163265306,75.91864037249368V88.91345078351068H55.51020408163265" stroke="rgb(31,119,180)" stroke-width="11.782240016119735"/><path d="M55.51020408163265,88.91345078351068V101.7566706333684H58.97959183673469" stroke="rgb(31,119,180)" stroke-width="11.88325171314484"/><path d="M58.97959183673469,101.7566706333684V113.93628127577693H62.44897959183673" stroke="rgb(31,119,180)" stroke-width="11.988917795946337"/><path d="M62.44897959183673,113.93628127577693V124.96672006940747H65.91836734693878" stroke="rgb(31,119,180)" stroke-width="12.114959113410295"/><path d="M65.91836734693878,124.96672006940747V134.40823822812035H69.38775510204081" stroke="rgb(31,119,180)" stroke-width="12.276284218114561"/><path d="M69.38775510204081,134.40823822812035V141.88443221736128H72.85714285714285" stroke="rgb(31,119,180)" stroke-width="12.486395009384143"/><path d="M72.85714285714285,141.88443221736128V147.09724977527353H76.3265306122449" stroke="rgb(31,119,180)" stroke-width="12.756848455172824"/><path d="M76.3265306122449,147.09724977527353V149.83887231582023H79.79591836734694" stroke="rgb(31,119,180)" stroke-width="13.096795852220968"/><path d="M79.79591836734694,149.83887231582023V150H83.26530612244899" stroke="rgb(31,119,180)" stroke-width="13.512617992733071"/><path d="M83.26530612244899,150V147.57420917551244H86.73469387755102" stroke="rgb(31,119,180)" stroke-width="14.007670782328319"/><path d="M86.73469387755102,147.57420917551244V142.6582084675042H90.20408163265307" stroke="rgb(31,119,180)" stroke-width="14.582151450673724"/><path d="M90.20408163265307,142.6582084675042V135.4479833108663H93.67346938775509" stroke="rgb(31,119,180)" stroke-width="15.233090688559694"/><path d="M93.67346938775509,135.4479833108663V126.23098262941264H97.14285714285714" stroke="rgb(31,119,180)" stroke-width="15.954471024888026"/><path d="M97.14285714285714,126.23098262941264V115.37465915438517H100.61224489795919" stroke="rgb(31,119,180)" stroke-width="16.73746672425536"/><path d="M100.61224489795919,115.37465915438517V103.31182024362349H104.0816326530612" stroke="rgb(31,119,180)" stroke-width="17.570795641172488"/><path d="M104.0816326530612,103.31182024362349V90.52337321801011H107.55102040816325" stroke="rgb(31,119,180)" stroke-width="18.44116900360215"/><path d="M107.55102040816325,90.52337321801011V77.51915310417802H111.0204081632653" stroke="rgb(31,119,180)" stroke-width="19.333821194365008"/><path d="M111.0204081632653,77.51915310417802V64.81759712087606H114.48979591836734" stroke="rgb(31,119,180)" stroke-width="20.233098409700986"/><path d="M114.48979591836734,64.81759712087606V52.925076223080765H117.95918367346938" stroke="rgb(31,119,180)" stroke-width="21.123082727026755"/><path d="M117.95918367346938,52.925076223080765V42.31570768996741H121.42857142857142" stroke="rgb(31,119,180)" stroke-width="21.988226702277217"/><path d="M121.42857142857142,42.31570768996741V33.412453565152674H124.89795918367346" stroke="rgb(31,119,180)" stroke-width="22.813973197437576"/><path d="M124.89795918367346,33.412453565152674V26.570258494749908H128.3673469387755" stroke="rgb(31,119,180)" stroke-width="23.587335727698306"/><path d="M128.3673469387755,26.570258494749908V22.06189920442094H131.83673469387756" stroke="rgb(31,119,180)" stroke-width="24.297416191623256"/><path d="M131.83673469387756,22.06189920442094V20.067109752120757H135.30612244897958" stroke="rgb(31,119,180)" stroke-width="24.935839344062973"/><path d="M135.30612244897958,20.067109752120757V20.66541609839038H138.77551020408163" stroke="rgb(31,119,180)" stroke-width="25.49708669074921"/><path d="M138.77551020408163,20.66541609839038V23.832965657268943H142.24489795918367" stroke="rgb(31,119,180)" stroke-width="25.978716493246765"/><path d="M142.24489795918367,23.832965657268943V29.443478223624595H145.7142857142857" stroke="rgb(31,119,180)" stroke-width="26.381461113359546"/><path d="M145.7142857142857,29.443478223624595V37.27328036643294H149.18367346938774" stroke="rgb(31,119,180)" stroke-width="26.709197816176562"/><path d="M149.18367346938774,37.27328036643294V47.010222582629765H152.6530612244898" stroke="rgb(31,119,180)" stroke-width="26.968794195748227"/><path d="M152.6530612244898,47.010222582629765V58.26612371275317H156.1224489795918" stroke="rgb(31,119,180)" stroke-width="27.169834385783524"/><path d="M156.1224489795918,58.26612371275317V70.5922464987953H159.59183673469389" stroke="rgb(31,119,180)" stroke-width="27.32423697048351"/><path d="M159.59183673469389,70.5922464987953V83.49718732260628H163.0612244897959" stroke="rgb(31,119,180)" stroke-width="27.445779828200493"/><path d="M163.0612244897959,83.49718732260628V96.46646691743665H166.53061224489798" stroke="rgb(31,119,180)" stroke-width="27.549550850906716"/><path d="M166.53061224489798,96.46646691743665V108.98304103276872H170" stroke="rgb(31,119,180)" stroke-width="27.651346437554036"/></g></g><g transform="translate(20, 5)"><g transform="translate(0, 160)"><text pointer-events="none" y="3" dy="0.71em" transform="translate(100)" fill="rgb(0,0,0)" text-anchor="middle">step-after</text></g><g transform="translate(0, 160)"><path d="M0,85.1110289025131H3.4693877551020407V72.16994632482216" stroke="rgb(31,119,180)" stroke-width="4"/><path d="M3.4693877551020407,72.16994632482216H6.938775510204081V59.74478387155618" stroke="rgb(31,119,180)" stroke-width="4.897338661590123"/><path d="M6.938775510204081,59.74478387155618H10.408163265306124V48.330893559859334" stroke="rgb(31,119,180)" stroke-width="5.778836684617301"/><path d="M10.408163265306124,48.330893559859334H13.877551020408163V38.38331117784524" stroke="rgb(31,119,180)" stroke-width="6.6292849467900705"/><path d="M13.877551020408163,38.38331117784524H17.346938775510203V30.298615443673356" stroke="rgb(31,119,180)" stroke-width="7.434712181799045"/><path d="M17.346938775510203,30.298615443673356H20.816326530612248V24.399117663532422" stroke="rgb(31,119,180)" stroke-width="8.182941969615793"/><path d="M20.816326530612248,24.399117663532422H24.285714285714285V20.920012196974767" stroke="rgb(31,119,180)" stroke-width="8.864078171934452"/><path d="M24.285714285714285,20.920012196974767H27.755102040816325V20" stroke="rgb(31,119,180)" stroke-width="9.47089945997692"/><path d="M27.755102040816325,20H31.224489795918366V21.675759055635012" stroke="rgb(31,119,180)" stroke-width="9.999147206083009"/><path d="M31.224489795918366,21.675759055635012H34.69387755102041V25.880482138495154" stroke="rgb(31,119,180)" stroke-width="10.44769526175639"/><path d="M34.69387755102041,25.880482138495154H38.16326530612245V32.446540208037845" stroke="rgb(31,119,180)" stroke-width="10.818594853651364"/><path d="M38.16326530612245,32.446540208037845H41.632653061224495V41.11216524942479" stroke="rgb(31,119,180)" stroke-width="11.11699280763918"/><path d="M41.632653061224495,41.11216524942479H45.102040816326536V51.53188613821702" stroke="rgb(31,119,180)" stroke-width="11.350926361102301"/><path d="M45.102040816326536,51.53188613821702H48.57142857142857V63.29030148390915" stroke="rgb(31,119,180)" stroke-width="11.53100274364293"/><path d="M48.57142857142857,63.29030148390915H52.0408163265306V75.91864037249368" stroke="rgb(31,119,180)" stroke-width="11.66997630031181"/><path d="M52.0408163265306,75.91864037249368H55.51020408163265V88.91345078351068" stroke="rgb(31,119,180)" stroke-width="11.782240016119735"/><path d="M55.51020408163265,88.91345078351068H58.97959183673469V101.7566706333684" stroke="rgb(31,119,180)" stroke-width="11.88325171314484"/><path d="M58.97959183673469,101.7566706333684H62.44897959183673V113.93628127577693" stroke="rgb(31,119,180)" stroke-width="11.988917795946337"/><path d="M62.44897959183673,113.93628127577693H65.91836734693878V124.96672006940747" stroke="rgb(31,119,180)" stroke-width="12.114959113410295"/><path d="M65.91836734693878,124.96672006940747H69.38775510204081V134.40823822812035" stroke="rgb(31,119,180)" stroke-width="12.276284218114561"/><path d="M69.38775510204081,134.40823822812035H72.85714285714285V141.88443221736128" stroke="rgb(31,119,180)" stroke-width="12.486395009384143"/><path d="M72.85714285714285,141.88443221736128H76.3265306122449V147.09724977527353" stroke="rgb(31,119,180)" stroke-width="12.756848455172824"/><path d="M76.3265306122449,147.09724977527353H79.79591836734694V149.83887231582023" stroke="rgb(31,119,180)" stroke-width="13.096795852220968"/><path d="M79.79591836734694,149.83887231582023H83.26530612244899V150" stroke="rgb(31,119,180)" stroke-width="13.512617992733071"/><path d="M83.26530612244899,150H86.73469387755102V147.57420917551244" stroke="rgb(31,119,180)" stroke-width="14.007670782328319"/><path d="M86.73469387755102,147.57420917551244H90.20408163265307V142.6582084675042" stroke="rgb(31,119,180)" stroke-width="14.582151450673724"/><path d="M90.20408163265307,142.6582084675042H93.67346938775509V135.4479833108663" stroke="rgb(31,119,180)" stroke-width="15.233090688559694"/><path d="M93.67346938775509,135.4479833108663H97.14285714285714V126.23098262941264" stroke="rgb(31,119,180)" stroke-width="15.954471024888026"/><path d="M97.14285714285714,126.23098262941264H100.61224489795919V115.37465915438517" stroke="rgb(31,119,180)" stroke-width="16.73746672425536"/><path d="M100.61224489795919,115.37465915438517H104.0816326530612V103.31182024362349" stroke="rgb(31,119,180)" stroke-width="17.570795641172488"/><path d="M104.0816326530612,103.31182024362349H107.55102040816325V90.52337321801011" stroke="rgb(31,119,180)" stroke-width="18.44116900360215"/><path d="M107.55102040816325,90.52337321801011H111.0204081632653V77.51915310417802" stroke="rgb(31,119,180)" stroke-width="19.333821194365008"/><path d="M111.0204081632653,77.51915310417802H114.48979591836734V64.81759712087606" stroke="rgb(31,119,180)" stroke-width="20.233098409700986"/><path d="M114.48979591836734,64.81759712087606H117.95918367346938V52.925076223080765" stroke="rgb(31,119,180)" stroke-width="21.123082727026755"/><path d="M117.95918367346938,52.925076223080765H121.42857142857142V42.31570768996741" stroke="rgb(31,119,180)" stroke-width="21.988226702277217"/><path d="M121.42857142857142,42.31570768996741H124.89795918367346V33.412453565152674" stroke="rgb(31,119,180)" stroke-width="22.813973197437576"/><path d="M124.89795918367346,33.412453565152674H128.3673469387755V26.570258494749908" stroke="rgb(31,119,180)" stroke-width="23.587335727698306"/><path d="M128.3673469387755,26.570258494749908H131.83673469387756V22.06189920442094" stroke="rgb(31,119,180)" stroke-width="24.297416191623256"/><path d="M131.83673469387756,22.06189920442094H135.30612244897958V20.067109752120757" stroke="rgb(31,119,180)" stroke-width="24.935839344062973"/><path d="M135.30612244897958,20.067109752120757H138.77551020408163V20.66541609839038" stroke="rgb(31,119,180)" stroke-width="25.49708669074921"/><path d="M138.77551020408163,20.66541609839038H142.24489795918367V23.832965657268943" stroke="rgb(31,119,180)" stroke-width="25.978716493246765"/><path d="M142.24489795918367,23.832965657268943H145.7142857142857V29.443478223624595" stroke="rgb(31,119,180)" stroke-width="26.381461113359546"/><path d="M145.7142857142857,29.443478223624595H149.18367346938774V37.27328036643294" stroke="rgb(31,119,180)" stroke-width="26.709197816176562"/><path d="M149.18367346938774,37.27328036643294H152.6530612244898V47.010222582629765" stroke="rgb(31,119,180)" stroke-width="26.968794195748227"/><path d="M152.6530612244898,47.010222582629765H156.1224489795918V58.26612371275317" stroke="rgb(31,119,180)" stroke-width="27.169834385783524"/><path d="M156.1224489795918,58.26612371275317H159.59183673469389V70.5922464987953" stroke="rgb(31,119,180)" stroke-width="27.32423697048351"/><path d="M159.59183673469389,70.5922464987953H163.0612244897959V83.49718732260628" stroke="rgb(31,119,180)" stroke-width="27.445779828200493"/><path d="M163.0612244897959,83.49718732260628H166.53061224489798V96.46646691743665" stroke="rgb(31,119,180)" stroke-width="27.549550850906716"/><path d="M166.53061224489798,96.46646691743665H170V108.98304103276872" stroke="rgb(31,119,180)" stroke-width="27.651346437554036"/></g></g><g transform="translate(20, 5)"><g transform="translate(210, 160)"><text pointer-events="none" y="3" dy="0.71em" transform="translate(100)" fill="rgb(0,0,0)" text-anchor="middle">polar</text></g><g transform="translate(210, 160)"><path d="M0,85.1110289025131A6.699034812528366,6.699034812528366 0 0,1 3.4693877551020407,72.16994632482216" stroke="rgb(31,119,180)" stroke-width="4"/><path d="M3.4693877551020407,72.16994632482216A6.450219247926824,6.450219247926824 0 0,1 6.938775510204081,59.74478387155618" stroke="rgb(31,119,180)" stroke-width="4.897338661590123"/><path d="M6.938775510204081,59.74478387155618A5.964762012073472,5.964762012073472 0 0,1 10.408163265306124,48.330893559859334" stroke="rgb(31,119,180)" stroke-width="5.778836684617301"/><path d="M10.408163265306124,48.330893559859334A5.2676144183636175,5.2676144183636175 0 0,1 13.877551020408163,38.38331117784524" stroke="rgb(31,119,180)" stroke-width="6.6292849467900705"/><path d="M13.877551020408163,38.38331117784524A4.398833837205865,4.398833837205865 0 0,1 17.346938775510203,30.298615443673356" stroke="rgb(31,119,180)" stroke-width="7.434712181799045"/><path d="M17.346938775510203,30.298615443673356A3.4220142260494697,3.4220142260494697 0 0,1 20.816326530612248,24.399117663532422" stroke="rgb(31,119,180)" stroke-width="8.182941969615793"/><path d="M20.816326530612248,24.399117663532422A2.456665740525322,2.456665740525322 0 0,1 24.285714285714285,20.920012196974767" stroke="rgb(31,119,180)" stroke-width="8.864078171934452"/><path d="M24.285714285714285,20.920012196974767A1.7946499545757046,1.7946499545757046 0 0,1 27.755102040816325,20" stroke="rgb(31,119,180)" stroke-width="9.47089945997692"/><path d="M27.755102040816325,20A1.926448792973403,1.926448792973403 0 0,1 31.224489795918366,21.675759055635012" stroke="rgb(31,119,180)" stroke-width="9.999147206083009"/><path d="M31.224489795918366,21.675759055635012A2.725635136935466,2.725635136935466 0 0,1 34.69387755102041,25.880482138495154" stroke="rgb(31,119,180)" stroke-width="10.44769526175639"/><path d="M34.69387755102041,25.880482138495154A3.713144555759265,3.713144555759265 0 0,1 38.16326530612245,32.446540208037845" stroke="rgb(31,119,180)" stroke-width="10.818594853651364"/><path d="M38.16326530612245,32.446540208037845A4.667164791207949,4.667164791207949 0 0,1 41.632653061224495,41.11216524942479" stroke="rgb(31,119,180)" stroke-width="11.11699280763918"/><path d="M41.632653061224495,41.11216524942479A5.4910662624754645,5.4910662624754645 0 0,1 45.102040816326536,51.53188613821702" stroke="rgb(31,119,180)" stroke-width="11.350926361102301"/><path d="M45.102040816326536,51.53188613821702A6.129783496116729,6.129783496116729 0 0,1 48.57142857142857,63.29030148390915" stroke="rgb(31,119,180)" stroke-width="11.53100274364293"/><path d="M48.57142857142857,63.29030148390915A6.548121762768857,6.548121762768857 0 0,1 52.0408163265306,75.91864037249368" stroke="rgb(31,119,180)" stroke-width="11.66997630031181"/><path d="M52.0408163265306,75.91864037249368A6.724986041129153,6.724986041129153 0 0,1 55.51020408163265,88.91345078351068" stroke="rgb(31,119,180)" stroke-width="11.782240016119735"/><path d="M55.51020408163265,88.91345078351068A6.651784488147359,6.651784488147359 0 0,1 58.97959183673469,101.7566706333684" stroke="rgb(31,119,180)" stroke-width="11.88325171314484"/><path d="M58.97959183673469,101.7566706333684A6.332052723957752,6.332052723957752 0 0,1 62.44897959183673,113.93628127577693" stroke="rgb(31,119,180)" stroke-width="11.988917795946337"/><path d="M62.44897959183673,113.93628127577693A5.78159215474599,5.78159215474599 0 0,1 65.91836734693878,124.96672006940747" stroke="rgb(31,119,180)" stroke-width="12.114959113410295"/><path d="M65.91836734693878,124.96672006940747A5.029386556443962,5.029386556443962 0 0,1 69.38775510204081,134.40823822812035" stroke="rgb(31,119,180)" stroke-width="12.276284218114561"/><path d="M69.38775510204081,134.40823822812035A4.120986773820503,4.120986773820503 0 0,1 72.85714285714285,141.88443221736128" stroke="rgb(31,119,180)" stroke-width="12.486395009384143"/><path d="M72.85714285714285,141.88443221736128A3.1308991634724608,3.1308991634724608 0 0,1 76.3265306122449,147.09724977527353" stroke="rgb(31,119,180)" stroke-width="12.756848455172824"/><path d="M76.3265306122449,147.09724977527353A2.210946943624257,2.210946943624257 0 0,1 79.79591836734694,149.83887231582023" stroke="rgb(31,119,180)" stroke-width="13.096795852220968"/><path d="M79.79591836734694,149.83887231582023A1.7365636704322969,1.7365636704322969 0 0,1 83.26530612244899,150" stroke="rgb(31,119,180)" stroke-width="13.512617992733071"/><path d="M83.26530612244899,150A2.1166667498345118,2.1166667498345118 0 0,1 86.73469387755102,147.57420917551244" stroke="rgb(31,119,180)" stroke-width="14.007670782328319"/><path d="M86.73469387755102,147.57420917551244A3.0084761240696847,3.0084761240696847 0 0,1 90.20408163265307,142.6582084675042" stroke="rgb(31,119,180)" stroke-width="14.582151450673724"/><path d="M90.20408163265307,142.6582084675042A4.000749873607006,4.000749873607006 0 0,1 93.67346938775509,135.4479833108663" stroke="rgb(31,119,180)" stroke-width="15.233090688559694"/><path d="M93.67346938775509,135.4479833108663A4.924168786637229,4.924168786637229 0 0,1 97.14285714285714,126.23098262941264" stroke="rgb(31,119,180)" stroke-width="15.954471024888026"/><path d="M97.14285714285714,126.23098262941264A5.69860532915038,5.69860532915038 0 0,1 100.61224489795919,115.37465915438517" stroke="rgb(31,119,180)" stroke-width="16.73746672425536"/><path d="M100.61224489795919,115.37465915438517A6.275920928083742,6.275920928083742 0 0,1 104.0816326530612,103.31182024362349" stroke="rgb(31,119,180)" stroke-width="17.570795641172488"/><path d="M104.0816326530612,103.31182024362349A6.625349589307943,6.625349589307943 0 0,1 107.55102040816325,90.52337321801011" stroke="rgb(31,119,180)" stroke-width="18.44116900360215"/><path d="M107.55102040816325,90.52337321801011A6.729531784683224,6.729531784683224 0 0,1 111.0204081632653,77.51915310417802" stroke="rgb(31,119,180)" stroke-width="19.333821194365008"/><path d="M111.0204081632653,77.51915310417802A6.583429497461898,6.583429497461898 0 0,1 114.48979591836734,64.81759712087606" stroke="rgb(31,119,180)" stroke-width="20.233098409700986"/><path d="M114.48979591836734,64.81759712087606A6.194124326725889,6.194124326725889 0 0,1 117.95918367346938,52.925076223080765" stroke="rgb(31,119,180)" stroke-width="21.123082727026755"/><path d="M117.95918367346938,52.925076223080765A5.581114406340989,5.581114406340989 0 0,1 121.42857142857142,42.31570768996741" stroke="rgb(31,119,180)" stroke-width="21.988226702277217"/><path d="M121.42857142857142,42.31570768996741A4.777671645432601,4.777671645432601 0 0,1 124.89795918367346,33.412453565152674" stroke="rgb(31,119,180)" stroke-width="22.813973197437576"/><path d="M124.89795918367346,33.412453565152674A3.8357621399369886,3.8357621399369886 0 0,1 128.3673469387755,26.570258494749908" stroke="rgb(31,119,180)" stroke-width="23.587335727698306"/><path d="M128.3673469387755,26.570258494749908A2.84437844203033,2.84437844203033 0 0,1 131.83673469387756,22.06189920442094" stroke="rgb(31,119,180)" stroke-width="24.297416191623256"/><path d="M131.83673469387756,22.06189920442094A2.000989527350149,2.000989527350149 0 0,1 135.30612244897958,20.067109752120757" stroke="rgb(31,119,180)" stroke-width="24.935839344062973"/><path d="M135.30612244897958,20.067109752120757A1.7602998238395733,1.7602998238395733 0 0,1 138.77551020408163,20.66541609839038" stroke="rgb(31,119,180)" stroke-width="25.49708669074921"/><path d="M138.77551020408163,20.66541609839038A2.3489370789361197,2.3489370789361197 0 0,1 142.24489795918367,23.832965657268943" stroke="rgb(31,119,180)" stroke-width="25.978716493246765"/><path d="M142.24489795918367,23.832965657268943A3.298276165381187,3.298276165381187 0 0,1 145.7142857142857,29.443478223624595" stroke="rgb(31,119,180)" stroke-width="26.381461113359546"/><path d="M145.7142857142857,29.443478223624595A4.282010421250111,4.282010421250111 0 0,1 149.18367346938774,37.27328036643294" stroke="rgb(31,119,180)" stroke-width="26.709197816176562"/><path d="M149.18367346938774,37.27328036643294A5.168285380975202,5.168285380975202 0 0,1 152.6530612244898,47.010222582629765" stroke="rgb(31,119,180)" stroke-width="26.968794195748227"/><path d="M152.6530612244898,47.010222582629765A5.889226639516542,5.889226639516542 0 0,1 156.1224489795918,58.26612371275317" stroke="rgb(31,119,180)" stroke-width="27.169834385783524"/><path d="M156.1224489795918,58.26612371275317A6.402537667437797,6.402537667437797 0 0,1 159.59183673469389,70.5922464987953" stroke="rgb(31,119,180)" stroke-width="27.32423697048351"/><path d="M159.59183673469389,70.5922464987953A6.6815819433221595,6.6815819433221595 0 0,1 163.0612244897959,83.49718732260628" stroke="rgb(31,119,180)" stroke-width="27.445779828200493"/><path d="M163.0612244897959,83.49718732260628A6.712653435939762,6.712653435939762 0 0,1 166.53061224489798,96.46646691743665" stroke="rgb(31,119,180)" stroke-width="27.549550850906716"/><path d="M166.53061224489798,96.46646691743665A6.494252824225678,6.494252824225678 0 0,1 170,108.98304103276872" stroke="rgb(31,119,180)" stroke-width="27.651346437554036"/></g></g><g transform="translate(20, 5)"><g transform="translate(0, 320)"><text pointer-events="none" y="3" dy="0.71em" transform="translate(100)" fill="rgb(0,0,0)" text-anchor="middle">polar-reverse</text></g><g transform="translate(0, 320)"><path d="M0,85.1110289025131A6.699034812528366,6.699034812528366 0 0,0 3.4693877551020407,72.16994632482216" stroke="rgb(31,119,180)" stroke-width="4"/><path d="M3.4693877551020407,72.16994632482216A6.450219247926824,6.450219247926824 0 0,0 6.938775510204081,59.74478387155618" stroke="rgb(31,119,180)" stroke-width="4.897338661590123"/><path d="M6.938775510204081,59.74478387155618A5.964762012073472,5.964762012073472 0 0,0 10.408163265306124,48.330893559859334" stroke="rgb(31,119,180)" stroke-width="5.778836684617301"/><path d="M10.408163265306124,48.330893559859334A5.2676144183636175,5.2676144183636175 0 0,0 13.877551020408163,38.38331117784524" stroke="rgb(31,119,180)" stroke-width="6.6292849467900705"/><path d="M13.877551020408163,38.38331117784524A4.398833837205865,4.398833837205865 0 0,0 17.346938775510203,30.298615443673356" stroke="rgb(31,119,180)" stroke-width="7.434712181799045"/><path d="M17.346938775510203,30.298615443673356A3.4220142260494697,3.4220142260494697 0 0,0 20.816326530612248,24.399117663532422" stroke="rgb(31,119,180)" stroke-width="8.182941969615793"/><path d="M20.816326530612248,24.399117663532422A2.456665740525322,2.456665740525322 0 0,0 24.285714285714285,20.920012196974767" stroke="rgb(31,119,180)" stroke-width="8.864078171934452"/><path d="M24.285714285714285,20.920012196974767A1.7946499545757046,1.7946499545757046 0 0,0 27.755102040816325,20" stroke="rgb(31,119,180)" stroke-width="9.47089945997692"/><path d="M27.755102040816325,20A1.926448792973403,1.926448792973403 0 0,0 31.224489795918366,21.675759055635012" stroke="rgb(31,119,180)" stroke-width="9.999147206083009"/><path d="M31.224489795918366,21.675759055635012A2.725635136935466,2.725635136935466 0 0,0 34.69387755102041,25.880482138495154" stroke="rgb(31,119,180)" stroke-width="10.44769526175639"/><path d="M34.69387755102041,25.880482138495154A3.713144555759265,3.713144555759265 0 0,0 38.16326530612245,32.446540208037845" stroke="rgb(31,119,180)" stroke-width="10.818594853651364"/><path d="M38.16326530612245,32.446540208037845A4.667164791207949,4.667164791207949 0 0,0 41.632653061224495,41.11216524942479" stroke="rgb(31,119,180)" stroke-width="11.11699280763918"/><path d="M41.632653061224495,41.11216524942479A5.4910662624754645,5.4910662624754645 0 0,0 45.102040816326536,51.53188613821702" stroke="rgb(31,119,180)" stroke-width="11.350926361102301"/><path d="M45.102040816326536,51.53188613821702A6.129783496116729,6.129783496116729 0 0,0 48.57142857142857,63.29030148390915" stroke="rgb(31,119,180)" stroke-width="11.53100274364293"/><path d="M48.57142857142857,63.29030148390915A6.548121762768857,6.548121762768857 0 0,0 52.0408163265306,75.91864037249368" stroke="rgb(31,119,180)" stroke-width="11.66997630031181"/><path d="M52.0408163265306,75.91864037249368A6.724986041129153,6.724986041129153 0 0,0 55.51020408163265,88.91345078351068" stroke="rgb(31,119,180)" stroke-width="11.782240016119735"/><path d="M55.51020408163265,88.91345078351068A6.651784488147359,6.651784488147359 0 0,0 58.97959183673469,101.7566706333684" stroke="rgb(31,119,180)" stroke-width="11.88325171314484"/><path d="M58.97959183673469,101.7566706333684A6.332052723957752,6.332052723957752 0 0,0 62.44897959183673,113.93628127577693" stroke="rgb(31,119,180)" stroke-width="11.988917795946337"/><path d="M62.44897959183673,113.93628127577693A5.78159215474599,5.78159215474599 0 0,0 65.91836734693878,124.96672006940747" stroke="rgb(31,119,180)" stroke-width="12.114959113410295"/><path d="M65.91836734693878,124.96672006940747A5.029386556443962,5.029386556443962 0 0,0 69.38775510204081,134.40823822812035" stroke="rgb(31,119,180)" stroke-width="12.276284218114561"/><path d="M69.38775510204081,134.40823822812035A4.120986773820503,4.120986773820503 0 0,0 72.85714285714285,141.88443221736128" stroke="rgb(31,119,180)" stroke-width="12.486395009384143"/><path d="M72.85714285714285,141.88443221736128A3.1308991634724608,3.1308991634724608 0 0,0 76.3265306122449,147.09724977527353" stroke="rgb(31,119,180)" stroke-width="12.756848455172824"/><path d="M76.3265306122449,147.09724977527353A2.210946943624257,2.210946943624257 0 0,0 79.79591836734694,149.83887231582023" stroke="rgb(31,119,180)" stroke-width="13.096795852220968"/><path d="M79.79591836734694,149.83887231582023A1.7365636704322969,1.7365636704322969 0 0,0 83.26530612244899,150" stroke="rgb(31,119,180)" stroke-width="13.512617992733071"/><path d="M83.26530612244899,150A2.1166667498345118,2.1166667498345118 0 0,0 86.73469387755102,147.57420917551244" stroke="rgb(31,119,180)" stroke-width="14.007670782328319"/><path d="M86.73469387755102,147.57420917551244A3.0084761240696847,3.0084761240696847 0 0,0 90.20408163265307,142.6582084675042" stroke="rgb(31,119,180)" stroke-width="14.582151450673724"/><path d="M90.20408163265307,142.6582084675042A4.000749873607006,4.000749873607006 0 0,0 93.67346938775509,135.4479833108663" stroke="rgb(31,119,180)" stroke-width="15.233090688559694"/><path d="M93.67346938775509,135.4479833108663A4.924168786637229,4.924168786637229 0 0,0 97.14285714285714,126.23098262941264" stroke="rgb(31,119,180)" stroke-width="15.954471024888026"/><path d="M97.14285714285714,126.23098262941264A5.69860532915038,5.69860532915038 0 0,0 100.61224489795919,115.37465915438517" stroke="rgb(31,119,180)" stroke-width="16.73746672425536"/><path d="M100.61224489795919,115.37465915438517A6.275920928083742,6.275920928083742 0 0,0 104.0816326530612,103.31182024362349" stroke="rgb(31,119,180)" stroke-width="17.570795641172488"/><path d="M104.0816326530612,103.31182024362349A6.625349589307943,6.625349589307943 0 0,0 107.55102040816325,90.52337321801011" stroke="rgb(31,119,180)" stroke-width="18.44116900360215"/><path d="M107.55102040816325,90.52337321801011A6.729531784683224,6.729531784683224 0 0,0 111.0204081632653,77.51915310417802" stroke="rgb(31,119,180)" stroke-width="19.333821194365008"/><path d="M111.0204081632653,77.51915310417802A6.583429497461898,6.583429497461898 0 0,0 114.48979591836734,64.81759712087606" stroke="rgb(31,119,180)" stroke-width="20.233098409700986"/><path d="M114.48979591836734,64.81759712087606A6.194124326725889,6.194124326725889 0 0,0 117.95918367346938,52.925076223080765" stroke="rgb(31,119,180)" stroke-width="21.123082727026755"/><path d="M117.95918367346938,52.925076223080765A5.581114406340989,5.581114406340989 0 0,0 121.42857142857142,42.31570768996741" stroke="rgb(31,119,180)" stroke-width="21.988226702277217"/><path d="M121.42857142857142,42.31570768996741A4.777671645432601,4.777671645432601 0 0,0 124.89795918367346,33.412453565152674" stroke="rgb(31,119,180)" stroke-width="22.813973197437576"/><path d="M124.89795918367346,33.412453565152674A3.8357621399369886,3.8357621399369886 0 0,0 128.3673469387755,26.570258494749908" stroke="rgb(31,119,180)" stroke-width="23.587335727698306"/><path d="M128.3673469387755,26.570258494749908A2.84437844203033,2.84437844203033 0 0,0 131.83673469387756,22.06189920442094" stroke="rgb(31,119,180)" stroke-width="24.297416191623256"/><path d="M131.83673469387756,22.06189920442094A2.000989527350149,2.000989527350149 0 0,0 135.30612244897958,20.067109752120757" stroke="rgb(31,119,180)" stroke-width="24.935839344062973"/><path d="M135.30612244897958,20.067109752120757A1.7602998238395733,1.7602998238395733 0 0,0 138.77551020408163,20.66541609839038" stroke="rgb(31,119,180)" stroke-width="25.49708669074921"/><path d="M138.77551020408163,20.66541609839038A2.3489370789361197,2.3489370789361197 0 0,0 142.24489795918367,23.832965657268943" stroke="rgb(31,119,180)" stroke-width="25.978716493246765"/><path d="M142.24489795918367,23.832965657268943A3.298276165381187,3.298276165381187 0 0,0 145.7142857142857,29.443478223624595" stroke="rgb(31,119,180)" stroke-width="26.381461113359546"/><path d="M145.7142857142857,29.443478223624595A4.282010421250111,4.282010421250111 0 0,0 149.18367346938774,37.27328036643294" stroke="rgb(31,119,180)" stroke-width="26.709197816176562"/><path d="M149.18367346938774,37.27328036643294A5.168285380975202,5.168285380975202 0 0,0 152.6530612244898,47.010222582629765" stroke="rgb(31,119,180)" stroke-width="26.968794195748227"/><path d="M152.6530612244898,47.010222582629765A5.889226639516542,5.889226639516542 0 0,0 156.1224489795918,58.26612371275317" stroke="rgb(31,119,180)" stroke-width="27.169834385783524"/><path d="M156.1224489795918,58.26612371275317A6.402537667437797,6.402537667437797 0 0,0 159.59183673469389,70.5922464987953" stroke="rgb(31,119,180)" stroke-width="27.32423697048351"/><path d="M159.59183673469389,70.5922464987953A6.6815819433221595,6.6815819433221595 0 0,0 163.0612244897959,83.49718732260628" stroke="rgb(31,119,180)" stroke-width="27.445779828200493"/><path d="M163.0612244897959,83.49718732260628A6.712653435939762,6.712653435939762 0 0,0 166.53061224489798,96.46646691743665" stroke="rgb(31,119,180)" stroke-width="27.549550850906716"/><path d="M166.53061224489798,96.46646691743665A6.494252824225678,6.494252824225678 0 0,0 170,108.98304103276872" stroke="rgb(31,119,180)" stroke-width="27.651346437554036"/></g></g><g transform="translate(20, 5)"><g transform="translate(210, 320)"><text pointer-events="none" y="3" dy="0.71em" transform="translate(100)" fill="rgb(0,0,0)" text-anchor="middle">basis</text></g><g transform="translate(210, 320)"><path d="M0,85.1110289025131C0,85.11102890251308,0,85.11102890251308,0.5782312925170068,82.95418180623128C1.1564625850340136,80.79733470994944,2.312925170068027,76.4836405173858,3.4693877551020407,72.25593301222632" stroke="rgb(31,119,180)" stroke-width="4"/><path d="M3.4693877551020407,72.25593301222632C4.625850340136054,68.02822550706682,5.782312925170068,63.8865046893115,6.938775510204081,59.913329228484365" stroke="rgb(31,119,180)" stroke-width="4.897338661590123"/><path d="M6.938775510204081,59.913329228484365C8.095238095238095,55.94015376765722,9.251700680272108,52.13552366375828,10.408163265306122,48.57527821480645" stroke="rgb(31,119,180)" stroke-width="5.778836684617301"/><path d="M10.408163265306122,48.57527821480645C11.564625850340136,45.015032765854635,12.72108843537415,41.699171971849935,13.877551020408163,38.693792285818944" stroke="rgb(31,119,180)" stroke-width="6.6292849467900705"/><path d="M13.877551020408163,38.693792285818944C15.034013605442176,35.688412599787945,16.19047619047619,32.99351402173065,17.346938775510203,30.662815102678515" stroke="rgb(31,119,180)" stroke-width="7.434712181799045"/><path d="M17.346938775510203,30.662815102678515C18.503401360544217,28.332116183626376,19.65986394557823,26.365616923579395,20.816326530612248,24.802516382462965" stroke="rgb(31,119,180)" stroke-width="8.182941969615793"/><path d="M20.816326530612248,24.802516382462965C21.972789115646258,23.239415841346535,23.12925170068027,22.07971401916065,24.285714285714285,21.346527741905245" stroke="rgb(31,119,180)" stroke-width="8.864078171934452"/><path d="M24.285714285714285,21.346527741905245C25.4421768707483,20.613341464649842,26.598639455782312,20.30667073232492,27.755102040816325,20.43262854210163" stroke="rgb(31,119,180)" stroke-width="9.47089945997692"/><path d="M27.755102040816325,20.43262854210163C28.91156462585034,20.558586351878336,30.068027210884352,21.117172703756673,31.224489795918366,22.097253060172534" stroke="rgb(31,119,180)" stroke-width="9.999147206083009"/><path d="M31.224489795918366,22.097253060172534C32.38095238095238,23.07733341658839,33.53741496598639,24.47890777754177,34.69387755102041,26.27403796960891" stroke="rgb(31,119,180)" stroke-width="10.44769526175639"/><path d="M34.69387755102041,26.27403796960891C35.85034013605442,28.069168161676046,37.006802721088434,30.257854184856946,38.16326530612245,32.796468036678554" stroke="rgb(31,119,180)" stroke-width="10.818594853651364"/><path d="M38.16326530612245,32.796468036678554C39.31972789115646,35.335081888500156,40.47619047619048,38.22362356896247,41.632653061224495,41.40451455732567" stroke="rgb(31,119,180)" stroke-width="11.11699280763918"/><path d="M41.632653061224495,41.40451455732567C42.78911564625851,44.585405545688864,43.94557823129252,48.05864584195294,45.102040816326536,51.755001881033664" stroke="rgb(31,119,180)" stroke-width="11.350926361102301"/><path d="M45.102040816326536,51.755001881033664C46.25850340136054,55.45135792011439,47.414965986394556,59.37082970201177,48.57142857142857,63.43528874105788" stroke="rgb(31,119,180)" stroke-width="11.53100274364293"/><path d="M48.57142857142857,63.43528874105788C49.727891156462576,67.49974778010399,50.88435374149659,71.70919407629884,52.0408163265306,75.97971895956576" stroke="rgb(31,119,180)" stroke-width="11.66997630031181"/><path d="M52.0408163265306,75.97971895956576C53.19727891156462,80.25024384283267,54.35374149659863,84.58184731317168,55.51020408163265,88.88818568998414" stroke="rgb(31,119,180)" stroke-width="11.782240016119735"/><path d="M55.51020408163265,88.88818568998414C56.666666666666664,93.19452406679659,57.82312925170068,97.4755973500825,58.97959183673469,101.64606909879353" stroke="rgb(31,119,180)" stroke-width="11.88325171314484"/><path d="M58.97959183673469,101.64606909879353C60.136054421768705,105.81654084750457,61.29251700680272,109.87641106164075,62.44897959183673,113.74475263431393" stroke="rgb(31,119,180)" stroke-width="11.988917795946337"/><path d="M62.44897959183673,113.74475263431393C63.605442176870746,117.61309420698711,64.76190476190476,121.2899071381973,65.91836734693877,124.70189996358785" stroke="rgb(31,119,180)" stroke-width="12.114959113410295"/><path d="M65.91836734693877,124.70189996358785C67.07482993197279,128.11389278897843,68.2312925170068,131.2610655085494,69.38775510204081,134.080684199875" stroke="rgb(31,119,180)" stroke-width="12.276284218114561"/><path d="M69.38775510204081,134.080684199875C70.54421768707482,136.90030289120065,71.70068027210883,139.39236755428095,72.85714285714285,141.5072028121398" stroke="rgb(31,119,180)" stroke-width="12.486395009384143"/><path d="M72.85714285714285,141.5072028121398C74.01360544217687,143.62203806999867,75.17006802721087,145.3596439226361,76.3265306122449,146.68538393904592" stroke="rgb(31,119,180)" stroke-width="12.756848455172824"/><path d="M76.3265306122449,146.68538393904592C77.48299319727892,148.01112395545573,78.63945578231292,148.92499813563796,79.79591836734693,149.40878983975907" stroke="rgb(31,119,180)" stroke-width="13.096795852220968"/><path d="M79.79591836734693,149.40878983975907C80.95238095238095,149.89258154388014,82.10884353741497,149.94629077194008,83.26530612244898,149.5688469152221" stroke="rgb(31,119,180)" stroke-width="13.512617992733071"/><path d="M83.26530612244898,149.5688469152221C84.421768707483,149.19140305850414,85.578231292517,148.38280611700827,86.73469387755102,147.15917419492564" stroke="rgb(31,119,180)" stroke-width="14.007670782328319"/><path d="M86.73469387755102,147.15917419492564C87.89115646258503,145.935542272843,89.04761904761905,144.2968753701736,90.20408163265307,142.27583772606593" stroke="rgb(31,119,180)" stroke-width="14.582151450673724"/><path d="M90.20408163265307,142.27583772606593C91.36054421768708,140.25480008195825,92.51700680272108,137.85139169641226,93.67346938775509,135.11352072339702" stroke="rgb(31,119,180)" stroke-width="15.233090688559694"/><path d="M93.67346938775509,135.11352072339702C94.8299319727891,132.37564975038174,95.98639455782312,129.3033161898972,97.14285714285714,125.95776216381701" stroke="rgb(31,119,180)" stroke-width="15.954471024888026"/><path d="M97.14285714285714,125.95776216381701C98.29931972789115,122.61220813773681,99.45578231292517,118.99343364606099,100.61224489795917,115.17357324842946" stroke="rgb(31,119,180)" stroke-width="16.73746672425536"/><path d="M100.61224489795917,115.17357324842946C101.7687074829932,111.35371285079793,102.9251700680272,107.33276654721071,104.0816326530612,103.19088555781487" stroke="rgb(31,119,180)" stroke-width="17.570795641172488"/><path d="M104.0816326530612,103.19088555781487C105.23809523809521,99.04900456841902,106.39455782312922,94.78618889321456,107.55102040816324,90.48741103664031" stroke="rgb(31,119,180)" stroke-width="18.44116900360215"/><path d="M107.55102040816324,90.48741103664031C108.70748299319726,86.18863318006608,109.86394557823128,81.85389314212205,111.02040816326529,77.56959712593304" stroke="rgb(31,119,180)" stroke-width="19.333821194365008"/><path d="M111.02040816326529,77.56959712593304C112.17687074829931,73.28530110974403,113.33333333333331,69.05144911531005,114.48979591836732,64.95243630179384" stroke="rgb(31,119,180)" stroke-width="20.233098409700986"/><path d="M114.48979591836732,64.95243630179384C115.64625850340134,60.85342348827763,116.80272108843536,56.889249855679196,117.95918367346937,53.13893495052775" stroke="rgb(31,119,180)" stroke-width="21.123082727026755"/><path d="M117.95918367346937,53.13893495052775C119.11564625850339,49.388620045376314,120.2721088435374,45.85216386767186,121.4285714285714,42.60006009135051" stroke="rgb(31,119,180)" stroke-width="21.988226702277217"/><path d="M121.4285714285714,42.60006009135051C122.58503401360542,39.347956315029165,123.74149659863944,36.38020494009092,124.89795918367346,33.75596340755467" stroke="rgb(31,119,180)" stroke-width="22.813973197437576"/><path d="M124.89795918367346,33.75596340755467C126.05442176870747,31.131721875018414,127.21088435374149,28.85099018488416,128.3673469387755,26.95923112476221" stroke="rgb(31,119,180)" stroke-width="23.587335727698306"/><path d="M128.3673469387755,26.95923112476221C129.52380952380952,25.06747206464025,130.68027210884352,23.564685634530594,131.83673469387753,22.48082751075907" stroke="rgb(31,119,180)" stroke-width="24.297416191623256"/><path d="M131.83673469387753,22.48082751075907C132.99319727891157,21.396969386987543,134.14965986394554,20.73203956955415,135.30612244897958,20.499292385215725" stroke="rgb(31,119,180)" stroke-width="24.935839344062973"/><path d="M135.30612244897958,20.499292385215725C136.46258503401359,20.266545200877296,137.6190476190476,20.46598064963384,138.77551020408163,21.09362330049187" stroke="rgb(31,119,180)" stroke-width="25.49708669074921"/><path d="M138.77551020408163,21.09362330049187C139.93197278911563,21.7212659513499,141.08843537414964,22.77711580430942,142.24489795918367,24.240126158515125" stroke="rgb(31,119,180)" stroke-width="25.978716493246765"/><path d="M142.24489795918367,24.240126158515125C143.40136054421768,25.703136512720825,144.5578231292517,27.57330736817271,145.7142857142857,29.813359819700047" stroke="rgb(31,119,180)" stroke-width="26.381461113359546"/><path d="M145.7142857142857,29.813359819700047C146.8707482993197,32.05341227122737,148.0272108843537,34.66334631883016,149.1836734693877,37.59113704533102" stroke="rgb(31,119,180)" stroke-width="26.709197816176562"/><path d="M149.1836734693877,37.59113704533102C150.34013605442175,40.51892777183188,151.49659863945578,43.764575177230824,152.6530612244898,47.26338240161752" stroke="rgb(31,119,180)" stroke-width="26.968794195748227"/><path d="M152.6530612244898,47.26338240161752C153.8095238095238,50.76218962600423,154.9659863945578,54.51415666937869,156.12244897959184,58.444493988739616" stroke="rgb(31,119,180)" stroke-width="27.169834385783524"/><path d="M156.12244897959184,58.444493988739616C157.27891156462584,62.37483130810054,158.43537414965985,66.48353890344792,159.59183673469386,70.68871617175678" stroke="rgb(31,119,180)" stroke-width="27.32423697048351"/><path d="M159.59183673469386,70.68871617175678C160.7482993197279,74.89389344006563,161.90476190476187,79.19554038133595,163.0612244897959,83.50791045110951" stroke="rgb(31,119,180)" stroke-width="27.445779828200493"/><path d="M163.0612244897959,83.50791045110951C164.2176870748299,87.82028052088306,165.37414965986395,92.14337371915985,166.53061224489798,96.39101600418692" stroke="rgb(31,119,180)" stroke-width="27.549550850906716"/><path d="M166.53061224489798,96.39101600418692C167.687074829932,100.63865828921399,168.843537414966,104.81084966099135,169.421768707483,106.89694534688003C170,108.98304103276871,170,108.98304103276871,170,108.98304103276871" stroke="rgb(31,119,180)" stroke-width="27.651346437554036"/></g></g><g transform="translate(20, 5)"><g transform="translate(0, 480)"><text pointer-events="none" y="3" dy="0.71em" transform="translate(100)" fill="rgb(0,0,0)" text-anchor="middle">cardinal</text></g><g transform="translate(0, 480)"><path d="M0,85.1110289025131Q2.7755102040816326,74.70657082791786,3.4693877551020407,72.16994632482216" stroke="rgb(31,119,180)" stroke-width="4"/><path d="M3.4693877551020407,72.16994632482216C4.5102040816326525,68.36500957017863,5.897959183673469,63.320641786300605,6.938775510204081,59.74478387155618" stroke="rgb(31,119,180)" stroke-width="4.897338661590123"/><path d="M6.938775510204081,59.74478387155618C7.979591836734694,56.168925956811755,9.367346938775512,51.535114463915974,10.408163265306124,48.330893559859334" stroke="rgb(31,119,180)" stroke-width="5.778836684617301"/><path d="M10.408163265306124,48.330893559859334C11.448979591836736,45.12667265580269,12.83673469387755,41.08815289527314,13.877551020408163,38.38331117784524" stroke="rgb(31,119,180)" stroke-width="6.6292849467900705"/><path d="M13.877551020408163,38.38331117784524C14.918367346938775,35.67846946041735,16.30612244897959,32.39624447082028,17.346938775510203,30.298615443673356" stroke="rgb(31,119,180)" stroke-width="7.434712181799045"/><path d="M17.346938775510203,30.298615443673356C18.387755102040817,28.200986416526433,19.775510204081634,25.80590815053721,20.816326530612248,24.399117663532422" stroke="rgb(31,119,180)" stroke-width="8.182941969615793"/><path d="M20.816326530612248,24.399117663532422C21.85714285714286,22.992327176527635,23.244897959183675,21.57987984650463,24.285714285714285,20.920012196974767" stroke="rgb(31,119,180)" stroke-width="8.864078171934452"/><path d="M24.285714285714285,20.920012196974767C25.326530612244895,20.260144547444902,26.71428571428571,19.88663797120096,27.755102040816325,20" stroke="rgb(31,119,180)" stroke-width="9.47089945997692"/><path d="M27.755102040816325,20C28.79591836734694,20.11336202879904,30.183673469387752,20.79368673486074,31.224489795918366,21.675759055635012" stroke="rgb(31,119,180)" stroke-width="9.999147206083009"/><path d="M31.224489795918366,21.675759055635012C32.265306122448976,22.557831376409286,33.6530612244898,24.26486496563473,34.69387755102041,25.880482138495154" stroke="rgb(31,119,180)" stroke-width="10.44769526175639"/><path d="M34.69387755102041,25.880482138495154C35.73469387755102,27.49609931135558,37.12244897959184,30.1617877413984,38.16326530612245,32.446540208037845" stroke="rgb(31,119,180)" stroke-width="10.818594853651364"/><path d="M38.16326530612245,32.446540208037845C39.20408163265306,34.73129267467729,40.591836734693885,38.24936335989791,41.632653061224495,41.11216524942479" stroke="rgb(31,119,180)" stroke-width="11.11699280763918"/><path d="M41.632653061224495,41.11216524942479C42.673469387755105,43.97496713895167,44.061224489795926,48.205165703044365,45.102040816326536,51.53188613821702" stroke="rgb(31,119,180)" stroke-width="11.350926361102301"/><path d="M45.102040816326536,51.53188613821702C46.142857142857146,54.85860657338967,47.53061224489796,59.632288348767645,48.57142857142857,63.29030148390915" stroke="rgb(31,119,180)" stroke-width="11.53100274364293"/><path d="M48.57142857142857,63.29030148390915C49.61224489795918,66.94831461905065,50.99999999999999,72.07516797755345,52.0408163265306,75.91864037249368" stroke="rgb(31,119,180)" stroke-width="11.66997630031181"/><path d="M52.0408163265306,75.91864037249368C53.08163265306121,79.76211276743392,54.46938775510204,85.03774624437948,55.51020408163265,88.91345078351068" stroke="rgb(31,119,180)" stroke-width="11.782240016119735"/><path d="M55.51020408163265,88.91345078351068C56.55102040816326,92.78915532264189,57.93877551020408,98.00324605952846,58.97959183673469,101.7566706333684" stroke="rgb(31,119,180)" stroke-width="11.88325171314484"/><path d="M58.97959183673469,101.7566706333684C60.0204081632653,105.51009520720834,61.40816326530612,110.45477386037108,62.44897959183673,113.93628127577693" stroke="rgb(31,119,180)" stroke-width="11.988917795946337"/><path d="M62.44897959183673,113.93628127577693C63.48979591836734,117.41778869118279,64.87755102040816,121.89592652655595,65.91836734693878,124.96672006940747" stroke="rgb(31,119,180)" stroke-width="12.114959113410295"/><path d="M65.91836734693878,124.96672006940747C66.9591836734694,128.03751361225898,68.3469387755102,131.87058140592728,69.38775510204081,134.40823822812035" stroke="rgb(31,119,180)" stroke-width="12.276284218114561"/><path d="M69.38775510204081,134.40823822812035C70.42857142857143,136.94589505031342,71.81632653061223,139.98108048528832,72.85714285714285,141.88443221736128" stroke="rgb(31,119,180)" stroke-width="12.486395009384143"/><path d="M72.85714285714285,141.88443221736128C73.89795918367346,143.78778394943424,75.28571428571428,145.90408376050468,76.3265306122449,147.09724977527353" stroke="rgb(31,119,180)" stroke-width="12.756848455172824"/><path d="M76.3265306122449,147.09724977527353C77.36734693877551,148.29041579004237,78.75510204081633,149.40345978211124,79.79591836734694,149.83887231582023" stroke="rgb(31,119,180)" stroke-width="13.096795852220968"/><path d="M79.79591836734694,149.83887231582023C80.83673469387756,150.2742848495292,82.22448979591837,150.33969947104617,83.26530612244899,150" stroke="rgb(31,119,180)" stroke-width="13.512617992733071"/><path d="M83.26530612244899,150C84.30612244897961,149.66030052895383,85.6938775510204,148.6754779053868,86.73469387755102,147.57420917551244" stroke="rgb(31,119,180)" stroke-width="14.007670782328319"/><path d="M86.73469387755102,147.57420917551244C87.77551020408164,146.47294044563807,89.16326530612245,144.47714234720112,90.20408163265307,142.6582084675042" stroke="rgb(31,119,180)" stroke-width="14.582151450673724"/><path d="M90.20408163265307,142.6582084675042C91.24489795918369,140.8392745878073,92.63265306122447,137.91206718658003,93.67346938775509,135.4479833108663" stroke="rgb(31,119,180)" stroke-width="15.233090688559694"/><path d="M93.67346938775509,135.4479833108663C94.71428571428571,132.98389943515258,96.10204081632652,129.2419812528848,97.14285714285714,126.23098262941264" stroke="rgb(31,119,180)" stroke-width="15.954471024888026"/><path d="M97.14285714285714,126.23098262941264C98.18367346938776,123.21998400594046,99.57142857142857,118.81253351225354,100.61224489795919,115.37465915438517" stroke="rgb(31,119,180)" stroke-width="16.73746672425536"/><path d="M100.61224489795919,115.37465915438517C101.6530612244898,111.9367847965168,103.04081632653059,107.03951313407974,104.0816326530612,103.31182024362349" stroke="rgb(31,119,180)" stroke-width="17.570795641172488"/><path d="M104.0816326530612,103.31182024362349C105.12244897959182,99.58412735316723,106.51020408163264,94.39227328892693,107.55102040816325,90.52337321801011" stroke="rgb(31,119,180)" stroke-width="18.44116900360215"/><path d="M107.55102040816325,90.52337321801011C108.59183673469387,86.65447314709328,109.97959183673468,81.37501951874812,111.0204081632653,77.51915310417802" stroke="rgb(31,119,180)" stroke-width="19.333821194365008"/><path d="M111.0204081632653,77.51915310417802C112.06122448979592,73.66328668960792,113.44897959183672,68.50670865304065,114.48979591836734,64.81759712087606" stroke="rgb(31,119,180)" stroke-width="20.233098409700986"/><path d="M114.48979591836734,64.81759712087606C115.53061224489795,61.12848558871147,116.91836734693877,56.300359637717065,117.95918367346938,52.925076223080765" stroke="rgb(31,119,180)" stroke-width="21.123082727026755"/><path d="M117.95918367346938,52.925076223080765C119,49.549792808444465,120.3877551020408,45.24260108865663,121.42857142857142,42.31570768996741" stroke="rgb(31,119,180)" stroke-width="21.988226702277217"/><path d="M121.42857142857142,42.31570768996741C122.46938775510203,39.388814291278194,123.85714285714285,35.7742709444353,124.89795918367346,33.412453565152674" stroke="rgb(31,119,180)" stroke-width="22.813973197437576"/><path d="M124.89795918367346,33.412453565152674C125.93877551020408,31.050636185870047,127.3265306122449,28.272841648859668,128.3673469387755,26.570258494749908" stroke="rgb(31,119,180)" stroke-width="23.587335727698306"/><path d="M128.3673469387755,26.570258494749908C129.40816326530611,24.867675340640147,130.79591836734696,23.037371515815313,131.83673469387756,22.06189920442094" stroke="rgb(31,119,180)" stroke-width="24.297416191623256"/><path d="M131.83673469387756,22.06189920442094C132.87755102040816,21.086426893026566,134.26530612244898,20.27658221802534,135.30612244897958,20.067109752120757" stroke="rgb(31,119,180)" stroke-width="24.935839344062973"/><path d="M135.30612244897958,20.067109752120757C136.34693877551018,19.857637286216175,137.73469387755102,20.100537712618152,138.77551020408163,20.66541609839038" stroke="rgb(31,119,180)" stroke-width="25.49708669074921"/><path d="M138.77551020408163,20.66541609839038C139.81632653061223,21.23029448416261,141.20408163265307,22.51625633848381,142.24489795918367,23.832965657268943" stroke="rgb(31,119,180)" stroke-width="25.978716493246765"/><path d="M142.24489795918367,23.832965657268943C143.28571428571428,25.149674976054076,144.6734693877551,27.427431017249994,145.7142857142857,29.443478223624595" stroke="rgb(31,119,180)" stroke-width="26.381461113359546"/><path d="M145.7142857142857,29.443478223624595C146.7551020408163,31.459525429999196,148.14285714285714,34.63826871258217,149.18367346938774,37.27328036643294" stroke="rgb(31,119,180)" stroke-width="26.709197816176562"/><path d="M149.18367346938774,37.27328036643294C150.22448979591834,39.90829202028372,151.6122448979592,43.86129608068173,152.6530612244898,47.010222582629765" stroke="rgb(31,119,180)" stroke-width="26.968794195748227"/><path d="M152.6530612244898,47.010222582629765C153.6938775510204,50.1591490845778,155.0816326530612,54.72882012532834,156.1224489795918,58.26612371275317" stroke="rgb(31,119,180)" stroke-width="27.169834385783524"/><path d="M156.1224489795918,58.26612371275317C157.1632653061224,61.803427300178,158.55102040816328,66.80758695731734,159.59183673469389,70.5922464987953" stroke="rgb(31,119,180)" stroke-width="27.32423697048351"/><path d="M159.59183673469389,70.5922464987953C160.6326530612245,74.37690604027327,162.0204081632653,79.61605425981008,163.0612244897959,83.49718732260628" stroke="rgb(31,119,180)" stroke-width="27.445779828200493"/><path d="M163.0612244897959,83.49718732260628C164.1020408163265,87.37832038540247,165.48979591836738,92.64358886091227,166.53061224489798,96.46646691743665" stroke="rgb(31,119,180)" stroke-width="27.549550850906716"/><path d="M166.53061224489798,96.46646691743665Q167.2244897959184,99.01505228845289,170,108.98304103276872" stroke="rgb(31,119,180)" stroke-width="27.651346437554036"/></g></g><g transform="translate(20, 5)"><g transform="translate(210, 480)"><text pointer-events="none" y="3" dy="0.71em" transform="translate(100)" fill="rgb(0,0,0)" text-anchor="middle">monotone</text></g><g transform="translate(210, 480)"><path d="M0,85.1110289025131C0.07754482293593522,84.82178076194114,3.3888783390864137,72.46426649283283,3.4693877551020407,72.16994632482216" stroke="rgb(31,119,180)" stroke-width="4"/><path d="M3.4693877551020407,72.16994632482216C3.5498971711176677,71.87562615681149,6.848451858488558,60.0551023558484,6.938775510204081,59.74478387155618" stroke="rgb(31,119,180)" stroke-width="4.897338661590123"/><path d="M6.938775510204081,59.74478387155618C7.029099161919604,59.43446538726396,10.297788121695682,48.670690633972995,10.408163265306124,48.330893559859334" stroke="rgb(31,119,180)" stroke-width="5.778836684617301"/><path d="M10.408163265306124,48.330893559859334C10.518538408916566,47.99109648574567,13.728399380441365,38.77092190965395,13.877551020408163,38.38331117784524" stroke="rgb(31,119,180)" stroke-width="6.6292849467900705"/><path d="M13.877551020408163,38.38331117784524C14.02670266037496,37.99570044603654,17.118466180112033,30.75907204470718,17.346938775510203,30.298615443673356" stroke="rgb(31,119,180)" stroke-width="7.434712181799045"/><path d="M17.346938775510203,30.298615443673356C17.575411370908373,29.83815884263953,20.40723187609273,24.95205909382391,20.816326530612248,24.399117663532422" stroke="rgb(31,119,180)" stroke-width="8.182941969615793"/><path d="M20.816326530612248,24.399117663532422C21.225421185131765,23.846176233240936,23.4608149768202,21.442990511384153,24.285714285714285,20.920012196974767" stroke="rgb(31,119,180)" stroke-width="8.864078171934452"/><path d="M24.285714285714285,20.920012196974767C25.11061359460837,20.39703388256538,26.6121974981342,19.875518884187805,27.755102040816325,20" stroke="rgb(31,119,180)" stroke-width="9.47089945997692"/><path d="M27.755102040816325,20C28.89800658349845,20.124481115812195,30.551433040792613,21.105356075903206,31.224489795918366,21.675759055635012" stroke="rgb(31,119,180)" stroke-width="9.999147206083009"/><path d="M31.224489795918366,21.675759055635012C31.89754655104412,22.24616203536682,34.354690221479856,25.353975337579538,34.69387755102041,25.880482138495154" stroke="rgb(31,119,180)" stroke-width="10.44769526175639"/><path d="M34.69387755102041,25.880482138495154C35.03306488056096,26.40698893941077,37.96451608703681,32.01025499904021,38.16326530612245,32.446540208037845" stroke="rgb(31,119,180)" stroke-width="10.818594853651364"/><path d="M38.16326530612245,32.446540208037845C38.36201452520808,32.882825417035484,41.497638152666,40.74080199782788,41.632653061224495,41.11216524942479" stroke="rgb(31,119,180)" stroke-width="11.11699280763918"/><path d="M41.632653061224495,41.11216524942479C41.76766796978299,41.4835285010217,44.99893329048249,51.20232759411842,45.102040816326536,51.53188613821702" stroke="rgb(31,119,180)" stroke-width="11.350926361102301"/><path d="M45.102040816326536,51.53188613821702C45.20514834217058,51.861444682315614,48.48481606734639,62.98589649954823,48.57142857142857,63.29030148390915" stroke="rgb(31,119,180)" stroke-width="11.53100274364293"/><path d="M48.57142857142857,63.29030148390915C48.65804107551075,63.59470646827006,51.96180348477473,75.62686586012919,52.0408163265306,75.91864037249368" stroke="rgb(31,119,180)" stroke-width="11.66997630031181"/><path d="M52.0408163265306,75.91864037249368C52.11982916828648,76.21041488485818,55.43241195338116,88.62377498107783,55.51020408163265,88.91345078351068" stroke="rgb(31,119,180)" stroke-width="11.782240016119735"/><path d="M55.51020408163265,88.91345078351068C55.58799620988414,89.20312658594354,58.89701629904309,101.458884132072,58.97959183673469,101.7566706333684" stroke="rgb(31,119,180)" stroke-width="11.88325171314484"/><path d="M58.97959183673469,101.7566706333684C59.062167374426295,102.0544571346648,62.35410106533613,113.61891471920524,62.44897959183673,113.93628127577693" stroke="rgb(31,119,180)" stroke-width="11.988917795946337"/><path d="M62.44897959183673,113.93628127577693C62.54385811833733,114.25364783234863,65.79920195212746,124.61513803174121,65.91836734693878,124.96672006940747" stroke="rgb(31,119,180)" stroke-width="12.114959113410295"/><path d="M65.91836734693878,124.96672006940747C66.0375327417501,125.31830210707373,69.22122656286747,134.00221819100994,69.38775510204081,134.40823822812035" stroke="rgb(31,119,180)" stroke-width="12.276284218114561"/><path d="M69.38775510204081,134.40823822812035C69.55428364121416,134.81425826523076,72.59093334466748,141.39761208997794,72.85714285714285,141.88443221736128" stroke="rgb(31,119,180)" stroke-width="12.486395009384143"/><path d="M72.85714285714285,141.88443221736128C73.12335236961822,142.37125234474462,75.82680088288362,146.5243720114984,76.3265306122449,147.09724977527353" stroke="rgb(31,119,180)" stroke-width="12.756848455172824"/><path d="M76.3265306122449,147.09724977527353C76.82626034160617,147.67012753904865,78.65324469898253,149.7133484854388,79.79591836734694,149.83887231582023" stroke="rgb(31,119,180)" stroke-width="13.096795852220968"/><path d="M79.79591836734694,149.83887231582023C80.93859203571135,149.96439614620166,82.11727589738683,150.09839006106458,83.26530612244899,150" stroke="rgb(31,119,180)" stroke-width="13.512617992733071"/><path d="M83.26530612244899,150C84.41333634751115,149.90160993893542,86.18907347823307,148.15152014655894,86.73469387755102,147.57420917551244" stroke="rgb(31,119,180)" stroke-width="14.007670782328319"/><path d="M86.73469387755102,147.57420917551244C87.28031427686898,146.99689820446594,89.91882527193975,143.15672337899684,90.20408163265307,142.6582084675042" stroke="rgb(31,119,180)" stroke-width="14.582151450673724"/><path d="M90.20408163265307,142.6582084675042C90.48933799336639,142.15969355601158,93.49837603582952,135.8625086158859,93.67346938775509,135.4479833108663" stroke="rgb(31,119,180)" stroke-width="15.233090688559694"/><path d="M93.67346938775509,135.4479833108663C93.84856273968066,135.0334580058467,97.01942197135763,126.58807073612208,97.14285714285714,126.23098262941264" stroke="rgb(31,119,180)" stroke-width="15.954471024888026"/><path d="M97.14285714285714,126.23098262941264C97.26629231435665,125.8738945227032,100.51514621054957,115.69538153269461,100.61224489795919,115.37465915438517" stroke="rgb(31,119,180)" stroke-width="16.73746672425536"/><path d="M100.61224489795919,115.37465915438517C100.7093435853688,115.05393677607573,103.9979959001549,103.61136601480574,104.0816326530612,103.31182024362349" stroke="rgb(31,119,180)" stroke-width="17.570795641172488"/><path d="M104.0816326530612,103.31182024362349C104.1652694059675,103.01227447244123,107.47297288724246,90.81348978471678,107.55102040816325,90.52337321801011" stroke="rgb(31,119,180)" stroke-width="18.44116900360215"/><path d="M107.55102040816325,90.52337321801011C107.62906792908404,90.23325665130344,110.94186801024932,77.81011735069303,111.0204081632653,77.51915310417802" stroke="rgb(31,119,180)" stroke-width="19.333821194365008"/><path d="M111.0204081632653,77.51915310417802C111.09894831628128,77.228188857663,114.40453029825399,65.11981603735465,114.48979591836734,64.81759712087606" stroke="rgb(31,119,180)" stroke-width="20.233098409700986"/><path d="M114.48979591836734,64.81759712087606C114.57506153848068,64.51537820439746,117.85876601383445,53.25072259551246,117.95918367346938,52.925076223080765" stroke="rgb(31,119,180)" stroke-width="21.123082727026755"/><path d="M117.95918367346938,52.925076223080765C118.05960133310431,52.599429850649074,121.29874823038939,42.68078522773269,121.42857142857142,42.31570768996741" stroke="rgb(31,119,180)" stroke-width="21.988226702277217"/><path d="M121.42857142857142,42.31570768996741C121.55839462675344,41.95063015220213,124.70989371824096,33.83921117202261,124.89795918367346,33.412453565152674" stroke="rgb(31,119,180)" stroke-width="22.813973197437576"/><path d="M124.89795918367346,33.412453565152674C125.08602464910597,32.98569595828274,128.05273954639756,27.084898045232926,128.3673469387755,26.570258494749908" stroke="rgb(31,119,180)" stroke-width="23.587335727698306"/><path d="M128.3673469387755,26.570258494749908C128.68195433115346,26.05561894426689,131.22106400759415,22.63891715859593,131.83673469387756,22.06189920442094" stroke="rgb(31,119,180)" stroke-width="24.297416191623256"/><path d="M131.83673469387756,22.06189920442094C132.45240538016097,21.484881250245948,134.18590695844335,20.268615475968353,135.30612244897958,20.067109752120757" stroke="rgb(31,119,180)" stroke-width="24.935839344062973"/><path d="M135.30612244897958,20.067109752120757C136.4263379395158,19.86560402827316,137.8393330147162,20.211294790174982,138.77551020408163,20.66541609839038" stroke="rgb(31,119,180)" stroke-width="25.49708669074921"/><path d="M138.77551020408163,20.66541609839038C139.71168739344705,21.11953740660578,141.80017501981683,23.27035838102288,142.24489795918367,23.832965657268943" stroke="rgb(31,119,180)" stroke-width="25.978716493246765"/><path d="M142.24489795918367,23.832965657268943C142.68962089855052,24.395572933515005,145.47091811591432,28.972078463347785,145.7142857142857,29.443478223624595" stroke="rgb(31,119,180)" stroke-width="26.381461113359546"/><path d="M145.7142857142857,29.443478223624595C145.95765331265707,29.914877983901405,149.02759285447917,36.87813452874687,149.18367346938774,37.27328036643294" stroke="rgb(31,119,180)" stroke-width="26.709197816176562"/><path d="M149.18367346938774,37.27328036643294C149.33975408429632,37.668426204119015,152.53916085680487,46.66562394669158,152.6530612244898,47.010222582629765" stroke="rgb(31,119,180)" stroke-width="26.968794195748227"/><path d="M152.6530612244898,47.010222582629765C152.7669615921747,47.35482121856795,156.03030339643303,57.95295904232625,156.1224489795918,58.26612371275317" stroke="rgb(31,119,180)" stroke-width="27.169834385783524"/><path d="M156.1224489795918,58.26612371275317C156.2145945627506,58.57928838318009,159.51052313168407,70.2965705993704,159.59183673469389,70.5922464987953" stroke="rgb(31,119,180)" stroke-width="27.32423697048351"/><path d="M159.59183673469389,70.5922464987953C159.6731503377037,70.88792239822021,162.98363523437703,83.20786228335784,163.0612244897959,83.49718732260628" stroke="rgb(31,119,180)" stroke-width="27.445779828200493"/><path d="M163.0612244897959,83.49718732260628C163.13881374521478,83.78651236185472,166.45080471213004,96.17333694052626,166.53061224489798,96.46646691743665" stroke="rgb(31,119,180)" stroke-width="27.549550850906716"/><path d="M166.53061224489798,96.46646691743665C166.61041977766592,96.75959689434704,169.91748766178964,108.68535975020798,170,108.98304103276872" stroke="rgb(31,119,180)" stroke-width="27.651346437554036"/></g></g></svg>
