<svg font-size="10px" font-family="sans-serif" fill="none" stroke="none" stroke-width="1.5" width="300" height="300"><g><g><g><path d="M-8.333333333333332,150L-4.166666666666666,148.2496533619141L0,145.57903051948747L4.166666666666666,142.27095925657576L8.333333333333332,138.55530652396936L12.5,134.61798799673383L16.666666666666664,130.0916154221892L20.833333333333336,125.57768875182055L25,121.16943376346882L29.166666666666668,116.93991678379825L33.33333333333333,112.94581959200374L37.5,108.71364786173203L41.66666666666667,104.75816303825883L45.833333333333336,101.10203809538746L50,97.76128297636106L54.166666666666664,94.7467494034351L58.333333333333336,91.54842566511601L62.5,88.65225766372672L66.66666666666666,86.05845088445966L70.83333333333333,83.7657600183353L75,81.77204260111026L79.16666666666667,79.55775887730167L83.33333333333334,77.60212998514066L87.5,75.90088854050163L91.66666666666667,74.45011085001698L95.83333333333333,73.2463922456999L100,73.52038176657709L104.16666666666666,74.92192059377874L108.33333333333333,77.165243029663L112.5,80.01835660838358L116.66666666666667,83.2940701432415L120.83333333333334,86.8424237737974L125,90.54431079706848L129.16666666666669,94.30611170264297L133.33333333333331,98.05518709431598L137.5,101.73609868519628L141.66666666666666,105.30744682823703L145.83333333333334,108.73922954537264L150,112.01064213803124L154.16666666666666,115.10824853721894L158.33333333333334,118.02446587295023L162.5,120.75631256023797L166.66666666666669,123.30437772683109L170.83333333333331,125.67197623094003L175,127.86445899385055L179.16666666666666,129.8886530388057L183.33333333333334,131.75240960073722L187.5,133.4642420517444L191.66666666666666,135.03303826073474L195.83333333333334,136.4678344462243L200,137.77763965224958L204.16666666666669,138.9713017329195L208.33333333333331,140.05740721779839L212.5,141.04420868784644L216.66666666666666,141.93957435408106L220.83333333333334,142.7509554275828L225,143.4853676248253L229.16666666666666,144.14938378783017L233.33333333333334,144.74913513247185L237.5,145.29031908587524L241.66666666666669,145.77821204846757L245.83333333333331,146.217685729107L250,146.61322596240313L254.16666666666666,146.96895313401387L258.33333333333337,147.28864351927336L262.5,147.57575098887796L266.66666666666663,147.83342865749665L270.8333333333333,148.06455015134677L275,148.27173025253816L279.1666666666667,148.45734474439155L283.3333333333333,148.6235493355396L287.5,148.7722975835683L291.6666666666667,148.90535777309995L295.83333333333337,149.0243287300625L300,149.1306545747411L300,149.1460096808867L295.83333333333337,149.04163684993043L291.6666666666667,148.92486364920933L287.5,148.7942760428573L283.3333333333333,148.64830889236435L279.1666666666667,148.4852316192986L275,148.30313285211665L270.8333333333333,148.09990405893316L266.66666666666663,147.87322218932187L262.5,147.62053137542776L258.33333333333337,147.3390237771795L254.16666666666666,147.02561969970694L250,146.67694716503L245.83333333333331,146.2893211868272L241.66666666666669,145.85872307916418L237.5,145.38078023049923L233.33333333333334,144.85074689662142L229.16666666666666,144.26348671465465L225,143.61345781982038L220.83333333333334,142.89470166315363L216.66666666666666,142.10083688869042L212.5,141.22505994088615L208.33333333333331,140.26015444670222L204.16666666666669,139.19851186307983L200,138.03216641251754L195.83333333333334,136.75284796255883L191.66666666666666,135.35205725718413L187.5,133.82116880049207L183.33333333333334,132.15156775033222L179.16666666666666,130.33482843060565L175,128.36294354953873L170.83333333333331,126.22861495682517L166.66666666666669,123.92561883120023L162.5,121.44926061556305L158.33333333333334,118.79693787196327L154.16666666666666,115.96883258685762L150,112.96875840335868L145.83333333333334,109.8051928912593L141.66666666666666,106.49253040329592L137.5,103.05259744240561L133.33333333333331,99.5164799367462L129.16666666666669,95.926720569848L125,92.33995455516578L120.83333333333334,88.83006422490146L116.66666666666667,85.4919468098896L112.5,82.44600615489462L108.33333333333333,79.8434982302972L104.16666666666666,77.87288261808634L100,76.7673581913451L95.83333333333333,76.81379158042513L91.66666666666667,78.36328243194014L87.5,80.1858943609609L83.33333333333334,82.28543228696576L79.16666666666667,84.66580413781998L75,87.33071869893438L70.83333333333333,89.79969887139325L66.66666666666666,92.59014352129736L62.5,95.70094240931061L58.333333333333336,99.12870272199945L54.166666666666664,102.86686639763187L50,106.42102579111933L45.833333333333336,110.29014927473048L41.66666666666667,114.44919590200229L37.5,118.8641478809504L33.33333333333333,123.48970511663282L29.166666666666668,127.78290841263752L25,132.182354943162L20.833333333333336,136.5884289361413L16.666666666666664,140.8755105610025L12.5,144.88633037738566L8.333333333333332,147.94164603612987L4.166666666666666,150.31479980900343L0,151.70645722640467L-4.166666666666666,151.75034663808592L-8.333333333333332,150Z" fill="rgb(102,85,102)" stroke="rgb(119,153,119)"/></g><g><path d="M-4.166666666666666,151.7503466380859L0,151.70645722640464L4.166666666666666,150.31479980900346L8.333333333333332,147.9416460361299L12.5,144.88633037738572L16.666666666666664,140.8755105610025L20.833333333333336,136.58842893614133L25,132.18235494316204L29.166666666666668,127.78290841263757L33.33333333333333,123.48970511663279L37.5,118.86414788095044L41.66666666666667,114.44919590200226L45.833333333333336,110.29014927473051L50,106.42102579111932L54.166666666666664,102.86686639763184L58.333333333333336,99.12870272199947L62.5,95.70094240931058L66.66666666666666,92.59014352129739L70.83333333333333,89.79969887139322L75,87.33071869893439L79.16666666666667,84.66580413781995L83.33333333333334,82.28543228696574L87.5,80.18589436096087L91.66666666666667,78.36328243194012L95.83333333333333,76.81379158042509L100,76.76735819134515L104.16666666666666,77.87288261808635L108.33333333333333,79.84349823029717L112.5,82.4460061548946L116.66666666666667,85.49194680988958L120.83333333333334,88.83006422490143L125,92.33995455516575L129.16666666666669,95.92672056984796L133.33333333333331,99.51647993674621L137.5,103.05259744240561L141.66666666666666,106.49253040329594L145.83333333333334,109.80519289125925L150,112.96875840335869L154.16666666666666,115.96883258685762L158.33333333333334,118.79693787196328L162.5,121.44926061556302L166.66666666666669,123.92561883120024L170.83333333333331,126.2286149568252L175,128.36294354953876L179.16666666666666,130.33482843060568L183.33333333333334,132.1515677503322L187.5,133.82116880049207L191.66666666666666,135.35205725718416L195.83333333333334,136.75284796255877L200,138.0321664125175L204.16666666666669,139.1985118630799L208.33333333333331,140.2601544467022L212.5,141.2250599408862L216.66666666666666,142.10083688869045L220.83333333333334,142.89470166315357L225,143.61345781982035L229.16666666666666,144.26348671465465L233.33333333333334,144.85074689662147L237.5,145.38078023049925L241.66666666666669,145.85872307916415L245.83333333333331,146.28932118682718L250,146.67694716503004L254.16666666666666,147.02561969970694L258.33333333333337,147.33902377717953L262.5,147.62053137542776L266.66666666666663,147.87322218932184L270.8333333333333,148.09990405893316L275,148.30313285211662L279.1666666666667,148.48523161929862L283.3333333333333,148.64830889236438L287.5,148.79427604285732L291.6666666666667,148.9248636492093L295.83333333333337,149.04163684993043L300,149.14600968088666L300,149.16384317794714L295.83333333333337,149.061733855515L291.6666666666667,148.94750705882265L287.5,148.81978340343974L283.3333333333333,148.6770365319181L279.1666666666667,148.51757924960498L275,148.3395486954873L270.8333333333333,148.1408905548469L266.66666666666663,147.91934234206911L262.5,147.67241580952546L258.33333333333337,147.39737857332153L254.16666666666666,147.0912350903751L250,146.75070717558322L245.83333333333331,146.37221431487657L241.66666666666669,145.95185411228513L237.5,145.4853833097461L233.33333333333334,144.9681999408113L229.16666666666666,144.39532732783704L225,143.7614008115878L220.83333333333334,143.0606583182599L216.66666666666666,142.28693612856222L212.5,141.43367152469926L208.33333333333331,140.49391436333283L204.16666666666669,139.46035006691088L200,138.32533705514814L195.83333333333334,137.08096226816025L191.66666666666666,135.71911918061042L187.5,134.231613593158L183.33333333333334,132.61030353792108L179.16666666666666,130.84728087719887L175,128.93510364276634L170.83333333333331,126.8670898957193L166.66666666666669,124.63768592971275L162.5,122.24292404676174L158.33333333333334,119.68098796665443L154.16666666666666,116.9529072609358L150,114.06340611478457L145.83333333333334,111.0219363133584L141.66666666666666,107.84392973794975L137.5,104.55231197506832L133.33333333333331,101.17932604373354L129.16666666666669,97.76872391361913L125,94.37839362958238L120.83333333333334,91.08350172110647L116.66666666666667,87.98024444263129L112.5,85.19031759310228L108.33333333333333,82.86623358427167L104.16666666666666,81.19763651331641L100,80.41879176406792L95.83333333333333,80.81745671380635L91.66666666666667,82.74537415696899L87.5,84.9729145058683L83.33333333333334,87.50374409482113L79.16666666666667,90.3410535922757L75,93.4870935957268L70.83333333333333,96.45899112297843L66.66666666666666,99.77057363770194L62.5,103.41569738924845L58.333333333333336,107.38412951543373L54.166666666666664,111.660252432015L50,115.73788551780879L45.833333333333336,120.10092097406425L41.66666666666667,124.70523571773727L37.5,129.49288780927694L33.33333333333333,134.38881795364372L29.166666666666668,138.81329488729517L25,143.15973575615823L20.833333333333336,147.2732864044423L16.666666666666664,150.96108012168077L12.5,153.98429027307523L8.333333333333332,155.56509285708074L4.166666666666666,155.85802677336093L0,154.42096948051253L-4.166666666666666,151.7503466380859Z" fill="rgb(105,92,105)" stroke="rgb(119,153,119)"/></g><g><path d="M0,154.42096948051253L4.166666666666666,155.85802677336093L8.333333333333332,155.56509285708074L12.5,153.9842902730752L16.666666666666664,150.96108012168074L20.833333333333336,147.27328640444227L25,143.1597357561582L29.166666666666668,138.81329488729514L33.33333333333333,134.38881795364372L37.5,129.49288780927688L41.66666666666667,124.70523571773725L45.833333333333336,120.10092097406422L50,115.73788551780876L54.166666666666664,111.66025243201497L58.333333333333336,107.38412951543373L62.5,103.41569738924846L66.66666666666666,99.77057363770189L70.83333333333333,96.45899112297846L75,93.48709359572678L79.16666666666667,90.34105359227567L83.33333333333334,87.50374409482112L87.5,84.97291450586829L91.66666666666667,82.745374156969L95.83333333333333,80.81745671380637L100,80.41879176406789L104.16666666666666,81.19763651331644L108.33333333333333,82.86623358427167L112.5,85.19031759310226L116.66666666666667,87.98024444263126L120.83333333333334,91.08350172110647L125,94.37839362958243L129.16666666666669,97.76872391361917L133.33333333333331,101.17932604373354L137.5,104.55231197506833L141.66666666666666,107.84392973794976L145.83333333333334,111.0219363133584L150,114.06340611478453L154.16666666666666,116.95290726093583L158.33333333333334,119.68098796665441L162.5,122.2429240467618L166.66666666666669,124.63768592971269L170.83333333333331,126.86708989571929L175,128.93510364276636L179.16666666666666,130.84728087719884L183.33333333333334,132.6103035379211L187.5,134.23161359315793L191.66666666666666,135.7191191806104L195.83333333333334,137.08096226816028L200,138.32533705514814L204.16666666666669,139.46035006691082L208.33333333333331,140.49391436333286L212.5,141.43367152469926L216.66666666666666,142.28693612856216L220.83333333333334,143.06065831825995L225,143.76140081158786L229.16666666666666,144.395327327837L233.33333333333334,144.96819994081127L237.5,145.4853833097461L241.66666666666669,145.95185411228513L245.83333333333331,146.37221431487663L250,146.75070717558322L254.16666666666666,147.09123509037514L258.33333333333337,147.39737857332156L262.5,147.67241580952543L266.66666666666663,147.91934234206914L270.8333333333333,148.1408905548469L275,148.33954869548734L279.1666666666667,148.51757924960495L283.3333333333333,148.67703653191813L287.5,148.81978340343971L291.6666666666667,148.94750705882265L295.83333333333337,149.06173385551494L300,149.16384317794714L300,149.18454897592227L295.83333333333337,149.0850620420019L291.6666666666667,148.97378447122125L287.5,148.84937676462923L283.3333333333333,148.71035717902154L279.1666666666667,148.55508840027576L275,148.3817633088541L270.8333333333333,148.18838984961312L266.66666666666663,147.9727750399977L262.5,147.7325081786303L258.33333333333337,147.4649433515347L254.16666666666666,147.16718137722714L250,146.83605138649588L245.83333333333331,146.4680922999579L241.66666666666669,146.05953454896527L237.5,145.60628248609353L233.33333333333334,145.10389805378205L229.16666666666666,144.5475864278653L225,143.932184531591L220.83333333333334,143.2521535310264L216.66666666666666,142.50157668125823L212.5,141.6741642024285L208.33333333333331,140.76326723476734L204.16666666666669,139.76190336331717L200,138.66279672883766L195.83333333333334,137.45843636651128L191.66666666666666,136.14115715613931L187.5,134.7032486472048L183.33333333333334,133.1370980636165L179.16666666666666,131.43537502439784L175,129.5912669710556L170.83333333333331,127.59877600842255L166.66666666666669,125.45308988845447L162.5,123.15104224832547L158.33333333333334,120.69168001651724L154.16666666666666,118.07695919494846L150,115.31259409484151L145.83333333333334,112.40908964611783L141.66666666666666,109.38299172769811L137.5,106.25839671087066L133.33333333333331,103.06876872311373L129.16666666666669,99.85912170373793L125,96.68863334286216L120.83333333333334,93.63376971270935L116.66666666666667,90.79201309534707L112.5,88.28630150958273L108.33333333333333,86.27030712022493L104.16666666666666,84.93470251492687L100,84.51458926774653L95.83333333333333,85.29829286691412L91.66666666666667,87.63776265473373L87.5,90.30309933083711L83.33333333333334,93.29708319553916L79.16666666666667,96.62123223605695L75,100.27513134623513L70.83333333333333,103.7719995748925L66.66666666666666,107.62021401062506L62.5,111.80627763431018L58.333333333333336,116.31026947939941L54.166666666666664,121.10403257389306L50,125.66537935414848L45.833333333333336,130.45799345961169L41.66666666666667,135.41246870334567L37.5,140.43946904155786L33.33333333333333,145.42520118878699L29.166666666666668,149.74240488452088L25,153.7264523801338L20.833333333333336,157.15189585413475L16.666666666666664,159.74032731550352L12.5,161.14960337881308L8.333333333333332,160.47747737554863L4.166666666666666,157.72904074342418L0,154.42096948051253Z" fill="rgb(109,99,109)" stroke="rgb(119,153,119)"/></g><g><path d="M4.166666666666666,157.72904074342418L8.333333333333332,160.47747737554863L12.5,161.14960337881308L16.666666666666664,159.74032731550355L20.833333333333336,157.15189585413475L25,153.7264523801338L29.166666666666668,149.74240488452085L33.33333333333333,145.425201188787L37.5,140.4394690415579L41.66666666666667,135.41246870334564L45.833333333333336,130.4579934596117L50,125.66537935414851L54.166666666666664,121.10403257389308L58.333333333333336,116.31026947939944L62.5,111.80627763431016L66.66666666666666,107.62021401062506L70.83333333333333,103.77199957489245L75,100.27513134623516L79.16666666666667,96.62123223605698L83.33333333333334,93.29708319553922L87.5,90.30309933083714L91.66666666666667,87.63776265473373L95.83333333333333,85.29829286691415L100,84.51458926774652L104.16666666666666,84.93470251492684L108.33333333333333,86.27030712022494L112.5,88.28630150958276L116.66666666666667,90.7920130953471L120.83333333333334,93.63376971270932L125,96.68863334286218L129.16666666666669,99.85912170373788L133.33333333333331,103.06876872311372L137.5,106.25839671087067L141.66666666666666,109.38299172769808L145.83333333333334,112.40908964611785L150,115.31259409484153L154.16666666666666,118.0769591949485L158.33333333333334,120.69168001651721L162.5,123.15104224832541L166.66666666666669,125.45308988845451L170.83333333333331,127.5987760084225L175,129.59126697105555L179.16666666666666,131.43537502439784L183.33333333333334,133.1370980636165L187.5,134.70324864720484L191.66666666666666,136.14115715613931L195.83333333333334,137.4584363665113L200,138.6627967288377L204.16666666666669,139.76190336331723L208.33333333333331,140.76326723476734L212.5,141.67416420242847L216.66666666666666,142.50157668125823L220.83333333333334,143.25215353102638L225,143.932184531591L229.16666666666666,144.5475864278653L233.33333333333334,145.10389805378205L237.5,145.6062824860935L241.66666666666669,146.0595345489653L245.83333333333331,146.4680922999579L250,146.83605138649582L254.16666666666666,147.1671813772271L258.33333333333337,147.46494335153469L262.5,147.7325081786303L266.66666666666663,147.97277503999769L270.8333333333333,148.18838984961312L275,148.3817633088541L279.1666666666667,148.5550884002758L283.3333333333333,148.71035717902154L287.5,148.84937676462926L291.6666666666667,148.97378447122125L295.83333333333337,149.0850620420019L300,149.1845489759223L300,149.20858234593115L295.83333333333337,149.11213240334035L291.6666666666667,149.00426923693905L287.5,148.88369922605517L283.3333333333333,148.74899191515505L279.1666666666667,148.59856729694357L275,148.4306822515278L270.8333333333333,148.24341615960688L266.66666666666663,148.03465572994756L262.5,147.8020791096866L258.33333333333337,147.54313938154567L254.16666666666666,147.2550475963159L250,146.93475554377227L245.83333333333331,146.57893853257858L241.66666666666669,146.18397853224857L237.5,145.74594813076413L233.33333333333334,145.26059588347502L229.16666666666666,144.72333377652095L225,144.1292277060232L220.83333333333334,143.47299208836537L216.66666666666666,142.7489899736956L212.5,141.95124034214882L208.33333333333331,141.0734346294393L204.16666666666669,140.1089649661757L200,139.05096713618266L195.83333333333334,137.89238187811347L191.66666666666666,136.6260388890613L187.5,135.24476875908988L183.33333333333334,133.7415490953675L179.16666666666666,132.10969231174442L175,130.34308399663882L170.83333333333331,128.43648246697813L166.66666666666669,126.38589211297841L162.5,124.18902548946814L158.33333333333334,121.84587187457964L154.16666666666666,119.35939326628761L150,116.73637260341737L145.83333333333334,113.9884434758878L141.66666666666666,111.13333584027201L137.5,108.19637841074683L133.33333333333331,105.21230560279328L129.16666666666669,102.22742534289699L125,99.30221392582285L120.83333333333334,96.51441563880672L116.66666666666667,93.96273835469054L112.5,91.77125204371175L108.33333333333333,90.09461553818866L104.16666666666666,89.12427833752771L100,89.09582926419789L95.83333333333333,90.29769295652069L91.66666666666667,93.08140918665346L87.5,96.21601322841768L83.33333333333334,99.7023853423127L79.16666666666667,103.53909245293045L75,107.72145620575986L70.83333333333333,111.75680593438685L66.66666666666666,116.14562530631525L62.5,120.86406841279097L58.333333333333336,125.87887005834804L54.166666666666664,131.1448897805724L50,136.11855059123542L45.833333333333336,141.23682943155015L41.66666666666667,146.39721446538226L37.5,151.46958298264641L33.33333333333333,156.29015640146397L29.166666666666668,160.17069626414045L25,163.37248474968285L20.833333333333336,165.58037228715438L16.666666666666664,166.407691301639L12.5,165.38201200326614L8.333333333333332,161.44469347603064L4.166666666666666,157.72904074342418Z" fill="rgb(112,105,112)" stroke="rgb(119,153,119)"/></g><g><path d="M12.5,165.38201200326614L16.666666666666664,166.40769130163903L20.833333333333336,165.5803722871544L25,163.37248474968283L29.166666666666668,160.17069626414045L33.33333333333333,156.29015640146392L37.5,151.4695829826464L41.66666666666667,146.3972144653823L45.833333333333336,141.23682943155012L50,136.11855059123542L54.166666666666664,131.14488978057244L58.333333333333336,125.87887005834799L62.5,120.864068412791L66.66666666666666,116.14562530631528L70.83333333333333,111.75680593438688L75,107.72145620575986L79.16666666666667,103.53909245293042L83.33333333333334,99.70238534231268L87.5,96.2160132284177L91.66666666666667,93.0814091866535L95.83333333333333,90.2976929565207L100,89.0958292641979L104.16666666666666,89.1242783375277L108.33333333333333,90.09461553818866L112.5,91.77125204371174L116.66666666666667,93.96273835469057L120.83333333333334,96.51441563880672L125,99.3022139258228L129.16666666666669,102.22742534289705L133.33333333333331,105.2123056027933L137.5,108.19637841074686L141.66666666666666,111.13333584027205L145.83333333333334,113.9884434758878L150,116.73637260341735L154.16666666666666,119.35939326628755L158.33333333333334,121.84587187457967L162.5,124.18902548946812L166.66666666666669,126.38589211297841L170.83333333333331,128.43648246697816L175,130.34308399663882L179.16666666666666,132.10969231174442L183.33333333333334,133.7415490953675L187.5,135.24476875908985L191.66666666666666,136.62603888906133L195.83333333333334,137.8923818781134L200,139.05096713618263L204.16666666666669,140.10896496617568L208.33333333333331,141.07343462943933L212.5,141.9512403421488L216.66666666666666,142.74898997369564L220.83333333333334,143.4729920883654L225,144.12922770602313L229.16666666666666,144.72333377652095L233.33333333333334,145.260595883475L237.5,145.74594813076413L241.66666666666669,146.18397853224857L245.83333333333331,146.57893853257855L250,146.93475554377233L254.16666666666666,147.2550475963159L258.33333333333337,147.54313938154567L262.5,147.80207910968664L266.66666666666663,148.03465572994756L270.8333333333333,148.24341615960685L275,148.43068225152777L279.1666666666667,148.59856729694351L283.3333333333333,148.74899191515502L287.5,148.8836992260552L291.6666666666667,149.00426923693905L295.83333333333337,149.11213240334038L300,149.20858234593115L300,149.2364692208382L295.83333333333337,149.14353500291887L291.6666666666667,149.03962314452545L287.5,148.9234927578804L283.3333333333333,148.79377230170482L279.1666666666667,148.64894755484966L275,148.48734881722083L270.8333333333333,148.3071373622337L266.66666666666663,148.10629118766778L262.5,147.88259014038326L258.33333333333337,147.63360052616966L254.16666666666666,147.35665936046547L250,147.0488584705968L245.83333333333331,146.70702872757363L241.66666666666669,146.3277247678194L237.5,145.9072106653735L233.33333333333334,145.4414471365147L229.16666666666666,144.92608100542478L225,144.35643783618346L220.83333333333334,143.72751884863337L216.66666666666666,143.0340034900302L212.5,142.27025933859818L208.33333333333331,141.430361378187L204.16666666666669,140.50812311577067L200,139.4971425279826L195.83333333333334,138.3908664338016L191.66666666666666,137.18267761494647L187.5,135.86600986345897L183.33333333333334,134.43449715069258L179.16666666666666,132.88216431075745L175,131.2036680462775L170.83333333333331,129.39459873230558L166.66666666666669,127.45185545886508L162.5,125.374109064527L158.33333333333334,123.162370631789L154.16666666666666,120.82068610871777L150,118.35698147062239L145.83333333333334,115.7840872339851L141.66666666666666,113.12097629137611L137.5,110.39425507739496L133.33333333333331,107.63995514930433L129.16666666666669,104.90568054353125L125,102.2531759501304L120.83333333333334,99.76139206357473L116.66666666666667,97.53013768941581L112.5,95.68442362563489L108.33333333333333,94.37962135864794L104.16666666666666,93.80758063935279L100,94.20387452471621L95.83333333333333,95.85636905434482L91.66666666666667,99.11534803971145L87.5,102.7477058652554L83.33333333333334,106.75107008789658L79.16666666666667,111.11936950981385L75,115.84157319995663L70.83333333333333,120.41654874914515L66.66666666666666,125.3337364856583L62.5,130.55510127653446L58.333333333333336,136.02937007756634L54.166666666666664,141.68877530520152L50,146.9615422200747L45.833333333333336,152.24975061124331L41.66666666666667,157.40795464970304L37.5,162.2534781214597L33.33333333333333,166.55849878211575L29.166666666666668,169.55703577630095L25,171.4163253021105L20.833333333333336,171.7077989940716L16.666666666666664,169.90838457781084L12.5,165.38201200326614Z" fill="rgb(116,112,116)" stroke="rgb(119,153,119)"/></g><g><path d="M16.666666666666664,169.9083845778108L20.833333333333336,171.70779899407154L25,171.41632530211052L29.166666666666668,169.557035776301L33.33333333333333,166.5584987821158L37.5,162.2534781214597L41.66666666666667,157.40795464970307L45.833333333333336,152.24975061124334L50,146.96154222007473L54.166666666666664,141.6887753052015L58.333333333333336,136.0293700775664L62.5,130.55510127653443L66.66666666666666,125.33373648565833L70.83333333333333,120.41654874914514L75,115.8415731999566L79.16666666666667,111.11936950981388L83.33333333333334,106.75107008789655L87.5,102.74770586525543L91.66666666666667,99.11534803971142L95.83333333333333,95.85636905434484L100,94.20387452471618L104.16666666666666,93.80758063935278L108.33333333333333,94.37962135864791L112.5,95.68442362563488L116.66666666666667,97.53013768941577L120.83333333333334,99.76139206357479L125,102.25317595013041L129.16666666666669,104.90568054353122L133.33333333333331,107.63995514930431L137.5,110.39425507739494L141.66666666666666,113.12097629137608L145.83333333333334,115.78408723398508L150,118.35698147062234L154.16666666666666,120.82068610871778L158.33333333333334,123.162370631789L162.5,125.37410906452703L166.66666666666669,127.45185545886503L170.83333333333331,129.39459873230558L175,131.2036680462775L179.16666666666666,132.88216431075745L183.33333333333334,134.43449715069255L187.5,135.866009863459L191.66666666666666,137.1826776149465L195.83333333333334,138.39086643380162L200,139.49714252798262L204.16666666666669,140.50812311577064L208.33333333333331,141.430361378187L212.5,142.2702593385982L216.66666666666666,143.03400349003013L220.83333333333334,143.72751884863334L225,144.35643783618352L229.16666666666666,144.92608100542475L233.33333333333334,145.44144713651477L237.5,145.90721066537353L241.66666666666669,146.32772476781935L245.83333333333331,146.7070287275736L250,147.0488584705968L254.16666666666666,147.35665936046553L258.33333333333337,147.6336005261697L262.5,147.88259014038323L266.66666666666663,148.10629118766775L270.8333333333333,148.30713736223376L275,148.48734881722083L279.1666666666667,148.64894755484968L283.3333333333333,148.79377230170482L287.5,148.92349275788038L291.6666666666667,149.03962314452545L295.83333333333337,149.14353500291884L300,149.23646922083822L300,149.26881685114458L295.83333333333337,149.17995084628953L291.6666666666667,149.08060964043918L287.5,148.96961291062766L283.3333333333333,148.84565673580252L279.1666666666667,148.70730235099168L275,148.552964207889L270.8333333333333,148.38089737278693L266.66666666666663,148.18918431571714L262.5,147.9757211735042L258.33333333333337,147.73820360541654L254.16666666666666,147.47411240465536L250,147.1806990837792L245.83333333333331,146.85497171934105L241.66666666666669,146.49368142292568L237.5,146.0933099052453L233.33333333333334,145.65005872032782L229.16666666666666,145.1598409220554L225,144.6182760400145L220.83333333333334,144.02068949126397L216.66666666666666,143.3621177956316L212.5,142.63732126202447L208.33333333333331,141.84080617085291L204.16666666666669,140.96685890335954L200,140.0095949745758L195.83333333333334,138.9630265270292L191.66666666666666,137.82115255384062L187.5,136.5780769619715L183.33333333333334,135.22816058189127L179.16666666666666,133.76621440544858L175,132.1877427203557L170.83333333333331,130.48924644373145L166.66666666666669,128.66859888096417L162.5,126.72550839918084L158.33333333333334,124.66208516445171L154.16666666666666,122.48353221570511L150,120.19898481439351L145.83333333333334,117.8225263084017L141.66666666666666,115.37441378758112L137.5,112.88255271013665L133.33333333333331,110.38426658751199L129.16666666666669,107.92841589750572L125,105.57792984536047L120.83333333333334,103.41282563629755L116.66666666666667,101.53380282279703L112.5,100.06651535066375L108.33333333333333,99.16664150355534L104.16666666666666,99.02589244720816L100,99.87912397917194L95.83333333333333,102.01274395113725L91.66666666666667,105.77464029129663L87.5,109.92813598165998L83.33333333333334,114.46582506783442L79.16666666666667,119.37479630324813L75,124.63495923433976L70.83333333333333,129.7334084758346L66.66666666666666,135.14450818499208L62.5,140.81114109226942L58.333333333333336,146.6581100058929L54.166666666666664,152.58788814221242L50,157.99192869473234L45.833333333333336,163.22713142423953L41.66666666666667,168.09281211800405L37.5,172.33904768213796L33.33333333333333,175.65645867780532L29.166666666666668,177.18048259725185L25,176.959552266468L20.833333333333336,174.42231124817943L16.666666666666664,169.9083845778108Z" fill="rgb(119,119,119)" stroke="rgb(119,153,119)"/></g><g><path d="M20.833333333333336,174.42231124817943L25,176.95955226646797L29.166666666666668,177.18048259725185L33.33333333333333,175.6564586778053L37.5,172.3390476821379L41.66666666666667,168.09281211800402L45.833333333333336,163.2271314242395L50,157.9919286947323L54.166666666666664,152.58788814221242L58.333333333333336,146.65811000589284L62.5,140.81114109226942L66.66666666666666,135.14450818499205L70.83333333333333,129.73340847583458L75,124.63495923433973L79.16666666666667,119.37479630324813L83.33333333333334,114.46582506783446L87.5,109.92813598165992L91.66666666666667,105.77464029129666L95.83333333333333,102.01274395113722L100,99.87912397917191L104.16666666666666,99.02589244720815L108.33333333333333,99.16664150355533L112.5,100.06651535066376L116.66666666666667,101.53380282279704L120.83333333333334,103.41282563629753L125,105.5779298453605L129.16666666666669,107.92841589750569L133.33333333333331,110.38426658751197L137.5,112.88255271013662L141.66666666666666,115.37441378758112L145.83333333333334,117.82252630840176L150,120.19898481439355L154.16666666666666,122.48353221570511L158.33333333333334,124.66208516445172L162.5,126.72550839918085L166.66666666666669,128.66859888096417L170.83333333333331,130.48924644373142L175,132.18774272035571L179.16666666666666,133.76621440544858L183.33333333333334,135.22816058189133L187.5,136.57807696197145L191.66666666666666,137.8211525538406L195.83333333333334,138.96302652702923L200,140.00959497457578L204.16666666666669,140.96685890335957L208.33333333333331,141.84080617085286L212.5,142.63732126202444L216.66666666666666,143.36211779563163L220.83333333333334,144.02068949126397L225,144.61827604001445L229.16666666666666,145.15984092205542L233.33333333333334,145.65005872032782L237.5,146.09330990524523L241.66666666666669,146.49368142292573L245.83333333333331,146.8549717193411L250,147.18069908377916L254.16666666666666,147.47411240465533L258.33333333333337,147.73820360541654L262.5,147.9757211735042L266.66666666666663,148.1891843157172L270.8333333333333,148.38089737278693L275,148.55296420788903L279.1666666666667,148.7073023509917L283.3333333333333,148.8456567358025L287.5,148.9696129106277L291.6666666666667,149.08060964043918L295.83333333333337,149.17995084628956L300,149.26881685114455L300,149.30632600181536L295.83333333333337,149.2221654596563L291.6666666666667,149.1281089352054L287.5,149.02304560855626L283.3333333333333,148.90574910490736L279.1666666666667,148.77486712920486L275,148.62891049474104L270.8333333333333,148.4662415836996L266.66666666666663,148.28506230079847L262.5,148.08340161018435L258.33333333333337,147.85910278176397L254.16666666666666,147.6098105176261L250,147.33295818380745L245.83333333333331,147.02575543934424L241.66666666666669,146.6851766356922L237.5,146.3079504579413L233.33333333333334,145.89055139805706L229.16666666666666,145.4291937934899L225,144.9198293364208L220.83333333333334,144.3581491649535L216.66666666666666,143.73959189398263L212.5,143.05935923755337L208.33333333333331,142.31244122489971L204.16666666666669,141.49365342905494L200,140.59768912177478L195.83333333333334,139.61918985531847L191.66666666666666,138.55283866654383L187.5,137.39348092071322L183.33333333333334,136.136278783455L179.16666666666666,134.7769064553114L175,133.31179465436836L170.83333333333331,131.7384344237884L166.66666666666669,130.0557522137236L162.5,128.2645703889292L158.33333333333334,126.36816990025405L154.16666666666666,124.3729748950853L150,122.28938260451231L145.83333333333334,120.13276602168149L141.66666666666666,117.924681779184L137.5,115.69432136285243L133.33333333333331,113.48025050399244L129.16666666666669,111.33248943345895L125,109.31499584697093L120.83333333333334,107.50862313997615L116.66666666666667,106.0146389759048L112.5,104.95890384842849L108.33333333333333,104.49682632852415L104.16666666666666,104.8192315479262L100,106.15930262295319L95.83333333333333,108.80078170164558L91.66666666666667,113.08764874321069L87.5,117.7777763545831L83.33333333333334,122.85640531289617L79.16666666666667,128.3009362672138L75,134.0787393762178L70.83333333333333,139.6609023121743L66.66666666666666,145.5015806705395L62.5,151.51837407787784L58.333333333333336,157.6046912381738L54.166666666666664,163.62427137735568L50,168.92103869195805L45.833333333333336,173.7938480482151L41.66666666666667,177.9714215676965L37.5,181.1182948759607L33.33333333333333,182.82177178354317L29.166666666666668,182.09286711571974L25,178.8305662365312L20.833333333333336,174.42231124817943Z" fill="rgb(122,126,122)" stroke="rgb(119,153,119)"/></g><g><path d="M25,178.8305662365312L29.166666666666668,182.09286711571974L33.33333333333333,182.8217717835432L37.5,181.11829487596071L41.66666666666667,177.9714215676965L45.833333333333336,173.7938480482151L50,168.92103869195802L54.166666666666664,163.6242713773557L58.333333333333336,157.60469123817387L62.5,151.5183740778778L66.66666666666666,145.50158067053954L70.83333333333333,139.66090231217433L75,134.07873937621784L79.16666666666667,128.30093626721384L83.33333333333334,122.85640531289616L87.5,117.7777763545831L91.66666666666667,113.08764874321065L95.83333333333333,108.8007817016456L100,106.15930262295322L104.16666666666666,104.81923154792625L108.33333333333333,104.49682632852418L112.5,104.95890384842849L116.66666666666667,106.01463897590483L120.83333333333334,107.50862313997615L125,109.3149958469709L129.16666666666669,111.33248943345896L133.33333333333331,113.48025050399247L137.5,115.69432136285246L141.66666666666666,117.92468177918397L145.83333333333334,120.1327660216815L150,122.28938260451227L154.16666666666666,124.37297489508529L158.33333333333334,126.36816990025406L162.5,128.26457038892917L166.66666666666669,130.05575221372362L170.83333333333331,131.73843442378842L175,133.31179465436833L179.16666666666666,134.77690645531138L183.33333333333334,136.13627878345494L187.5,137.39348092071327L191.66666666666666,138.5528386665438L195.83333333333334,139.6191898553184L200,140.59768912177478L204.16666666666669,141.49365342905494L208.33333333333331,142.31244122489977L212.5,143.05935923755337L216.66666666666666,143.73959189398266L220.83333333333334,144.35814916495352L225,144.91982933642086L229.16666666666666,145.4291937934899L233.33333333333334,145.89055139805703L237.5,146.3079504579413L241.66666666666669,146.68517663569216L245.83333333333331,147.02575543934424L250,147.33295818380745L254.16666666666666,147.6098105176261L258.33333333333337,147.85910278176394L262.5,148.08340161018438L266.66666666666663,148.28506230079847L270.8333333333333,148.46624158369954L275,148.628910494741L279.1666666666667,148.77486712920484L283.3333333333333,148.90574910490736L287.5,149.02304560855623L291.6666666666667,149.1281089352054L295.83333333333337,149.2221654596563L300,149.3063260018154L300,149.34980489848317L295.83333333333337,149.27108440233002L291.6666666666667,149.18313524519917L287.5,149.0849262985061L283.3333333333333,148.97532003596365L279.1666666666667,148.85306315921582L275,148.7167767138298L270.8333333333333,148.564945740976L266.66666666666663,148.39590853341915L262.5,148.20784559346765L258.33333333333337,147.99876842643457L254.16666666666666,147.76650834731907L250,147.5087055324631L245.83333333333331,147.22279861377643L241.66666666666669,146.90601519303115L237.5,146.55536375037866L233.33333333333334,146.16762753777738L229.16666666666666,145.73936118816187L225,145.26689093927934L220.83333333333334,144.7463195722985L216.66666666666666,144.17353740558482L212.5,143.54424097047536L208.33333333333331,142.8539613367848L204.16666666666669,142.09810446080596L200,141.27200640912136L195.83333333333334,140.3710068809017L191.66666666666666,139.39054512509944L187.5,138.32628314523717L183.33333333333334,137.17426202459765L179.16666666666666,135.9310983133738L175,134.59422872570744L170.83333333333331,133.16221293236424L166.66666666666669,131.63510604349358L162.5,130.01491450150309L158.33333333333334,128.30615160013022L154.16666666666666,126.51651177476485L150,124.65768624367138L145.83333333333334,122.74634660464218L141.66666666666666,120.80532770528137L137.5,118.8650466221959L133.33333333333331,116.96520103812146L129.16666666666669,115.15679785142268L125,113.50457166957177L120.83333333333334,112.08986313642752L116.66666666666667,111.01403906551137L112.5,110.40255038034822L108.33333333333333,110.40974022610472L104.16666666666666,111.22453369469973L100,113.07716283982668L95.83333333333333,116.24710656117031L91.66666666666667,121.07245510270505L87.5,126.30318765027329L83.33333333333334,131.91419609137697L79.16666666666667,137.86953684616245L75,144.11959658289717L70.83333333333333,150.11407354926124L66.66666666666666,156.28041664247797L62.5,162.50311983991443L58.333333333333336,168.63480517926237L54.166666666666664,174.48922659003267L50,179.3493300715776L45.833333333333336,183.43988041776416L41.66666666666667,186.39989800071612L37.5,187.78565886209617L33.33333333333333,187.05418040799626L29.166666666666668,183.06008321620175L25,178.8305662365312Z" fill="rgb(126,133,126)" stroke="rgb(119,153,119)"/></g><g><path d="M33.33333333333333,187.05418040799626L37.5,187.7856588620962L41.66666666666667,186.3998980007161L45.833333333333336,183.43988041776413L50,179.34933007157764L54.166666666666664,174.48922659003262L58.333333333333336,168.63480517926234L62.5,162.50311983991446L66.66666666666666,156.28041664247795L70.83333333333333,150.11407354926124L75,144.1195965828972L79.16666666666667,137.8695368461624L83.33333333333334,131.91419609137694L87.5,126.30318765027332L91.66666666666667,121.07245510270508L95.83333333333333,116.24710656117031L100,113.07716283982666L104.16666666666666,111.22453369469972L108.33333333333333,110.40974022610473L112.5,110.40255038034826L116.66666666666667,111.01403906551138L120.83333333333334,112.08986313642754L125,113.50457166957176L129.16666666666669,115.15679785142268L133.33333333333331,116.96520103812145L137.5,118.8650466221959L141.66666666666666,120.80532770528137L145.83333333333334,122.74634660464213L150,124.65768624367144L154.16666666666666,126.51651177476487L158.33333333333334,128.30615160013025L162.5,130.01491450150314L166.66666666666669,131.63510604349358L170.83333333333331,133.16221293236424L175,134.59422872570744L179.16666666666666,135.93109831337384L183.33333333333334,137.17426202459765L187.5,138.32628314523717L191.66666666666666,139.39054512509946L195.83333333333334,140.3710068809017L200,141.27200640912136L204.16666666666669,142.09810446080596L208.33333333333331,142.85396133678478L212.5,143.54424097047539L216.66666666666666,144.17353740558477L220.83333333333334,144.74631957229846L225,145.2668909392793L229.16666666666666,145.7393611881619L233.33333333333334,146.16762753777735L237.5,146.55536375037872L241.66666666666669,146.90601519303118L245.83333333333331,147.22279861377638L250,147.5087055324631L254.16666666666666,147.76650834731905L258.33333333333337,147.99876842643457L262.5,148.20784559346765L266.66666666666663,148.39590853341912L270.8333333333333,148.56494574097604L275,148.7167767138298L279.1666666666667,148.85306315921582L283.3333333333333,148.9753200359637L287.5,149.0849262985061L291.6666666666667,149.18313524519914L295.83333333333337,149.27108440233L300,149.34980489848311L300,149.40018515638926L295.83333333333337,149.32775096802305L291.6666666666667,149.246856447826L287.5,149.15656175622632L283.3333333333333,149.05583106666032L279.1666666666667,148.9435243038398L275,148.81838847797937L270.8333333333333,148.67904866780052L266.66666666666663,148.5239987284142L262.5,148.35159182903848L258.33333333333337,148.16003096104393L254.16666666666666,147.94735960035877L250,147.71145276136693L245.83333333333331,147.4500087439367L241.66666666666669,147.16054195329914L237.5,146.84037726671326L233.33333333333334,146.48664653422674L229.16666666666666,146.09628793690956L225,145.6660490888743L220.83333333333334,145.19249496409842L216.66666666666666,144.67202196127295L212.5,144.10087969636052L208.33333333333331,143.4752024411539L204.16666666666669,142.79105251613103L200,142.04447840813438L195.83333333333334,141.23159093054036L191.66666666666666,140.34866139042688L187.5,139.39224649112384L183.33333333333334,138.35934559965654L179.16666666666666,137.24759707058317L175,136.05552156813764L170.83333333333331,134.78282179956926L166.66666666666669,133.43074980159088L162.5,132.0025549526072L158.33333333333334,130.50402826677836L154.16666666666666,128.94416132127589L150,127.33594144430563L145.83333333333334,125.69730862894973L141.66666666666666,124.05230413004938L137.5,122.43244595692114L133.33333333333331,120.8783726200446L129.16666666666669,119.44180367188196L125,118.18787397139685L120.83333333333334,117.19790839694585L116.66666666666667,116.5727151633355L112.5,116.4364892334062L108.33333333333333,116.94143286294243L104.16666666666666,118.27321844028361L100,120.65743989671009L95.83333333333333,124.36722355536708L91.66666666666667,129.73219791746334L87.5,135.49129882961634L83.33333333333334,141.6052289551204L79.16666666666667,148.02003686538075L75,154.66348210752628L70.83333333333333,160.95706517810052L66.66666666666666,167.29333782217114L62.5,173.5138600242352L58.333333333333336,179.41870031807565L54.166666666666664,184.75756897068445L50,188.73566958373814L45.833333333333336,191.4837209701918L41.66666666666667,192.52732470763328L37.5,191.286352138268L33.33333333333333,187.05418040799626Z" fill="rgb(129,139,129)" stroke="rgb(119,153,119)"/></g><g><path d="M37.5,191.28635213826797L41.66666666666667,192.5273247076333L45.833333333333336,191.48372097019183L50,188.73566958373817L54.166666666666664,184.7575689706845L58.333333333333336,179.41870031807565L62.5,173.5138600242352L66.66666666666666,167.29333782217117L70.83333333333333,160.95706517810055L75,154.66348210752625L79.16666666666667,148.0200368653808L83.33333333333334,141.60522895512042L87.5,135.49129882961637L91.66666666666667,129.73219791746334L95.83333333333333,124.36722355536705L100,120.65743989671012L104.16666666666666,118.27321844028359L108.33333333333333,116.94143286294246L112.5,116.43648923340618L116.66666666666667,116.57271516333552L120.83333333333334,117.19790839694582L125,118.18787397139684L129.16666666666669,119.44180367188193L133.33333333333331,120.87837262004462L137.5,122.4324459569211L141.66666666666666,124.05230413004944L145.83333333333334,125.69730862894974L150,127.3359414443056L154.16666666666666,128.94416132127589L158.33333333333334,130.50402826677833L162.5,132.00255495260717L166.66666666666669,133.43074980159085L170.83333333333331,134.78282179956923L175,136.05552156813766L179.16666666666666,137.24759707058317L183.33333333333334,138.35934559965656L187.5,139.39224649112379L191.66666666666666,140.34866139042688L195.83333333333334,141.23159093054036L200,142.04447840813438L204.16666666666669,142.791052516131L208.33333333333331,143.47520244115393L212.5,144.10087969636055L216.66666666666666,144.67202196127297L220.83333333333334,145.19249496409844L225,145.66604908887427L229.16666666666666,146.09628793690956L233.33333333333334,146.48664653422676L237.5,146.8403772667132L241.66666666666669,147.16054195329912L245.83333333333331,147.45000874393676L250,147.7114527613669L254.16666666666666,147.94735960035882L258.33333333333337,148.16003096104396L262.5,148.35159182903843L266.66666666666663,148.52399872841417L270.8333333333333,148.67904866780052L275,148.81838847797943L279.1666666666667,148.94352430383984L283.3333333333333,149.0558310666603L287.5,149.1565617562263L291.6666666666667,149.24685644782605L295.83333333333337,149.32775096802305L300,149.40018515638928L300,149.45853995253128L295.83333333333337,149.39336635869122L291.6666666666667,149.32061645837922L287.5,149.2394548842757L283.3333333333333,149.14896209978127L279.1666666666667,149.0481273830867L275,148.93584152216926L270.8333333333333,148.8108892809829L266.66666666666663,148.67194172018162L262.5,148.51754848414475L258.33333333333337,148.34613020091572L254.16666666666666,148.15597118417188L250,147.94521267799755L245.83333333333331,147.71184694776775L241.66666666666669,147.45371259592974L237.5,147.16849157231468L233.33333333333334,146.85370845765303L229.16666666666666,146.50673272957548L225,146.12478487646317L220.83333333333334,145.70494741069163L216.66666666666666,145.24418205450056L212.5,144.73935463525467L208.33333333333331,144.18726953966643L204.16666666666669,143.58471594732973L200,142.92852850282551L195.83333333333334,142.21566560461855L191.66666666666666,141.44330910185275L187.5,140.60898991322293L183.33333333333334,139.71074493431038L179.16666666666666,138.7473116032459L175,137.718367675125L170.83333333333331,136.6248251433404L166.66666666666669,135.46918887600748L162.5,134.2559924488122L158.33333333333334,132.99232589952004L154.16666666666666,131.68847275948355L150,130.3586767982801L145.83333333333334,129.0220625241798L141.66666666666666,127.7037377027722L137.5,126.43611109030236L133.33333333333331,125.26046434507349L129.16666666666669,124.22882381678936L125,123.40618577925223L120.83333333333334,122.87315785140157L116.66666666666667,122.72909006012793L112.5,123.09578148499139L108.33333333333333,124.12186297934701L104.16666666666666,125.98797342022145L100,128.91286669014437L95.83333333333333,133.1606095897502L91.66666666666667,139.0490576441528L87.5,145.3020705289501L83.33333333333334,151.86126877085542L79.16666666666667,158.6487767937073L75,165.56259494453718L70.83333333333333,171.98745165275815L66.66666666666666,178.27071863516736L62.5,184.1987174925362L58.333333333333336,189.50426987875392L54.166666666666664,193.85552886637402L50,196.35911640468902L45.833333333333336,197.0269479345493L41.66666666666667,195.2418369617412L37.5,191.28635213826797Z" fill="rgb(133,146,133)" stroke="rgb(119,153,119)"/></g><g><path d="M41.66666666666667,195.2418369617412L45.833333333333336,197.0269479345493L50,196.35911640468902L54.166666666666664,193.85552886637402L58.333333333333336,189.5042698787539L62.5,184.19871749253616L66.66666666666666,178.27071863516733L70.83333333333333,171.98745165275812L75,165.56259494453718L79.16666666666667,158.64877679370724L83.33333333333334,151.86126877085542L87.5,145.30207052895008L91.66666666666667,139.04905764415278L95.83333333333333,133.16060958975018L100,128.91286669014437L104.16666666666666,125.98797342022146L108.33333333333333,124.12186297934696L112.5,123.09578148499142L116.66666666666667,122.7290900601279L120.83333333333334,122.87315785140154L125,123.40618577925221L129.16666666666669,124.22882381678934L133.33333333333331,125.2604643450735L137.5,126.43611109030238L141.66666666666666,127.70373770277217L145.83333333333334,129.02206252417983L150,130.3586767982801L154.16666666666666,131.68847275948355L158.33333333333334,132.99232589952L162.5,134.2559924488122L166.66666666666669,135.46918887600754L170.83333333333331,136.62482514334044L175,137.718367675125L179.16666666666666,138.7473116032459L183.33333333333334,139.71074493431038L187.5,140.60898991322293L191.66666666666666,141.44330910185272L195.83333333333334,142.21566560461858L200,142.92852850282551L204.16666666666669,143.58471594732978L208.33333333333331,144.18726953966637L212.5,144.73935463525464L216.66666666666666,145.24418205450058L220.83333333333334,145.7049474106916L225,146.1247848764632L229.16666666666666,146.50673272957542L233.33333333333334,146.853708457653L237.5,147.1684915723147L241.66666666666669,147.45371259592974L245.83333333333331,147.7118469477677L250,147.94521267799757L254.16666666666666,148.15597118417188L258.33333333333337,148.34613020091567L262.5,148.5175484841448L266.66666666666663,148.67194172018168L270.8333333333333,148.81088928098288L275,148.93584152216923L279.1666666666667,149.0481273830867L283.3333333333333,149.14896209978127L287.5,149.23945488427574L291.6666666666667,149.32061645837922L295.83333333333337,149.39336635869125L300,149.4585399525313L300,149.52610473074446L295.83333333333337,149.46931264554325L291.6666666666667,149.4059606692919L287.5,149.33533286935702L283.3333333333333,149.2566425364614L279.1666666666667,149.16902655943412L275,149.07153963514L270.8333333333333,148.96314838101117L266.66666666666663,148.8427254401848L262.5,148.70904369691127L258.33333333333337,148.56077075361173L254.16666666666666,148.3964638619011L250,148.21456554943205L245.83333333333331,148.01340024417405L241.66666666666669,147.79117226961927L237.5,147.5459656706657L233.33333333333334,147.27574643318192L229.16666666666666,146.97836778362228L225,146.65157940215857L220.83333333333334,146.2930415578906L216.66666666666666,145.90034538278982L212.5,145.4710407479579L208.33333333333331,145.00267349840814L204.16666666666669,144.49283414889345L200,143.93922055268834L195.83333333333334,143.33971753863122L191.66666666666666,142.6924970819097L187.5,141.99614324598235L183.33333333333334,141.24980692405873L179.16666666666666,140.45339633904823L175,139.60781035450518L170.83333333333331,138.71522293345922L166.66666666666669,137.77942858928728L162.5,136.8062604404151L158.33333333333334,135.80409455223582L154.16666666666666,134.784456675964L150,133.76275033423337L145.83333333333334,132.75912852579026L141.66666666666666,131.7995352064508L137.5,130.91694724341014L133.33333333333331,130.15285284283823L129.16666666666669,129.55900864175817L125,129.19952487997026L120.83333333333334,129.15333649518283L116.66666666666667,129.51712781063625L112.5,130.40878993690546L108.33333333333333,131.97150335227013L104.16666666666666,134.37855366528316L100,137.83900665411005L95.83333333333333,142.60438973162826L91.66666666666667,148.9765514804925L87.5,155.65914301449754L83.33333333333334,162.56850175646383L79.16666666666667,169.59535802598822L75,176.59897817968044L70.83333333333333,182.91656164998386L66.66666666666666,188.83743525914292L62.5,194.07732694222864L58.333333333333336,198.28351707257667L54.166666666666664,201.0208419721119L50,201.2715009231569L45.833333333333336,198.89796190461254L41.66666666666667,195.2418369617412Z" fill="rgb(136,153,136)" stroke="rgb(119,153,119)"/></g><g><path d="M45.833333333333336,198.89796190461254L50,201.2715009231569L54.166666666666664,201.0208419721119L58.333333333333336,198.28351707257673L62.5,194.07732694222864L66.66666666666666,188.83743525914292L70.83333333333333,182.91656164998383L75,176.5989781796805L79.16666666666667,169.59535802598828L83.33333333333334,162.5685017564638L87.5,155.65914301449757L91.66666666666667,148.97655148049253L95.83333333333333,142.6043897316283L100,137.83900665411008L104.16666666666666,134.37855366528316L108.33333333333333,131.97150335227013L112.5,130.4087899369054L116.66666666666667,129.51712781063628L120.83333333333334,129.15333649518286L125,129.1995248799703L129.16666666666669,129.5590086417582L133.33333333333331,130.15285284283823L137.5,130.91694724341016L141.66666666666666,131.7995352064508L145.83333333333334,132.75912852579023L150,133.76275033423337L154.16666666666666,134.784456675964L158.33333333333334,135.80409455223585L162.5,136.80626044041506L166.66666666666669,137.77942858928728L170.83333333333331,138.71522293345916L175,139.60781035450518L179.16666666666666,140.45339633904823L183.33333333333334,141.2498069240587L187.5,141.99614324598238L191.66666666666666,142.69249708190972L195.83333333333334,143.33971753863125L200,143.9392205526883L204.16666666666669,144.4928341488934L208.33333333333331,145.0026734984082L212.5,145.47104074795786L216.66666666666666,145.90034538278977L220.83333333333334,146.2930415578906L225,146.65157940215857L229.16666666666666,146.97836778362233L233.33333333333334,147.27574643318192L237.5,147.54596567066574L241.66666666666669,147.7911722696193L245.83333333333331,148.0134002441741L250,148.21456554943205L254.16666666666666,148.39646386190108L258.33333333333337,148.56077075361173L262.5,148.70904369691124L266.66666666666663,148.8427254401848L270.8333333333333,148.96314838101117L275,149.07153963514L279.1666666666667,149.1690265594341L283.3333333333333,149.25664253646144L287.5,149.33533286935702L291.6666666666667,149.40596066929183L295.83333333333337,149.46931264554323L300,149.52610473074444L300,149.60430076075542L295.83333333333337,149.55717886463202L291.6666666666667,149.50466482656827L287.5,149.4461791019777L283.3333333333333,149.3810865197447L279.1666666666667,149.30869220410472L275,149.22823746483297L270.8333333333333,149.1388957296668L266.66666666666663,149.039768614617L262.5,148.92988225425023L258.33333333333337,148.8081840460491L254.16666666666666,148.67354000162143L250,148.52473294410402L245.83333333333331,148.36046184703258L241.66666666666669,148.17934267696427L237.5,147.9799111822679L233.33333333333334,147.7606281661039L229.16666666666666,147.51988789550737L225,147.2560304339096L220.83333333333334,146.9673588452372L216.66666666666666,146.65216240837304L212.5,146.3087472065135L208.33333333333331,145.9354757229321L204.16666666666669,145.5308173900361L200,145.09341241075074L195.83333333333334,144.62215160997036L191.66666666666666,144.11627559048554L187.5,143.57549707575234L183.33333333333334,143.00015103663262L179.16666666666666,142.3913780389244L175,141.75134723418475L170.83333333333331,141.08352657261827L166.66666666666669,140.39300917224796L162.5,139.68690636651246L158.33333333333334,138.9748198115793L154.16666666666666,138.269407210093L150,137.5870587521971L145.83333333333334,136.94870434839112L141.66666666666666,136.38077520290216L137.5,135.91634733301672L133.33333333333331,135.59649937475797L129.16666666666669,135.47192253933875L125,135.6048270267438L120.83333333333334,136.07119671205632L116.66666666666667,136.963452670161L112.5,138.3935962963998L108.33333333333333,140.49691464796032L104.16666666666666,143.43634444376397L100,147.40760723305868L95.83333333333333,152.64524693830762L91.66666666666667,159.42972271757944L87.5,166.437978986436L83.33333333333334,173.55324751850043L79.16666666666667,180.62547196707678L75,187.46393339235746L70.83333333333333,193.34485302960343L66.66666666666666,198.48346762869198L62.5,202.50580337524826L58.333333333333336,204.95088105871218L54.166666666666664,205.25325059656495L50,202.2387170236389L45.833333333333336,198.89796190461254Z" fill="rgb(139,160,139)" stroke="rgb(119,153,119)"/></g><g><path d="M54.166666666666664,205.25325059656495L58.333333333333336,204.95088105871218L62.5,202.5058033752483L66.66666666666666,198.48346762869193L70.83333333333333,193.34485302960343L75,187.4639333923574L79.16666666666667,180.62547196707675L83.33333333333334,173.55324751850046L87.5,166.43797898643598L91.66666666666667,159.42972271757944L95.83333333333333,152.64524693830765L100,147.40760723305863L104.16666666666666,143.436344443764L108.33333333333333,140.49691464796035L112.5,138.39359629639983L116.66666666666667,136.963452670161L120.83333333333334,136.0711967120563L125,135.60482702674378L129.16666666666669,135.47192253933875L133.33333333333331,135.596499374758L137.5,135.91634733301672L141.66666666666666,136.38077520290219L145.83333333333334,136.9487043483911L150,137.5870587521971L154.16666666666666,138.269407210093L158.33333333333334,138.97481981157932L162.5,139.68690636651246L166.66666666666669,140.3930091722479L170.83333333333331,141.08352657261833L175,141.75134723418475L179.16666666666666,142.39137803892442L183.33333333333334,143.00015103663267L187.5,143.57549707575234L191.66666666666666,144.11627559048554L195.83333333333334,144.6221516099703L200,145.09341241075077L204.16666666666669,145.5308173900361L208.33333333333331,145.9354757229321L212.5,146.30874720651352L216.66666666666666,146.65216240837304L220.83333333333334,146.9673588452372L225,147.2560304339096L229.16666666666666,147.51988789550734L233.33333333333334,147.76062816610394L237.5,147.97991118226784L241.66666666666669,148.17934267696424L245.83333333333331,148.36046184703255L250,148.52473294410404L254.16666666666666,148.6735400016214L258.33333333333337,148.80818404604915L262.5,148.92988225425026L266.66666666666663,149.03976861461695L270.8333333333333,149.1388957296668L275,149.22823746483294L279.1666666666667,149.30869220410472L283.3333333333333,149.3810865197447L287.5,149.44617910197766L291.6666666666667,149.50466482656833L295.83333333333337,149.55717886463202L300,149.60430076075542L300,149.6947619053794L295.83333333333337,149.6587906287816L291.6666666666667,149.6187677533928L287.5,149.57426929697274L283.3333333333333,149.52483275531554L279.1666666666667,149.46995473871408L275,149.40908871787266L270.8333333333333,149.34164295857065L266.66666666666663,149.26697874477728L262.5,149.18440901451822L258.33333333333337,149.0931975623837L254.16666666666666,148.9925589980708L250,148.8816596928517L245.83333333333331,148.75961999662755L241.66666666666669,148.6255180687642L237.5,148.47839573795602L233.33333333333334,148.31726689198908L229.16666666666666,148.14112899987646L225,147.94897848923466L220.83333333333334,147.7398308442502L216.66666666666666,147.51274645801172L212.5,147.26686347184094L208.33333333333331,147.00143906881877L204.16666666666669,146.715900965095L200,146.4099111679601L195.83333333333334,146.0834444524005L191.66666666666666,145.73688445769056L187.5,145.37114083384964L183.33333333333334,144.98779148773673L179.16666666666666,144.58925470557253L175,144.17899678069577L170.83333333333331,143.76178177325252L166.66666666666669,143.3439711965555L162.5,142.93388279128047L158.33333333333334,142.54221914630457L154.16666666666666,142.18257879201616L150,141.87206457265637L145.83333333333334,141.63200665021617L141.66666666666666,141.4888204634205L137.5,141.47502343084085L133.33333333333331,141.63043822781594L129.16666666666669,142.00361517617645L125,142.65351177232768L120.83333333333334,143.65147376893972L116.66666666666667,145.08356966435775L112.5,147.0533391111581L108.33333333333333,149.68502582730338L104.16666666666666,153.12737730750746L100,157.55810725227698L95.83333333333333,163.18913246293673L91.66666666666667,170.27271434641872L87.5,177.45090016612917L83.33333333333334,184.5639877028212L79.16666666666667,191.40936710589006L75,197.73227577300923L70.83333333333333,202.73119254176393L66.66666666666666,206.5273081811196L62.5,208.63323008216548L58.333333333333336,208.451574334884L54.166666666666664,205.25325059656495Z" fill="rgb(143,167,143)" stroke="rgb(119,153,119)"/></g><g><path d="M58.333333333333336,208.45157433488396L62.5,208.63323008216545L66.66666666666666,206.52730818111962L70.83333333333333,202.73119254176396L75,197.7322757730093L79.16666666666667,191.40936710589006L83.33333333333334,184.56398770282124L87.5,177.4509001661292L91.66666666666667,170.27271434641875L95.83333333333333,163.18913246293667L100,157.55810725227704L104.16666666666666,153.12737730750743L108.33333333333333,149.6850258273034L112.5,147.0533391111581L116.66666666666667,145.08356966435773L120.83333333333334,143.65147376893975L125,142.65351177232765L129.16666666666669,142.00361517617648L133.33333333333331,141.63043822781592L137.5,141.47502343084085L141.66666666666666,141.48882046342047L145.83333333333334,141.63200665021617L150,141.87206457265634L154.16666666666666,142.18257879201613L158.33333333333334,142.54221914630452L162.5,142.93388279128052L166.66666666666669,143.34397119655551L170.83333333333331,143.7617817732525L175,144.17899678069577L179.16666666666666,144.5892547055725L183.33333333333334,144.9877914877367L187.5,145.3711408338496L191.66666666666666,145.73688445769054L195.83333333333334,146.08344445240053L200,146.4099111679601L204.16666666666669,146.71590096509502L208.33333333333331,147.00143906881877L212.5,147.26686347184094L216.66666666666666,147.51274645801172L220.83333333333334,147.73983084425024L225,147.94897848923463L229.16666666666666,148.14112899987649L233.33333333333334,148.3172668919891L237.5,148.47839573795605L241.66666666666669,148.62551806876422L245.83333333333331,148.75961999662752L250,148.8816596928517L254.16666666666666,148.99255899807082L258.33333333333337,149.09319756238364L262.5,149.1844090145182L266.66666666666663,149.26697874477733L270.8333333333333,149.34164295857062L275,149.40908871787272L279.1666666666667,149.4699547387141L283.3333333333333,149.5248327553155L287.5,149.57426929697272L291.6666666666667,149.6187677533928L295.83333333333337,149.65879062878165L300,149.69476190537944L300,149.7993649846263L295.83333333333337,149.77624367297148L291.6666666666667,149.7506083665752L287.5,149.72221228874017L283.3333333333333,149.69078941042181L279.1666666666667,149.65605397858587L275,149.61770030168577L270.8333333333333,149.57540287520126L266.66666666666663,149.52881694860832L262.5,149.47757965714882L258.33333333333337,149.4213118679851L254.16666666666666,149.35962092149708L250,149.29210448551763L245.83333333333331,149.2183557842164L241.66666666666669,149.1379705153574L237.5,149.05055583118363L233.33333333333334,148.95574183088323L229.16666666666666,148.853196098389L225,148.74264192043336L220.83333333333334,148.6238809389414L216.66666666666666,148.4968211320899L212.5,148.3615111832668L208.33333333333331,148.2181824909179L204.16666666666669,148.06730029974884L200,147.90962570062283L195.83333333333334,147.74629055938786L191.66666666666666,147.5788878014617L187.5,147.40957990826624L183.33333333333334,147.24122898394174L179.16666666666666,147.0775523383142L175,146.92330821890343L170.83333333333331,146.784517127227L166.66666666666669,146.66872509178557L162.5,146.5853163640033L158.33333333333334,146.54588427968577L154.16666666666666,146.564670517045L150,146.65908471756376L145.83333333333334,146.85031845807154L141.66666666666666,147.16406991787622L137.5,147.63139832763326L133.33333333333331,148.28973047940113L129.16666666666669,149.18404529258103L125,150.3682667522655L120.83333333333334,151.906900562374L116.66666666666667,153.8769556987409L112.5,156.37019883784757L108.33333333333333,159.49579752663715L104.16666666666666,163.38341712324242L100,168.18684718060354L95.83333333333333,174.08824529994757L91.66666666666667,181.30310082107636L87.5,188.4282809791254L83.33333333333334,195.2488451711222L79.16666666666667,201.49493666656832L75,206.8302356686988L70.83333333333333,210.3546393627148L66.66666666666666,212.0705351454771L62.5,211.34774233627334L58.333333333333336,208.45157433488396Z" fill="rgb(146,173,146)" stroke="rgb(119,153,119)"/></g><g><path d="M62.5,211.34774233627334L66.66666666666666,212.0705351454771L70.83333333333333,210.3546393627148L75,206.83023566869878L79.16666666666667,201.49493666656838L83.33333333333334,195.24884517112218L87.5,188.42828097912533L91.66666666666667,181.30310082107633L95.83333333333333,174.08824529994763L100,168.18684718060348L104.16666666666666,163.38341712324245L108.33333333333333,159.49579752663712L112.5,156.37019883784754L116.66666666666667,153.87695569874086L120.83333333333334,151.906900562374L125,150.36826675226553L129.16666666666669,149.18404529258098L133.33333333333331,148.28973047940116L137.5,147.63139832763324L141.66666666666666,147.1640699178762L145.83333333333334,146.85031845807154L150,146.65908471756376L154.16666666666666,146.56467051704502L158.33333333333334,146.5458842796858L162.5,146.58531636400326L166.66666666666669,146.66872509178555L170.83333333333331,146.784517127227L175,146.92330821890343L179.16666666666666,147.07755233831418L183.33333333333334,147.24122898394174L187.5,147.4095799082663L191.66666666666666,147.57888780146175L195.83333333333334,147.74629055938786L200,147.90962570062283L204.16666666666669,148.06730029974884L208.33333333333331,148.21818249091785L212.5,148.36151118326677L216.66666666666666,148.49682113208993L220.83333333333334,148.62388093894137L225,148.7426419204334L229.16666666666666,148.85319609838893L233.33333333333334,148.9557418308832L237.5,149.05055583118366L241.66666666666669,149.13797051535738L245.83333333333331,149.21835578421644L250,149.29210448551757L254.16666666666666,149.35962092149705L258.33333333333337,149.42131186798514L262.5,149.47757965714882L266.66666666666663,149.52881694860827L270.8333333333333,149.5754028752013L275,149.61770030168577L279.1666666666667,149.65605397858582L283.3333333333333,149.69078941042187L287.5,149.72221228874022L291.6666666666667,149.75060836657516L295.83333333333337,149.77624367297145L300,149.7993649846263L300,149.92026416097372L295.83333333333337,149.91194178594222L291.6666666666667,149.90286746660345L287.5,149.89299600874335L283.3333333333333,149.88228462318833L279.1666666666667,149.87069453128188L275,149.858192979415L270.8333333333333,149.84475574663577L266.66666666666663,149.83037024501462L262.5,149.81503933083835L258.33333333333337,149.79878596633614L254.16666666666666,149.78165889702598L250,149.76373953956443L245.83333333333331,149.74515030991182L241.66666666666669,149.72606466255638L237.5,149.7067191594729L233.33333333333334,149.68742794358644L229.16666666666666,149.6686000571307L225,149.65076012199708L220.83333333333334,149.6345729888042L216.66666666666666,149.62087306610258L212.5,149.61069916332374L208.33333333333331,149.60533582367728L204.16666666666669,149.60636228949718L200,149.61571043642516L195.83333333333334,149.63573323876804L191.66666666666666,149.66928559158052L187.5,149.71981962154604L183.33333333333334,149.79149697554462L179.16666666666666,149.88932099103L175,150.0192921353839L170.83333333333331,150.18859066318026L166.66666666666669,150.40579109339598L162.5,150.6811138676819L158.33333333333334,151.02672043279355L154.16666666666666,151.45705901480974L150,151.98926954253258L145.83333333333334,152.64365755878958L141.66666666666666,153.44424856165747L137.5,154.4194360781416L133.33333333333331,155.6027389313152L129.16666666666669,157.03368566550415L125,158.75884699732723L120.83333333333334,160.8330405263397L116.66666666666667,163.32073584061894L112.5,166.29769267418726L108.33333333333333,169.85287001218458L104.16666666666666,174.09065010885087L100,179.13342841288446L95.83333333333333,185.1246285350909L91.66666666666667,192.23221081830206L87.5,198.99499760310093L83.33333333333334,205.12745462081466L79.16666666666667,210.27418386039116L75,213.99554877443666L70.83333333333333,215.2670238811827L66.66666666666666,213.9415491155403L62.5,211.34774233627334Z" fill="rgb(150,180,150)" stroke="rgb(119,153,119)"/></g><g><path d="M66.66666666666666,213.94154911554034L70.83333333333333,215.2670238811827L75,213.99554877443666L79.16666666666667,210.27418386039113L83.33333333333334,205.12745462081466L87.5,198.99499760310093L91.66666666666667,192.23221081830204L95.83333333333333,185.1246285350909L100,179.13342841288454L104.16666666666666,174.0906501088508L108.33333333333333,169.8528700121846L112.5,166.29769267418732L116.66666666666667,163.32073584061897L120.83333333333334,160.83304052633972L125,158.75884699732723L129.16666666666669,157.03368566550415L133.33333333333331,155.60273893131514L137.5,154.41943607814162L141.66666666666666,153.4442485616575L145.83333333333334,152.64365755878964L150,151.9892695425326L154.16666666666666,151.45705901480974L158.33333333333334,151.02672043279358L162.5,150.6811138676819L166.66666666666669,150.405791093396L170.83333333333331,150.18859066318026L175,150.01929213538392L179.16666666666666,149.88932099103002L183.33333333333334,149.7914969755446L187.5,149.71981962154604L191.66666666666666,149.66928559158046L195.83333333333334,149.63573323876804L200,149.61571043642516L204.16666666666669,149.60636228949716L208.33333333333331,149.6053358236773L212.5,149.61069916332377L216.66666666666666,149.6208730661026L220.83333333333334,149.63457298880417L225,149.65076012199702L229.16666666666666,149.66860005713076L233.33333333333334,149.6874279435864L237.5,149.70671915947284L241.66666666666669,149.72606466255638L245.83333333333331,149.74515030991182L250,149.76373953956448L254.16666666666666,149.78165889702598L258.33333333333337,149.79878596633617L262.5,149.81503933083837L266.66666666666663,149.83037024501468L270.8333333333333,149.84475574663577L275,149.85819297941498L279.1666666666667,149.87069453128188L283.3333333333333,149.8822846231883L287.5,149.89299600874335L291.6666666666667,149.90286746660345L295.83333333333337,149.91194178594222L300,149.9202641609737L300,150.05992980564432L295.83333333333337,150.0686396156352L291.6666666666667,150.0786148152591L287.5,150.09003918317555L283.3333333333333,150.1031231805273L279.1666666666667,150.11810782371924L275,150.13526911913533L270.8333333333333,150.15492314130773L266.66666666666663,150.17743184787315L262.5,150.20320973818335L258.33333333333337,150.23273147793833L254.16666666666666,150.26654062994797L250,150.30525965144952L245.83333333333331,150.34960134166283L241.66666666666669,150.40038194990296L237.5,150.45853618505612L233.33333333333334,150.52513440214204L229.16666666666666,150.60140228165466L225,150.68874336313974L220.83333333333334,150.7887648468666L216.66666666666666,150.90330713744171L212.5,151.0344776718996L208.33333333333331,151.18468965344726L204.16666666666669,151.35670640207107L200,151.55369213630132L195.83333333333334,151.7792701184476L191.66666666666666,152.03758923073957L187.5,152.33340020450672L183.33333333333334,152.672142901642L179.16666666666666,153.06004625037346L175,153.50424266951293L170.83333333333331,154.01289908114398L166.66666666666669,154.5953669159969L162.5,155.26235386413325L158.33333333333334,156.02612052240013L154.16666666666666,156.90070554672948L150,157.90218344011316L145.83333333333334,159.04895970556314L141.66666666666666,160.36210877853097L137.5,161.86576093766632L133.33333333333331,163.58754529080954L129.16666666666669,165.55909696119434L125,167.81663777580803L120.83333333333334,170.40164110528832L116.66666666666667,173.3615930472983L112.5,176.75086391127422L108.33333333333333,180.63170598412304L104.16666666666666,185.07539587088743L100,190.16354235397304L95.83333333333333,195.98958374776785L91.66666666666667,202.66050219792163L87.5,208.64102997265L83.33333333333334,213.55593105383429L79.16666666666667,216.9415478465266L75,218.2279573988897L70.83333333333333,216.2342399816647L66.66666666666666,213.94154911554034Z" fill="rgb(153,187,153)" stroke="rgb(119,153,119)"/></g><g><path d="M75,218.2279573988897L79.16666666666667,216.9415478465266L83.33333333333334,213.55593105383429L87.5,208.64102997264996L91.66666666666667,202.66050219792163L95.83333333333333,195.98958374776782L100,190.163542353973L104.16666666666666,185.07539587088746L108.33333333333333,180.63170598412302L112.5,176.7508639112742L116.66666666666667,173.3615930472983L120.83333333333334,170.40164110528826L125,167.8166377758081L129.16666666666669,165.55909696119437L133.33333333333331,163.5875452908096L137.5,161.86576093766632L141.66666666666666,160.36210877853094L145.83333333333334,159.0489597055631L150,157.90218344011316L154.16666666666666,156.9007055467295L158.33333333333334,156.02612052240013L162.5,155.26235386413327L166.66666666666669,154.59536691599686L170.83333333333331,154.01289908114398L175,153.5042426695129L179.16666666666666,153.0600462503735L183.33333333333334,152.672142901642L187.5,152.33340020450666L191.66666666666666,152.03758923073963L195.83333333333334,151.7792701184476L200,151.55369213630135L204.16666666666669,151.35670640207113L208.33333333333331,151.18468965344726L212.5,151.0344776718996L216.66666666666666,150.90330713744166L220.83333333333334,150.78876484686663L225,150.68874336313974L229.16666666666666,150.60140228165466L233.33333333333334,150.52513440214207L237.5,150.45853618505612L241.66666666666669,150.40038194990296L245.83333333333331,150.34960134166283L250,150.3052596514495L254.16666666666666,150.266540629948L258.33333333333337,150.23273147793827L262.5,150.20320973818332L266.66666666666663,150.17743184787312L270.8333333333333,150.15492314130776L275,150.1352691191353L279.1666666666667,150.1181078237193L283.3333333333333,150.10312318052732L287.5,150.0900391831755L291.6666666666667,150.0786148152591L295.83333333333337,150.06863961563516L300,150.05992980564432L300,150.22119234025368L295.83333333333337,150.24949086867488L291.6666666666667,150.28136204416293L287.5,150.31724931333582L283.3333333333333,150.35764994079528L279.1666666666667,150.40312134005384L275,150.4542881155847L270.8333333333333,150.51184989005543L266.66666666666663,150.57658999746812L262.5,150.64938512998327L258.33333333333337,150.73121603362645L254.16666666666666,150.82317935583313L250,150.9265007558186L245.83333333333331,151.0425493969879L241.66666666666669,151.17285394891599L237.5,151.3191202346948L233.33333333333334,151.4832506674695L229.16666666666666,151.66736562754133L225,151.87382693819862L220.83333333333334,152.10526360407596L216.66666666666666,152.36459997987185L212.5,152.65508653910462L208.33333333333331,152.98033341154456L204.16666666666669,153.34434685317518L200,153.75156880294946L195.83333333333334,154.20691966495863L191.66666666666666,154.71584443137382L187.5,155.28436222881425L183.33333333333334,155.91911932641L179.16666666666666,156.62744558509874L175,157.41741425143607L170.83333333333331,158.29790490160326L166.66666666666669,159.27866921782194L162.5,160.37039912465158L158.33333333333334,161.58479662022427L154.16666666666666,162.93464439978746L150,164.43387607695087L145.83333333333334,166.097644451147L141.66666666666666,167.94238583541437L137.5,169.9858779318631L133.33333333333331,172.24728810556786L129.16666666666669,174.7472081405374L125,177.50767063955155L120.83333333333334,180.55214112450662L116.66666666666667,183.90547857192738L112.5,187.59385554011348L108.33333333333333,191.6446271638162L104.16666666666666,196.08613605520821L100,200.94743749278632L95.83333333333333,206.25792612841965L91.66666666666667,212.04684171008213L87.5,216.68487052507763L83.33333333333334,219.68335776075148L79.16666666666667,220.4422411226984L75,218.2279573988897Z" fill="rgb(156,194,156)" stroke="rgb(119,153,119)"/></g><g><path d="M79.16666666666667,220.44224112269836L83.33333333333334,219.68335776075145L87.5,216.68487052507766L91.66666666666667,212.0468417100822L95.83333333333333,206.25792612841968L100,200.94743749278632L104.16666666666666,196.08613605520824L108.33333333333333,191.6446271638162L112.5,187.5938555401135L116.66666666666667,183.90547857192735L120.83333333333334,180.55214112450668L125,177.50767063955152L129.16666666666669,174.74720814053745L133.33333333333331,172.24728810556786L137.5,169.98587793186306L141.66666666666666,167.9423858354144L145.83333333333334,166.097644451147L150,164.43387607695084L154.16666666666666,162.93464439978743L158.33333333333334,161.58479662022427L162.5,160.37039912465156L166.66666666666669,159.27866921782197L170.83333333333331,158.29790490160323L175,157.41741425143607L179.16666666666666,156.62744558509868L183.33333333333334,155.91911932641005L187.5,155.28436222881427L191.66666666666666,154.7158444313738L195.83333333333334,154.20691966495863L200,153.75156880294944L204.16666666666669,153.34434685317515L208.33333333333331,152.98033341154454L212.5,152.6550865391046L216.66666666666666,152.36459997987188L220.83333333333334,152.10526360407596L225,151.87382693819865L229.16666666666666,151.66736562754127L233.33333333333334,151.4832506674695L237.5,151.3191202346948L241.66666666666669,151.172853948916L245.83333333333331,151.04254939698788L250,150.92650075581864L254.16666666666666,150.82317935583316L258.33333333333337,150.73121603362648L262.5,150.6493851299833L266.66666666666663,150.5765899974681L270.8333333333333,150.51184989005543L275,150.45428811558472L279.1666666666667,150.4031213400538L283.3333333333333,150.35764994079526L287.5,150.31724931333588L291.6666666666667,150.2813620441629L295.83333333333337,150.24949086867494L300,150.2211923402537L300,150.40729158012547L295.83333333333337,150.458102452488L291.6666666666667,150.51512196079355L287.5,150.57908751716687L283.3333333333333,150.65082058342588L279.1666666666667,150.73123564565526L275,150.82135003901098L270.8333333333333,150.92229468272134L266.66666666666663,151.03532578505698L262.5,151.1618375765765L258.33333333333337,151.30337612685406L254.16666666666666,151.46165429472728L250,151.63856785433114L245.83333333333331,151.8362128281866L241.66666666666669,152.05690404360718L237.5,152.30319490877298L233.33333333333334,152.57789837889536L229.16666666666666,152.88410904964041L225,153.22522627285247L220.83333333333334,153.60497813673868L216.66666666666666,154.02744608685921L212.5,154.49708988287574L208.33333333333331,155.01877248596116L204.16666666666669,155.5977843493802L200,156.23986643569114L195.83333333333334,156.9512311031663L191.66666666666666,157.7385797853483L187.5,158.60911612404433L183.33333333333334,159.57055289913282L179.16666666666666,160.63111071847993L175,161.79950597646496L170.83333333333331,163.08492504651065L166.66666666666669,164.49698102567737L162.5,166.0456485791073L158.33333333333334,167.74117151701668L154.16666666666666,169.59393665137264L150,171.6143061933554L145.83333333333334,173.81239943108486L141.66666666666666,176.19781262884865L137.5,178.77926396624622L133.33333333333331,181.56414783225733L129.16666666666669,184.5579798398712L125,187.7637104552865L120.83333333333334,191.18088105283317L116.66666666666667,194.80459140893828L112.5,198.6242420147711L108.33333333333333,202.6220079768124L104.16666666666666,206.77099352350922L100,211.0330070534646L95.83333333333333,215.3558860241092L91.66666666666667,219.67028853103304L87.5,222.22809748943513L83.33333333333334,222.3978700148593L79.16666666666667,220.44224112269836Z" fill="rgb(160,201,160)" stroke="rgb(119,153,119)"/></g><g><path d="M83.33333333333334,222.39787001485934L87.5,222.22809748943513L91.66666666666667,219.67028853103304L95.83333333333333,215.3558860241092L100,211.03300705346456L104.16666666666666,206.7709935235092L108.33333333333333,202.62200797681237L112.5,198.62424201477108L116.66666666666667,194.80459140893828L120.83333333333334,191.18088105283312L125,187.7637104552865L129.16666666666669,184.55797983987117L133.33333333333331,181.5641478322573L137.5,178.77926396624622L141.66666666666666,176.19781262884865L145.83333333333334,173.81239943108488L150,171.6143061933554L154.16666666666666,169.59393665137264L158.33333333333334,167.74117151701665L162.5,166.04564857910728L166.66666666666669,164.49698102567734L170.83333333333331,163.08492504651065L175,161.79950597646496L179.16666666666666,160.63111071847996L183.33333333333334,159.5705528991328L187.5,158.60911612404436L191.66666666666666,157.7385797853483L195.83333333333334,156.9512311031663L200,156.2398664356911L204.16666666666669,155.5977843493802L208.33333333333331,155.01877248596122L212.5,154.4970898828758L216.66666666666666,154.02744608685921L220.83333333333334,153.60497813673868L225,153.22522627285247L229.16666666666666,152.88410904964041L233.33333333333334,152.57789837889533L237.5,152.303194908773L241.66666666666669,152.05690404360715L245.83333333333331,151.83621282818666L250,151.6385678543311L254.16666666666666,151.46165429472725L258.33333333333337,151.3033761268541L262.5,151.16183757657646L266.66666666666663,151.035325785057L270.8333333333333,150.9222946827213L275,150.82135003901095L279.1666666666667,150.7312356456553L283.3333333333333,150.65082058342588L287.5,150.5790875171668L291.6666666666667,150.51512196079358L295.83333333333337,150.458102452488L300,150.40729158012542L300,150.62193213282148L295.83333333333337,150.69859513021723L291.6666666666667,150.78447483222806L287.5,150.88064081357317L283.3333333333333,150.9882802571154L279.1666666666667,151.1087097440063L275,151.24338801453987L270.8333333333333,151.39392973676814L266.66666666666663,151.5621203107524L262.5,151.74993172377546L258.33333333333337,151.95953945514333L254.16666666666666,152.1933404074305L250,152.45397181307285L245.83333333333331,152.74433102975033L241.66666666666669,153.06759609346997L237.5,153.42724684278565L233.33333333333334,153.8270863589523L229.16666666666666,154.27126238239984L225,154.76428826260081L220.83333333333334,155.31106287254102L216.66666666666666,155.9168887662394L212.5,156.58748767299457L208.33333333333331,157.32901219924096L204.16666666666669,158.14805234098307L200,159.05163508840693L195.83333333333334,160.04721501964676L191.66666666666666,161.14265332130157L187.5,162.3461821256548L183.33333333333334,163.66635040281142L179.16666666666666,165.11194687158772L175,166.69189447422968L170.83333333333331,168.41510987147947L166.66666666666669,170.2903201263954L162.5,172.32582722288856L158.33333333333334,174.529209267525L154.16666666666666,176.9069451032867L150,179.46394656627857L145.83333333333334,182.20297967614658L141.66666666666666,185.12395259281433L137.5,188.2230441081243L133.33333333333331,191.49164166859703L129.16666666666669,194.91505232541863L125,198.47094344089493L120.83333333333334,202.1274622851141L116.66666666666667,205.84097464408154L112.5,209.55335201199682L108.33333333333333,213.18872460078796L104.16666666666666,216.64960297320167L100,219.81225424728734L95.83333333333333,222.5211991298471L91.66666666666667,224.58267304950093L87.5,224.09911145949837L83.33333333333334,222.39787001485934Z" fill="rgb(163,207,163)" stroke="rgb(119,153,119)"/></g><g><path d="M87.5,224.09911145949837L91.66666666666667,224.58267304950095L95.83333333333333,222.5211991298471L100,219.8122542472874L104.16666666666666,216.64960297320167L108.33333333333333,213.18872460078796L112.5,209.5533520119968L116.66666666666667,205.8409746440816L120.83333333333334,202.12746228511415L125,198.4709434408949L129.16666666666669,194.91505232541863L133.33333333333331,191.49164166859705L137.5,188.22304410812433L141.66666666666666,185.12395259281436L145.83333333333334,182.20297967614658L150,179.46394656627857L154.16666666666666,176.90694510328666L158.33333333333334,174.52920926752503L162.5,172.32582722288856L166.66666666666669,170.29032012639544L170.83333333333331,168.4151098714795L175,166.69189447422968L179.16666666666666,165.11194687158775L183.33333333333334,163.66635040281142L187.5,162.34618212565476L191.66666666666666,161.14265332130157L195.83333333333334,160.04721501964679L200,159.05163508840695L204.16666666666669,158.14805234098304L208.33333333333331,157.32901219924096L212.5,156.5874876729945L216.66666666666666,155.9168887662394L220.83333333333334,155.31106287254102L225,154.7642882626008L229.16666666666666,154.27126238239987L233.33333333333334,153.82708635895233L237.5,153.42724684278562L241.66666666666669,153.06759609346994L245.83333333333331,152.74433102975027L250,152.4539718130729L254.16666666666666,152.19334040743047L258.33333333333337,151.95953945514327L262.5,151.74993172377546L266.66666666666663,151.5621203107524L270.8333333333333,151.3939297367682L275,151.24338801453987L279.1666666666667,151.10870974400632L283.3333333333333,150.98828025711543L287.5,150.88064081357322L291.6666666666667,150.78447483222806L295.83333333333337,150.6985951302172L300,150.62193213282148L300,150.86934542525884L295.83333333333337,150.97567126993755L291.6666666666667,151.09464222690002L287.5,151.2277024164317L283.3333333333333,151.3764506644604L279.1666666666667,151.54265525560848L275,151.72826974746187L270.8333333333333,151.93544984865323L266.66666666666663,152.1665713425034L262.5,152.42424901112204L258.33333333333337,152.71135648072655L254.16666666666666,153.0310468659861L250,153.3867740375968L245.83333333333331,153.78231427089298L241.66666666666669,154.22178795153238L237.5,154.70968091412473L233.33333333333334,155.25086486752815L229.16666666666666,155.85061621216983L225,156.5146323751747L220.83333333333334,157.24904457241718L216.66666666666666,158.06042564591897L212.5,158.95579131215362L208.33333333333331,159.94259278220164L204.16666666666669,161.02869826708044L200,162.2223603477504L195.83333333333334,163.5321655537758L191.66666666666666,164.9669617392653L187.5,166.53575794825565L183.33333333333334,168.24759039926278L179.16666666666666,170.1113469611943L175,172.13554100614942L170.83333333333331,174.32802376906005L166.66666666666669,176.69562227316894L162.5,179.24368743976203L158.33333333333334,181.97553412704974L154.16666666666666,184.89175146278106L150,187.98935786196876L145.83333333333334,191.2607704546274L141.66666666666666,194.69255317176297L137.5,198.26390131480366L133.33333333333331,201.94481290568396L129.16666666666669,205.69388829735706L125,209.45568920293152L120.83333333333334,213.15757622620265L116.66666666666667,216.70592985675856L112.5,219.9816433916164L108.33333333333333,222.83475697033703L104.16666666666666,225.0780794062213L100,226.47961823342285L95.83333333333333,226.7536077543002L91.66666666666667,225.54988914998296L87.5,224.09911145949837Z" fill="rgb(167,214,167)" stroke="rgb(119,153,119)"/></g></g></g></svg>
