<svg font-size="10px" font-family="sans-serif" fill="none" stroke="none" stroke-width="1.5" width="300" height="300"><g><g><g><path d="M-8.333333333333332,150L-4.166666666666666,0L0,92.10125514573261L4.166666666666666,107.57920319685743L8.333333333333332,112.59361737505047L12.5,129.99309047456265L16.666666666666664,126.22521039818037L20.833333333333336,134.06499041151739L25,136.14009485051474L29.166666666666668,136.33967848415972L33.33333333333333,142.06670954564044L37.5,139.5562410827226L41.66666666666667,142.79470494186984L45.833333333333336,143.43005106036247L50,143.0530109983625L54.166666666666664,146.40409178273484L58.333333333333336,144.31385833961187L62.5,146.3163318144706L66.66666666666666,146.52934616285873L70.83333333333333,145.98975628408618L75,148.4685651053412L79.16666666666667,146.5645968163886L83.33333333333334,148.06676929496646L87.5,148.10303760406157L91.66666666666667,147.49699061775138L95.83333333333333,149.571688607517L100,151.14144096649866L104.16666666666666,152.3705910829102L108.33333333333333,153.35914440683644L112.5,154.1714459088464L116.66666666666667,154.85077408413497L120.83333333333334,155.4273101065892L125,155.9227438817919L129.16666666666669,156.35306401334057L133.33333333333331,156.7303155640084L137.5,157.0637452680104L141.66666666666666,157.36056956365283L145.83333333333334,157.62650283446985L150,157.86612888294638L154.16666666666666,158.08316735693387L158.33333333333334,158.28066822567735L162.5,158.46115599825154L166.66666666666669,158.62673821121308L170.83333333333331,158.77918810379538L175,158.9200083724986L179.16666666666666,159.05048087121386L183.33333333333334,159.17170574341642L187.5,159.2846325183147L191.66666666666666,159.39008503253754L195.83333333333334,159.4887815618774L200,159.58135120381516L204.16666666666669,159.66834730090972L208.33333333333331,159.75025851041062L212.5,159.82751798794422L216.66666666666666,159.9005110497772L220.83333333333334,159.9695815998129L225,160.0350375475741L229.16666666666666,160.09715539727281L233.33333333333334,160.1561841522436L237.5,160.2123486510097L241.66666666666669,160.2658524292257L245.83333333333331,160.31688018428804L250,160.36559990551558L254.16666666666666,160.41216472167292L258.33333333333337,160.4567145086458L262.5,160.49937729282743L266.66666666666663,160.54027047987253L270.8333333333333,160.57950193365642L275,160.61717092632017L279.1666666666667,160.6533689770206L283.3333333333333,160.6881805943038L287.5,160.72168393478074L291.6666666666667,160.75395138890937L295.83333333333337,160.7850501031262L300,160.81504244625015L300,163.46446792767264L295.83333333333337,163.44600575507735L291.6666666666667,163.4268625415248L287.5,163.40699989508633L283.3333333333333,163.38637648290913L279.1666666666667,163.3649477441158L275,163.34266556839907L270.8333333333333,163.3194779354364L266.66666666666663,163.2953285094336L262.5,163.27015618214733L258.33333333333337,163.24389455658172L254.16666666666666,163.21647136217584L250,163.18780779063653L245.83333333333331,163.15781773956314L241.66666666666669,163.12640694857498L237.5,163.09347200968605L233.33333333333334,163.0588992300382L229.16666666666666,163.02256332064115L225,162.98432587925L220.83333333333334,162.94403362865918L216.66666666666666,162.90151636314445L212.5,162.85658454503843L208.33333333333331,162.80902647986986L204.16666666666669,162.75860498125454L200,162.70505341467506L195.83333333333334,162.648070980876L191.66666666666666,162.5873170627277L187.5,162.52240441118383L183.33333333333334,162.4528908823413L179.16666666666666,162.3782693529664L175,162.29795532814134L170.83333333333331,162.21127160039893L166.66666666666669,162.1174291080883L162.5,162.01550284704985L158.33333333333334,161.90440127706472L154.16666666666666,161.7828270768966L150,161.64922625251234L145.83333333333334,161.50172135611206L141.66666666666666,161.33802271061566L137.5,161.1553086974431L133.33333333333331,160.95006175430697L129.16666666666669,160.71783970978427L125,160.45295061769016L120.83333333333334,160.14797998470138L116.66666666666667,159.7930858202154L112.5,159.37491662385793L108.33333333333333,158.87489398582855L104.16666666666666,158.26637727172766L100,157.50975810726538L95.83333333333333,156.5434768512925L91.66666666666667,155.2663698172787L87.5,156.77724246845068L83.33333333333334,157.77002914404187L79.16666666666667,157.44168955032285L75,160.6893825892776L70.83333333333333,159.65475535721276L66.66666666666666,161.8519948799749L62.5,163.55091407573872L58.333333333333336,163.76656892047862L54.166666666666664,168.44836132305466L50,167.91888627676832L45.833333333333336,171.61561592275908L41.66666666666667,174.92547210746488L37.5,176.43465063035356L33.33333333333333,184.7496892062311L29.166666666666668,185.53643136858133L25,193.43824721426574L20.833333333333336,201.6921290088617L16.666666666666664,207.47661804000884L12.5,230.12637321876576L8.333333333333332,235.6157786738952L4.166666666666666,263.6886251701724L0,300L-4.166666666666666,300L-8.333333333333332,165Z" fill="rgb(102,85,102)" stroke="rgb(119,153,119)"/></g><g><path d="M-8.333333333333332,135L-4.166666666666666,0L-4.166666666666666,0L-8.333333333333332,150ZM-4.166666666666666,0L0,0L4.166666666666666,2.842170943040401e-14L8.333333333333332,12.676828381306734L12.5,41.27296829134946L16.666666666666664,50.2353465200286L20.833333333333336,68.43939896121515L25,79.02685231339763L29.166666666666668,86.29267889319101L33.33333333333333,97.9457248807405L37.5,100.94030853654786L41.66666666666667,108.79064861539473L45.833333333333336,113.33440499292905L50,116.30026823151752L54.166666666666664,122.53205003105052L58.333333333333336,123.12856037106576L62.5,127.45315604106571L66.66666666666666,129.68482906311718L70.83333333333333,130.9085258205933L75,134.9336994912361L79.16666666666667,134.47969712267263L83.33333333333334,137.2550317256477L87.5,138.41259722504847L91.66666666666667,138.79659719362053L95.83333333333333,141.74730370134245L100,143.9798592462979L104.16666666666666,145.72799862145223L108.33333333333333,147.13395300157325L112.5,148.28923600663563L116.66666666666667,149.25539979413188L120.83333333333334,150.075369062808L125,150.77999193893126L129.16666666666669,151.39200796190332L133.33333333333331,151.92854803235932L137.5,152.40276317225909L141.66666666666666,152.8249168472145L145.83333333333334,153.20313624911796L150,153.54394061878884L154.16666666666666,153.85262016674235L158.33333333333334,154.13351266365368L162.5,154.3902085527547L166.66666666666669,154.62570524468703L170.83333333333331,154.84252470099497L175,155.04280410808528L179.16666666666666,155.22836656244596L183.33333333333334,155.40077672579037L187.5,155.56138505106574L191.66666666666666,155.71136322692936L195.83333333333334,155.85173280980325L200,155.98338852366166L204.16666666666669,156.10711735123536L208.33333333333331,156.22361427759378L212.5,156.33349535149765L216.66666666666666,156.43730858293262L220.83333333333334,156.53554308380345L225,156.62863677357453L229.16666666666666,156.7169829060025L233.33333333333334,156.800935622154L237.5,156.8808146950743L241.66666666666669,156.95690960013928L245.83333333333331,157.02948302030916L250,157.09877387574429L254.16666666666666,157.1649999514161L258.33333333333337,157.22836018359783L262.5,157.2890366558089L266.66666666666663,157.34719634639066L270.8333333333333,157.40299266303947L275,157.45656679399275L279.1666666666667,157.50804890092854L283.3333333333333,157.55755917479425L287.5,157.60520877259754L291.6666666666667,157.65110065052616L295.83333333333337,157.69533030654065L300,157.73798644371058L300,160.81504244625012L295.83333333333337,160.7850501031262L291.6666666666667,160.7539513889094L287.5,160.7216839347807L283.3333333333333,160.68818059430382L279.1666666666667,160.6533689770206L275,160.61717092632017L270.8333333333333,160.57950193365647L266.66666666666663,160.5402704798725L262.5,160.49937729282746L258.33333333333337,160.4567145086458L254.16666666666666,160.41216472167292L250,160.36559990551555L245.83333333333331,160.31688018428807L241.66666666666669,160.26585242922573L237.5,160.2123486510097L233.33333333333334,160.15618415224358L229.16666666666666,160.09715539727287L225,160.0350375475741L220.83333333333334,159.96958159981295L216.66666666666666,159.9005110497772L212.5,159.82751798794422L208.33333333333331,159.7502585104106L204.16666666666669,159.6683473009097L200,159.58135120381516L195.83333333333334,159.48878156187746L191.66666666666666,159.39008503253757L187.5,159.28463251831474L183.33333333333334,159.17170574341645L179.16666666666666,159.05048087121392L175,158.9200083724986L170.83333333333331,158.77918810379538L166.66666666666669,158.62673821121305L162.5,158.4611559982516L158.33333333333334,158.28066822567735L154.16666666666666,158.08316735693387L150,157.86612888294636L145.83333333333334,157.62650283446982L141.66666666666666,157.36056956365283L137.5,157.06374526801036L133.33333333333331,156.73031556400838L129.16666666666669,156.35306401334057L125,155.92274388179192L120.83333333333334,155.4273101065892L116.66666666666667,154.85077408413497L112.5,154.17144590884644L108.33333333333333,153.3591444068364L104.16666666666666,152.3705910829102L100,151.14144096649866L95.83333333333333,149.571688607517L91.66666666666667,147.49699061775144L87.5,148.10303760406157L83.33333333333334,148.06676929496643L79.16666666666667,146.5645968163886L75,148.4685651053412L70.83333333333333,145.9897562840862L66.66666666666666,146.5293461628587L62.5,146.31633181447063L58.333333333333336,144.31385833961184L54.166666666666664,146.40409178273484L50,143.05301099836254L45.833333333333336,143.43005106036247L41.66666666666667,142.79470494186984L37.5,139.5562410827226L33.33333333333333,142.06670954564044L29.166666666666668,136.33967848415972L25,136.14009485051474L20.833333333333336,134.06499041151739L16.666666666666664,126.22521039818038L12.5,129.99309047456268L8.333333333333332,112.5936173750505L4.166666666666666,107.57920319685742L0,92.10125514573261L-4.166666666666666,0Z" fill="rgb(105,92,105)" stroke="rgb(119,153,119)"/></g><g><path d="M-8.333333333333332,165L-4.166666666666666,300L-4.166666666666666,300L-8.333333333333332,180ZM0,300L4.166666666666666,263.6886251701724L8.333333333333332,235.6157786738952L12.5,230.1263732187658L16.666666666666664,207.47661804000884L20.833333333333336,201.6921290088617L25,193.43824721426574L29.166666666666668,185.53643136858133L33.33333333333333,184.7496892062311L37.5,176.43465063035356L41.66666666666667,174.9254721074649L45.833333333333336,171.61561592275905L50,167.91888627676838L54.166666666666664,168.44836132305468L58.333333333333336,163.76656892047856L62.5,163.55091407573872L66.66666666666666,161.8519948799749L70.83333333333333,159.65475535721276L75,160.68938258927764L79.16666666666667,157.44168955032288L83.33333333333334,157.77002914404184L87.5,156.77724246845065L91.66666666666667,155.26636981727876L95.83333333333333,156.5434768512925L100,157.50975810726544L104.16666666666666,158.26637727172766L108.33333333333333,158.87489398582852L112.5,159.37491662385793L116.66666666666667,159.79308582021537L120.83333333333334,160.14797998470138L125,160.45295061769016L129.16666666666669,160.7178397097843L133.33333333333331,160.95006175430697L137.5,161.1553086974431L141.66666666666666,161.33802271061566L145.83333333333334,161.50172135611203L150,161.64922625251234L154.16666666666666,161.78282707689655L158.33333333333334,161.90440127706475L162.5,162.01550284704987L166.66666666666669,162.11742910808832L170.83333333333331,162.21127160039893L175,162.2979553281413L179.16666666666666,162.37826935296644L183.33333333333334,162.45289088234134L187.5,162.52240441118383L191.66666666666666,162.5873170627277L195.83333333333334,162.64807098087607L200,162.70505341467506L204.16666666666669,162.75860498125454L208.33333333333331,162.80902647986983L212.5,162.8565845450384L216.66666666666666,162.90151636314448L220.83333333333334,162.94403362865918L225,162.98432587925004L229.16666666666666,163.02256332064118L233.33333333333334,163.0588992300382L237.5,163.09347200968605L241.66666666666669,163.12640694857504L245.83333333333331,163.15781773956314L250,163.1878077906365L254.16666666666666,163.21647136217578L258.33333333333337,163.24389455658172L262.5,163.2701561821473L266.66666666666663,163.29532850943357L270.8333333333333,163.31947793543642L275,163.34266556839904L279.1666666666667,163.36494774411582L283.3333333333333,163.38637648290916L287.5,163.4069998950863L291.6666666666667,163.4268625415248L295.83333333333337,163.44600575507735L300,163.46446792767264L300,167.03712110560136L295.83333333333337,167.03248829367817L291.6666666666667,167.02768458449728L287.5,167.02270034416637L283.3333333333333,167.01752520081106L279.1666666666667,167.01214797253158L275,167.00655658675055L270.8333333333333,167.00073798972986L266.66666666666663,166.99467804482643L262.5,166.9883614178214L258.33333333333337,166.9817714473608L254.16666666666666,166.97488999820524L250,166.96769729456742L245.83333333333331,166.96017173031044L241.66666666666669,166.95228965217174L237.5,166.9440251114311L233.33333333333334,166.93534957853035L229.16666666666666,166.92623161403154L225,166.91663648791766L220.83333333333334,166.90652573751777L216.66666666666666,166.8958566521975L212.5,166.88458167025382L208.33333333333331,166.8726476700586L204.16666666666669,166.85999513316114L200,166.84655715153278L195.83333333333334,166.8322582440043L191.66666666666666,166.81701293769342L187.5,166.80072405812166L183.33333333333334,166.7832806557495L179.16666666666666,166.7645554754258L175,166.74440184670803L170.83333333333331,166.72264983429682L166.66666666666669,166.69910143472288L162.5,166.67352453173444L158.33333333333334,166.64564521929412L154.16666666666666,166.6151379536305L150,166.58161278269193L145.83333333333334,166.54459858843913L141.66666666666666,166.5035208099301L137.5,166.45767140329122L133.33333333333331,166.40616768776422L129.16666666666669,166.34789496546475L125,166.28142492582876L120.83333333333334,166.20489701030638L116.66666666666667,166.11584151544446L112.5,166.01090807769253L108.33333333333333,165.8854347171025L104.16666666666666,165.73273635649554L100,165.54287385421756L95.83333333333333,165.30039971956649L91.66666666666667,164.97992840646268L87.5,167.56721967596866L83.33333333333334,169.773156652204L79.16666666666667,170.81472796524702L75,175.61296672390722L70.83333333333333,176.2164501557153L66.66666666666666,180.26640729608434L62.5,184.0665351699984L58.333333333333336,186.673069041824L54.166666666666664,194.08607505006898L50,196.4250242582411L45.833333333333336,203.38710112009144L41.66666666666667,210.4254662655149L37.5,216.20535208014823L33.33333333333333,229.42636177174396L29.166666666666668,235.12391996813983L25,248.4148814084279L20.833333333333336,262.3658057299514L16.666666666666664,273.6239779087334L12.5,300L8.333333333333332,300L4.166666666666666,300L0,300Z" fill="rgb(109,99,109)" stroke="rgb(119,153,119)"/></g><g><path d="M-8.333333333333332,120L-4.166666666666666,0L-4.166666666666666,0L-8.333333333333332,135ZM4.166666666666666,5.684341886080802e-14L8.333333333333332,0L12.5,0L16.666666666666664,0L20.833333333333336,16.67233023027393L25,28.840364695995675L29.166666666666668,38.97750135073545L33.33333333333333,53.96301459119252L37.5,60.86611923490412L41.66666666666667,72.37055661738674L45.833333333333336,80.26911284548169L50,86.28468257206305L54.166666666666664,95.27340796492138L58.333333333333336,98.57336056380058L62.5,105.306153314793L66.66666666666666,109.68513071294495L70.83333333333333,112.82541723120326L75,118.56286308470925L79.16666666666667,119.74877692489588L83.33333333333334,123.98398767671608L87.5,126.44299236518629L91.66666666666667,127.98854718884903L95.83333333333333,131.97694846486218L100,134.9946418074458L104.16666666666666,137.3575610934771L108.33333333333333,139.25795688987913L112.5,140.8195260257755L116.66666666666667,142.12546711913848L120.83333333333334,143.23380048571394L125,144.1862228194443L129.16666666666669,145.0134706262236L133.33333333333331,145.73869934552823L137.5,146.37968490750515L141.66666666666666,146.95030019962567L145.83333333333334,147.46153055792018L150,147.9221878883965L154.16666666666666,148.3394228454195L158.33333333333334,148.7190986926011L162.5,149.06606854845037L166.66666666666669,149.38438394313366L170.83333333333331,149.67745375334346L175,149.94816676417926L179.16666666666666,150.19898721271093L183.33333333333334,150.4320300157417L187.5,150.6491205490734L191.66666666666666,150.85184255698005L195.83333333333334,151.04157685348915L200,151.21953281616229L204.16666666666669,151.38677419123061L208.33333333333331,151.54424037382913L212.5,151.69276406272226L216.66666666666666,151.83308599024667L220.83333333333334,151.96586727757438L225,152.09169985024815L229.16666666666666,152.2111152602133L233.33333333333334,152.32459219170315L237.5,152.4325628744967L241.66666666666669,152.53541858571873L245.83333333333331,152.63351438780975L250,152.72717322358702L254.16666666666666,152.8166894679249L258.33333333333337,152.90233201835167L262.5,152.98434699292042L266.66666666666663,153.0629600923669L270.8333333333333,153.1383786743019L275,153.21079357957842L279.1666666666667,153.28038074470555L283.3333333333333,153.34730262898816L287.5,153.4117094807651L291.6666666666667,153.4737404635179L295.83333333333337,153.5335246596161L300,153.59118196693328L300,157.7379864437106L295.83333333333337,157.69533030654063L291.6666666666667,157.65110065052613L287.5,157.60520877259754L283.3333333333333,157.55755917479425L279.1666666666667,157.50804890092854L275,157.45656679399278L270.8333333333333,157.40299266303947L266.66666666666663,157.3471963463907L262.5,157.2890366558089L258.33333333333337,157.22836018359783L254.16666666666666,157.16499995141606L250,157.09877387574429L245.83333333333331,157.02948302030916L241.66666666666669,156.95690960013926L237.5,156.88081469507432L233.33333333333334,156.800935622154L229.16666666666666,156.71698290600247L225,156.62863677357456L220.83333333333334,156.53554308380342L216.66666666666666,156.43730858293264L212.5,156.33349535149765L208.33333333333331,156.22361427759378L204.16666666666669,156.10711735123536L200,155.9833885236617L195.83333333333334,155.85173280980322L191.66666666666666,155.71136322692936L187.5,155.56138505106574L183.33333333333334,155.40077672579037L179.16666666666666,155.2283665624459L175,155.04280410808528L170.83333333333331,154.84252470099494L166.66666666666669,154.62570524468705L162.5,154.39020855275467L158.33333333333334,154.13351266365365L154.16666666666666,153.85262016674233L150,153.54394061878884L145.83333333333334,153.20313624911793L141.66666666666666,152.82491684721452L137.5,152.4027631722591L133.33333333333331,151.92854803235932L129.16666666666669,151.39200796190332L125,150.77999193893123L120.83333333333334,150.075369062808L116.66666666666667,149.25539979413182L112.5,148.2892360066356L108.33333333333333,147.13395300157322L104.16666666666666,145.72799862145223L100,143.97985924629793L95.83333333333333,141.74730370134247L91.66666666666667,138.79659719362053L87.5,138.41259722504847L83.33333333333334,137.25503172564768L79.16666666666667,134.47969712267266L75,134.93369949123607L70.83333333333333,130.90852582059327L66.66666666666666,129.6848290631172L62.5,127.45315604106571L58.333333333333336,123.12856037106577L54.166666666666664,122.53205003105055L50,116.3002682315175L45.833333333333336,113.33440499292902L41.66666666666667,108.79064861539476L37.5,100.94030853654786L33.33333333333333,97.94572488074049L29.166666666666668,86.292678893191L25,79.02685231339763L20.833333333333336,68.43939896121515L16.666666666666664,50.2353465200286L12.5,41.27296829134944L8.333333333333332,12.67682838130671L4.166666666666666,5.684341886080802e-14Z" fill="rgb(112,105,112)" stroke="rgb(119,153,119)"/></g><g><path d="M-8.333333333333332,180L-4.166666666666666,300L-4.166666666666666,300L-8.333333333333332,195ZM12.5,300L16.666666666666664,273.6239779087334L20.833333333333336,262.3658057299514L25,248.4148814084279L29.166666666666668,235.1239199681399L33.33333333333333,229.42636177174398L37.5,216.20535208014826L41.66666666666667,210.4254662655149L45.833333333333336,203.38710112009142L50,196.42502425824108L54.166666666666664,194.08607505006893L58.333333333333336,186.673069041824L62.5,184.06653516999842L66.66666666666666,180.26640729608437L70.83333333333333,176.2164501557153L75,175.6129667239072L79.16666666666667,170.81472796524702L83.33333333333334,169.77315665220397L87.5,167.56721967596866L91.66666666666667,164.97992840646265L95.83333333333333,165.3003997195665L100,165.54287385421753L104.16666666666666,165.73273635649554L108.33333333333333,165.8854347171025L112.5,166.01090807769253L116.66666666666667,166.1158415154445L120.83333333333334,166.20489701030635L125,166.28142492582873L129.16666666666669,166.34789496546475L133.33333333333331,166.40616768776422L137.5,166.45767140329122L141.66666666666666,166.50352080993014L145.83333333333334,166.5445985884391L150,166.58161278269193L154.16666666666666,166.61513795363055L158.33333333333334,166.64564521929407L162.5,166.67352453173444L166.66666666666669,166.69910143472285L170.83333333333331,166.72264983429682L175,166.74440184670803L179.16666666666666,166.7645554754258L183.33333333333334,166.78328065574954L187.5,166.8007240581217L191.66666666666666,166.81701293769345L195.83333333333334,166.83225824400424L200,166.84655715153278L204.16666666666669,166.85999513316114L208.33333333333331,166.8726476700586L212.5,166.88458167025385L216.66666666666666,166.89585665219752L220.83333333333334,166.90652573751777L225,166.91663648791763L229.16666666666666,166.9262316140315L233.33333333333334,166.93534957853035L237.5,166.94402511143113L241.66666666666669,166.95228965217171L245.83333333333331,166.96017173031044L250,166.96769729456742L254.16666666666666,166.97488999820524L258.33333333333337,166.9817714473608L262.5,166.9883614178214L266.66666666666663,166.99467804482643L270.8333333333333,167.00073798972986L275,167.00655658675058L279.1666666666667,167.01214797253155L283.3333333333333,167.01752520081106L287.5,167.02270034416634L291.6666666666667,167.02768458449728L295.83333333333337,167.03248829367814L300,167.03712110560133L300,171.84882323747829L295.83333333333337,171.86033357508722L291.6666666666667,171.87226851122605L287.5,171.88465198154273L283.3333333333333,171.8975097552193L279.1666666666667,171.9108696139668L275,171.92476155240675L270.8333333333333,171.9392180028801L266.66666666666663,171.95427408823073L262.5,171.96996790671128L258.33333333333337,171.98634085387454L254.16666666666666,172.0034379871777L250,172.02130844006143L245.83333333333331,172.04000589351566L241.66666666666669,172.05958911466536L237.5,172.0801225737578L233.33333333333334,172.10167715319707L229.16666666666666,172.12433096505626L225,172.1481702969358L220.83333333333334,172.17329071030693L216.66666666666666,172.19979832081486L212.5,172.22781129670457L208.33333333333331,172.25746161999632L204.16666666666669,172.28889716577604L200,172.32228416872138L195.83333333333334,172.35781016369418L191.66666666666666,172.39568751021685L187.5,172.43615764072322L183.33333333333334,172.47949621213118L179.16666666666666,172.52601939306058L175,172.57609158991062L170.83333333333331,172.6301350112018L166.66666666666669,172.68864160152785L162.5,172.75218805954702L158.33333333333334,172.8214549116909L154.16666666666666,172.89725097963742L150,172.98054510905575L145.83333333333334,173.0725078045499L141.66666666666666,173.17456657721422L137.5,173.28848057984018L133.33333333333331,173.41644285494667L129.16666666666669,173.56122289743092L125,173.72636938077105L120.83333333333334,173.91650490942547L116.66666666666667,174.13776552366772L112.5,174.3984752859069L108.33333333333333,174.71021700244273L104.16666666666666,175.08959991546868L100,175.56131807211636L95.83333333333333,176.1637511511076L91.66666666666667,176.95997017941468L87.5,180.78942809693166L83.33333333333334,184.37721491552824L79.16666666666667,186.9562013256982L75,193.46514339114148L70.83333333333333,195.82808037255367L66.66666666666666,201.8207283277982L62.5,207.7618640313836L58.333333333333336,212.72155482185678L54.166666666666664,222.710324512646L50,227.5599532341938L45.833333333333336,237.17047598091875L41.66666666666667,246.93174316679986L37.5,255.3849886197173L33.33333333333333,270.99390800103237L29.166666666666668,277.71156010251445L25,290.2654671015836L20.833333333333336,300L16.666666666666664,300L12.5,300Z" fill="rgb(116,112,116)" stroke="rgb(119,153,119)"/></g><g><path d="M-8.333333333333332,105L-4.166666666666666,0L-4.166666666666666,0L-8.333333333333332,120ZM16.666666666666664,0L20.833333333333336,0L25,-5.684341886080802e-14L29.166666666666668,4.388446759904127L33.33333333333333,17.133324409759553L37.5,24.223612552907724L41.66666666666667,36.944748828006L45.833333333333336,46.59476205839701L50,54.61166176548534L54.166666666666664,65.68479719722697L58.333333333333336,71.29760268404252L62.5,80.2293385246482L66.66666666666666,86.67011504229083L70.83333333333333,91.72562112287184L75,99.2304961864011L79.16666666666667,102.16963691913983L83.33333333333334,107.99990904632043L87.5,111.90753443261181L91.66666666666667,114.76690187637524L95.83333333333333,119.94551096585903L100,123.8637361121512L104.16666666666666,126.93179131661401L108.33333333333333,129.39929803517123L112.5,131.42686636678448L116.66666666666667,133.12252283372365L120.83333333333334,134.5616020158623L125,135.79824362064426L129.16666666666669,136.87235645808803L133.33333333333331,137.81400595066364L137.5,138.64627267303305L141.66666666666666,139.38716942184953L145.83333333333334,140.0509597471126L150,140.6490851797488L154.16666666666666,141.1908302528647L158.33333333333334,141.68380792918262L162.5,142.13431958157932L166.66666666666669,142.5476257867857L170.83333333333331,142.92815268916473L175,143.27965113717377L179.16666666666666,143.60532073877738L183.33333333333334,143.9079075384738L187.5,144.18978163572515L191.66666666666666,144.45299939144533L195.83333333333334,144.69935367841194L200,144.9304147733347L204.16666666666669,145.14756386268922L208.33333333333331,145.35202067334043L212.5,145.5448663957434L216.66666666666666,145.72706280955515L220.83333333333334,145.89946832592187L225,146.0628515111897L229.16666666666666,146.21790254158358L233.33333333333334,146.365242948978L237.5,146.50543394798177L241.66666666666669,146.63898357957063L245.83333333333331,146.76635286294834L250,146.88796111264568L254.16666666666666,147.00419055008285L258.33333333333337,147.1153903164539L262.5,147.22187997568898L266.66666666666663,147.3239525815209L270.8333333333333,147.42187737065217L275,147.51590213414184L279.1666666666667,147.60625531099146L283.3333333333333,147.69314784116781L287.5,147.7767748097086L291.6666666666667,147.85731690888133L295.83333333333337,147.93494174146363L300,148.00980498492498L300,153.59118196693328L295.83333333333337,153.53352465961612L291.6666666666667,153.4737404635179L287.5,153.41170948076513L283.3333333333333,153.34730262898816L279.1666666666667,153.28038074470552L275,153.21079357957836L270.8333333333333,153.1383786743019L266.66666666666663,153.0629600923669L262.5,152.9843469929204L258.33333333333337,152.9023320183517L254.16666666666666,152.81668946792493L250,152.72717322358702L245.83333333333331,152.63351438780975L241.66666666666669,152.5354185857188L237.5,152.43256287449668L233.33333333333334,152.32459219170318L229.16666666666666,152.2111152602133L225,152.09169985024815L220.83333333333334,151.9658672775744L216.66666666666666,151.83308599024664L212.5,151.69276406272226L208.33333333333331,151.5442403738291L204.16666666666669,151.38677419123061L200,151.21953281616226L195.83333333333334,151.04157685348915L191.66666666666666,150.85184255698002L187.5,150.64912054907342L183.33333333333334,150.43203001574173L179.16666666666666,150.19898721271093L175,149.9481667641793L170.83333333333331,149.67745375334343L166.66666666666669,149.38438394313363L162.5,149.0660685484504L158.33333333333334,148.71909869260114L154.16666666666666,148.33942284541948L150,147.92218788839656L145.83333333333334,147.46153055792024L141.66666666666666,146.95030019962564L137.5,146.37968490750512L133.33333333333331,145.73869934552823L129.16666666666669,145.0134706262236L125,144.18622281944428L120.83333333333334,143.23380048571394L116.66666666666667,142.1254671191385L112.5,140.8195260257755L108.33333333333333,139.25795688987918L104.16666666666666,137.35756109347707L100,134.9946418074458L95.83333333333333,131.97694846486212L91.66666666666667,127.98854718884897L87.5,126.44299236518624L83.33333333333334,123.98398767671614L79.16666666666667,119.74877692489585L75,118.56286308470925L70.83333333333333,112.82541723120329L66.66666666666666,109.68513071294495L62.5,105.306153314793L58.333333333333336,98.57336056380055L54.166666666666664,95.27340796492136L50,86.28468257206303L45.833333333333336,80.26911284548169L41.66666666666667,72.37055661738674L37.5,60.8661192349041L33.33333333333333,53.96301459119252L29.166666666666668,38.97750135073545L25,28.840364695995667L20.833333333333336,16.672330230273953L16.666666666666664,0Z" fill="rgb(119,119,119)" stroke="rgb(119,153,119)"/></g><g><path d="M-8.333333333333332,195L-4.166666666666666,300L-4.166666666666666,300L-8.333333333333332,210ZM20.833333333333336,300L25,290.2654671015836L29.166666666666668,277.71156010251445L33.33333333333333,270.99390800103237L37.5,255.38498861971726L41.66666666666667,246.93174316679983L45.833333333333336,237.17047598091875L50,227.5599532341938L54.166666666666664,222.71032451264603L58.333333333333336,212.72155482185684L62.5,207.76186403138362L66.66666666666666,201.82072832779818L70.83333333333333,195.82808037255367L75,193.4651433911415L79.16666666666667,186.95620132569817L83.33333333333334,184.37721491552827L87.5,180.78942809693163L91.66666666666667,176.9599701794147L95.83333333333333,176.1637511511076L100,175.56131807211636L104.16666666666666,175.08959991546868L108.33333333333333,174.71021700244273L112.5,174.39847528590693L116.66666666666667,174.13776552366767L120.83333333333334,173.91650490942547L125,173.72636938077108L129.16666666666669,173.56122289743087L133.33333333333331,173.41644285494664L137.5,173.2884805798402L141.66666666666666,173.1745665772142L145.83333333333334,173.07250780454996L150,172.98054510905575L154.16666666666666,172.89725097963742L158.33333333333334,172.82145491169092L162.5,172.75218805954702L166.66666666666669,172.68864160152782L170.83333333333331,172.6301350112018L175,172.57609158991065L179.16666666666666,172.52601939306055L183.33333333333334,172.47949621213115L187.5,172.43615764072325L191.66666666666666,172.39568751021682L195.83333333333334,172.35781016369418L200,172.32228416872135L204.16666666666669,172.288897165776L208.33333333333331,172.25746161999632L212.5,172.2278112967046L216.66666666666666,172.19979832081486L220.83333333333334,172.17329071030696L225,172.14817029693583L229.16666666666666,172.12433096505632L233.33333333333334,172.10167715319707L237.5,172.08012257375776L241.66666666666669,172.0595891146653L245.83333333333331,172.04000589351563L250,172.02130844006143L254.16666666666666,172.00343798717773L258.33333333333337,171.98634085387454L262.5,171.9699679067113L266.66666666666663,171.95427408823073L270.8333333333333,171.9392180028801L275,171.92476155240672L279.1666666666667,171.9108696139668L283.3333333333333,171.8975097552193L287.5,171.8846519815428L291.6666666666667,171.87226851122608L295.83333333333337,171.86033357508722L300,171.8488232374783L300,178.32078758806583L295.83333333333337,178.35042116926178L291.6666666666667,178.38114788737863L287.5,178.41302936519315L283.3333333333333,178.44613194595036L279.1666666666667,178.48052715418945L275,178.51629221162872L270.8333333333333,178.55351061594158L266.66666666666663,178.592272791552L262.5,178.6326768231295L258.33333333333337,178.67482928430505L254.16666666666666,178.71884617635214L250,178.7648539942399L245.83333333333331,178.81299094068905L241.66666666666669,178.86340831277093L237.5,178.91627209035266L233.33333333333334,178.97176476152012L229.16666666666666,179.0300874272783L225,179.09146223668097L220.83333333333334,179.15613521453807L216.66666666666666,179.22437955757854L212.5,179.29649949217762L208.33333333333331,179.3728348085345L204.16666666666669,179.45376621384605L200,179.53972168242447L195.83333333333334,179.63118402630715L191.66666666666666,179.72869996908847L187.5,179.8328910831216L183.33333333333334,179.9444670523388L179.16666666666666,180.06424185881332L175,180.1931536736905L170.83333333333331,180.33228948076672L166.66666666666669,180.4829158006741L162.5,180.6465173549818L158.33333333333334,180.82484617181876L154.16666666666666,181.01998457784467L150,181.2344268845021L145.83333333333334,181.47118657796332L141.66666666666666,181.73393881245545L137.5,182.02721256000873L133.33333333333331,182.35665384993615L129.16666666666669,182.72939279906834L125,183.15456553418352L120.83333333333334,183.64407303761635L116.66666666666667,184.21371266074314L112.5,184.88491485918257L108.33333333333333,185.68749978614096L104.16666666666666,186.6642282488048L100,187.87867553710842L95.83333333333333,189.42965085755114L91.66666666666667,191.47953175824665L87.5,196.67957890639246L83.33333333333334,201.76152520671417L79.16666666666667,205.9635607347022L75,214.2274097008283L70.83333333333333,218.310773249579L66.66666666666666,226.11730691123046L62.5,233.94188120361503L58.333333333333336,240.81296559267346L54.166666666666664,252.67159316919833L50,258.9421653747029L45.833333333333336,269.585068161433L41.66666666666667,279.6844233620569L37.5,287.28141469928863L33.33333333333333,300L29.166666666666668,300L25,300L20.833333333333336,300Z" fill="rgb(122,126,122)" stroke="rgb(119,153,119)"/></g><g><path d="M-8.333333333333332,90L-4.166666666666666,0L-4.166666666666666,0L-8.333333333333332,105ZM25,-5.684341886080802e-14L29.166666666666668,5.684341886080802e-14L33.33333333333333,-1.1368683772161603e-13L37.5,0L41.66666666666667,9.000006751726517L45.833333333333336,17.004472421072194L50,24.667516961257206L54.166666666666664,36.18891660549099L58.333333333333336,42.99182803229192L62.5,53.37078103652294L66.66666666666666,61.38412466271444L70.83333333333333,68.05243205937398L75,77.15554863672685L79.16666666666667,81.79421921568743L83.33333333333334,89.23321582049397L87.5,94.64940988610482L91.66666666666667,98.91352383175067L95.83333333333333,105.3931171226377L100,110.29568940245233L104.16666666666666,114.1345097450185L108.33333333333333,117.22191018450124L112.5,119.75884972392609L116.66666666666667,121.88049360107064L120.83333333333334,123.68110215300325L125,125.22841621110607L129.16666666666669,126.57237058474075L133.33333333333331,127.75058381324078L137.5,128.79193483574687L141.66666666666666,129.7189616724741L145.83333333333334,130.5495112010849L150,131.2978993248938L154.16666666666666,131.975743062561L158.33333333333334,132.59256792592308L162.5,133.15625833581788L166.66666666666669,133.67339644531057L170.83333333333331,134.14952034673897L175,134.58932318686857L179.16666666666666,134.99680838784312L183.33333333333334,135.37541186289693L187.5,135.7280991342983L191.66666666666666,136.0574431675196L195.83333333333334,136.36568724569335L200,136.65479613469734L204.16666666666669,136.9264980064144L208.33333333333331,137.1823190107961L212.5,137.42361195789184L216.66666666666666,137.65158024824913L220.83333333333334,137.86729794538715L225,138.07172669697124L229.16666666666666,138.26573006716686L233.33333333333334,138.45008573076927L237.5,138.62549589224147L241.66666666666669,138.792596223989L245.83333333333331,138.9519635637087L250,139.10412256726343L254.16666666666666,139.24955147877378L258.33333333333337,139.3886871516303L262.5,139.52192943147912L266.66666666666663,139.64964499380545L270.8333333333333,139.77217071368554L275,139.8898166329194L279.1666666666667,140.00286857957317L283.3333333333333,140.1115904865235L287.5,140.2162264485995L291.6666666666667,140.31700255206977L295.83333333333337,140.41412850533547L300,140.50779909558162L300,148.00980498492495L295.83333333333337,147.93494174146363L291.6666666666667,147.8573169088813L287.5,147.77677480970854L283.3333333333333,147.69314784116784L279.1666666666667,147.60625531099146L275,147.51590213414187L270.8333333333333,147.42187737065217L266.66666666666663,147.32395258152087L262.5,147.22187997568898L258.33333333333337,147.11539031645387L254.16666666666666,147.0041905500828L250,146.88796111264566L245.83333333333331,146.76635286294834L241.66666666666669,146.63898357957063L237.5,146.50543394798177L233.33333333333334,146.365242948978L229.16666666666666,146.21790254158358L225,146.06285151118968L220.83333333333334,145.89946832592184L216.66666666666666,145.72706280955518L212.5,145.5448663957434L208.33333333333331,145.3520206733405L204.16666666666669,145.14756386268922L200,144.93041477333472L195.83333333333334,144.69935367841194L191.66666666666666,144.4529993914453L187.5,144.1897816357251L183.33333333333334,143.9079075384738L179.16666666666666,143.60532073877738L175,143.27965113717374L170.83333333333331,142.9281526891648L166.66666666666669,142.54762578678572L162.5,142.13431958157932L158.33333333333334,141.68380792918262L154.16666666666666,141.1908302528647L150,140.6490851797488L145.83333333333334,140.05095974711259L141.66666666666666,139.3871694218495L137.5,138.64627267303305L133.33333333333331,137.81400595066367L129.16666666666669,136.87235645808803L125,135.79824362064429L120.83333333333334,134.56160201586226L116.66666666666667,133.12252283372368L112.5,131.42686636678445L108.33333333333333,129.3992980351712L104.16666666666666,126.93179131661405L100,123.8637361121512L95.83333333333333,119.94551096585907L91.66666666666667,114.76690187637524L87.5,111.90753443261185L83.33333333333334,107.99990904632038L79.16666666666667,102.16963691913983L75,99.23049618640113L70.83333333333333,91.72562112287181L66.66666666666666,86.67011504229083L62.5,80.22933852464821L58.333333333333336,71.29760268404253L54.166666666666664,65.68479719722696L50,54.611661765485316L45.833333333333336,46.594762058396995L41.66666666666667,36.94474882800597L37.5,24.223612552907774L33.33333333333333,17.13332440975954L29.166666666666668,4.388446759904155L25,-5.684341886080802e-14Z" fill="rgb(126,133,126)" stroke="rgb(119,153,119)"/></g><g><path d="M-8.333333333333332,210L-4.166666666666666,300L-4.166666666666666,300L-8.333333333333332,225ZM33.33333333333333,300L37.5,287.28141469928863L41.66666666666667,279.6844233620569L45.833333333333336,269.585068161433L50,258.9421653747029L54.166666666666664,252.6715931691983L58.333333333333336,240.81296559267344L62.5,233.941881203615L66.66666666666666,226.11730691123046L70.83333333333333,218.31077324957903L75,214.22740970082828L79.16666666666667,205.96356073470218L83.33333333333334,201.7615252067141L87.5,196.67957890639252L91.66666666666667,191.47953175824665L95.83333333333333,189.4296508575511L100,187.8786755371084L104.16666666666666,186.66422824880482L108.33333333333333,185.68749978614096L112.5,184.88491485918257L116.66666666666667,184.21371266074314L120.83333333333334,183.64407303761635L125,183.1545655341835L129.16666666666669,182.72939279906836L133.33333333333331,182.35665384993618L137.5,182.0272125600087L141.66666666666666,181.73393881245545L145.83333333333334,181.4711865779633L150,181.23442688450217L154.16666666666666,181.01998457784464L158.33333333333334,180.82484617181873L162.5,180.64651735498182L166.66666666666669,180.48291580067414L170.83333333333331,180.3322894807667L175,180.19315367369052L179.16666666666666,180.06424185881332L183.33333333333334,179.94446705233878L187.5,179.83289108312158L191.66666666666666,179.7286999690885L195.83333333333334,179.63118402630715L200,179.5397216824245L204.16666666666669,179.45376621384605L208.33333333333331,179.37283480853452L212.5,179.2964994921776L216.66666666666666,179.2243795575785L220.83333333333334,179.15613521453804L225,179.09146223668097L229.16666666666666,179.03008742727832L233.33333333333334,178.97176476152012L237.5,178.91627209035263L241.66666666666669,178.86340831277099L245.83333333333331,178.81299094068908L250,178.7648539942399L254.16666666666666,178.71884617635214L258.33333333333337,178.67482928430505L262.5,178.6326768231295L266.66666666666663,178.59227279155203L270.8333333333333,178.5535106159416L275,178.51629221162875L279.1666666666667,178.48052715418945L283.3333333333333,178.44613194595036L287.5,178.41302936519315L291.6666666666667,178.3811478873786L295.83333333333337,178.3504211692618L300,178.3207875880658L300,187.01357927518197L295.83333333333337,187.06235634237032L291.6666666666667,187.1129327200328L287.5,187.1654098396606L283.3333333333333,187.219896902666L279.1666666666667,187.2765116389052L275,187.33538115582834L270.8333333333333,187.39664289114822L266.66666666666663,187.4604456840544L262.5,187.52695098255L258.33333333333337,187.5963342075242L254.16666666666666,187.6687862978268L250,187.74451546499893L245.83333333333331,187.8237491916168L241.66666666666669,187.90673651364287L237.5,187.9937506350167L233.33333333333334,188.0850919323136L229.16666666666666,188.1810914190943L225,188.2821147541446L220.83333333333334,188.3885668959003L216.66666666666666,188.50089752795213L212.5,188.61960740889066L208.33333333333331,188.74525583559137L204.16666666666669,188.87846945457372L200,189.01995271433654L195.83333333333334,189.17050032663013L191.66666666666666,189.33101220204333L187.5,189.50251145270778L183.33333333333334,189.6861662229873L179.16666666666666,189.88331633266313L175,190.095506017536L170.83333333333331,190.3245244599973L166.66666666666669,190.57245636123668L162.5,190.8417455826035L158.33333333333334,191.13527597378163L154.16666666666666,191.4564750579826L150,191.80944848804737L145.83333333333334,192.19915648179472L141.66666666666666,192.63164836696177L137.5,193.11437886093628L133.33333333333331,193.6566413646519L129.16666666666669,194.2701720967385L125,194.9700091812336L120.83333333333334,195.77574171238518L116.66666666666667,196.71337223319927L112.5,197.8181754128654L108.33333333333333,199.13923541731322L104.16666666666666,200.74693681300354L100,202.74592494023904L95.83333333333333,205.29884039491554L91.66666666666667,208.67295767625188L87.5,215.27921727931377L83.33333333333334,221.84022267755356L79.16666666666667,227.5780775163402L75,237.40827116862442L70.83333333333333,242.86678453280857L66.66666666666666,251.952436022178L62.5,260.8639970753764L58.333333333333336,268.48688694087264L54.166666666666664,280.5478057081495L50,285.8944147223841L45.833333333333336,294.26045412573706L41.66666666666667,300L37.5,300L33.33333333333333,300Z" fill="rgb(129,139,129)" stroke="rgb(119,153,119)"/></g><g><path d="M-8.333333333333332,75L-4.166666666666666,0L-4.166666666666666,0L-8.333333333333332,90ZM37.5,0L41.66666666666667,0L45.833333333333336,5.684341886080802e-14L50,2.777296674545937L54.166666666666664,11.490026139881593L58.333333333333336,17.109968538921862L62.5,27.245473743877994L66.66666666666666,35.63236943116601L70.83333333333333,43.07202960202471L75,53.19371557182194L79.16666666666667,59.16133639085004L83.33333333333334,67.98388939632571L87.5,74.78931000212134L91.66666666666667,80.41542972827659L95.83333333333333,88.20815417757564L100,94.10426418853862L104.16666666666666,98.72104610632576L108.33333333333333,102.43412805598624L112.5,105.4851946720151L116.66666666666667,108.03680329494864L120.83333333333334,110.2023167240086L125,112.06320390473334L129.16666666666669,113.67951925602162L133.33333333333331,115.09650495559214L137.5,116.34889244491168L141.66666666666666,117.46378721861313L145.83333333333334,118.46265293863627L150,119.36270671796416L154.16666666666666,120.17791983863219L158.33333333333334,120.91974821857346L162.5,121.59767410710114L166.66666666666669,122.21961357283516L170.83333333333331,122.79222703806221L175,123.32115874585463L179.16666666666666,123.81122343754265L183.33333333333334,124.26655333622477L187.5,124.6907149462863L191.66666666666666,125.0868026611625L195.83333333333334,125.45751437970725L200,125.80521304021104L204.16666666666669,126.1319770396781L208.33333333333331,126.43964181214042L212.5,126.72983432328479L216.66666666666666,127.00400185050145L220.83333333333334,127.26343612317382L225,127.5092936730372L229.16666666666666,127.74261307107665L233.33333333333334,127.96432959287466L237.5,128.1752877491346L241.66666666666669,128.37625203535393L245.83333333333331,128.56791618909028L250,128.75091119108367L254.16666666666666,128.92581220469447L258.33333333333337,129.09314461445595L262.5,129.25338929730026L266.66666666666663,129.4069872378525L270.8333333333333,129.5543435810847L275,129.6958312007573L279.1666666666667,129.83179384982805L283.3333333333333,129.96254894886454L287.5,130.08839006007943L291.6666666666667,130.2095890875743L295.83333333333337,130.32639823850346L300,130.439051774925L300,140.50779909558165L295.83333333333337,140.41412850533544L291.6666666666667,140.3170025520698L287.5,140.21622644859954L283.3333333333333,140.1115904865235L279.1666666666667,140.0028685795732L275,139.88981663291938L270.8333333333333,139.7721707136855L266.66666666666663,139.64964499380545L262.5,139.52192943147915L258.33333333333337,139.3886871516303L254.16666666666666,139.24955147877384L250,139.10412256726346L245.83333333333331,138.9519635637087L241.66666666666669,138.79259622398897L237.5,138.62549589224147L233.33333333333334,138.4500857307693L229.16666666666666,138.26573006716688L225,138.0717266969712L220.83333333333334,137.86729794538715L216.66666666666666,137.65158024824913L212.5,137.42361195789184L208.33333333333331,137.18231901079605L204.16666666666669,136.92649800641442L200,136.6547961346973L195.83333333333334,136.36568724569338L191.66666666666666,136.05744316751966L187.5,135.72809913429836L183.33333333333334,135.37541186289693L179.16666666666666,134.99680838784317L175,134.58932318686857L170.83333333333331,134.14952034673894L166.66666666666669,133.67339644531057L162.5,133.15625833581788L158.33333333333334,132.59256792592308L154.16666666666666,131.975743062561L150,131.2978993248938L145.83333333333334,130.5495112010849L141.66666666666666,129.71896167247414L137.5,128.79193483574687L133.33333333333331,127.75058381324081L129.16666666666669,126.57237058474074L125,125.2284162111061L120.83333333333334,123.68110215300331L116.66666666666667,121.88049360107064L112.5,119.75884972392613L108.33333333333333,117.22191018450123L104.16666666666666,114.1345097450185L100,110.29568940245234L95.83333333333333,105.39311712263768L91.66666666666667,98.91352383175067L87.5,94.64940988610479L83.33333333333334,89.233215820494L79.16666666666667,81.79421921568743L75,77.15554863672682L70.83333333333333,68.052432059374L66.66666666666666,61.38412466271443L62.5,53.370781036522935L58.333333333333336,42.99182803229188L54.166666666666664,36.188916605491L50,24.667516961257178L45.833333333333336,17.00447242107221L41.66666666666667,9.00000675172654L37.5,0Z" fill="rgb(133,146,133)" stroke="rgb(119,153,119)"/></g><g><path d="M-8.333333333333332,225L-4.166666666666666,300L-4.166666666666666,300L-8.333333333333332,240ZM41.66666666666667,300L45.833333333333336,294.26045412573706L50,285.8944147223841L54.166666666666664,280.54780570814955L58.333333333333336,268.48688694087264L62.5,260.8639970753764L66.66666666666666,251.95243602217798L70.83333333333333,242.86678453280854L75,237.40827116862442L79.16666666666667,227.57807751634024L83.33333333333334,221.84022267755358L87.5,215.27921727931374L91.66666666666667,208.67295767625188L95.83333333333333,205.29884039491557L100,202.74592494023906L104.16666666666666,200.74693681300351L108.33333333333333,199.13923541731322L112.5,197.81817541286537L116.66666666666667,196.71337223319927L120.83333333333334,195.77574171238518L125,194.97000918123365L129.16666666666669,194.2701720967385L133.33333333333331,193.6566413646519L137.5,193.11437886093626L141.66666666666666,192.63164836696177L145.83333333333334,192.19915648179472L150,191.8094484880473L154.16666666666666,191.45647505798263L158.33333333333334,191.13527597378163L162.5,190.8417455826035L166.66666666666669,190.57245636123668L170.83333333333331,190.32452445999732L175,190.09550601753594L179.16666666666666,189.88331633266313L183.33333333333334,189.6861662229873L187.5,189.50251145270778L191.66666666666666,189.33101220204333L195.83333333333334,189.17050032663013L200,189.0199527143365L204.16666666666669,188.87846945457375L208.33333333333331,188.74525583559134L212.5,188.61960740889066L216.66666666666666,188.50089752795216L220.83333333333334,188.38856689590034L225,188.28211475414452L229.16666666666666,188.18109141909426L233.33333333333334,188.08509193231362L237.5,187.99375063501668L241.66666666666669,187.90673651364284L245.83333333333331,187.82374919161683L250,187.7445154649989L254.16666666666666,187.6687862978268L258.33333333333337,187.59633420752422L262.5,187.52695098255003L266.66666666666663,187.46044568405435L270.8333333333333,187.3966428911482L275,187.33538115582837L279.1666666666667,187.27651163890516L283.3333333333333,187.219896902666L287.5,187.16540983966058L291.6666666666667,187.1129327200328L295.83333333333337,187.06235634237032L300,187.01357927518197L300,198.67145017149915L295.83333333333337,198.7383617540394L291.6666666666667,198.8077416012427L287.5,198.87972885516857L283.3333333333333,198.95447331652753L279.1666666666667,199.03213648520955L275,199.11289272513477L270.8333333333333,199.1969305711082L266.66666666666663,199.2844541982946L262.5,199.37568507842266L258.33333333333337,199.47086385099712L254.16666666666666,199.5702524428076L250,199.67413647503884L245.83333333333331,199.78282800456634L241.66666666666669,199.89666865484767L237.5,200.01603320257647L233.33333333333334,200.14133369942297L229.16666666666666,200.27302422437276L225,200.41160638216436L220.83333333333334,200.5576356881531L216.66666666666666,200.71172901092936L212.5,200.874573282933L208.33333333333331,201.04693573846507L204.16666666666669,201.22967600096604L200,201.42376042135822L195.83333333333334,201.63027917221552L191.66666666666666,201.85046673615676L187.5,202.08572660166107L183.33333333333334,202.33766121005027L179.16666666666666,202.60810850417425L175,202.89918684143328L170.83333333333331,203.21335059295245L166.66666666666669,203.55345951770755L162.5,203.92286606470452L158.33333333333334,204.32552625174586L154.16666666666666,204.7661418990823L150,205.2503450740926L145.83333333333334,205.7849401224077L141.66666666666666,206.3782254128209L137.5,207.04042720464955L133.33333333333331,207.78429403320948L129.16666666666669,208.62592545115578L125,209.5859505109468L120.83333333333334,210.6912412114994L116.66666666666667,211.97746741578206L112.5,213.49301833772466L108.33333333333333,215.30522683289533L104.16666666666666,217.51064529773288L100,220.25282449756088L95.83333333333333,223.75487214024224L91.66666666666667,228.38343100990198L87.5,236.24520246094818L83.33333333333334,244.02436908285006L79.16666666666667,250.8877729302338L75,261.6718948851162L70.83333333333333,267.6178271965075L66.66666666666666,276.7408172159504L62.5,285.01796527410056L58.333333333333336,291.01642689010714L54.166666666666664,300L50,300L45.833333333333336,300L41.66666666666667,300Z" fill="rgb(136,153,136)" stroke="rgb(119,153,119)"/></g><g><path d="M-8.333333333333332,60L-4.166666666666666,0L-4.166666666666666,0L-8.333333333333332,75ZM45.833333333333336,5.684341886080802e-14L50,-5.684341886080802e-14L54.166666666666664,0L58.333333333333336,-5.684341886080802e-14L62.5,6.637193523508529L66.66666666666666,13.00381451739861L70.83333333333333,19.4551856950672L75,29.306978462379135L79.16666666666667,35.673766080851095L83.33333333333334,45.22476866573916L87.5,52.96954234303817L91.66666666666667,59.6612538690604L95.83333333333333,68.58525142330714L100,75.33730221885861L104.16666666666666,80.62430432073958L108.33333333333333,84.87641594781866L112.5,88.3704071952231L116.66666666666667,91.29243392138326L120.83333333333334,93.7723158510411L125,95.90334881102348L129.16666666666669,97.7543053456262L133.33333333333331,99.37699545864652L137.5,100.8111925696021L141.66666666666666,102.08793708924807L145.83333333333334,103.23180856840827L150,104.26252353564095L154.16666666666666,105.19608148990508L158.33333333333334,106.04560140958628L162.5,106.82194208614203L166.66666666666669,107.5341687672227L170.83333333333331,108.1899087714358L175,108.79562571900829L179.16666666666666,109.35683330930615L183.33333333333334,109.87826364200325L187.5,110.36400097243524L191.66666666666666,110.81758890844137L195.83333333333334,111.2421170039936L200,111.6402912261336L204.16666666666669,112.01449169363786L208.33333333333331,112.36682029127343L212.5,112.69914017202396L216.66666666666666,113.01310871515082L220.83333333333334,113.31020517093842L225,113.59175396532333L229.16666666666666,113.85894443907983L233.33333333333334,114.11284764214244L237.5,114.35443068319069L241.66666666666669,114.58456903985658L245.83333333333331,114.80405715987266L250,115.01361762371988L254.16666666666666,115.21390909146683L258.33333333333337,115.4055332179419L262.5,115.58904068918477L266.66666666666663,115.76493650774529L270.8333333333333,115.93368463366227L275,116.09571207093788L279.1666666666667,116.251412475292L283.3333333333333,116.40114934737036L287.5,116.54525886593629L291.6666666666667,116.68405240752477L295.83333333333337,116.81781879230942L300,116.94682629027031L300,130.439051774925L295.83333333333337,130.3263982385035L291.6666666666667,130.2095890875743L287.5,130.0883900600794L283.3333333333333,129.96254894886454L279.1666666666667,129.83179384982807L275,129.69583120075734L270.8333333333333,129.55434358108468L266.66666666666663,129.40698723785252L262.5,129.2533892973002L258.33333333333337,129.09314461445595L254.16666666666666,128.92581220469444L250,128.7509111910837L245.83333333333331,128.56791618909025L241.66666666666669,128.3762520353539L237.5,128.17528774913464L233.33333333333334,127.96432959287463L229.16666666666666,127.74261307107665L225,127.50929367303723L220.83333333333334,127.26343612317383L216.66666666666666,127.00400185050145L212.5,126.72983432328478L208.33333333333331,126.43964181214044L204.16666666666669,126.13197703967809L200,125.80521304021106L195.83333333333334,125.45751437970725L191.66666666666666,125.08680266116244L187.5,124.69071494628629L183.33333333333334,124.26655333622475L179.16666666666666,123.81122343754261L175,123.32115874585462L170.83333333333331,122.79222703806221L166.66666666666669,122.21961357283517L162.5,121.59767410710108L158.33333333333334,120.91974821857343L154.16666666666666,120.17791983863222L150,119.36270671796416L145.83333333333334,118.46265293863627L141.66666666666666,117.46378721861312L137.5,116.34889244491173L133.33333333333331,115.09650495559208L129.16666666666669,113.67951925602163L125,112.06320390473331L120.83333333333334,110.20231672400857L116.66666666666667,108.03680329494861L112.5,105.4851946720151L108.33333333333333,102.43412805598624L104.16666666666666,98.72104610632576L100,94.1042641885386L95.83333333333333,88.20815417757565L91.66666666666667,80.41542972827659L87.5,74.78931000212137L83.33333333333334,67.9838893963257L79.16666666666667,59.16133639085002L75,53.193715571821954L70.83333333333333,43.07202960202471L66.66666666666666,35.632369431166L62.5,27.24547374387799L58.333333333333336,17.109968538921844L54.166666666666664,11.49002613988162L50,2.777296674545932L45.833333333333336,5.684341886080802e-14Z" fill="rgb(139,160,139)" stroke="rgb(119,153,119)"/></g><g><path d="M-8.333333333333332,240L-4.166666666666666,300L-4.166666666666666,300L-8.333333333333332,255ZM54.166666666666664,300L58.333333333333336,291.01642689010714L62.5,285.01796527410056L66.66666666666666,276.7408172159504L70.83333333333333,267.6178271965075L75,261.6718948851162L79.16666666666667,250.88777293023378L83.33333333333334,244.02436908285006L87.5,236.24520246094818L91.66666666666667,228.38343100990198L95.83333333333333,223.7548721402422L100,220.25282449756082L104.16666666666666,217.51064529773288L108.33333333333333,215.3052268328953L112.5,213.4930183377247L116.66666666666667,211.9774674157821L120.83333333333334,210.6912412114994L125,209.58595051094676L129.16666666666669,208.62592545115578L133.33333333333331,207.78429403320945L137.5,207.0404272046496L141.66666666666666,206.37822541282088L145.83333333333334,205.78494012240768L150,205.25034507409265L154.16666666666666,204.7661418990823L158.33333333333334,204.32552625174586L162.5,203.92286606470446L166.66666666666669,203.55345951770752L170.83333333333331,203.21335059295245L175,202.8991868414333L179.16666666666666,202.60810850417428L183.33333333333334,202.3376612100503L187.5,202.08572660166107L191.66666666666666,201.85046673615676L195.83333333333334,201.63027917221552L200,201.42376042135825L204.16666666666669,201.22967600096598L208.33333333333331,201.04693573846507L212.5,200.87457328293303L216.66666666666666,200.71172901092936L220.83333333333334,200.55763568815314L225,200.4116063821644L229.16666666666666,200.2730242243728L233.33333333333334,200.14133369942294L237.5,200.01603320257647L241.66666666666669,199.8966686548477L245.83333333333331,199.78282800456628L250,199.6741364750389L254.16666666666666,199.5702524428076L258.33333333333337,199.4708638509971L262.5,199.37568507842266L266.66666666666663,199.28445419829467L270.8333333333333,199.19693057110814L275,199.11289272513477L279.1666666666667,199.03213648520958L283.3333333333333,198.9544733165275L287.5,198.87972885516857L291.6666666666667,198.80774160124272L295.83333333333337,198.73836175403937L300,198.67145017149915L300,214.27994283660544L295.83333333333337,214.36018550971L291.6666666666667,214.44338821076457L287.5,214.52971780371644L283.3333333333333,214.61935393473448L279.1666666666667,214.71249028004618L275,214.8093359428666L270.8333333333333,214.9101170206239L266.66666666666663,215.01507836720435L262.5,215.1244855791284L258.33333333333337,215.23862723957396L254.16666666666666,215.3578174601636L250,215.48239876765408L245.83333333333331,215.6127453913923L241.66666666666669,215.74926701798884L237.5,215.89241309255542L233.33333333333334,216.04267776163934L229.16666666666666,216.20060557239114L225,216.36679806648004L220.83333333333334,216.54192143704287L216.66666666666666,216.7267154541279L212.5,216.9220039107637L208.33333333333331,217.12870690073467L204.16666666666669,217.34785531406183L200,217.58060803203648L195.83333333333334,217.8282724271363L191.66666666666666,218.0923289334131L187.5,218.37446066256376L183.33333333333334,218.6765893173829L179.16666666666666,219.00091902220424L175,219.3499901841432L170.83333333333331,219.7267461695407L166.66666666666669,220.13461649980306L162.5,220.57762154718083L158.33333333333334,221.06050550440233L154.16666666666666,221.5889069561646L150,222.1695800715431L145.83333333333334,222.81068485604678L141.66666666666666,223.52217299919062L137.5,224.31630818317035L133.33333333333331,225.20837889038398L129.16666666666669,226.2176922585767L125,227.36898735757796L120.83333333333334,228.6944900135138L116.66666666666667,230.23697675393288L112.5,232.05447758989985L108.33333333333333,234.22774039963588L104.16666666666666,236.87255414060962L100,240.16106983209838L95.83333333333333,244.36084591749116L91.66666666666667,249.91157304459162L87.5,258.5388324980223L83.33333333333334,266.837347245179L79.16666666666667,273.8510439028941L75,284.24697137601584L70.83333333333333,288.874973458227L66.66666666666666,295.6108023751136L62.5,300L58.333333333333336,300L54.166666666666664,300Z" fill="rgb(143,167,143)" stroke="rgb(119,153,119)"/></g><g><path d="M-8.333333333333332,45L-4.166666666666666,0L-4.166666666666666,0L-8.333333333333332,60ZM58.333333333333336,-5.684341886080802e-14L62.5,0L66.66666666666666,0L70.83333333333333,2.190444324755049L75,9.305002199557123L79.16666666666667,14.197512486553364L83.33333333333334,23.08698174029243L87.5,30.74785723080251L91.66666666666667,37.761050045941886L95.83333333333333,47.28505494544132L100,54.49108166918239L104.16666666666666,60.133556761302515L108.33333333333333,64.67156024274098L112.5,68.4004709194648L116.66666666666667,71.51896088847812L120.83333333333334,74.16557833818845L125,76.43989186511322L129.16666666666669,78.41529795382598L133.33333333333331,80.14709006748706L137.5,81.6777158020368L141.66666666666666,83.04030257849001L145.83333333333334,84.26108256029704L150,85.36109792204934L154.16666666666666,86.35742389326694L158.33333333333334,87.26406151033086L162.5,88.0925996584256L166.66666666666669,88.85271308953449L170.83333333333331,89.5525419470572L175,90.19898443444279L179.16666666666666,90.7979249660983L183.33333333333334,91.35441380567576L187.5,91.8728098145028L191.66666666666666,92.35689485583288L195.83333333333334,92.80996621061936L200,93.23491178231677L204.16666666666669,93.63427171761953L208.33333333333331,94.01028922207507L212.5,94.36495271825265L216.66666666666666,94.70003101974831L220.83333333333334,95.01710283463223L225,95.3175816369706L229.16666666666666,95.60273673318031L233.33333333333334,95.8737111855227L237.5,96.13153712648617L241.66666666666669,96.37714889667387L245.83333333333331,96.61139435872244L250,96.83504467600343L254.16666666666666,97.04880279377008L258.33333333333337,97.25331081927291L262.5,97.44915646407367L266.66666666666663,97.63687868470274L270.8333333333333,97.81697263567546L275,97.98989403072127L279.1666666666667,98.1560629931071L283.3333333333333,98.315867463541L287.5,98.46966622385486L291.6666666666667,98.61779158606745L295.83333333333337,98.76055178925367L300,98.89823314059683L300,116.94682629027034L295.83333333333337,116.81781879230944L291.6666666666667,116.68405240752476L287.5,116.54525886593633L283.3333333333333,116.40114934737034L279.1666666666667,116.251412475292L275,116.09571207093785L270.8333333333333,115.9336846336623L266.66666666666663,115.76493650774526L262.5,115.58904068918477L258.33333333333337,115.40553321794191L254.16666666666666,115.2139090914668L250,115.01361762371985L245.83333333333331,114.80405715987266L241.66666666666669,114.5845690398566L237.5,114.35443068319067L233.33333333333334,114.11284764214244L229.16666666666666,113.85894443907982L225,113.59175396532333L220.83333333333334,113.31020517093836L216.66666666666666,113.0131087151508L212.5,112.69914017202399L208.33333333333331,112.36682029127346L204.16666666666669,112.01449169363785L200,111.64029122613356L195.83333333333334,111.24211700399356L191.66666666666666,110.81758890844141L187.5,110.3640009724352L183.33333333333334,109.87826364200325L179.16666666666666,109.35683330930613L175,108.7956257190083L170.83333333333331,108.1899087714358L166.66666666666669,107.53416876722264L162.5,106.82194208614204L158.33333333333334,106.04560140958633L154.16666666666666,105.19608148990508L150,104.26252353564094L145.83333333333334,103.23180856840828L141.66666666666666,102.0879370892481L137.5,100.81119256960213L133.33333333333331,99.37699545864653L129.16666666666669,97.75430534562618L125,95.90334881102348L120.83333333333334,93.77231585104111L116.66666666666667,91.29243392138324L112.5,88.37040719522307L108.33333333333333,84.87641594781867L104.16666666666666,80.62430432073957L100,75.33730221885864L95.83333333333333,68.58525142330713L91.66666666666667,59.661253869060445L87.5,52.96954234303817L83.33333333333334,45.22476866573916L79.16666666666667,35.673766080851124L75,29.306978462379156L70.83333333333333,19.455185695067176L66.66666666666666,13.003814517398625L62.5,6.637193523508508L58.333333333333336,-5.684341886080802e-14Z" fill="rgb(146,173,146)" stroke="rgb(119,153,119)"/></g><g><path d="M-8.333333333333332,255L-4.166666666666666,300L-4.166666666666666,300L-8.333333333333332,270ZM62.5,300L66.66666666666666,295.6108023751136L70.83333333333333,288.874973458227L75,284.24697137601584L79.16666666666667,273.85104390289416L83.33333333333334,266.83734724517893L87.5,258.5388324980223L91.66666666666667,249.91157304459165L95.83333333333333,244.36084591749113L100,240.1610698320984L104.16666666666666,236.87255414060962L108.33333333333333,234.22774039963588L112.5,232.05447758989985L116.66666666666667,230.2369767539329L120.83333333333334,228.69449001351384L125,227.3689873575779L129.16666666666669,226.21769225857673L133.33333333333331,225.20837889038398L137.5,224.31630818317035L141.66666666666666,223.52217299919064L145.83333333333334,222.81068485604678L150,222.1695800715431L154.16666666666666,221.58890695616458L158.33333333333334,221.06050550440236L162.5,220.57762154718088L166.66666666666669,220.13461649980303L170.83333333333331,219.72674616954066L175,219.34999018414317L179.16666666666666,219.00091902220422L183.33333333333334,218.6765893173829L187.5,218.37446066256376L191.66666666666666,218.0923289334131L195.83333333333334,217.8282724271363L200,217.58060803203645L204.16666666666669,217.34785531406186L208.33333333333331,217.12870690073467L212.5,216.92200391076364L216.66666666666666,216.7267154541279L220.83333333333334,216.5419214370429L225,216.36679806648007L229.16666666666666,216.20060557239114L233.33333333333334,216.04267776163934L237.5,215.89241309255544L241.66666666666669,215.7492670179888L245.83333333333331,215.61274539139237L250,215.48239876765405L254.16666666666666,215.35781746016366L258.33333333333337,215.23862723957396L262.5,215.12448557912836L266.66666666666663,215.01507836720432L270.8333333333333,214.91011702062391L275,214.8093359428666L279.1666666666667,214.7124902800462L283.3333333333333,214.61935393473448L287.5,214.52971780371644L291.6666666666667,214.44338821076457L295.83333333333337,214.36018550970996L300,214.27994283660547L300,235.14032344620279L295.83333333333337,235.22245497770137L291.6666666666667,235.30761621421124L287.5,235.39597794754425L283.3333333333333,235.48772405261897L279.1666666666667,235.58305276467064L275,235.68217810906287L270.8333333333333,235.78533150540486L266.66666666666663,235.89276357127807L262.5,236.00474615516598L258.33333333333337,236.12157463329982L254.16666666666666,236.24357051127788L250,236.3710843787055L245.83333333333331,236.5044992740363L241.66666666666669,236.64423452762694L237.5,236.79075016422416L233.33333333333334,236.94455196225152L229.16666666666666,237.10619728713218L225,237.27630184042044L220.83333333333334,237.4555474969901L216.66666666666666,237.64469144057742L212.5,237.84457685574304L208.33333333333331,238.05614549465858L204.16666666666669,238.28045251380053L200,238.51868407374397L195.83333333333334,238.77217832163296L191.66666666666666,239.0424505399381L187.5,239.33122345967016L183.33333333333334,239.6404640192113L179.16666666666666,239.97242822649505L175,240.3297162881067L170.83333333333331,240.71534085524527L166.66666666666669,241.13281217793744L162.5,241.58624526528453L158.33333333333334,242.08049598511113L154.16666666666666,242.62133565059438L150,243.21567741939361L145.83333333333334,243.8718733780427L141.66666666666666,244.60010947211455L137.5,245.41293806261083L133.33333333333331,246.32600751249177L129.16666666666669,247.35907943650074L125,248.53747524548217L120.83333333333334,249.89417933977023L116.66666666666667,251.4729751775152L112.5,253.33325875709593L108.33333333333333,255.5576787073154L104.16666666666666,258.2647495795912L100,261.6306747120633L95.83333333333333,265.92931069338624L91.66666666666667,271.6106981926029L87.5,279.9292036155314L83.33333333333334,287.30468167297L79.16666666666667,292.5456092387645L75,300L70.83333333333333,300L66.66666666666666,300L62.5,300Z" fill="rgb(150,180,150)" stroke="rgb(119,153,119)"/></g><g><path d="M-8.333333333333332,30L-4.166666666666666,0L-4.166666666666666,0L-8.333333333333332,45ZM66.66666666666666,0L70.83333333333333,0L75,0L79.16666666666667,-1.1368683772161603e-13L83.33333333333334,5.62415493760534L87.5,11.221241770329414L91.66666666666667,17.05627172604818L95.83333333333333,26.051612901666715L100,32.857643514280284L104.16666666666666,38.18691298275965L108.33333333333333,42.47301846070087L112.5,45.99494270417753L116.66666666666667,48.94032980971053L120.83333333333334,51.44003735634786L125,53.58810703196167L129.16666666666669,55.453861188524456L133.33333333333331,57.089524029105945L137.5,58.53518694504791L141.66666666666666,59.82213850218409L145.83333333333334,60.97515475454833L150,62.014109856083735L154.16666666666666,62.95513121503987L158.33333333333334,63.811442690537774L162.5,64.59398988552286L166.66666666666669,65.31191052050218L170.83333333333331,65.97289289129986L175,66.58345229207828L179.16666666666666,67.14914650191963L183.33333333333334,67.674745451652L187.5,68.16436604852126L191.66666666666666,68.62158023002655L195.83333333333334,69.04950224982923L200,69.45085970804382L204.16666666666669,69.82805175149917L208.33333333333331,70.18319706865034L212.5,70.51817370760853L216.66666666666666,70.83465229768768L220.83333333333334,71.13412391515848L225,71.41792357418814L229.16666666666666,71.68725012383194L233.33333333333334,71.9431831766199L237.5,72.18669757286017L241.66666666666669,72.41867578926178L245.83333333333331,72.63991862483383L250,72.85115443678555L254.16666666666666,73.05304715089682L258.33333333333337,73.24620323197428L262.5,73.43117776856181L266.66666666666663,73.60847980049292L270.8333333333333,73.7785769969727L275,73.94189977572125L279.1666666666667,74.09884493957111L283.3333333333333,74.24977889520329L287.5,74.39504050898967L291.6666666666667,74.53494364678988L295.83333333333337,74.66977943777397L300,74.79981829662808L300,98.8982331405968L295.83333333333337,98.76055178925365L291.6666666666667,98.61779158606748L287.5,98.46966622385484L283.3333333333333,98.31586746354097L279.1666666666667,98.15606299310708L275,97.98989403072129L270.8333333333333,97.81697263567546L266.66666666666663,97.63687868470276L262.5,97.44915646407371L258.33333333333337,97.25331081927288L254.16666666666666,97.04880279377008L250,96.83504467600345L245.83333333333331,96.61139435872244L241.66666666666669,96.37714889667387L237.5,96.13153712648617L233.33333333333334,95.87371118552271L229.16666666666666,95.60273673318031L225,95.31758163697057L220.83333333333334,95.01710283463224L216.66666666666666,94.70003101974837L212.5,94.36495271825267L208.33333333333331,94.01028922207503L204.16666666666669,93.63427171761951L200,93.23491178231679L195.83333333333334,92.80996621061936L191.66666666666666,92.35689485583286L187.5,91.87280981450282L183.33333333333334,91.35441380567573L179.16666666666666,90.79792496609832L175,90.19898443444282L170.83333333333331,89.55254194705721L166.66666666666669,88.85271308953452L162.5,88.0925996584256L158.33333333333334,87.26406151033083L154.16666666666666,86.35742389326693L150,85.36109792204932L145.83333333333334,84.26108256029704L141.66666666666666,83.04030257849001L137.5,81.67771580203674L133.33333333333331,80.14709006748708L129.16666666666669,78.41529795382596L125,76.4398918651132L120.83333333333334,74.16557833818847L116.66666666666667,71.51896088847818L112.5,68.40047091946484L108.33333333333333,64.67156024274098L104.16666666666666,60.133556761302515L100,54.491081669182364L95.83333333333333,47.285054945441345L91.66666666666667,37.761050045941886L87.5,30.747857230802506L83.33333333333334,23.086981740292458L79.16666666666667,14.197512486553336L75,9.305002199557144L70.83333333333333,2.190444324755033L66.66666666666666,0Z" fill="rgb(153,187,153)" stroke="rgb(119,153,119)"/></g><g><path d="M-8.333333333333332,270L-4.166666666666666,300L-4.166666666666666,300L-8.333333333333332,285ZM75,300L79.16666666666667,292.5456092387645L83.33333333333334,287.30468167297L87.5,279.9292036155314L91.66666666666667,271.6106981926029L95.83333333333333,265.92931069338624L100,261.6306747120633L104.16666666666666,258.2647495795912L108.33333333333333,255.5576787073154L112.5,253.3332587570959L116.66666666666667,251.47297517751517L120.83333333333334,249.8941793397702L125,248.5374752454822L129.16666666666669,247.3590794365007L133.33333333333331,246.32600751249183L137.5,245.4129380626108L141.66666666666666,244.60010947211458L145.83333333333334,243.87187337804272L150,243.21567741939356L154.16666666666666,242.6213356505944L158.33333333333334,242.08049598511116L162.5,241.5862452652845L166.66666666666669,241.13281217793747L170.83333333333331,240.71534085524524L175,240.32971628810674L179.16666666666666,239.97242822649503L183.33333333333334,239.6404640192113L187.5,239.33122345967018L191.66666666666666,239.0424505399381L195.83333333333334,238.77217832163296L200,238.518684073744L204.16666666666669,238.2804525138005L208.33333333333331,238.05614549465855L212.5,237.84457685574307L216.66666666666666,237.6446914405774L220.83333333333334,237.45554749699014L225,237.2763018404204L229.16666666666666,237.10619728713218L233.33333333333334,236.94455196225147L237.5,236.7907501642242L241.66666666666669,236.644234527627L245.83333333333331,236.50449927403628L250,236.3710843787055L254.16666666666666,236.24357051127788L258.33333333333337,236.12157463329987L262.5,236.004746155166L266.66666666666663,235.89276357127812L270.8333333333333,235.78533150540486L275,235.68217810906285L279.1666666666667,235.5830527646706L283.3333333333333,235.487724052619L287.5,235.39597794754428L291.6666666666667,235.3076162142112L295.83333333333337,235.2224549777014L300,235.14032344620279L300,262.96514369438086L295.83333333333337,263.02658203547105L291.6666666666667,263.090286741823L287.5,263.1563855739376L283.3333333333333,263.2250160791093L279.1666666666667,263.2963265468414L275,263.3704770784135L270.8333333333333,263.44764078683875L266.66666666666663,263.5280051461379L262.5,263.61177351206913L258.33333333333337,263.699166840279L254.16666666666666,263.790425632439L250,263.88581214645865L245.83333333333331,263.9856129135488L241.66666666666669,264.09014161301155L237.5,264.1997423655126L233.33333333333334,264.31479351767143L229.16666666666666,264.43571200566805L225,264.5629584039176L220.83333333333334,264.6970427876656L216.66666666666666,264.83853156681323L212.5,264.9880554840205L208.33333333333331,265.14631901526735L204.16666666666669,265.31411146841555L200,265.4923201487019L195.83333333333334,265.68194605463634L191.66666666666666,265.8841226904844L187.5,266.1001387420104L183.33333333333334,266.33146557385373L179.16666666666666,266.5797907886001L175,266.84705946600366L170.83333333333331,267.1355252142531L166.66666666666669,267.44781386942543L162.5,267.7870036565109L158.33333333333334,268.15672699850535L154.16666666666666,268.56130111561697L150,269.00589738271884L145.83333333333334,269.4967635627825L141.66666666666666,270.04151923366084L137.5,270.64955416591613L133.33333333333331,271.33257408868224L129.16666666666669,272.1053616415242L125,272.9868584592562L120.83333333333334,274.00173846188665L116.66666666666667,275.1827537847632L112.5,276.5743354952386L108.33333333333333,278.2383087480905L104.16666666666666,280.26332813554785L100,282.7812022406524L95.83333333333333,285.99678898090013L91.66666666666667,290.24674045110294L87.5,296.21247691123955L83.33333333333334,300L79.16666666666667,300L75,300Z" fill="rgb(156,194,156)" stroke="rgb(119,153,119)"/></g><g><path d="M-8.333333333333332,15L-4.166666666666666,0L-4.166666666666666,0L-8.333333333333332,30ZM79.16666666666667,-1.1368683772161603e-13L83.33333333333334,0L87.5,-5.684341886080802e-14L91.66666666666667,1.920352454578449L95.83333333333333,8.271419575484344L100,13.076746733592586L104.16666666666666,16.839422038387738L108.33333333333333,19.865582252462673L112.5,22.352200250420708L116.66666666666667,24.43176019585033L120.83333333333334,26.196652722034855L125,27.71327498503294L129.16666666666669,29.03057131077506L133.33333333333331,30.18541405491257L137.5,31.206109327509694L141.66666666666666,32.11474809519535L145.83333333333334,32.92882323334675L150,33.66236668174244L154.16666666666666,34.32676502931548L158.33333333333334,34.93135484432216L162.5,35.48386415593089L166.66666666666669,35.990744556709444L170.83333333333331,36.45742428799633L175,36.888503405501524L179.16666666666666,37.28790592136693L183.33333333333334,37.658999595665364L187.5,38.00469112795798L191.66666666666666,38.32750244758205L195.83333333333334,38.629632340959205L200,38.91300660179388L204.16666666666669,39.179319122763076L208.33333333333331,39.43006578182434L212.5,39.66657255532226L216.66666666666666,39.89001897371608L220.83333333333334,40.10145779590539L225,40.30183159476391L229.16666666666666,40.491986805203936L233.33333333333334,40.672685676428614L237.5,40.84461648430286L241.66666666666669,41.0084022923329L245.83333333333331,41.164608496333955L250,41.31374934534148L254.16666666666666,41.456293597250266L258.33333333333337,41.5926694402321L262.5,41.723268788782605L266.66666666666663,41.84845104518433L270.8333333333333,41.96854640241767L275,42.08385875243903L279.1666666666667,42.194668253763325L283.3333333333333,42.30123360401845L287.5,42.403794056283346L291.6666666666667,42.502571212285204L295.83333333333337,42.59777062074809L300,42.689583205149745L300,74.79981829662805L295.83333333333337,74.66977943777397L291.6666666666667,74.53494364678988L287.5,74.3950405089897L283.3333333333333,74.24977889520335L279.1666666666667,74.0988449395711L275,73.94189977572123L270.8333333333333,73.7785769969727L266.66666666666663,73.60847980049287L262.5,73.43117776856178L258.33333333333337,73.24620323197429L254.16666666666666,73.05304715089682L250,72.85115443678554L245.83333333333331,72.63991862483384L241.66666666666669,72.41867578926178L237.5,72.18669757286017L233.33333333333334,71.9431831766199L229.16666666666666,71.68725012383194L225,71.41792357418814L220.83333333333334,71.13412391515854L216.66666666666666,70.83465229768764L212.5,70.51817370760851L208.33333333333331,70.1831970686504L204.16666666666669,69.8280517514992L200,69.45085970804382L195.83333333333334,69.04950224982925L191.66666666666666,68.62158023002657L187.5,68.16436604852123L183.33333333333334,67.67474545165203L179.16666666666666,67.1491465019196L175,66.58345229207828L170.83333333333331,65.97289289129989L166.66666666666669,65.31191052050218L162.5,64.59398988552286L158.33333333333334,63.81144269053779L154.16666666666666,62.9551312150399L150,62.01410985608375L145.83333333333334,60.975154754548335L141.66666666666666,59.82213850218408L137.5,58.535186945047926L133.33333333333331,57.089524029105945L129.16666666666669,55.45386118852447L125,53.58810703196172L120.83333333333334,51.44003735634784L116.66666666666667,48.940329809710484L112.5,45.99494270417753L108.33333333333333,42.473018460700864L104.16666666666666,38.18691298275965L100,32.8576435142803L95.83333333333333,26.051612901666694L91.66666666666667,17.056271726048173L87.5,11.221241770329394L83.33333333333334,5.624154937605337L79.16666666666667,-1.1368683772161603e-13Z" fill="rgb(160,201,160)" stroke="rgb(119,153,119)"/></g><g><path d="M-8.333333333333332,285L-4.166666666666666,300L-4.166666666666666,300L-8.333333333333332,300ZM83.33333333333334,300L87.5,296.21247691123955L91.66666666666667,290.24674045110294L95.83333333333333,285.99678898090013L100,282.7812022406524L104.16666666666666,280.26332813554785L108.33333333333333,278.2383087480905L112.5,276.5743354952386L116.66666666666667,275.18275378476324L120.83333333333334,274.00173846188665L125,272.9868584592562L129.16666666666669,272.1053616415242L133.33333333333331,271.3325740886822L137.5,270.64955416591613L141.66666666666666,270.04151923366084L145.83333333333334,269.4967635627825L150,269.00589738271884L154.16666666666666,268.56130111561697L158.33333333333334,268.15672699850535L162.5,267.7870036565109L166.66666666666669,267.44781386942543L170.83333333333331,267.1355252142531L175,266.84705946600366L179.16666666666666,266.5797907886001L183.33333333333334,266.33146557385373L187.5,266.1001387420104L191.66666666666666,265.8841226904844L195.83333333333334,265.68194605463634L200,265.4923201487019L204.16666666666669,265.3141114684156L208.33333333333331,265.14631901526735L212.5,264.9880554840205L216.66666666666666,264.83853156681323L220.83333333333334,264.6970427876656L225,264.5629584039176L229.16666666666666,264.43571200566805L233.33333333333334,264.31479351767143L237.5,264.1997423655125L241.66666666666669,264.0901416130115L245.83333333333331,263.9856129135488L250,263.8858121464587L254.16666666666666,263.790425632439L258.33333333333337,263.699166840279L262.5,263.61177351206913L266.66666666666663,263.5280051461379L270.8333333333333,263.4476407868387L275,263.37047707841356L279.1666666666667,263.2963265468414L283.3333333333333,263.2250160791093L287.5,263.1563855739376L291.6666666666667,263.09028674182304L295.83333333333337,263.02658203547105L300,262.96514369438086L300,300L295.83333333333337,300L291.6666666666667,300L287.5,300L283.3333333333333,300L279.1666666666667,300L275,300L270.8333333333333,300L266.66666666666663,300L262.5,300L258.33333333333337,300L254.16666666666666,300L250,300L245.83333333333331,300L241.66666666666669,300L237.5,300L233.33333333333334,300L229.16666666666666,300L225,300L220.83333333333334,300L216.66666666666666,300L212.5,300L208.33333333333331,300L204.16666666666669,300L200,300L195.83333333333334,300L191.66666666666666,300L187.5,300L183.33333333333334,300L179.16666666666666,300L175,300L170.83333333333331,300L166.66666666666669,300L162.5,300L158.33333333333334,300L154.16666666666666,300L150,300L145.83333333333334,300L141.66666666666666,300L137.5,300L133.33333333333331,300L129.16666666666669,300L125,300L120.83333333333334,300L116.66666666666667,300L112.5,300L108.33333333333333,300L104.16666666666666,300L100,300L95.83333333333333,300L91.66666666666667,300L87.5,300L83.33333333333334,300Z" fill="rgb(163,207,163)" stroke="rgb(119,153,119)"/></g><g><path d="M-8.333333333333332,0L-4.166666666666666,0L-4.166666666666666,0L-8.333333333333332,15ZM87.5,-5.684341886080802e-14L91.66666666666667,-5.684341886080802e-14L95.83333333333333,5.684341886080802e-14L100,0L104.16666666666666,5.684341886080802e-14L108.33333333333333,0L112.5,-5.684341886080802e-14L116.66666666666667,-5.684341886080802e-14L120.83333333333334,0L125,0L129.16666666666669,5.684341886080802e-14L133.33333333333331,5.684341886080802e-14L137.5,0L141.66666666666666,0L145.83333333333334,0L150,0L154.16666666666666,0L158.33333333333334,5.684341886080802e-14L162.5,5.684341886080802e-14L166.66666666666669,1.1368683772161603e-13L170.83333333333331,0L175,5.684341886080802e-14L179.16666666666666,-5.684341886080802e-14L183.33333333333334,0L187.5,0L191.66666666666666,-5.684341886080802e-14L195.83333333333334,5.684341886080802e-14L200,-5.684341886080802e-14L204.16666666666669,0L208.33333333333331,0L212.5,0L216.66666666666666,5.684341886080802e-14L220.83333333333334,0L225,5.684341886080802e-14L229.16666666666666,0L233.33333333333334,1.1368683772161603e-13L237.5,-5.684341886080802e-14L241.66666666666669,0L245.83333333333331,0L250,-5.684341886080802e-14L254.16666666666666,5.684341886080802e-14L258.33333333333337,5.684341886080802e-14L262.5,-5.684341886080802e-14L266.66666666666663,-5.684341886080802e-14L270.8333333333333,1.1368683772161603e-13L275,-5.684341886080802e-14L279.1666666666667,0L283.3333333333333,-5.684341886080802e-14L287.5,5.684341886080802e-14L291.6666666666667,-5.684341886080802e-14L295.83333333333337,5.684341886080802e-14L300,5.684341886080802e-14L300,42.68958320514978L295.83333333333337,42.59777062074809L291.6666666666667,42.502571212285204L287.5,42.40379405628334L283.3333333333333,42.301233604018435L279.1666666666667,42.19466825376331L275,42.08385875243901L270.8333333333333,41.96854640241771L266.66666666666663,41.84845104518434L262.5,41.72326878878259L258.33333333333337,41.5926694402321L254.16666666666666,41.45629359725027L250,41.31374934534145L245.83333333333331,41.164608496333926L241.66666666666669,41.0084022923329L237.5,40.84461648430282L233.33333333333334,40.672685676428635L229.16666666666666,40.49198680520396L225,40.30183159476392L220.83333333333334,40.1014577959054L216.66666666666666,39.890018973716096L212.5,39.666572555322254L208.33333333333331,39.43006578182434L204.16666666666669,39.17931912276309L200,38.9130066017939L195.83333333333334,38.62963234095923L191.66666666666666,38.32750244758208L187.5,38.00469112795796L183.33333333333334,37.65899959566539L179.16666666666666,37.28790592136691L175,36.8885034055015L170.83333333333331,36.457424287996304L166.66666666666669,35.99074455670945L162.5,35.48386415593094L158.33333333333334,34.93135484432218L154.16666666666666,34.326765029315474L150,33.662366681742476L145.83333333333334,32.92882323334677L141.66666666666666,32.11474809519534L137.5,31.20610932750968L133.33333333333331,30.185414054912624L129.16666666666669,29.030571310775105L125,27.713274985032903L120.83333333333334,26.196652722034862L116.66666666666667,24.43176019585038L112.5,22.352200250420637L108.33333333333333,19.86558225246268L104.16666666666666,16.839422038387752L100,13.076746733592577L95.83333333333333,8.271419575484352L91.66666666666667,1.9203524545784285L87.5,-5.684341886080802e-14Z" fill="rgb(167,214,167)" stroke="rgb(119,153,119)"/></g></g></g></svg>
