<svg font-size="10px" font-family="sans-serif" fill="none" stroke="none" stroke-width="1.5" width="300" height="300"><g><g><g><path d="M-8.333333333333332,150L-4.166666666666666,148.2496533619141L0,146.11639426051354L4.166666666666666,143.73579917041062L8.333333333333332,141.3124885632521L12.5,139.01643580825584L16.666666666666664,136.81373025563462L20.833333333333336,134.85701330419985L25,133.21714764209383L29.166666666666668,131.94930556574937L33.33333333333333,131.09540993837012L37.5,130.59278154972068L41.66666666666667,130.48270242384774L45.833333333333336,130.7725689970729L50,131.46526630348723L54.166666666666664,132.56085389326682L58.333333333333336,133.99290661845419L62.5,135.769027951776L66.66666666666666,137.87772802603928L70.83333333333333,140.30783964936415L75,143.04936659657534L79.16666666666667,146.04326013602733L83.33333333333334,149.289561109724L87.5,152.7747800364525L91.66666666666667,156.4873686499784L95.83333333333333,160.41820582146835L100,164.6389860863136L104.16666666666666,169.1199156308979L108.33333333333333,173.7944757207168L112.5,178.58566211523816L116.66666666666667,183.41869587060992L120.83333333333334,188.2268594923782L125,192.95374972122855L129.16666666666669,197.5536571870323L133.33333333333331,201.99099289750788L137.5,206.23926699355343L141.66666666666666,210.27989944031842L145.83333333333334,214.10101585913998L150,217.69630948618766L154.16666666666666,221.06400858030264L158.33333333333334,224.20596457403337L162.5,227.12686259754923L166.66666666666669,229.83354850510813L170.83333333333331,232.3344627191313L175,234.63916958907475L179.16666666666666,236.75797063571605L183.33333333333334,238.7015904609081L187.5,240.4809249067391L191.66666666666666,242.10684203701913L195.83333333333334,243.5900275612914L200,244.94086735221455L204.16666666666669,246.16936067894787L208.33333333333331,247.28505867035722L212.5,248.2970233234963L216.66666666666666,249.21380308373008L220.83333333333334,250.0434216464817L225,250.79337717287797L229.16666666666666,251.47064957975434L233.33333333333334,252.0817139661954L237.5,252.63255858159528L241.66666666666669,253.12870603129764L245.83333333333331,253.57523666187606L250,253.97681327507132L254.16666666666666,254.33770649272816L258.33333333333337,254.66182023956736L262.5,254.95271693050324L266.66666666666663,255.2136420481595L270.8333333333333,255.44754787744506L275,255.65711623029046L279.1666666666667,255.84478004729516L283.3333333333333,256.01274380614024L287.5,256.16300270091284L291.6666666666667,256.2973605834693L295.83333333333337,256.41744667887815L300,256.524731102911L300,256.5400862090566L295.83333333333337,256.43475479874604L291.6666666666667,256.31686645957865L287.5,256.18498116020186L283.3333333333333,256.037503362965L279.1666666666667,255.8726669222022L275,255.68851882986894L270.8333333333333,255.48290178503146L266.66666666666663,255.2534355799847L262.5,254.99749731705305L258.33333333333337,254.7122004974735L254.16666666666666,254.39437305842122L250,254.04053447769817L245.83333333333331,253.64687211959628L241.66666666666669,253.20921706199425L237.5,252.72301972621926L233.33333333333334,252.18332573034496L229.16666666666666,251.5847525065788L225,250.92146736787305L220.83333333333334,250.18716788205253L216.66666666666666,249.37506561833945L212.5,248.477874576536L208.33333333333331,247.48780589926105L204.16666666666669,246.3965708091082L200,245.19539411248252L195.83333333333334,243.87504107762595L191.66666666666666,242.42586103346852L187.5,240.83785165548676L183.33333333333334,239.1007486105031L179.16666666666666,237.204146027516L175,235.13765414476293L170.83333333333331,232.89110144501643L166.66666666666669,230.45478960947725L162.5,227.8198106528743L158.33333333333334,224.9784365730464L154.16666666666666,221.92459262994132L150,218.65442575151508L145.83333333333334,215.16697920502665L141.66666666666666,211.4649830153773L137.5,207.55576575076276L133.33333333333331,203.45228573993808L129.16666666666669,199.1742660542373L125,194.74939347932585L120.83333333333334,190.21449994348225L116.66666666666667,185.61657253725804L112.5,181.01331166174919L108.33333333333333,176.472730921351L104.16666666666666,172.0708776552055L100,167.8859625110816L95.83333333333333,163.9856051561936L91.66666666666667,160.40054023190157L87.5,157.0597858569118L83.33333333333334,153.97286341154907L79.16666666666667,151.15130539654564L75,148.60804269439947L70.83333333333333,146.3417785024221L66.66666666666666,144.40942066287698L62.5,142.8177126973599L58.333333333333336,141.57318367533762L54.166666666666664,140.6809708874636L50,140.1250091182455L45.833333333333336,139.96068017641593L41.66666666666667,140.1737352875912L37.5,140.74328156893904L33.33333333333333,141.6392954629992L29.166666666666668,142.79229719458866L25,144.23006882178703L20.833333333333336,145.8677534885206L16.666666666666664,147.59762539444793L12.5,149.28477818890767L8.333333333333332,150.6988280754126L4.166666666666666,151.77963972283828L0,152.24382096743074L-4.166666666666666,151.75034663808592L-8.333333333333332,150Z" fill="rgb(102,85,102)" stroke="rgb(119,153,119)"/></g><g><path d="M-4.166666666666666,151.7503466380859L0,152.2438209674307L4.166666666666666,151.7796397228383L8.333333333333332,150.69882807541262L12.5,149.28477818890772L16.666666666666664,147.59762539444793L20.833333333333336,145.86775348852063L25,144.23006882178706L29.166666666666668,142.79229719458868L33.33333333333333,141.63929546299917L37.5,140.7432815689391L41.66666666666667,140.17373528759117L45.833333333333336,139.96068017641596L50,140.1250091182455L54.166666666666664,140.68097088746356L58.333333333333336,141.57318367533765L62.5,142.81771269735987L66.66666666666666,144.409420662877L70.83333333333333,146.34177850242207L75,148.60804269439947L79.16666666666667,151.1513053965456L83.33333333333334,153.97286341154907L87.5,157.05978585691176L91.66666666666667,160.40054023190154L95.83333333333333,163.98560515619354L100,167.88596251108166L104.16666666666666,172.07087765520552L108.33333333333333,176.47273092135097L112.5,181.0133116617492L116.66666666666667,185.616572537258L120.83333333333334,190.21449994348222L125,194.74939347932582L129.16666666666669,199.1742660542373L133.33333333333331,203.4522857399381L137.5,207.55576575076273L141.66666666666666,211.4649830153773L145.83333333333334,215.1669792050266L150,218.6544257515151L154.16666666666666,221.92459262994132L158.33333333333334,224.97843657304642L162.5,227.81981065287428L166.66666666666669,230.45478960947725L170.83333333333331,232.89110144501646L175,235.13765414476296L179.16666666666666,237.20414602751603L183.33333333333334,239.10074861050308L187.5,240.83785165548676L191.66666666666666,242.42586103346852L195.83333333333334,243.8750410776259L200,245.1953941124825L204.16666666666669,246.39657080910825L208.33333333333331,247.48780589926102L212.5,248.47787457653607L216.66666666666666,249.37506561833948L220.83333333333334,250.18716788205248L225,250.921467367873L229.16666666666666,251.58475250657878L233.33333333333334,252.18332573034502L237.5,252.72301972621926L241.66666666666669,253.20921706199422L245.83333333333331,253.64687211959625L250,254.04053447769823L254.16666666666666,254.39437305842125L258.33333333333337,254.71220049747356L262.5,254.99749731705305L266.66666666666663,255.25343557998468L270.8333333333333,255.4829017850315L275,255.6885188298689L279.1666666666667,255.87266692220226L283.3333333333333,256.037503362965L287.5,256.18498116020186L291.6666666666667,256.31686645957865L295.83333333333337,256.43475479874604L300,256.54008620905654L300,256.55791970611705L295.83333333333337,256.4548518043306L291.6666666666667,256.339509869192L287.5,256.2104885207843L283.3333333333333,256.06623100251875L279.1666666666667,255.90501455250862L275,255.7249346732396L270.8333333333333,255.52388828094522L266.66666666666663,255.29955573273196L262.5,255.04938175115075L258.33333333333337,254.77055529361556L254.16666666666666,254.45998844908942L250,254.1142944882514L245.83333333333331,253.72976524764564L241.66666666666669,253.3023480951152L237.5,252.82762280546612L233.33333333333334,252.30077877453485L229.16666666666666,251.71659311976117L225,251.06941035964044L220.83333333333334,250.3531245371588L216.66666666666666,249.56116485821124L212.5,248.68648616034912L208.33333333333331,247.72156581589167L204.16666666666669,246.65840901293925L200,245.48856475511312L195.83333333333334,244.20315538322737L191.66666666666666,242.79292295689478L187.5,241.24829644815267L183.33333333333334,239.55948439809197L179.16666666666666,237.71659847410922L175,235.70981423799054L170.83333333333331,233.52957638391058L166.66666666666669,231.16685670798975L162.5,228.613474084073L158.33333333333334,225.86248666773758L154.16666666666666,222.9086673040195L150,219.749073462941L145.83333333333334,216.38372262712574L141.66666666666666,212.81638235003112L137.5,209.05548028342545L133.33333333333331,205.11513184692544L129.16666666666669,201.01626939800846L125,196.78783255374245L120.83333333333334,192.46793743968726L116.66666666666667,188.1048701699997L112.5,183.75762309995687L108.33333333333333,179.49546627532547L104.16666666666666,175.39563155043558L100,171.53739608380442L95.83333333333333,167.9892702895748L91.66666666666667,164.7826319569304L87.5,161.84680600181917L83.33333333333334,159.19117521940444L79.16666666666667,156.82655485100136L75,154.7644175911919L70.83333333333333,153.0010707540073L66.66666666666666,151.58985077928156L62.5,150.53246767729772L58.333333333333336,149.8286104687719L54.166666666666664,149.47435692184672L50,149.44186884493496L45.833333333333336,149.7714518757497L41.66666666666667,150.42977510332616L37.5,151.3720214972656L33.33333333333333,152.5384083000101L29.166666666666668,153.8226836692463L25,155.20744963478325L20.833333333333336,156.5526109568216L16.666666666666664,157.6831949551262L12.5,158.38273808459724L8.333333333333332,158.32227489636347L4.166666666666666,157.32286668719578L0,154.9583332215386L-4.166666666666666,151.7503466380859Z" fill="rgb(105,92,105)" stroke="rgb(119,153,119)"/></g><g><path d="M0,154.9583332215386L4.166666666666666,157.32286668719578L8.333333333333332,158.32227489636347L12.5,158.3827380845972L16.666666666666664,157.68319495512617L20.833333333333336,156.55261095682158L25,155.20744963478322L29.166666666666668,153.82268366924626L33.33333333333333,152.5384083000101L37.5,151.37202149726554L41.66666666666667,150.42977510332616L45.833333333333336,149.77145187574968L50,149.44186884493493L54.166666666666664,149.4743569218467L58.333333333333336,149.8286104687719L62.5,150.53246767729775L66.66666666666666,151.5898507792815L70.83333333333333,153.00107075400732L75,154.76441759119186L79.16666666666667,156.82655485100133L83.33333333333334,159.19117521940444L87.5,161.84680600181917L91.66666666666667,164.78263195693043L95.83333333333333,167.98927028957482L100,171.53739608380442L104.16666666666666,175.3956315504356L108.33333333333333,179.49546627532544L112.5,183.75762309995685L116.66666666666667,188.10487016999969L120.83333333333334,192.46793743968726L125,196.78783255374248L129.16666666666669,201.0162693980085L133.33333333333331,205.11513184692546L137.5,209.05548028342542L141.66666666666666,212.81638235003112L145.83333333333334,216.38372262712574L150,219.74907346294094L154.16666666666666,222.9086673040195L158.33333333333334,225.86248666773756L162.5,228.61347408407306L166.66666666666669,231.16685670798972L170.83333333333331,233.52957638391058L175,235.70981423799054L179.16666666666666,237.7165984741092L183.33333333333334,239.55948439809202L187.5,241.24829644815262L191.66666666666666,242.79292295689478L195.83333333333334,244.2031553832274L200,245.48856475511315L204.16666666666669,246.6584090129392L208.33333333333331,247.72156581589172L212.5,248.6864861603491L216.66666666666666,249.56116485821119L220.83333333333334,250.35312453715886L225,251.06941035964053L229.16666666666666,251.71659311976114L233.33333333333334,252.30077877453482L237.5,252.82762280546612L241.66666666666669,253.3023480951152L245.83333333333331,253.72976524764573L250,254.1142944882514L254.16666666666666,254.45998844908945L258.33333333333337,254.7705552936156L262.5,255.04938175115075L266.66666666666663,255.29955573273196L270.8333333333333,255.52388828094522L275,255.72493467323963L279.1666666666667,255.9050145525086L283.3333333333333,256.0662310025188L287.5,256.2104885207843L291.6666666666667,256.339509869192L295.83333333333337,256.4548518043306L300,256.55791970611705L300,256.5786255040922L295.83333333333337,256.4781799908176L291.6666666666667,256.3657872815906L287.5,256.2400818819738L283.3333333333333,256.0995516496222L279.1666666666667,255.9425237031794L275,255.76714928660638L270.8333333333333,255.57138757571144L266.66666666666663,255.35298843066053L262.5,255.1094741202556L258.33333333333337,254.83812007182874L254.16666666666666,254.53593473594145L250,254.19963869916407L245.83333333333331,253.825643232727L241.66666666666669,253.41002853179535L237.5,252.94852198181354L233.33333333333334,252.4364768875056L229.16666666666666,251.86885221978943L225,251.24019407964366L220.83333333333334,250.54461974992532L216.66666666666666,249.77580541090725L212.5,248.92697883807833L208.33333333333331,247.9909186873262L204.16666666666669,246.95996230934554L200,245.82602442880267L195.83333333333334,244.5806294815784L191.66666666666666,243.2149609324237L187.5,241.71993150219947L183.33333333333334,240.0862789237874L179.16666666666666,238.3046926213082L175,236.36597756627978L170.83333333333331,234.26126249661382L166.66666666666669,231.9822606667315L162.5,229.52159228563673L158.33333333333334,226.87317871760038L154.16666666666666,224.03271923803214L150,220.99826144299792L145.83333333333334,217.77087595988516L141.66666666666666,214.35544433977947L137.5,210.76156501922776L133.33333333333331,207.00457452630565L129.16666666666669,203.10666718812726L125,199.09807226702222L120.83333333333334,195.01820543129014L116.66666666666667,190.9166388227155L112.5,186.8536070164373L108.33333333333333,182.89953981127871L104.16666666666666,179.13269755204604L100,175.63319358748305L95.83333333333333,172.47010644268258L91.66666666666667,169.67502045469516L87.5,167.176990826788L83.33333333333334,164.98451432012249L79.16666666666667,163.10673349478262L75,161.5524553417002L70.83333333333333,160.31407920592136L66.66666666666666,159.43949115220468L62.5,158.92304792235944L58.333333333333336,158.75475043273758L54.166666666666664,158.91813706372477L50,159.36936268127465L45.833333333333336,160.12852436129714L41.66666666666667,161.13700808893458L37.5,162.3186027295465L33.33333333333333,163.57479153515337L29.166666666666668,164.751793666472L25,165.7741662587588L20.833333333333336,166.43122040651406L16.666666666666664,166.46244214894895L12.5,165.5480511903351L8.333333333333332,163.23465941483136L4.166666666666666,159.19388065725903L0,154.9583332215386Z" fill="rgb(109,99,109)" stroke="rgb(119,153,119)"/></g><g><path d="M4.166666666666666,159.19388065725903L8.333333333333332,163.23465941483136L12.5,165.5480511903351L16.666666666666664,166.46244214894898L20.833333333333336,166.43122040651406L25,165.7741662587588L29.166666666666668,164.751793666472L33.33333333333333,163.5747915351534L37.5,162.31860272954657L41.66666666666667,161.13700808893458L45.833333333333336,160.12852436129717L50,159.36936268127468L54.166666666666664,158.9181370637248L58.333333333333336,158.7547504327376L62.5,158.92304792235944L66.66666666666666,159.43949115220468L70.83333333333333,160.3140792059213L75,161.55245534170024L79.16666666666667,163.10673349478265L83.33333333333334,164.98451432012254L87.5,167.17699082678803L91.66666666666667,169.67502045469516L95.83333333333333,172.4701064426826L100,175.63319358748305L104.16666666666666,179.132697552046L108.33333333333333,182.89953981127871L112.5,186.85360701643734L116.66666666666667,190.91663882271553L120.83333333333334,195.01820543129014L125,199.09807226702225L129.16666666666669,203.1066671881272L133.33333333333331,207.00457452630562L137.5,210.76156501922776L141.66666666666666,214.35544433977947L145.83333333333334,217.7708759598852L150,220.99826144299797L154.16666666666666,224.0327192380322L158.33333333333334,226.87317871760035L162.5,229.5215922856367L166.66666666666669,231.98226066673155L170.83333333333331,234.2612624966138L175,236.36597756627975L179.16666666666666,238.30469262130816L183.33333333333334,240.0862789237874L187.5,241.71993150219953L191.66666666666666,243.2149609324237L195.83333333333334,244.5806294815784L200,245.82602442880267L204.16666666666669,246.95996230934557L208.33333333333331,247.99091868732617L212.5,248.92697883807833L216.66666666666666,249.77580541090725L220.83333333333334,250.5446197499253L225,251.24019407964363L229.16666666666666,251.86885221978943L233.33333333333334,252.43647688750556L237.5,252.94852198181354L241.66666666666669,253.41002853179538L245.83333333333331,253.82564323272697L250,254.199638699164L254.16666666666666,254.53593473594145L258.33333333333337,254.83812007182868L262.5,255.1094741202556L266.66666666666663,255.35298843066053L270.8333333333333,255.57138757571147L275,255.76714928660638L279.1666666666667,255.9425237031794L283.3333333333333,256.0995516496222L287.5,256.2400818819738L291.6666666666667,256.3657872815906L295.83333333333337,256.4781799908175L300,256.5786255040922L300,256.60265887410105L295.83333333333337,256.505250352156L291.6666666666667,256.3962720473084L287.5,256.27440434339974L283.3333333333333,256.13818638575566L279.1666666666667,255.98600259984718L275,255.8160682292801L270.8333333333333,255.62641388570523L266.66666666666663,255.4148691206104L262.5,255.1790450513119L258.33333333333337,254.91631610183967L254.16666666666666,254.62380095503025L250,254.29834285644046L245.83333333333331,253.93648946534765L241.66666666666669,253.53447251507865L237.5,253.08818762648417L233.33333333333334,252.59317471719854L229.16666666666666,252.04459956844508L225,251.43723725407582L220.83333333333334,250.76545830726428L216.66666666666666,250.0232187033446L212.5,249.20405497779868L208.33333333333331,248.30108608199814L204.16666666666669,247.30702391220404L200,246.21419483614764L195.83333333333334,245.01457499318056L191.66666666666666,243.6998426653457L187.5,242.26145161408456L183.33333333333334,240.69072995553842L179.16666666666666,238.97900990865475L175,237.11779459186303L170.83333333333331,235.09896895516943L166.66666666666669,232.91506289125545L162.5,230.5595755267794L158.33333333333334,228.0273705756628L154.16666666666666,225.3151533093713L150,222.4220399515738L145.83333333333334,219.35022978965515L141.66666666666666,216.10578845235338L137.5,212.69954671910392L133.33333333333331,209.1481114059852L129.16666666666669,205.4749708272863L125,201.71165284998293L120.83333333333334,197.89885135738754L116.66666666666667,194.08736408205897L112.5,190.33855755056635L108.33333333333333,186.72384822924244L104.16666666666666,183.3222733746469L100,180.2144335839344L95.83333333333333,177.46950653228916L91.66666666666667,175.1186669866149L87.5,173.08990472436858L83.33333333333334,171.38981646689604L79.16666666666667,170.0245937116561L75,168.99878020122495L70.83333333333333,168.2988855654157L66.66666666666666,167.96490244789487L62.5,167.98083870084025L58.333333333333336,168.3233510116862L54.166666666666664,168.95899427040413L50,169.8225339183616L45.833333333333336,170.9073603332356L41.66666666666667,172.1217538509712L37.5,173.34871667063507L33.33333333333333,174.43974674783036L29.166666666666668,175.1800850460916L25,175.42019862830787L20.833333333333336,174.85969683953368L16.666666666666664,173.12980613508444L12.5,169.78045981478814L8.333333333333332,164.20187551531336L4.166666666666666,159.19388065725903Z" fill="rgb(112,105,112)" stroke="rgb(119,153,119)"/></g><g><path d="M12.5,169.78045981478814L16.666666666666664,173.12980613508446L20.833333333333336,174.85969683953374L25,175.42019862830784L29.166666666666668,175.18008504609156L33.33333333333333,174.4397467478303L37.5,173.34871667063504L41.66666666666667,172.12175385097123L45.833333333333336,170.90736033323557L50,169.8225339183616L54.166666666666664,168.95899427040416L58.333333333333336,168.32335101168616L62.5,167.9808387008403L66.66666666666666,167.96490244789493L70.83333333333333,168.29888556541573L75,168.99878020122495L79.16666666666667,170.02459371165608L83.33333333333334,171.389816466896L87.5,173.08990472436858L91.66666666666667,175.11866698661493L95.83333333333333,177.46950653228913L100,180.21443358393444L104.16666666666666,183.32227337464687L108.33333333333333,186.72384822924244L112.5,190.3385575505663L116.66666666666667,194.08736408205897L120.83333333333334,197.8988513573875L125,201.71165284998287L129.16666666666669,205.47497082728637L133.33333333333331,209.14811140598522L137.5,212.69954671910395L141.66666666666666,216.10578845235344L145.83333333333334,219.35022978965515L150,222.42203995157382L154.16666666666666,225.31515330937125L158.33333333333334,228.02737057566281L162.5,230.55957552677938L166.66666666666669,232.91506289125545L170.83333333333331,235.09896895516945L175,237.11779459186303L179.16666666666666,238.97900990865477L183.33333333333334,240.69072995553842L187.5,242.26145161408454L191.66666666666666,243.69984266534573L195.83333333333334,245.01457499318053L200,246.2141948361476L204.16666666666669,247.30702391220402L208.33333333333331,248.30108608199816L212.5,249.20405497779865L216.66666666666666,250.02321870334467L220.83333333333334,250.7654583072643L225,251.4372372540758L229.16666666666666,252.04459956844508L233.33333333333334,252.5931747171985L237.5,253.08818762648417L241.66666666666669,253.53447251507862L245.83333333333331,253.93648946534762L250,254.2983428564405L254.16666666666666,254.62380095503025L258.33333333333337,254.91631610183967L262.5,255.17904505131196L266.66666666666663,255.4148691206104L270.8333333333333,255.6264138857052L275,255.81606822928006L279.1666666666667,255.98600259984715L283.3333333333333,256.13818638575566L287.5,256.27440434339974L291.6666666666667,256.3962720473084L295.83333333333337,256.50525035215605L300,256.60265887410105L300,256.6305457490081L295.83333333333337,256.53665295173454L291.6666666666667,256.4316259548948L287.5,256.3141978752249L283.3333333333333,256.18296677230546L279.1666666666667,256.0363828577533L275,255.87273479497313L270.8333333333333,255.69013508833206L266.66666666666663,255.48650457833062L262.5,255.25955608200857L258.33333333333337,255.00677724646366L254.16666666666666,254.72541271917981L250,254.41244578326499L245.83333333333331,254.0645796603427L241.66666666666669,253.67821875064945L237.5,253.24945016109353L233.33333333333334,252.77402597023823L229.16666666666666,252.2473467973489L225,251.66444738423613L220.83333333333334,251.01998506753228L216.66666666666666,250.3082322196792L212.5,249.52307397424804L208.33333333333331,248.65801283074583L204.16666666666669,247.706182061799L200,246.66037022794757L195.83333333333334,245.5130595488687L191.66666666666666,244.25648139123086L187.5,242.88269271845365L183.33333333333334,241.3836780108635L179.16666666666666,239.7514819076678L175,237.9783786415017L170.83333333333331,236.05708522049687L166.66666666666669,233.98102623714212L162.5,231.74465910183827L158.33333333333334,229.34386933287215L154.16666666666666,226.77644615180145L150,224.04264881877884L145.83333333333334,221.14587354775244L141.66666666666666,218.0934289034575L137.5,214.89742338575206L133.33333333333331,211.57576095249624L129.16666666666669,208.15322602792057L125,204.66261487429045L120.83333333333334,201.14582778215552L116.66666666666667,197.65476341678422L112.5,194.25172913248946L108.33333333333333,191.0088540497017L104.16666666666666,188.00557567647195L100,185.32247884445275L95.83333333333333,183.02818263011326L91.66666666666667,181.15260583967287L87.5,179.62159736120628L83.33333333333334,178.4385012124799L79.16666666666667,177.6048707685395L75,177.1188971954217L70.83333333333333,176.958628380174L66.66666666666666,177.15301362723795L62.5,177.67187156458377L58.333333333333336,178.4738510309045L54.166666666666664,179.50287979503324L50,180.66552554720087L45.833333333333336,181.92028151292877L41.66666666666667,183.13249403529198L37.5,184.13261180944835L33.33333333333333,184.70808912848213L29.166666666666668,184.56642455825207L25,183.4640391807355L20.833333333333336,180.98712354645093L16.666666666666664,176.63049941125627L12.5,169.78045981478814Z" fill="rgb(116,112,116)" stroke="rgb(119,153,119)"/></g><g><path d="M16.666666666666664,176.63049941125624L20.833333333333336,180.98712354645087L25,183.46403918073554L29.166666666666668,184.56642455825212L33.33333333333333,184.7080891284822L37.5,184.13261180944835L41.66666666666667,183.13249403529198L45.833333333333336,181.9202815129288L50,180.6655255472009L54.166666666666664,179.5028797950332L58.333333333333336,178.47385103090457L62.5,177.67187156458374L66.66666666666666,177.15301362723795L70.83333333333333,176.958628380174L75,177.11889719542168L79.16666666666667,177.60487076853954L83.33333333333334,178.43850121247988L87.5,179.6215973612063L91.66666666666667,181.15260583967284L95.83333333333333,183.02818263011326L100,185.32247884445272L104.16666666666666,188.00557567647195L108.33333333333333,191.0088540497017L112.5,194.25172913248946L116.66666666666667,197.6547634167842L120.83333333333334,201.1458277821556L125,204.66261487429048L129.16666666666669,208.15322602792054L133.33333333333331,211.57576095249624L137.5,214.89742338575203L141.66666666666666,218.09342890345746L145.83333333333334,221.14587354775244L150,224.04264881877882L154.16666666666666,226.77644615180148L158.33333333333334,229.34386933287215L162.5,231.7446591018383L166.66666666666669,233.98102623714206L170.83333333333331,236.0570852204969L175,237.9783786415017L179.16666666666666,239.7514819076678L183.33333333333334,241.38367801086346L187.5,242.88269271845368L191.66666666666666,244.25648139123086L195.83333333333334,245.51305954886874L200,246.6603702279476L204.16666666666669,247.70618206179898L208.33333333333331,248.6580128307458L212.5,249.52307397424806L216.66666666666666,250.30823221967916L220.83333333333334,251.01998506753225L225,251.66444738423615L229.16666666666666,252.24734679734888L233.33333333333334,252.77402597023828L237.5,253.24945016109353L241.66666666666669,253.67821875064942L245.83333333333331,254.06457966034267L250,254.41244578326496L254.16666666666666,254.72541271917987L258.33333333333337,255.00677724646368L262.5,255.25955608200852L266.66666666666663,255.4865045783306L270.8333333333333,255.6901350883321L275,255.87273479497316L279.1666666666667,256.0363828577533L283.3333333333333,256.18296677230546L287.5,256.3141978752249L291.6666666666667,256.4316259548948L295.83333333333337,256.5366529517345L300,256.63054574900815L300,256.6628933793145L295.83333333333337,256.5730687951052L291.6666666666667,256.4726124508085L287.5,256.3603180279722L283.3333333333333,256.23485120640316L279.1666666666667,256.0947376538953L275,255.93835018564133L270.8333333333333,255.76389509888529L266.66666666666663,255.56939770638L262.5,255.3526871151295L258.33333333333337,255.11138032571054L254.16666666666666,254.8428657633697L250,254.54428639644735L245.83333333333331,254.21252265211012L241.66666666666669,253.84417540575575L237.5,253.4355494009653L233.33333333333334,252.98263755405134L229.16666666666666,252.48110671397953L225,251.92628558806715L220.83333333333334,251.31315571016287L216.66666666666666,250.63634652528063L212.5,249.89013589767433L208.33333333333331,249.06845762341172L204.16666666666669,248.16491784938788L200,247.17282267454078L195.83333333333334,246.08521964209632L191.66666666666666,244.89495633012498L187.5,243.5947598169662L183.33333333333334,242.1773414420622L179.16666666666666,240.63553200235893L175,238.9624533155799L170.83333333333331,237.15173293192277L166.66666666666669,235.1977696592412L162.5,233.09605843649211L158.33333333333334,230.84358386553487L154.16666666666666,228.4392922587888L150,225.88465216254997L145.83333333333334,223.18431262216907L141.66666666666666,220.3468663996625L137.5,217.38572101849374L133.33333333333331,214.3200723907039L129.16666666666669,211.17596138189504L125,207.98736876952054L120.83333333333334,204.79726135487837L116.66666666666667,201.65842855016544L112.5,198.63382085751834L108.33333333333333,195.79587419460913L104.16666666666666,193.22388748432732L100,190.99772829890847L95.83333333333333,189.18455752690568L91.66666666666667,187.81189809125806L87.5,186.80202747761086L83.33333333333334,186.15325619241773L79.16666666666667,185.8602975619738L75,185.91228322980484L70.83333333333333,186.27548810686346L66.66666666666666,186.9637853265717L62.5,187.92791138031873L58.333333333333336,189.10259095923107L54.166666666666664,190.40199263204414L50,191.6959120218585L45.833333333333336,192.89766232592498L41.66666666666667,193.81735150359296L37.5,194.21818137012662L33.33333333333333,193.8060490241717L29.166666666666668,192.18987137920297L25,189.007266145093L20.833333333333336,183.70163580055876L16.666666666666664,176.63049941125624Z" fill="rgb(119,119,119)" stroke="rgb(119,153,119)"/></g><g><path d="M20.833333333333336,183.70163580055876L25,189.007266145093L29.166666666666668,192.18987137920297L33.33333333333333,193.80604902417167L37.5,194.21818137012662L41.66666666666667,193.81735150359293L45.833333333333336,192.89766232592493L50,191.69591202185848L54.166666666666664,190.40199263204414L58.333333333333336,189.102590959231L62.5,187.92791138031873L66.66666666666666,186.9637853265717L70.83333333333333,186.27548810686346L75,185.9122832298048L79.16666666666667,185.86029756197377L83.33333333333334,186.15325619241779L87.5,186.8020274776108L91.66666666666667,187.81189809125806L95.83333333333333,189.18455752690565L100,190.99772829890844L104.16666666666666,193.22388748432735L108.33333333333333,195.79587419460913L112.5,198.63382085751834L116.66666666666667,201.65842855016547L120.83333333333334,204.79726135487834L125,207.98736876952057L129.16666666666669,211.17596138189504L133.33333333333331,214.3200723907039L137.5,217.3857210184937L141.66666666666666,220.3468663996625L145.83333333333334,223.1843126221691L150,225.88465216255003L154.16666666666666,228.43929225878884L158.33333333333334,230.84358386553484L162.5,233.09605843649211L166.66666666666669,235.1977696592412L170.83333333333331,237.15173293192274L175,238.96245331557992L179.16666666666666,240.63553200235893L183.33333333333334,242.17734144206224L187.5,243.59475981696616L191.66666666666666,244.89495633012498L195.83333333333334,246.08521964209632L200,247.17282267454075L204.16666666666669,248.16491784938793L208.33333333333331,249.0684576234117L212.5,249.89013589767433L216.66666666666666,250.63634652528066L220.83333333333334,251.3131557101629L225,251.92628558806712L229.16666666666666,252.48110671397956L233.33333333333334,252.98263755405134L237.5,253.43554940096524L241.66666666666669,253.84417540575578L245.83333333333331,254.21252265211018L250,254.54428639644732L254.16666666666666,254.84286576336964L258.33333333333337,255.1113803257105L262.5,255.3526871151295L266.66666666666663,255.56939770638004L270.8333333333333,255.76389509888526L275,255.93835018564135L279.1666666666667,256.0947376538953L283.3333333333333,256.23485120640316L287.5,256.3603180279722L291.6666666666667,256.4726124508085L295.83333333333337,256.5730687951052L300,256.6628933793145L300,256.7004025299853L295.83333333333337,256.61528340847195L291.6666666666667,256.52011174557475L287.5,256.41375072590074L283.3333333333333,256.29494357550806L279.1666666666667,256.16230243210845L275,256.01429647249336L270.8333333333333,255.84923930979792L266.66666666666663,255.66527569146132L262.5,255.46036755180964L258.33333333333337,255.23227950205793L254.16666666666666,254.97856387634042L250,254.6965454964756L245.83333333333331,254.3833063721133L241.66666666666669,254.03567061852223L237.5,253.6501899536613L233.33333333333334,253.22313023178057L229.16666666666666,252.75045958541403L225,252.22783888447347L220.83333333333334,251.65061538385243L216.66666666666666,251.01382062363166L212.5,250.31217387320325L208.33333333333331,249.54009267745855L204.16666666666669,248.6917123750833L200,247.76091682173976L195.83333333333334,246.74138297038556L191.66666666666666,245.62664244282823L187.5,244.41016377570793L183.33333333333334,243.0854596436259L179.16666666666666,241.64622405222175L175,240.08650524959256L170.83333333333331,238.4009209119797L166.66666666666669,236.58492299200063L162.5,234.63512042624046L158.33333333333334,232.54966860133717L154.16666666666666,230.32873493816902L150,227.9750499526688L145.83333333333334,225.49455233544884L141.66666666666666,222.89713439126538L137.5,220.19748967120952L133.33333333333331,217.41605630718436L129.16666666666669,214.5800349178483L125,211.724434771131L120.83333333333334,208.89305885855697L116.66666666666667,206.13926470327323L112.5,203.52620935528307L108.33333333333333,201.12605901957795L104.16666666666666,199.0172265850454L100,197.27790694268973L95.83333333333333,195.972595277414L91.66666666666667,195.1249065431721L87.5,194.65166785053398L83.33333333333334,194.5438364374795L79.16666666666667,194.78643752593945L75,195.3560633716829L70.83333333333333,196.20298194320318L66.66666666666666,197.32085781211916L62.5,198.63514436592715L58.333333333333336,200.04917219151199L54.166666666666664,201.4383758671874L50,202.6250220190842L45.833333333333336,203.46437894990052L41.66666666666667,203.6959609532854L37.5,202.9974285639494L33.33333333333333,200.97136212990955L29.166666666666668,197.10225589767086L25,190.87828011515626L20.833333333333336,183.70163580055876Z" fill="rgb(122,126,122)" stroke="rgb(119,153,119)"/></g><g><path d="M25,190.87828011515626L29.166666666666668,197.10225589767086L33.33333333333333,200.97136212990955L37.5,202.99742856394943L41.66666666666667,203.6959609532854L45.833333333333336,203.46437894990052L50,202.62502201908418L54.166666666666664,201.43837586718743L58.333333333333336,200.04917219151204L62.5,198.63514436592712L66.66666666666666,197.3208578121192L70.83333333333333,196.2029819432032L75,195.35606337168295L79.16666666666667,194.7864375259395L83.33333333333334,194.54383643747948L87.5,194.651667850534L91.66666666666667,195.12490654317207L95.83333333333333,195.97259527741403L100,197.27790694268975L104.16666666666666,199.01722658504542L108.33333333333333,201.12605901957795L112.5,203.52620935528307L116.66666666666667,206.13926470327323L120.83333333333334,208.89305885855697L125,211.72443477113097L129.16666666666669,214.5800349178483L133.33333333333331,217.41605630718436L137.5,220.19748967120955L141.66666666666666,222.89713439126535L145.83333333333334,225.49455233544884L150,227.9750499526687L154.16666666666666,230.328734938169L158.33333333333334,232.54966860133717L162.5,234.63512042624046L166.66666666666669,236.58492299200066L170.83333333333331,238.40092091197974L175,240.08650524959253L179.16666666666666,241.64622405222173L183.33333333333334,243.08545964362585L187.5,244.41016377570799L191.66666666666666,245.6266424428282L195.83333333333334,246.74138297038553L200,247.76091682173973L204.16666666666669,248.6917123750833L208.33333333333331,249.5400926774586L212.5,250.31217387320325L216.66666666666666,251.0138206236317L220.83333333333334,251.65061538385243L225,252.2278388844735L229.16666666666666,252.75045958541403L233.33333333333334,253.22313023178054L237.5,253.65018995366134L241.66666666666669,254.03567061852223L245.83333333333331,254.3833063721133L250,254.6965454964756L254.16666666666666,254.97856387634042L258.33333333333337,255.2322795020579L262.5,255.46036755180967L266.66666666666663,255.66527569146132L270.8333333333333,255.8492393097979L275,256.01429647249336L279.1666666666667,256.16230243210845L283.3333333333333,256.29494357550806L287.5,256.4137507259008L291.6666666666667,256.52011174557475L295.83333333333337,256.61528340847195L300,256.7004025299853L300,256.74388142665305L295.83333333333337,256.66420235114566L291.6666666666667,256.5751380555685L287.5,256.47563141585067L283.3333333333333,256.3645145065644L279.1666666666667,256.24049846211943L275,256.1021626915822L270.8333333333333,255.94794346707434L266.66666666666663,255.776121924082L262.5,255.58481153509294L258.33333333333337,255.37194514672854L254.16666666666666,255.1352617060334L250,254.87229284513126L245.83333333333331,254.5803495465455L241.66666666666669,254.25650917586123L237.5,253.8976032460987L233.33333333333334,253.5002063715009L229.16666666666666,253.060626980086L225,252.57490048733197L220.83333333333334,252.0387857911974L216.66666666666666,251.44776613523385L212.5,250.79705560612524L208.33333333333331,250.08161278934364L204.16666666666669,249.29616340683432L200,248.4352341090863L195.83333333333334,247.4931999959688L191.66666666666666,246.46434890138383L187.5,245.34296600023188L183.33333333333334,244.12344288476856L179.16666666666666,242.80041591028416L175,241.36893932093164L170.83333333333331,239.82469942055556L166.66666666666669,238.1642768217706L162.5,236.38546453881438L158.33333333333334,234.48765030121334L154.16666666666666,232.47227181784856L150,230.34335359182782L145.83333333333334,228.10813291840952L141.66666666666666,225.77778031736275L137.5,223.368214930553L133.33333333333331,220.90100684131338L129.16666666666669,218.40434333581203L125,215.91401059373186L120.83333333333334,213.47429885500833L116.66666666666667,211.13866479287978L112.5,208.9698558872028L108.33333333333333,207.0389729171585L104.16666666666666,205.42252873181891L100,204.19576715956322L95.83333333333333,203.41892013693874L91.66666666666667,203.10971290266647L87.5,203.1770791462242L83.33333333333334,203.6016272159603L79.16666666666667,204.3550381048881L75,205.39692057836228L70.83333333333333,206.65615318029012L66.66666666666666,208.09969378405762L62.5,209.61989012796374L58.333333333333336,211.07928613260054L54.166666666666664,212.3033310798644L50,213.05331339870378L45.833333333333336,213.11041131944958L41.66666666666667,212.12443738630503L37.5,209.66479255008488L33.33333333333333,205.2037707543626L29.166666666666668,198.06947199815286L25,190.87828011515626Z" fill="rgb(126,133,126)" stroke="rgb(119,153,119)"/></g><g><path d="M33.33333333333333,205.2037707543626L37.5,209.66479255008488L41.66666666666667,212.124437386305L45.833333333333336,213.11041131944955L50,213.05331339870378L54.166666666666664,212.30333107986434L58.333333333333336,211.07928613260054L62.5,209.61989012796377L66.66666666666666,208.0996937840576L70.83333333333333,206.65615318029012L75,205.3969205783623L79.16666666666667,204.35503810488805L83.33333333333334,203.60162721596026L87.5,203.17707914622423L91.66666666666667,203.1097129026665L95.83333333333333,203.41892013693874L100,204.1957671595632L104.16666666666666,205.4225287318189L108.33333333333333,207.0389729171585L112.5,208.9698558872028L116.66666666666667,211.13866479287978L120.83333333333334,213.47429885500836L125,215.91401059373183L129.16666666666669,218.40434333581203L133.33333333333331,220.90100684131335L137.5,223.368214930553L141.66666666666666,225.77778031736275L145.83333333333334,228.10813291840947L150,230.3433535918279L154.16666666666666,232.4722718178486L158.33333333333334,234.48765030121336L162.5,236.3854645388144L166.66666666666669,238.1642768217706L170.83333333333331,239.8246994205556L175,241.36893932093164L179.16666666666666,242.8004159102842L183.33333333333334,244.12344288476856L187.5,245.34296600023185L191.66666666666666,246.46434890138386L195.83333333333334,247.4931999959688L200,248.43523410908634L204.16666666666669,249.29616340683432L208.33333333333331,250.0816127893436L212.5,250.79705560612524L216.66666666666666,251.4477661352338L220.83333333333334,252.03878579119737L225,252.57490048733194L229.16666666666666,253.06062698008603L233.33333333333334,253.5002063715009L237.5,253.89760324609875L241.66666666666669,254.25650917586125L245.83333333333331,254.58034954654545L250,254.87229284513126L254.16666666666666,255.13526170603336L258.33333333333337,255.37194514672854L262.5,255.58481153509294L266.66666666666663,255.77612192408196L270.8333333333333,255.94794346707437L275,256.1021626915821L279.1666666666667,256.24049846211943L283.3333333333333,256.3645145065644L287.5,256.47563141585067L291.6666666666667,256.5751380555685L295.83333333333337,256.66420235114566L300,256.74388142665305L300,256.7942616845592L295.83333333333337,256.72086891683875L291.6666666666667,256.6388592581954L287.5,256.5472668735709L283.3333333333333,256.44502553726096L279.1666666666667,256.3309596067434L275,256.2037744557317L270.8333333333333,256.0620463938988L266.66666666666663,255.90421211907704L262.5,255.72855777066377L258.33333333333337,255.5332076813379L254.16666666666666,255.31611295907308L250,255.0750400740351L245.83333333333331,254.80755967670578L241.66666666666669,254.51103593612922L237.5,254.1826167624333L233.33333333333334,253.81922536795028L229.16666666666666,253.4175537288337L225,252.97405863692694L220.83333333333334,252.48496118299732L216.66666666666666,251.94625069092197L212.5,251.35369433201038L208.33333333333331,250.70285389371273L204.16666666666669,249.9891114621594L200,249.20770610809936L195.83333333333334,248.35378404560748L191.66666666666666,247.42246516671128L187.5,246.40892934611853L183.33333333333334,245.30852645982745L179.16666666666666,244.11691466749352L175,242.83023216336184L170.83333333333331,241.4453082877606L166.66666666666669,239.9599205798679L162.5,238.37310498991846L158.33333333333334,236.68552696786148L154.16666666666666,234.8999213643596L150,233.0216087924621L145.83333333333334,231.05909494271705L141.66666666666666,229.02475674213076L137.5,226.93561426527822L133.33333333333331,224.8141784232365L129.16666666666669,222.6893491562713L125,220.5973128955569L120.83333333333334,218.58234411552667L116.66666666666667,216.6973408907039L112.5,215.00379474026076L108.33333333333333,213.5706655539962L104.16666666666666,212.47121347740278L100,211.77604421644662L95.83333333333333,211.5390371311355L91.66666666666667,211.76945571742476L87.5,212.36519032556726L83.33333333333334,213.29266007970372L79.16666666666667,214.5055381241064L75,215.9408061029914L70.83333333333333,217.4991448091294L66.66666666666666,219.1126149637508L62.5,220.63063031228452L58.333333333333336,221.86318127141385L54.166666666666664,222.57167346051617L50,222.43965291086428L45.833333333333336,221.15425187187722L41.66666666666667,218.2518640932222L37.5,213.16548582625668L33.33333333333333,205.2037707543626Z" fill="rgb(129,139,129)" stroke="rgb(119,153,119)"/></g><g><path d="M37.5,213.16548582625666L41.66666666666667,218.25186409322222L45.833333333333336,221.15425187187725L50,222.4396529108643L54.166666666666664,222.57167346051622L58.333333333333336,221.86318127141385L62.5,220.63063031228455L66.66666666666666,219.1126149637508L70.83333333333333,217.4991448091294L75,215.94080610299133L79.16666666666667,214.50553812410647L83.33333333333334,213.29266007970375L87.5,212.36519032556726L91.66666666666667,211.76945571742476L95.83333333333333,211.53903713113547L100,211.77604421644665L104.16666666666666,212.47121347740278L108.33333333333333,213.57066555399626L112.5,215.00379474026073L116.66666666666667,216.6973408907039L120.83333333333334,218.58234411552664L125,220.5973128955569L129.16666666666669,222.68934915627128L133.33333333333331,224.8141784232365L137.5,226.93561426527822L141.66666666666666,229.02475674213082L145.83333333333334,231.05909494271708L150,233.02160879246208L154.16666666666666,234.8999213643596L158.33333333333334,236.68552696786145L162.5,238.37310498991843L166.66666666666669,239.95992057986788L170.83333333333331,241.44530828776058L175,242.83023216336187L179.16666666666666,244.11691466749352L183.33333333333334,245.30852645982748L187.5,246.40892934611847L191.66666666666666,247.4224651667113L195.83333333333334,248.35378404560748L200,249.20770610809936L204.16666666666669,249.98911146215937L208.33333333333331,250.70285389371276L212.5,251.3536943320104L216.66666666666666,251.946250690922L220.83333333333334,252.48496118299735L225,252.9740586369269L229.16666666666666,253.41755372883367L233.33333333333334,253.81922536795028L237.5,254.18261676243324L241.66666666666669,254.5110359361292L245.83333333333331,254.80755967670584L250,255.07504007403506L254.16666666666666,255.31611295907314L258.33333333333337,255.53320768133793L262.5,255.7285577706637L266.66666666666663,255.90421211907702L270.8333333333333,256.0620463938988L275,256.2037744557318L279.1666666666667,256.3309596067434L283.3333333333333,256.44502553726096L287.5,256.54726687357083L291.6666666666667,256.6388592581954L295.83333333333337,256.72086891683875L300,256.7942616845592L300,256.8526164807012L295.83333333333337,256.78648430750695L291.6666666666667,256.71261926874854L287.5,256.63016000162025L283.3333333333333,256.53815657038194L279.1666666666667,256.43556268599025L275,256.3212274999216L270.8333333333333,256.1938870070812L266.66666666666663,256.05215511084447L262.5,255.89451442577004L258.33333333333337,255.7193069212097L254.16666666666666,255.5247245428862L250,255.3087999906657L245.83333333333331,255.06939788053683L241.66666666666669,254.80420657875982L237.5,254.51073106803472L233.33333333333334,254.18628729137654L229.16666666666666,253.82799852149958L225,253.4327944245158L220.83333333333334,252.99741362959054L216.66666666666666,252.51841078414958L212.5,251.99216927090453L208.33333333333331,251.41492099222526L204.16666666666669,250.7827748933581L200,250.0917562027905L195.83333333333334,249.33785871968567L191.66666666666666,248.51711287813717L187.5,247.6256727682176L183.33333333333334,246.6599257944813L179.16666666666666,245.61662920015624L175,244.4930782703492L170.83333333333331,243.28731163153174L166.66666666666669,241.9983596542845L162.5,240.62654248612347L158.33333333333334,239.17382460060315L154.16666666666666,237.64423280256727L150,236.04434414643657L145.83333333333334,234.38384883794714L141.66666666666666,232.67619031485359L137.5,230.93927939865947L133.33333333333331,229.1962701482654L129.16666666666669,227.4763693011787L125,225.81562470341228L120.83333333333334,224.2575935699824L116.66666666666667,222.85371578749633L112.5,221.66308699184594L108.33333333333333,220.75109567040082L104.16666666666666,220.18596845734064L100,220.0314710098809L95.83333333333333,220.33242316551863L91.66666666666667,221.08631544411423L87.5,222.175962024901L83.33333333333334,223.54869989543874L79.16666666666667,225.13427805243296L75,226.83991894000226L70.83333333333333,228.529531283787L66.66666666666666,230.08999577674697L62.5,231.31548778058553L58.333333333333336,231.94875083209212L54.166666666666664,231.66963335620574L50,230.06309973181516L45.833333333333336,226.69747883623472L41.66666666666667,220.9663763473301L37.5,213.16548582625666Z" fill="rgb(133,146,133)" stroke="rgb(119,153,119)"/></g><g><path d="M41.66666666666667,220.9663763473301L45.833333333333336,226.69747883623472L50,230.06309973181516L54.166666666666664,231.6696333562057L58.333333333333336,231.9487508320921L62.5,231.3154877805855L66.66666666666666,230.08999577674695L70.83333333333333,228.52953128378698L75,226.8399189400023L79.16666666666667,225.1342780524329L83.33333333333334,223.54869989543874L87.5,222.175962024901L91.66666666666667,221.08631544411423L95.83333333333333,220.3324231655186L100,220.0314710098809L104.16666666666666,220.18596845734066L108.33333333333333,220.75109567040073L112.5,221.66308699184597L116.66666666666667,222.8537157874963L120.83333333333334,224.25759356998236L125,225.8156247034123L129.16666666666669,227.4763693011787L133.33333333333331,229.1962701482654L137.5,230.9392793986595L141.66666666666666,232.67619031485356L145.83333333333334,234.3838488379472L150,236.04434414643654L154.16666666666666,237.64423280256727L158.33333333333334,239.1738246006031L162.5,240.62654248612347L166.66666666666669,241.99835965428457L170.83333333333331,243.2873116315318L175,244.4930782703492L179.16666666666666,245.61662920015624L183.33333333333334,246.65992579448127L187.5,247.6256727682176L191.66666666666666,248.51711287813714L195.83333333333334,249.3378587196857L200,250.0917562027905L204.16666666666669,250.78277489335815L208.33333333333331,251.41492099222523L212.5,251.99216927090453L216.66666666666666,252.5184107841496L220.83333333333334,252.9974136295905L225,253.43279442451586L229.16666666666666,253.82799852149955L233.33333333333334,254.18628729137654L237.5,254.51073106803474L241.66666666666669,254.80420657875982L245.83333333333331,255.06939788053677L250,255.30879999066573L254.16666666666666,255.5247245428862L258.33333333333337,255.71930692120964L262.5,255.8945144257701L266.66666666666663,256.0521551108445L270.8333333333333,256.1938870070812L275,256.3212274999215L279.1666666666667,256.4355626859903L283.3333333333333,256.53815657038194L287.5,256.6301600016203L291.6666666666667,256.71261926874854L295.83333333333337,256.78648430750695L300,256.8526164807012L300,256.92018125891434L295.83333333333337,256.86243059435895L291.6666666666667,256.7979634796612L287.5,256.72603798670156L283.3333333333333,256.6458370070621L279.1666666666667,256.5564618623377L275,256.4569256128923L270.8333333333333,256.34614610710946L266.66666666666663,256.2229388308476L262.5,256.08600963853655L258.33333333333337,255.9339474739057L254.16666666666666,255.76521722061543L250,255.5781528621002L245.83333333333331,255.37095117694312L241.66666666666669,255.14166625244934L237.5,254.88820516638575L233.33333333333334,254.60832526690547L229.16666666666666,254.2996335755464L225,253.95958895021124L220.83333333333334,253.5855077767895L216.66666666666666,253.17457411243885L212.5,252.72385538360777L208.33333333333331,252.230324950967L204.16666666666669,251.69089309492182L200,251.10244825265332L195.83333333333334,250.46191065369834L191.66666666666666,249.7663008581941L187.5,249.01282610097704L183.33333333333334,248.19898778422962L179.16666666666666,247.32271393595857L175,246.38252094972938L170.83333333333331,245.37770942165056L166.66666666666669,244.3085993675643L162.5,243.17681047772635L158.33333333333334,241.9855932533189L154.16666666666666,240.74021671904774L150,239.44841768238982L145.83333333333334,238.12091483955763L141.66666666666666,236.77198781853218L137.5,235.42011555176725L133.33333333333331,234.08865864603013L129.16666666666669,232.80655412614752L125,231.60896380413035L120.83333333333334,230.53777221376365L116.66666666666667,229.64175353800465L112.5,228.97609544376002L108.33333333333333,228.6007360433239L104.16666666666666,228.57654870240236L100,228.95761097384658L95.83333333333333,229.77620330739668L91.66666666666667,231.01380928045396L87.5,232.53303451044846L83.33333333333334,234.25593288104716L79.16666666666667,236.08085928471388L75,237.87630217514555L70.83333333333333,239.45864128101272L66.66666666666666,240.65671240072254L62.5,241.19409723027798L58.333333333333336,240.72799802591487L54.166666666666664,238.8349464619436L50,234.97548425028305L45.833333333333336,228.56849280629797L41.66666666666667,220.9663763473301Z" fill="rgb(136,153,136)" stroke="rgb(119,153,119)"/></g><g><path d="M45.833333333333336,228.56849280629797L50,234.97548425028305L54.166666666666664,238.83494646194362L58.333333333333336,240.7279980259149L62.5,241.19409723027798L66.66666666666666,240.65671240072254L70.83333333333333,239.45864128101272L75,237.87630217514555L79.16666666666667,236.08085928471394L83.33333333333334,234.25593288104716L87.5,232.5330345104485L91.66666666666667,231.01380928045398L95.83333333333333,229.77620330739674L100,228.9576109738466L104.16666666666666,228.57654870240236L108.33333333333333,228.60073604332393L112.5,228.97609544375996L116.66666666666667,229.64175353800468L120.83333333333334,230.53777221376367L125,231.60896380413038L129.16666666666669,232.80655412614755L133.33333333333331,234.0886586460301L137.5,235.42011555176725L141.66666666666666,236.7719878185322L145.83333333333334,238.12091483955757L150,239.44841768238982L154.16666666666666,240.74021671904774L158.33333333333334,241.98559325331894L162.5,243.17681047772632L166.66666666666669,244.3085993675643L170.83333333333331,245.3777094216505L175,246.38252094972938L179.16666666666666,247.32271393595857L183.33333333333334,248.1989877842296L187.5,249.01282610097707L191.66666666666666,249.76630085819414L195.83333333333334,250.46191065369837L200,251.1024482526533L204.16666666666669,251.69089309492176L208.33333333333331,252.23032495096703L212.5,252.72385538360774L216.66666666666666,253.1745741124388L220.83333333333334,253.58550777678948L225,253.95958895021124L229.16666666666666,254.29963357554647L233.33333333333334,254.60832526690547L237.5,254.88820516638577L241.66666666666669,255.14166625244937L245.83333333333331,255.37095117694318L250,255.57815286210018L254.16666666666666,255.7652172206154L258.33333333333337,255.93394747390573L262.5,256.08600963853655L266.66666666666663,256.2229388308476L270.8333333333333,256.34614610710946L275,256.4569256128923L279.1666666666667,256.5564618623377L283.3333333333333,256.6458370070621L287.5,256.72603798670156L291.6666666666667,256.7979634796612L295.83333333333337,256.8624305943589L300,256.92018125891434L300,256.9983772889253L295.83333333333337,256.9502968134477L291.6666666666667,256.89666763693765L287.5,256.8368842193222L283.3333333333333,256.7702809903453L279.1666666666667,256.6961275070083L275,256.61362344258526L270.8333333333333,256.5218934557651L266.66666666666663,256.4199820052798L262.5,256.30684819587555L258.33333333333337,256.1813607663431L254.16666666666666,256.04229336033575L250,255.88832025677215L245.83333333333331,255.71801277980165L241.66666666666669,255.52983665979434L237.5,255.32215067798793L233.33333333333334,255.09320699982746L229.16666666666666,254.8411536874315L225,254.56403998196225L220.83333333333334,254.25982506413607L216.66666666666666,253.92639113802207L212.5,253.56156184216337L208.33333333333331,253.16312717549093L204.16666666666669,252.72887633606447L200,252.25664011071572L195.83333333333334,251.74434472503748L191.66666666666666,251.19007936676996L187.5,250.59217993074702L183.33333333333334,249.9493318968035L179.16666666666666,249.26069563583474L175,248.52605782940896L170.83333333333331,247.74601306080962L166.66666666666669,246.922179950525L162.5,246.05745640382372L158.33333333333334,245.15631851266238L154.16666666666666,244.22516725317672L150,243.27272610035354L145.83333333333334,242.31049066215846L141.66666666666666,241.35322781498357L137.5,240.4195156413738L133.33333333333331,239.53230517794984L129.16666666666669,238.7194680237281L125,238.01426595090388L120.83333333333334,237.45563243063714L116.66666666666667,237.0880783975294L112.5,236.96090180325436L108.33333333333333,237.12614733901412L104.16666666666666,237.63433948088317L100,238.52621155279522L95.83333333333333,239.81706051407608L91.66666666666667,241.4669805175409L87.5,243.31187048238692L83.33333333333334,245.24067864308378L79.16666666666667,247.11097322580244L75,248.74125738782251L70.83333333333333,249.8869326606323L66.66666666666666,250.3027447702716L62.5,249.6225736632976L58.333333333333336,247.39536201205036L54.166666666666664,243.06735508639667L50,235.94270035076505L45.833333333333336,228.56849280629797Z" fill="rgb(139,160,139)" stroke="rgb(119,153,119)"/></g><g><path d="M54.166666666666664,243.06735508639667L58.333333333333336,247.39536201205038L62.5,249.6225736632976L66.66666666666666,250.30274477027154L70.83333333333333,249.88693266063228L75,248.7412573878225L79.16666666666667,247.1109732258024L83.33333333333334,245.2406786430838L87.5,243.3118704823869L91.66666666666667,241.46698051754086L95.83333333333333,239.8170605140761L100,238.52621155279516L104.16666666666666,237.6343394808832L108.33333333333333,237.12614733901415L112.5,236.9609018032544L116.66666666666667,237.0880783975294L120.83333333333334,237.45563243063708L125,238.01426595090385L129.16666666666669,238.71946802372807L133.33333333333331,239.53230517794987L137.5,240.4195156413738L141.66666666666666,241.3532278149836L145.83333333333334,242.31049066215843L150,243.27272610035354L154.16666666666666,244.22516725317672L158.33333333333334,245.1563185126624L162.5,246.05745640382372L166.66666666666669,246.92217995052494L170.83333333333331,247.74601306080967L175,248.52605782940896L179.16666666666666,249.26069563583474L183.33333333333334,249.94933189680356L187.5,250.59217993074702L191.66666666666666,251.19007936677L195.83333333333334,251.74434472503742L200,252.25664011071575L204.16666666666669,252.7288763360645L208.33333333333331,253.16312717549093L212.5,253.5615618421634L216.66666666666666,253.92639113802207L220.83333333333334,254.2598250641361L225,254.56403998196225L229.16666666666666,254.84115368743147L233.33333333333334,255.0932069998275L237.5,255.32215067798788L241.66666666666669,255.52983665979428L245.83333333333331,255.71801277980163L250,255.88832025677218L254.16666666666666,256.04229336033575L258.33333333333337,256.1813607663431L262.5,256.30684819587555L266.66666666666663,256.4199820052798L270.8333333333333,256.5218934557651L275,256.61362344258526L279.1666666666667,256.6961275070083L283.3333333333333,256.7702809903454L287.5,256.8368842193222L291.6666666666667,256.89666763693765L295.83333333333337,256.9502968134477L300,256.9983772889253L300,257.0888384335493L295.83333333333337,257.0519085775973L291.6666666666667,257.0107705637621L287.5,256.9649744143173L283.3333333333333,256.9140272259162L279.1666666666667,256.8573900416177L275,256.794474695625L270.8333333333333,256.72464068466894L266.66666666666663,256.64719213544015L262.5,256.5613749561435L258.33333333333337,256.46637428267763L254.16666666666666,256.36131235678516L250,256.24524700551984L245.83333333333331,256.11717092939665L241.66666666666669,255.97601205159424L237.5,255.82063523367606L233.33333333333334,255.64984572571262L229.16666666666666,255.4623947918006L225,255.25698803728733L220.83333333333334,255.03229706314912L216.66666666666666,254.78697518766074L212.5,254.51967810749082L208.33333333333331,254.2290905213776L204.16666666666669,253.91395991112338L200,253.57313886792508L195.83333333333334,253.20563756746762L191.66666666666666,252.81068823397501L187.5,252.38782368884432L183.33333333333334,251.9369723479076L179.16666666666666,251.45857230248285L175,250.95370737591998L170.83333333333331,250.42426826144387L166.66666666666669,249.87314197483252L162.5,249.30443282859173L158.33333333333334,248.72371784738766L154.16666666666666,248.1383388350999L150,247.5577319208128L145.83333333333334,246.9937929639835L141.66666666666666,246.4612730755019L137.5,245.97819173919794L133.33333333333331,245.5662440310078L129.16666666666669,245.25116066056577L125,245.06295069648775L120.83333333333334,245.0359094875205L116.66666666666667,245.20819539172615L112.5,245.62064461801265L108.33333333333333,246.31425851835718L104.16666666666666,247.32537234462666L100,248.67671157201352L95.83333333333333,250.36094603870518L91.66666666666667,252.30997214638015L87.5,254.3247916620801L83.33333333333334,256.25141882740456L79.16666666666667,257.8948683646157L75,259.00959976847435L70.83333333333333,259.2732721727928L66.66666666666666,258.34658532269924L62.5,255.7500003702148L58.333333333333336,250.8960552882222L54.166666666666664,243.06735508639667Z" fill="rgb(143,167,143)" stroke="rgb(119,153,119)"/></g><g><path d="M58.333333333333336,250.89605528822216L62.5,255.75000037021476L66.66666666666666,258.34658532269924L70.83333333333333,259.2732721727928L75,259.00959976847435L79.16666666666667,257.8948683646157L83.33333333333334,256.25141882740456L87.5,254.3247916620801L91.66666666666667,252.30997214638018L95.83333333333333,250.36094603870512L100,248.67671157201357L104.16666666666666,247.32537234462666L108.33333333333333,246.3142585183572L112.5,245.62064461801265L116.66666666666667,245.20819539172612L120.83333333333334,245.03590948752054L125,245.06295069648772L129.16666666666669,245.2511606605658L133.33333333333331,245.56624403100778L137.5,245.97819173919794L141.66666666666666,246.46127307550188L145.83333333333334,246.99379296398354L150,247.5577319208128L154.16666666666666,248.13833883509986L158.33333333333334,248.7237178473876L162.5,249.30443282859179L166.66666666666669,249.87314197483258L170.83333333333331,250.42426826144384L175,250.95370737592L179.16666666666666,251.45857230248282L183.33333333333334,251.93697234790758L187.5,252.3878236888443L191.66666666666666,252.810688233975L195.83333333333334,253.20563756746765L200,253.57313886792508L204.16666666666669,253.91395991112338L208.33333333333331,254.2290905213776L212.5,254.51967810749085L216.66666666666666,254.78697518766074L220.83333333333334,255.03229706314912L225,255.2569880372873L229.16666666666666,255.46239479180062L233.33333333333334,255.64984572571262L237.5,255.8206352336761L241.66666666666669,255.97601205159427L245.83333333333331,256.1171709293966L250,256.24524700551984L254.16666666666666,256.3613123567851L258.33333333333337,256.46637428267763L262.5,256.5613749561435L266.66666666666663,256.64719213544015L270.8333333333333,256.72464068466894L275,256.794474695625L279.1666666666667,256.8573900416177L283.3333333333333,256.91402722591613L287.5,256.9649744143173L291.6666666666667,257.01077056376215L295.83333333333337,257.0519085775974L300,257.0888384335493L300,257.19344151279614L295.83333333333337,257.1693616217872L291.6666666666667,257.1426111769445L287.5,257.11291740608476L283.3333333333333,257.0799838810225L279.1666666666667,257.0434892814894L275,257.00308627943804L270.8333333333333,256.9584006012996L266.66666666666663,256.9090303392711L262.5,256.8545455987741L258.33333333333337,256.79448858827914L254.16666666666666,256.72837428021137L250,256.6556917981857L245.83333333333331,256.5759067169855L241.66666666666669,256.48846449818745L237.5,256.3927953269037L233.33333333333334,256.2883206646067L229.16666666666666,256.1744618903131L225,256.050651468486L220.83333333333334,255.91634715784028L216.66666666666666,255.77104986173893L212.5,255.6143258189167L208.33333333333331,255.44583394347674L204.16666666666669,255.2653592457772L200,255.0728534005878L195.83333333333334,254.86848367445498L191.66666666666666,254.65269157774614L187.5,254.42626276326092L183.33333333333334,254.19040984411262L179.16666666666666,253.94686993522453L175,253.69801881412766L170.83333333333331,253.44700361541834L166.66666666666669,253.19789587006264L162.5,252.95586640131455L158.33333333333334,252.72738298076885L154.16666666666666,252.52043056012872L150,252.34475206572023L145.83333333333334,252.2121047718389L141.66666666666666,252.13652252995763L137.5,252.13456663599035L133.33333333333331,252.225536282593L129.16666666666669,252.43159077697035L125,252.77770567642557L120.83333333333334,253.2913362809548L116.66666666666667,254.00158142610928L112.5,254.93750434470212L108.33333333333333,256.12503021769095L104.16666666666666,257.58141216036165L100,259.30545150034004L95.83333333333333,261.260058875716L91.66666666666667,263.34035862103775L87.5,265.30217247507625L83.33333333333334,266.9362762957055L79.16666666666667,267.980437925294L75,268.10755966416383L70.83333333333333,266.89671899374366L66.66666666666666,263.8898122870567L62.5,258.46451262432265L58.333333333333336,250.89605528822216Z" fill="rgb(146,173,146)" stroke="rgb(119,153,119)"/></g><g><path d="M62.5,258.46451262432265L66.66666666666666,263.8898122870567L70.83333333333333,266.89671899374366L75,268.10755966416383L79.16666666666667,267.98043792529404L83.33333333333334,266.9362762957055L87.5,265.30217247507625L91.66666666666667,263.34035862103775L95.83333333333333,261.2600588757161L100,259.30545150034004L104.16666666666666,257.58141216036165L108.33333333333333,256.12503021769095L112.5,254.9375043447021L116.66666666666667,254.00158142610928L120.83333333333334,253.2913362809548L125,252.77770567642563L129.16666666666669,252.43159077697032L133.33333333333331,252.22553628259303L137.5,252.13456663599032L141.66666666666666,252.1365225299576L145.83333333333334,252.2121047718389L150,252.34475206572023L154.16666666666666,252.52043056012874L158.33333333333334,252.72738298076888L162.5,252.95586640131452L166.66666666666669,253.1978958700626L170.83333333333331,253.4470036154183L175,253.69801881412764L179.16666666666666,253.9468699352245L183.33333333333334,254.19040984411262L187.5,254.42626276326098L191.66666666666666,254.6526915777462L195.83333333333334,254.86848367445498L200,255.07285340058777L204.16666666666669,255.2653592457772L208.33333333333331,255.44583394347669L212.5,255.61432581891668L216.66666666666666,255.77104986173896L220.83333333333334,255.91634715784025L225,256.0506514684861L229.16666666666666,256.17446189031307L233.33333333333334,256.2883206646067L237.5,256.3927953269037L241.66666666666669,256.48846449818745L245.83333333333331,256.5759067169855L250,256.6556917981857L254.16666666666666,256.72837428021137L258.33333333333337,256.79448858827914L262.5,256.8545455987741L266.66666666666663,256.9090303392711L270.8333333333333,256.9584006012996L275,257.0030862794381L279.1666666666667,257.0434892814894L283.3333333333333,257.07998388102254L287.5,257.11291740608476L291.6666666666667,257.1426111769445L295.83333333333337,257.1693616217871L300,257.1934415127962L300,257.3143406891436L295.83333333333337,257.3050597347579L291.6666666666667,257.2948702769728L287.5,257.28370112608786L283.3333333333333,257.27147909378897L279.1666666666667,257.2581298341855L275,257.2435789571673L270.8333333333333,257.2277534727341L266.66666666666663,257.2105836356775L262.5,257.19200527246363L258.33333333333337,257.17196268663014L254.16666666666666,257.1504122557403L250,257.1273268522326L245.83333333333331,257.1027012426809L241.66666666666669,257.07655864538646L237.5,257.0489586551929L233.33333333333334,257.02000677730996L229.16666666666666,256.98986584905487L225,256.9587696700497L220.83333333333334,256.92703920770305L216.66666666666666,256.8951017957516L212.5,256.86351379897366L208.33333333333331,256.8329872762361L204.16666666666669,256.8044212355255L200,256.7789381363901L195.83333333333334,256.75792635383516L191.66666666666666,256.74308936786497L187.5,256.7365024765407L183.33333333333334,256.7406778357155L179.16666666666666,256.7586385879403L175,256.7940027306081L170.83333333333331,256.85107715137156L166.66666666666669,256.93496187167307L162.5,257.0516639049932L158.33333333333334,257.20821913387664L154.16666666666666,257.4128190578935L150,257.6749368906891L145.83333333333334,258.00544387255695L141.66666666666666,258.4167011737389L137.5,258.9226043864987L133.33333333333331,259.53854473450707L129.16666666666669,260.28123114989353L125,261.1682859214873L120.83333333333334,262.2174762449205L116.66666666666667,263.4453615679874L112.5,264.8649981810418L108.33333333333333,266.4821027032384L104.16666666666666,268.28864514597007L100,270.25203273262105L95.83333333333333,272.29644211085935L91.66666666666667,274.2694686182635L87.5,275.86888909905184L83.33333333333334,276.814885745398L79.16666666666667,276.7596851191168L75,275.2728727699017L70.83333333333333,271.80910351221155L66.66666666666666,265.76082625711996L62.5,258.46451262432265Z" fill="rgb(150,180,150)" stroke="rgb(119,153,119)"/></g><g><path d="M66.66666666666666,265.76082625711996L70.83333333333333,271.80910351221155L75,275.2728727699017L79.16666666666667,276.7596851191168L83.33333333333334,276.814885745398L87.5,275.86888909905184L91.66666666666667,274.26946861826343L95.83333333333333,272.29644211085935L100,270.25203273262105L104.16666666666666,268.28864514597L108.33333333333333,266.4821027032384L112.5,264.86499818104187L116.66666666666667,263.4453615679874L120.83333333333334,262.2174762449205L125,261.1682859214873L129.16666666666669,260.2812311498935L133.33333333333331,259.538544734507L137.5,258.9226043864987L141.66666666666666,258.4167011737389L145.83333333333334,258.005443872557L150,257.6749368906891L154.16666666666666,257.41281905789344L158.33333333333334,257.2082191338767L162.5,257.0516639049932L166.66666666666669,256.93496187167307L170.83333333333331,256.8510771513716L175,256.7940027306081L179.16666666666666,256.75863858794037L183.33333333333334,256.7406778357155L187.5,256.73650247654075L191.66666666666666,256.7430893678649L195.83333333333334,256.75792635383516L200,256.77893813639014L204.16666666666669,256.8044212355255L208.33333333333331,256.83298727623617L212.5,256.8635137989737L216.66666666666666,256.89510179575166L220.83333333333334,256.92703920770305L225,256.9587696700497L229.16666666666666,256.9898658490549L233.33333333333334,257.02000677730996L237.5,257.04895865519285L241.66666666666669,257.0765586453864L245.83333333333331,257.1027012426809L250,257.1273268522326L254.16666666666666,257.1504122557403L258.33333333333337,257.17196268663014L262.5,257.1920052724637L266.66666666666663,257.2105836356775L270.8333333333333,257.2277534727341L275,257.2435789571673L279.1666666666667,257.2581298341855L283.3333333333333,257.27147909378897L287.5,257.2837011260879L291.6666666666667,257.2948702769728L295.83333333333337,257.3050597347579L300,257.3143406891436L300,257.4540063338142L295.83333333333337,257.46175756445086L291.6666666666667,257.47061762562845L287.5,257.4807443005201L283.3333333333333,257.49231765112796L279.1666666666667,257.5055431266229L275,257.52065509688765L270.8333333333333,257.53792086740606L266.66666666666663,257.55764523853594L262.5,257.58017567980863L258.33333333333337,257.60590819823227L254.16666666666666,257.63529398866234L250,257.6688469641176L245.83333333333331,257.7071522744319L241.66666666666669,257.750875932733L237.5,257.80077568077616L233.33333333333334,257.8577132358656L229.16666666666666,257.9226680735788L225,257.99675291119246L220.83333333333334,258.0812310657655L216.66666666666666,258.17753586709074L212.5,258.28729230754954L208.33333333333331,258.4123411060061L204.16666666666669,258.55476534809947L200,258.7169198362663L195.83333333333334,258.90146323351473L191.66666666666666,259.11139300702405L187.5,259.3500830595014L183.33333333333334,259.6213237618129L179.16666666666666,259.9293638472838L175,260.2789532647371L170.83333333333331,260.67538556933533L166.66666666666669,261.12453769427395L162.5,261.63290390144454L158.33333333333334,262.2076192234832L154.16666666666666,262.8564655898132L150,263.58785078826963L145.83333333333334,264.4107460193305L141.66666666666666,265.33456139061235L137.5,266.36892924602336L133.33333333333331,267.52335109400144L129.16666666666669,268.8066424455837L125,270.22607669996813L120.83333333333334,271.78607682386905L116.66666666666667,273.4862187746667L112.5,275.3181694181288L108.33333333333333,277.2609386751768L104.16666666666666,279.27339090800666L100,281.2821466737095L95.83333333333333,283.1613973235363L91.66666666666667,284.69775999788305L87.5,285.5149214686009L83.33333333333334,285.2433621784176L79.16666666666667,283.42704910525225L75,279.50528139435477L70.83333333333333,272.77631961269356L66.66666666666666,265.76082625711996Z" fill="rgb(153,187,153)" stroke="rgb(119,153,119)"/></g><g><path d="M75,279.50528139435477L79.16666666666667,283.42704910525225L83.33333333333334,285.2433621784176L87.5,285.5149214686009L91.66666666666667,284.69775999788305L95.83333333333333,283.1613973235363L100,281.2821466737095L104.16666666666666,279.27339090800666L108.33333333333333,277.2609386751768L112.5,275.3181694181287L116.66666666666667,273.4862187746667L120.83333333333334,271.78607682386905L125,270.22607669996813L129.16666666666669,268.8066424455837L133.33333333333331,267.52335109400144L137.5,266.3689292460234L141.66666666666666,265.33456139061235L145.83333333333334,264.4107460193305L150,263.58785078826963L154.16666666666666,262.85646558981324L158.33333333333334,262.2076192234832L162.5,261.63290390144454L166.66666666666669,261.12453769427395L170.83333333333331,260.67538556933533L175,260.2789532647371L179.16666666666666,259.9293638472838L183.33333333333334,259.6213237618129L187.5,259.35008305950134L191.66666666666666,259.1113930070241L195.83333333333334,258.90146323351473L200,258.7169198362663L204.16666666666669,258.55476534809947L208.33333333333331,258.41234110600607L212.5,258.28729230754954L216.66666666666666,258.1775358670907L220.83333333333334,258.0812310657655L225,257.9967529111924L229.16666666666666,257.9226680735788L233.33333333333334,257.8577132358656L237.5,257.80077568077616L241.66666666666669,257.75087593273304L245.83333333333331,257.7071522744319L250,257.6688469641176L254.16666666666666,257.63529398866234L258.33333333333337,257.60590819823227L262.5,257.5801756798086L266.66666666666663,257.55764523853594L270.8333333333333,257.53792086740606L275,257.5206550968876L279.1666666666667,257.5055431266229L283.3333333333333,257.492317651128L287.5,257.48074430052003L291.6666666666667,257.4706176256284L295.83333333333337,257.46175756445086L300,257.4540063338142L300,257.6152688684236L295.83333333333337,257.6426088174906L291.6666666666667,257.6733648545322L287.5,257.7079544306804L283.3333333333333,257.74684441139595L279.1666666666667,257.7905566429574L275,257.839674093337L270.8333333333333,257.8948476161537L266.66666666666663,257.95680338813094L262.5,258.02635107160853L258.33333333333337,258.1043927539205L254.16666666666666,258.1919327145475L250,258.29008806848674L245.83333333333331,258.400100329757L241.66666666666669,258.52334793174606L237.5,258.66135973041486L233.33333333333334,258.81582950119304L229.16666666666666,258.98863141946543L225,259.1818364862513L220.83333333333334,259.39772982297484L216.66666666666666,259.6388287095209L212.5,259.90790117475456L208.33333333333331,260.20798486410337L204.16666666666669,260.5424057992035L200,260.9147965029144L195.83333333333334,261.32911278002575L191.66666666666666,261.7896482076583L187.5,262.30104508380896L183.33333333333334,262.86830018658094L179.16666666666666,263.49676318200903L175,264.19212484666025L170.83333333333331,264.9603913897946L166.66666666666669,265.80783999609906L162.5,266.7409491619628L158.33333333333334,267.7662953213073L154.16666666666666,268.89040444287116L150,270.11954342510734L145.83333333333334,271.4594307649144L141.66666666666666,272.9148384474958L137.5,274.48904624022015L133.33333333333331,276.1830939087597L129.16666666666669,277.9947536249267L125,279.9171095637116L120.83333333333334,281.93657684308744L116.66666666666667,284.0301042992958L112.5,286.161161046968L108.33333333333333,288.27385985487L104.16666666666666,290.2841310923274L100,292.0660418125228L95.83333333333333,293.42973970418814L91.66666666666667,294.0840995100436L87.5,293.5587620210286L83.33333333333334,291.3707888853348L79.16666666666667,286.927742381424L75,279.50528139435477Z" fill="rgb(156,194,156)" stroke="rgb(119,153,119)"/></g><g><path d="M79.16666666666667,286.927742381424L83.33333333333334,291.3707888853348L87.5,293.5587620210286L91.66666666666667,294.0840995100436L95.83333333333333,293.42973970418814L100,292.0660418125228L104.16666666666666,290.28413109232747L108.33333333333333,288.27385985487L112.5,286.16116104696806L116.66666666666667,284.0301042992958L120.83333333333334,281.9365768430875L125,279.9171095637116L129.16666666666669,277.9947536249268L133.33333333333331,276.1830939087597L137.5,274.48904624022015L141.66666666666666,272.9148384474958L145.83333333333334,271.4594307649143L150,270.1195434251073L154.16666666666666,268.89040444287116L158.33333333333334,267.7662953213073L162.5,266.7409491619628L166.66666666666669,265.807839996099L170.83333333333331,264.96039138979455L175,264.19212484666025L179.16666666666666,263.496763182009L183.33333333333334,262.86830018658094L187.5,262.30104508380896L191.66666666666666,261.7896482076583L195.83333333333334,261.32911278002575L200,260.9147965029144L204.16666666666669,260.5424057992035L208.33333333333331,260.20798486410337L212.5,259.90790117475456L216.66666666666666,259.6388287095209L220.83333333333334,259.39772982297484L225,259.1818364862513L229.16666666666666,258.9886314194654L233.33333333333334,258.8158295011931L237.5,258.6613597304148L241.66666666666669,258.52334793174606L245.83333333333331,258.400100329757L250,258.2900880684868L254.16666666666666,258.1919327145475L258.33333333333337,258.1043927539205L262.5,258.0263510716086L266.66666666666663,257.95680338813094L270.8333333333333,257.8948476161537L275,257.839674093337L279.1666666666667,257.7905566429574L283.3333333333333,257.74684441139595L287.5,257.70795443068045L291.6666666666667,257.6733648545322L295.83333333333337,257.6426088174906L300,257.6152688684236L300,257.8013681082953L295.83333333333337,257.85122040130364L291.6666666666667,257.9071247711629L287.5,257.9697926345114L283.3333333333333,258.0400150540266L279.1666666666667,258.11867094855893L275,258.2067360167633L270.8333333333333,258.3052924088196L266.66666666666663,258.41553917571986L262.5,258.53880351820175L258.33333333333337,258.67655284714806L254.16666666666666,258.83040765344157L250,259.0021551669993L245.83333333333331,259.19376376095573L241.66666666666669,259.4073980264372L237.5,259.645434404493L233.33333333333334,259.91047721261896L229.16666666666666,260.20537484156455L225,260.53323582090513L220.83333333333334,260.89744435563756L216.66666666666666,261.30167481650824L212.5,261.74990451852574L208.33333333333331,262.24642393852L204.16666666666669,262.79584329540853L200,263.4030941356561L195.83333333333334,264.0734242182334L191.66666666666666,264.81238356163277L187.5,265.625798979039L183.33333333333334,266.5197337593037L179.16666666666666,267.50042831539025L175,268.57421657168913L170.83333333333331,269.747411534702L166.66666666666669,271.0261518039544L162.5,272.41619861641857L158.33333333333334,273.9226702180997L154.16666666666666,275.5496966944564L150,277.29997354151186L145.83333333333334,279.1741857448522L141.66666666666666,281.17026524093006L137.5,283.2824322746033L133.33333333333331,285.4999536354492L129.16666666666669,287.8055253242605L125,290.1731493794466L120.83333333333334,292.56531677141396L116.66666666666667,294.9292171363067L112.5,297.19154752162564L108.33333333333333,299.25124066786617L104.16666666666666,300.9689885606284L100,302.1516113732011L95.83333333333333,302.5276995998776L91.66666666666667,301.70754633099443L87.5,299.1019889853861L83.33333333333334,294.08530113944266L79.16666666666667,286.927742381424Z" fill="rgb(160,201,160)" stroke="rgb(119,153,119)"/></g><g><path d="M83.33333333333334,294.08530113944266L87.5,299.1019889853861L91.66666666666667,301.70754633099443L95.83333333333333,302.5276995998776L100,302.1516113732011L104.16666666666666,300.9689885606284L108.33333333333333,299.25124066786617L112.5,297.19154752162564L116.66666666666667,294.9292171363067L120.83333333333334,292.5653167714139L125,290.1731493794466L129.16666666666669,287.8055253242605L133.33333333333331,285.4999536354492L137.5,283.28243227460325L141.66666666666666,281.17026524093006L145.83333333333334,279.17418574485225L150,277.29997354151186L154.16666666666666,275.5496966944564L158.33333333333334,273.9226702180997L162.5,272.41619861641857L166.66666666666669,271.0261518039544L170.83333333333331,269.747411534702L175,268.57421657168913L179.16666666666666,267.50042831539025L183.33333333333334,266.5197337593037L187.5,265.6257989790391L191.66666666666666,264.8123835616327L195.83333333333334,264.0734242182334L200,263.40309413565603L204.16666666666669,262.79584329540853L208.33333333333331,262.24642393852L212.5,261.74990451852574L216.66666666666666,261.30167481650824L220.83333333333334,260.89744435563756L225,260.53323582090513L229.16666666666666,260.20537484156455L233.33333333333334,259.9104772126189L237.5,259.645434404493L241.66666666666669,259.4073980264372L245.83333333333331,259.19376376095573L250,259.0021551669992L254.16666666666666,258.83040765344157L258.33333333333337,258.67655284714806L262.5,258.53880351820175L266.66666666666663,258.41553917571986L270.8333333333333,258.3052924088196L275,258.2067360167633L279.1666666666667,258.11867094855893L283.3333333333333,258.0400150540266L287.5,257.96979263451135L291.6666666666667,257.9071247711629L295.83333333333337,257.8512204013037L300,257.8013681082953L300,258.01600866099136L295.83333333333337,258.0917130790329L291.6666666666667,258.1764776425974L287.5,258.27134593091773L283.3333333333333,258.3774747277161L279.1666666666667,258.49614504690993L275,258.6287739922922L270.8333333333333,258.77692746286647L266.66666666666663,258.94233370141524L262.5,259.12689766540075L258.33333333333337,259.33271617543727L254.16666666666666,259.5620937661448L250,259.817559125741L245.83333333333331,260.10188196251937L241.66666666666669,260.4180900763L237.5,260.76948633850566L233.33333333333334,261.1596651926759L229.16666666666666,261.592528174324L225,262.0722978106535L220.83333333333334,262.6035290914399L216.66666666666666,263.1911174958884L212.5,263.8403023086445L208.33333333333331,264.55666365179974L204.16666666666669,265.3461112870114L200,266.2148627883719L195.83333333333334,267.1694081347139L191.66666666666666,268.216457097586L187.5,269.36286498064953L183.33333333333334,270.6155312629823L179.16666666666666,271.981264468498L175,273.46660506945386L170.83333333333331,275.07759635967085L166.66666666666669,276.8194909046724L162.5,278.6963772601999L158.33333333333334,280.71070796860806L154.16666666666666,282.8627051463704L150,285.14961391443506L145.83333333333334,287.56476598991395L141.66666666666666,290.09640520489575L137.5,292.72621241648136L133.33333333333331,295.4274474717889L129.16666666666669,298.16259780980795L125,300.880382365055L120.83333333333334,303.5118980036949L116.66666666666667,305.96560037144997L112.5,308.1206575188514L108.33333333333333,309.81795729184176L104.16666666666666,310.8475980103209L100,310.9308585670239L95.83333333333333,309.6930127056155L91.66666666666667,306.6199308494623L87.5,300.9730029554493L83.33333333333334,294.08530113944266Z" fill="rgb(163,207,163)" stroke="rgb(119,153,119)"/></g><g><path d="M87.5,300.9730029554493L91.66666666666667,306.6199308494624L95.83333333333333,309.69301270561556L100,310.9308585670239L104.16666666666666,310.8475980103209L108.33333333333333,309.81795729184176L112.5,308.1206575188513L116.66666666666667,305.96560037145L120.83333333333334,303.51189800369497L125,300.88038236505497L129.16666666666669,298.16259780980795L133.33333333333331,295.4274474717889L137.5,292.7262124164814L141.66666666666666,290.09640520489575L145.83333333333334,287.56476598991395L150,285.14961391443506L154.16666666666666,282.8627051463704L158.33333333333334,280.7107079686081L162.5,278.6963772601999L166.66666666666669,276.8194909046725L170.83333333333331,275.07759635967085L175,273.46660506945386L179.16666666666666,271.98126446849807L183.33333333333334,270.6155312629823L187.5,269.3628649806494L191.66666666666666,268.216457097586L195.83333333333334,267.1694081347139L200,266.2148627883719L204.16666666666669,265.3461112870114L208.33333333333331,264.5566636517998L212.5,263.8403023086445L216.66666666666666,263.1911174958884L220.83333333333334,262.6035290914399L225,262.0722978106534L229.16666666666666,261.592528174324L233.33333333333334,261.1596651926759L237.5,260.76948633850566L241.66666666666669,260.41809007629996L245.83333333333331,260.10188196251937L250,259.81755912574107L254.16666666666666,259.5620937661448L258.33333333333337,259.33271617543727L262.5,259.12689766540075L266.66666666666663,258.94233370141524L270.8333333333333,258.77692746286647L275,258.6287739922922L279.1666666666667,258.49614504690993L283.3333333333333,258.3774747277161L287.5,258.27134593091773L291.6666666666667,258.1764776425974L295.83333333333337,258.0917130790329L300,258.01600866099136L300,258.26342195342875L295.83333333333337,258.36878921875325L291.6666666666667,258.48664503726934L287.5,258.6184075337762L283.3333333333333,258.76564513506105L279.1666666666667,258.93009055851206L275,259.11365572521424L270.8333333333333,259.3184475747515L266.66666666666663,259.54678473316625L262.5,259.80121495274733L258.33333333333337,260.0845332010206L254.16666666666666,260.39980022470047L250,260.75036135026494L245.83333333333331,261.1398652036621L241.66666666666669,261.5722819343624L237.5,262.0519204098448L233.33333333333334,262.5834437012517L229.16666666666666,263.17188200409396L225,263.82264192322737L220.83333333333334,264.54151079131606L216.66666666666666,265.334654375568L212.5,266.2086059478036L208.33333333333331,267.17024423476045L204.16666666666669,268.22675721310884L200,269.3855880477153L195.83333333333334,270.65435866884286L191.66666666666666,272.0407655155497L187.5,273.5524408032503L183.33333333333334,275.19677125943366L179.16666666666666,276.9806645581046L175,278.9102516013736L170.83333333333331,280.9905102572514L166.66666666666669,283.22479305144594L162.5,285.61423747707335L158.33333333333334,288.1570328281328L154.16666666666666,290.8475115058648L150,293.6750252101253L145.83333333333334,296.62255676839476L141.66666666666666,299.6650057838443L137.5,302.76706962316075L133.33333333333331,305.88061870887583L129.16666666666669,308.94143378174635L125,311.8651281270916L120.83333333333334,314.54201194478344L116.66666666666667,316.83055558412696L112.5,318.54894889847094L108.33333333333333,319.4639896613908L104.16666666666666,319.2760744433405L100,317.59822255315936L95.83333333333333,313.9254213300686L91.66666666666667,307.5871469499444L87.5,300.9730029554493Z" fill="rgb(167,214,167)" stroke="rgb(119,153,119)"/></g></g></g></svg>
