<svg font-size="10px" font-family="sans-serif" fill="none" stroke="none" stroke-width="1.5" width="400" height="400"><g><a title="0"><path transform="translate(200, 200)" d="M1.2246467991473532e-14,-200A200,200 0 0,1 1.2246467991473532e-14,-200L1.0409497792752502e-14,-170A170,170 0 0,0 1.0409497792752502e-14,-170Z" fill="rgb(31,119,180)" fill-rule="evenodd"/></a><a title="0.8414709848078965"><path transform="translate(200, 200)" d="M1.2246467991473532e-14,-200A200,200 0 0,1 155.32174984417583,-125.99664291298905L132.02348736754945,-107.09714647604069A170,170 0 0,0 1.0409497792752502e-14,-170Z" fill="rgb(174,199,232)" fill-rule="evenodd"/></a><a title="0.9092974268256817"><path transform="translate(200, 200)" d="M155.32174984417583,-125.99664291298905A200,200 0 0,1 192.24355552275065,55.15809423802717L163.40702219433805,46.88438010232309A170,170 0 0,0 132.02348736754945,-107.09714647604069Z" fill="rgb(255,127,14)" fill-rule="evenodd"/></a><a title="0.1411200080598672"><path transform="translate(200, 200)" d="M192.24355552275065,55.15809423802717A200,200 0 0,1 181.91407644664034,83.10998009003428L154.62696497964427,70.64348307652914A170,170 0 0,0 163.40702219433805,46.88438010232309Z" fill="rgb(255,187,120)" fill-rule="evenodd"/></a><a title="0.7568024953079282"><path transform="translate(200, 200)" d="M181.91407644664034,83.10998009003428A200,200 0 0,1 67.16138757458327,188.38616727099847L57.087179438395786,160.12824218034868A170,170 0 0,0 154.62696497964427,70.64348307652914Z" fill="rgb(44,160,44)" fill-rule="evenodd"/></a><a title="0.9589242746631385"><path transform="translate(200, 200)" d="M67.16138757458327,188.38616727099847A200,200 0 0,1 -124.34251614941164,156.64909408494296L-105.69113872699988,133.1517299722015A170,170 0 0,0 57.087179438395786,160.12824218034868Z" fill="rgb(152,223,138)" fill-rule="evenodd"/></a><a title="0.27941549819892586"><path transform="translate(200, 200)" d="M-124.34251614941164,156.64909408494296A200,200 0 0,1 -164.54780596779415,113.68385791828656L-139.86563507262503,96.63127923054358A170,170 0 0,0 -105.69113872699988,133.1517299722015Z" fill="rgb(214,39,40)" fill-rule="evenodd"/></a><a title="0.6569865987187891"><path transform="translate(200, 200)" d="M-164.54780596779415,113.68385791828656A200,200 0 0,1 -199.19559480344614,-17.919682220991078L-169.31625558292922,-15.231729887842414A170,170 0 0,0 -139.86563507262503,96.63127923054358Z" fill="rgb(255,152,150)" fill-rule="evenodd"/></a><a title="0.9893582466233818"><path transform="translate(200, 200)" d="M-199.19559480344614,-17.919682220991078A200,200 0 0,1 -84.37745863251934,-181.32965690894991L-71.72083983764144,-154.13020837260743A170,170 0 0,0 -169.31625558292922,-15.231729887842414Z" fill="rgb(148,103,189)" fill-rule="evenodd"/></a><a title="0.4121184852417566"><path transform="translate(200, 200)" d="M-84.37745863251934,-181.32965690894991A200,200 0 0,1 3.185319639056295e-13,-200L2.707521693197851e-13,-170A170,170 0 0,0 -71.72083983764144,-154.13020837260743Z" fill="rgb(197,176,213)" fill-rule="evenodd"/></a></g><g><text pointer-events="none" x="-35" dy="0.35em" transform="translate(286.025, 19.4462) rotate(-64.5244)" fill="rgb(0,0,0)" text-anchor="end">0.84</text><text pointer-events="none" x="-35" dy="0.35em" transform="translate(395.971, 160.058) rotate(-11.5199)" fill="rgb(0,0,0)" text-anchor="end">0.91</text><text pointer-events="none" x="-35" dy="0.35em" transform="translate(387.6, 269.327) rotate(20.2815)" fill="rgb(0,0,0)" text-anchor="end">0.14</text><text pointer-events="none" x="-35" dy="0.35em" transform="translate(335.205, 347.376) rotate(47.4662)" fill="rgb(0,0,0)" text-anchor="end">0.76</text><text pointer-events="none" x="35" dy="0.35em" transform="translate(167.301, 397.309) rotate(279.41)" fill="rgb(0,0,0)">0.96</text><text pointer-events="none" x="35" dy="0.35em" transform="translate(53.9661, 336.653) rotate(316.901)" fill="rgb(0,0,0)">0.28</text><text pointer-events="none" x="35" dy="0.35em" transform="translate(6.59062, 250.92) rotate(345.25)" fill="rgb(0,0,0)">0.66</text><text pointer-events="none" x="35" dy="0.35em" transform="translate(36.3567, 85.0179) rotate(395.093)" fill="rgb(0,0,0)">0.99</text><text pointer-events="none" x="35" dy="0.35em" transform="translate(156.791, 4.72336) rotate(437.523)" fill="rgb(0,0,0)">0.41</text></g></svg>
