<svg font-size="10px" font-family="sans-serif" fill="none" stroke="none" stroke-width="1.5" width="400" height="400"><g><path transform="translate(200, 200)" d="M1.2246467991473532e-14,-200A200,200 0 0,1 1.2246467991473532e-14,-200L0,0Z" fill="rgb(31,119,180)" fill-rule="evenodd"/><path transform="translate(200, 200)" d="M1.2246467991473532e-14,-200A200,200 0 0,1 117.55705045849463,-161.80339887498948L0,0Z" fill="rgb(174,199,232)" fill-rule="evenodd"/><path transform="translate(200, 200)" d="M117.55705045849463,-161.80339887498948A200,200 0 0,1 190.2113032590307,61.803398874989476L0,0Z" fill="rgb(255,127,14)" fill-rule="evenodd"/><path transform="translate(200, 200)" d="M190.2113032590307,61.803398874989476A200,200 0 0,1 -117.5570504584946,161.80339887498948L0,0Z" fill="rgb(255,187,120)" fill-rule="evenodd"/><path transform="translate(200, 200)" d="M-117.5570504584946,161.80339887498948A200,200 0 0,1 -3.6739403974420595e-14,-200L0,0Z" fill="rgb(44,160,44)" fill-rule="evenodd"/></g><g><text pointer-events="none" x="-3" dy="0.35em" transform="translate(200) rotate(-90)" fill="rgb(0,0,0)" text-anchor="end">outer</text><text pointer-events="none" x="3" dy="0.35em" transform="translate(200, 200) rotate(-72)" fill="rgb(0,0,0)">inner</text><text pointer-events="none" y="3" dy="0.71em" transform="translate(258.779, 119.098) rotate(-54)" fill="rgb(0,0,0)" text-anchor="middle">start</text><text pointer-events="none" dy="0.35em" transform="translate(230.902, 295.106) rotate(72)" fill="rgb(0,0,0)" text-anchor="middle">center</text><text pointer-events="none" y="-3" transform="translate(200, 100) rotate(270)" fill="rgb(0,0,0)" text-anchor="middle">end</text></g></svg>
